<?xml version="1.0" encoding="UTF-8" standalone="no"?><svg xmlns="http://www.w3.org/2000/svg" xmlns:xlink="http://www.w3.org/1999/xlink" clip-rule="evenodd" stroke-miterlimit="10" viewBox="0 0 403 79"><desc>SVG generated by Keynote</desc><defs></defs><g transform="matrix(1.00, 0.00, -0.00, -1.00, 0.0, 79.0)"><text xml:space="preserve" font-family="Menlo-Regular,Menlo" font-size="17.0" fill="#000000" transform="matrix(1.00, 0.00, -0.00, -1.00, 1.6, 63.4)">a</text><text xml:space="preserve" font-family="Menlo-Regular,Menlo" font-size="17.0" fill="#000000" transform="matrix(1.00, 0.00, -0.00, -1.00, 11.8, 63.4)">b</text><text xml:space="preserve" font-family="Menlo-Regular,Menlo" font-size="17.0" fill="#000000" transform="matrix(1.00, 0.00, -0.00, -1.00, 22.0, 63.4)">s</text><text xml:space="preserve" font-family="Menlo-Regular,Menlo" font-size="17.0" fill="#000000" transform="matrix(1.00, 0.00, -0.00, -1.00, 32.3, 63.4)">t</text><text xml:space="preserve" font-family="Menlo-Regular,Menlo" font-size="17.0" fill="#000000" transform="matrix(1.00, 0.00, -0.00, -1.00, 42.5, 63.4)">r</text><text xml:space="preserve" font-family="Menlo-Regular,Menlo" font-size="17.0" fill="#000000" transform="matrix(1.00, 0.00, -0.00, -1.00, 52.7, 63.4)">a</text><text xml:space="preserve" font-family="Menlo-Regular,Menlo" font-size="17.0" fill="#000000" transform="matrix(1.00, 0.00, -0.00, -1.00, 63.0, 63.4)">c</text><text xml:space="preserve" font-family="Menlo-Regular,Menlo" font-size="17.0" fill="#000000" transform="matrix(1.00, 0.00, -0.00, -1.00, 73.2, 63.4)">t</text><text xml:space="preserve" font-family="Menlo-Regular,Menlo" font-size="17.0" fill="#000000" transform="matrix(1.00, 0.00, -0.00, -1.00, 83.5, 63.4)"> </text><text xml:space="preserve" font-family="Menlo-Regular,Menlo" font-size="17.0" fill="#000000" transform="matrix(1.00, 0.00, -0.00, -1.00, 93.7, 63.4)">c</text><text xml:space="preserve" font-family="Menlo-Regular,Menlo" font-size="17.0" fill="#000000" transform="matrix(1.00, 0.00, -0.00, -1.00, 103.9, 63.4)">l</text><text xml:space="preserve" font-family="Menlo-Regular,Menlo" font-size="17.0" fill="#000000" transform="matrix(1.00, 0.00, -0.00, -1.00, 114.2, 63.4)">a</text><text xml:space="preserve" font-family="Menlo-Regular,Menlo" font-size="17.0" fill="#000000" transform="matrix(1.00, 0.00, -0.00, -1.00, 124.4, 63.4)">s</text><text xml:space="preserve" font-family="Menlo-Regular,Menlo" font-size="17.0" fill="#000000" transform="matrix(1.00, 0.00, -0.00, -1.00, 134.6, 63.4)">s</text><text xml:space="preserve" font-family="Menlo-Regular,Menlo" font-size="17.0" fill="#000000" transform="matrix(1.00, 0.00, -0.00, -1.00, 144.9, 63.4)"> </text><text xml:space="preserve" font-family="Menlo-Regular,Menlo" font-size="17.0" fill="#000000" transform="matrix(1.00, 0.00, -0.00, -1.00, 155.1, 63.4)">P</text><text xml:space="preserve" font-family="Menlo-Regular,Menlo" font-size="17.0" fill="#000000" transform="matrix(1.00, 0.00, -0.00, -1.00, 165.3, 63.4)">a</text><text xml:space="preserve" font-family="Menlo-Regular,Menlo" font-size="17.0" fill="#000000" transform="matrix(1.00, 0.00, -0.00, -1.00, 175.6, 63.4)">r</text><text xml:space="preserve" font-family="Menlo-Regular,Menlo" font-size="17.0" fill="#000000" transform="matrix(1.00, 0.00, -0.00, -1.00, 185.8, 63.4)">s</text><text xml:space="preserve" font-family="Menlo-Regular,Menlo" font-size="17.0" fill="#000000" transform="matrix(1.00, 0.00, -0.00, -1.00, 196.1, 63.4)">e</text><text xml:space="preserve" font-family="Menlo-Regular,Menlo" font-size="17.0" fill="#000000" transform="matrix(1.00, 0.00, -0.00, -1.00, 206.3, 63.4)">r</text><text xml:space="preserve" font-family="Menlo-Bold,Menlo" font-weight="bold" font-size="17.0" fill="#000000" transform="matrix(1.00, 0.00, -0.00, -1.00, 216.5, 63.4)">[</text><text xml:space="preserve" font-family="Menlo-Bold,Menlo" font-weight="bold" font-size="17.0" fill="#000000" transform="matrix(1.00, 0.00, -0.00, -1.00, 226.7, 63.4)">T</text><text xml:space="preserve" font-family="Menlo-Bold,Menlo" font-weight="bold" font-size="17.0" fill="#000000" transform="matrix(1.00, 0.00, -0.00, -1.00, 237.0, 63.4)">]</text><text xml:space="preserve" font-family="Menlo-Regular,Menlo" font-size="17.0" fill="#000000" transform="matrix(1.00, 0.00, -0.00, -1.00, 247.2, 63.4)">(</text><text xml:space="preserve" font-family="Menlo-Regular,Menlo" font-size="17.0" fill="#5D603A" transform="matrix(1.00, 0.00, -0.00, -1.00, 257.4, 63.4)">S</text><text xml:space="preserve" font-family="Menlo-Regular,Menlo" font-size="17.0" fill="#5D603A" transform="matrix(1.00, 0.00, -0.00, -1.00, 267.7, 63.4)">t</text><text xml:space="preserve" font-family="Menlo-Regular,Menlo" font-size="17.0" fill="#5D603A" transform="matrix(1.00, 0.00, -0.00, -1.00, 277.9, 63.4)">r</text><text xml:space="preserve" font-family="Menlo-Regular,Menlo" font-size="17.0" fill="#5D603A" transform="matrix(1.00, 0.00, -0.00, -1.00, 288.1, 63.4)">i</text><text xml:space="preserve" font-family="Menlo-Regular,Menlo" font-size="17.0" fill="#5D603A" transform="matrix(1.00, 0.00, -0.00, -1.00, 298.4, 63.4)">n</text><text xml:space="preserve" font-family="Menlo-Regular,Menlo" font-size="17.0" fill="#5D603A" transform="matrix(1.00, 0.00, -0.00, -1.00, 308.6, 63.4)">g</text><text xml:space="preserve" font-family="Menlo-Regular,Menlo" font-size="17.0" fill="#000000" transform="matrix(1.00, 0.00, -0.00, -1.00, 318.8, 63.4)"> </text><text xml:space="preserve" font-family="Menlo-Regular,Menlo" font-size="17.0" fill="#000000" transform="matrix(1.00, 0.00, -0.00, -1.00, 329.1, 63.4)">t</text><text xml:space="preserve" font-family="Menlo-Regular,Menlo" font-size="17.0" fill="#000000" transform="matrix(1.00, 0.00, -0.00, -1.00, 339.3, 63.4)">e</text><text xml:space="preserve" font-family="Menlo-Regular,Menlo" font-size="17.0" fill="#000000" transform="matrix(1.00, 0.00, -0.00, -1.00, 349.6, 63.4)">x</text><text xml:space="preserve" font-family="Menlo-Regular,Menlo" font-size="17.0" fill="#000000" transform="matrix(1.00, 0.00, -0.00, -1.00, 359.8, 63.4)">t</text><text xml:space="preserve" font-family="Menlo-Regular,Menlo" font-size="17.0" fill="#000000" transform="matrix(1.00, 0.00, -0.00, -1.00, 370.0, 63.4)">)</text><text xml:space="preserve" font-family="Menlo-Regular,Menlo" font-size="17.0" fill="#000000" transform="matrix(1.00, 0.00, -0.00, -1.00, 380.3, 63.4)"> </text><text xml:space="preserve" font-family="Menlo-Regular,Menlo" font-size="17.0" fill="#000000" transform="matrix(1.00, 0.00, -0.00, -1.00, 390.5, 63.4)">{</text><text xml:space="preserve" font-family="Menlo-Regular,Menlo" font-size="17.0" fill="#000000" transform="matrix(1.00, 0.00, -0.00, -1.00, 400.7, 63.4)"> </text><text xml:space="preserve" font-family="Menlo-Regular,Menlo" font-size="17.0" fill="#000000" transform="matrix(1.00, 0.00, -0.00, -1.00, 1.6, 43.4)"> </text><text xml:space="preserve" font-family="Menlo-Regular,Menlo" font-size="17.0" fill="#000000" transform="matrix(1.00, 0.00, -0.00, -1.00, 11.8, 43.4)"> </text><text xml:space="preserve" font-family="Menlo-Regular,Menlo" font-size="17.0" fill="#000000" transform="matrix(1.00, 0.00, -0.00, -1.00, 22.0, 43.4)">d</text><text xml:space="preserve" font-family="Menlo-Regular,Menlo" font-size="17.0" fill="#000000" transform="matrix(1.00, 0.00, -0.00, -1.00, 32.3, 43.4)">e</text><text xml:space="preserve" font-family="Menlo-Regular,Menlo" font-size="17.0" fill="#000000" transform="matrix(1.00, 0.00, -0.00, -1.00, 42.5, 43.4)">f</text><text xml:space="preserve" font-family="Menlo-Regular,Menlo" font-size="17.0" fill="#000000" transform="matrix(1.00, 0.00, -0.00, -1.00, 52.7, 43.4)"> </text><text xml:space="preserve" font-family="Menlo-Regular,Menlo" font-size="17.0" fill="#704129" transform="matrix(1.00, 0.00, -0.00, -1.00, 63.0, 43.4)">p</text><text xml:space="preserve" font-family="Menlo-Regular,Menlo" font-size="17.0" fill="#704129" transform="matrix(1.00, 0.00, -0.00, -1.00, 73.2, 43.4)">a</text><text xml:space="preserve" font-family="Menlo-Regular,Menlo" font-size="17.0" fill="#704129" transform="matrix(1.00, 0.00, -0.00, -1.00, 83.4, 43.4)">r</text><text xml:space="preserve" font-family="Menlo-Regular,Menlo" font-size="17.0" fill="#704129" transform="matrix(1.00, 0.00, -0.00, -1.00, 93.7, 43.4)">s</text><text xml:space="preserve" font-family="Menlo-Regular,Menlo" font-size="17.0" fill="#704129" transform="matrix(1.00, 0.00, -0.00, -1.00, 103.9, 43.4)">e</text><text xml:space="preserve" font-family="Menlo-Regular,Menlo" font-size="17.0" fill="#000000" transform="matrix(1.00, 0.00, -0.00, -1.00, 114.1, 43.4)"> </text><text xml:space="preserve" font-family="Menlo-Regular,Menlo" font-size="17.0" fill="#000000" transform="matrix(1.00, 0.00, -0.00, -1.00, 124.4, 43.4)">:</text><text xml:space="preserve" font-family="Menlo-Regular,Menlo" font-size="17.0" fill="#000000" transform="matrix(1.00, 0.00, -0.00, -1.00, 134.6, 43.4)"> </text><text xml:space="preserve" font-family="Menlo-Bold,Menlo" font-weight="bold" font-size="17.0" fill="#000000" transform="matrix(1.00, 0.00, -0.00, -1.00, 144.8, 43.4)">T</text><text xml:space="preserve" font-family="Menlo-Regular,Menlo" font-size="17.0" fill="#000000" transform="matrix(1.00, 0.00, -0.00, -1.00, 155.1, 43.4)"> </text><text xml:space="preserve" font-family="Menlo-Regular,Menlo" font-size="17.0" fill="#000000" transform="matrix(1.00, 0.00, -0.00, -1.00, 1.6, 23.4)"> </text><text xml:space="preserve" font-family="Menlo-Regular,Menlo" font-size="17.0" fill="#000000" transform="matrix(1.00, 0.00, -0.00, -1.00, 11.8, 23.4)"> </text><text xml:space="preserve" font-family="Menlo-Regular,Menlo" font-size="17.0" fill="#000000" transform="matrix(1.00, 0.00, -0.00, -1.00, 22.0, 23.4)">o</text><text xml:space="preserve" font-family="Menlo-Regular,Menlo" font-size="17.0" fill="#000000" transform="matrix(1.00, 0.00, -0.00, -1.00, 32.3, 23.4)">v</text><text xml:space="preserve" font-family="Menlo-Regular,Menlo" font-size="17.0" fill="#000000" transform="matrix(1.00, 0.00, -0.00, -1.00, 42.5, 23.4)">e</text><text xml:space="preserve" font-family="Menlo-Regular,Menlo" font-size="17.0" fill="#000000" transform="matrix(1.00, 0.00, -0.00, -1.00, 52.7, 23.4)">r</text><text xml:space="preserve" font-family="Menlo-Regular,Menlo" font-size="17.0" fill="#000000" transform="matrix(1.00, 0.00, -0.00, -1.00, 63.0, 23.4)">r</text><text xml:space="preserve" font-family="Menlo-Regular,Menlo" font-size="17.0" fill="#000000" transform="matrix(1.00, 0.00, -0.00, -1.00, 73.2, 23.4)">i</text><text xml:space="preserve" font-family="Menlo-Regular,Menlo" font-size="17.0" fill="#000000" transform="matrix(1.00, 0.00, -0.00, -1.00, 83.5, 23.4)">d</text><text xml:space="preserve" font-family="Menlo-Regular,Menlo" font-size="17.0" fill="#000000" transform="matrix(1.00, 0.00, -0.00, -1.00, 93.7, 23.4)">e</text><text xml:space="preserve" font-family="Menlo-Regular,Menlo" font-size="17.0" fill="#000000" transform="matrix(1.00, 0.00, -0.00, -1.00, 103.9, 23.4)"> </text><text xml:space="preserve" font-family="Menlo-Regular,Menlo" font-size="17.0" fill="#000000" transform="matrix(1.00, 0.00, -0.00, -1.00, 114.2, 23.4)">d</text><text xml:space="preserve" font-family="Menlo-Regular,Menlo" font-size="17.0" fill="#000000" transform="matrix(1.00, 0.00, -0.00, -1.00, 124.4, 23.4)">e</text><text xml:space="preserve" font-family="Menlo-Regular,Menlo" font-size="17.0" fill="#000000" transform="matrix(1.00, 0.00, -0.00, -1.00, 134.6, 23.4)">f</text><text xml:space="preserve" font-family="Menlo-Regular,Menlo" font-size="17.0" fill="#000000" transform="matrix(1.00, 0.00, -0.00, -1.00, 144.9, 23.4)"> </text><text xml:space="preserve" font-family="Menlo-Regular,Menlo" font-size="17.0" fill="#704129" transform="matrix(1.00, 0.00, -0.00, -1.00, 155.1, 23.4)">t</text><text xml:space="preserve" font-family="Menlo-Regular,Menlo" font-size="17.0" fill="#704129" transform="matrix(1.00, 0.00, -0.00, -1.00, 165.3, 23.4)">o</text><text xml:space="preserve" font-family="Menlo-Regular,Menlo" font-size="17.0" fill="#704129" transform="matrix(1.00, 0.00, -0.00, -1.00, 175.6, 23.4)">S</text><text xml:space="preserve" font-family="Menlo-Regular,Menlo" font-size="17.0" fill="#704129" transform="matrix(1.00, 0.00, -0.00, -1.00, 185.8, 23.4)">t</text><text xml:space="preserve" font-family="Menlo-Regular,Menlo" font-size="17.0" fill="#704129" transform="matrix(1.00, 0.00, -0.00, -1.00, 196.0, 23.4)">r</text><text xml:space="preserve" font-family="Menlo-Regular,Menlo" font-size="17.0" fill="#704129" transform="matrix(1.00, 0.00, -0.00, -1.00, 206.3, 23.4)">i</text><text xml:space="preserve" font-family="Menlo-Regular,Menlo" font-size="17.0" fill="#704129" transform="matrix(1.00, 0.00, -0.00, -1.00, 216.5, 23.4)">n</text><text xml:space="preserve" font-family="Menlo-Regular,Menlo" font-size="17.0" fill="#704129" transform="matrix(1.00, 0.00, -0.00, -1.00, 226.7, 23.4)">g</text><text xml:space="preserve" font-family="Menlo-Regular,Menlo" font-size="17.0" fill="#000000" transform="matrix(1.00, 0.00, -0.00, -1.00, 237.0, 23.4)"> </text><text xml:space="preserve" font-family="Menlo-Regular,Menlo" font-size="17.0" fill="#000000" transform="matrix(1.00, 0.00, -0.00, -1.00, 247.2, 23.4)">:</text><text xml:space="preserve" font-family="Menlo-Regular,Menlo" font-size="17.0" fill="#000000" transform="matrix(1.00, 0.00, -0.00, -1.00, 257.4, 23.4)"> </text><text xml:space="preserve" font-family="Menlo-Regular,Menlo" font-size="17.0" fill="#3B3C1B" transform="matrix(1.00, 0.00, -0.00, -1.00, 267.7, 23.4)">S</text><text xml:space="preserve" font-family="Menlo-Regular,Menlo" font-size="17.0" fill="#3B3C1B" transform="matrix(1.00, 0.00, -0.00, -1.00, 277.9, 23.4)">t</text><text xml:space="preserve" font-family="Menlo-Regular,Menlo" font-size="17.0" fill="#3B3C1B" transform="matrix(1.00, 0.00, -0.00, -1.00, 288.1, 23.4)">r</text><text xml:space="preserve" font-family="Menlo-Regular,Menlo" font-size="17.0" fill="#3B3C1B" transform="matrix(1.00, 0.00, -0.00, -1.00, 298.4, 23.4)">i</text><text xml:space="preserve" font-family="Menlo-Regular,Menlo" font-size="17.0" fill="#3B3C1B" transform="matrix(1.00, 0.00, -0.00, -1.00, 308.6, 23.4)">n</text><text xml:space="preserve" font-family="Menlo-Regular,Menlo" font-size="17.0" fill="#3B3C1B" transform="matrix(1.00, 0.00, -0.00, -1.00, 318.8, 23.4)">g</text><text xml:space="preserve" font-family="Menlo-Regular,Menlo" font-size="17.0" fill="#000000" transform="matrix(1.00, 0.00, -0.00, -1.00, 329.1, 23.4)"> </text><text xml:space="preserve" font-family="Menlo-Regular,Menlo" font-size="17.0" fill="#000000" transform="matrix(1.00, 0.00, -0.00, -1.00, 339.3, 23.4)">=</text><text xml:space="preserve" font-family="Menlo-Regular,Menlo" font-size="17.0" fill="#000000" transform="matrix(1.00, 0.00, -0.00, -1.00, 349.5, 23.4)"> </text><text xml:space="preserve" font-family="Menlo-Regular,Menlo" font-size="17.0" fill="#000000" transform="matrix(1.00, 0.00, -0.00, -1.00, 359.8, 23.4)">t</text><text xml:space="preserve" font-family="Menlo-Regular,Menlo" font-size="17.0" fill="#000000" transform="matrix(1.00, 0.00, -0.00, -1.00, 370.0, 23.4)">e</text><text xml:space="preserve" font-family="Menlo-Regular,Menlo" font-size="17.0" fill="#000000" transform="matrix(1.00, 0.00, -0.00, -1.00, 380.3, 23.4)">x</text><text xml:space="preserve" font-family="Menlo-Regular,Menlo" font-size="17.0" fill="#000000" transform="matrix(1.00, 0.00, -0.00, -1.00, 390.5, 23.4)">t</text><text xml:space="preserve" font-family="Menlo-Regular,Menlo" font-size="17.0" fill="#000000" transform="matrix(1.00, 0.00, -0.00, -1.00, 400.7, 23.4)"> </text><text xml:space="preserve" font-family="Menlo-Regular,Menlo" font-size="17.0" fill="#000000" transform="matrix(1.00, 0.00, -0.00, -1.00, 1.6, 3.4)">}</text><text xml:space="preserve" font-family="Menlo-Regular,Menlo" font-size="17.0" fill="#000000" transform="matrix(1.00, 0.00, -0.00, -1.00, 11.8, 3.4)"> </text></g></svg>