<?xml version="1.0" encoding="UTF-8" standalone="no"?><svg xmlns="http://www.w3.org/2000/svg" xmlns:xlink="http://www.w3.org/1999/xlink" clip-rule="evenodd" stroke-miterlimit="10" viewBox="0 0 311 259"><desc>SVG generated by Keynote</desc><defs></defs><g transform="matrix(1.00, 0.00, -0.00, -1.00, 0.0, 259.0)"><text xml:space="preserve" font-family="Menlo-Regular,Menlo" font-size="17.0" fill="#000000" transform="matrix(1.00, 0.00, -0.00, -1.00, 1.4, 243.1)">p</text><text xml:space="preserve" font-family="Menlo-Regular,Menlo" font-size="17.0" fill="#000000" transform="matrix(1.00, 0.00, -0.00, -1.00, 11.7, 243.1)">u</text><text xml:space="preserve" font-family="Menlo-Regular,Menlo" font-size="17.0" fill="#000000" transform="matrix(1.00, 0.00, -0.00, -1.00, 21.9, 243.1)">b</text><text xml:space="preserve" font-family="Menlo-Regular,Menlo" font-size="17.0" fill="#000000" transform="matrix(1.00, 0.00, -0.00, -1.00, 32.2, 243.1)">l</text><text xml:space="preserve" font-family="Menlo-Regular,Menlo" font-size="17.0" fill="#000000" transform="matrix(1.00, 0.00, -0.00, -1.00, 42.4, 243.1)">i</text><text xml:space="preserve" font-family="Menlo-Regular,Menlo" font-size="17.0" fill="#000000" transform="matrix(1.00, 0.00, -0.00, -1.00, 52.6, 243.1)">c</text><text xml:space="preserve" font-family="Menlo-Regular,Menlo" font-size="17.0" fill="#000000" transform="matrix(1.00, 0.00, -0.00, -1.00, 62.9, 243.1)"> </text><text xml:space="preserve" font-family="Menlo-Regular,Menlo" font-size="17.0" fill="#000000" transform="matrix(1.00, 0.00, -0.00, -1.00, 73.1, 243.1)">a</text><text xml:space="preserve" font-family="Menlo-Regular,Menlo" font-size="17.0" fill="#000000" transform="matrix(1.00, 0.00, -0.00, -1.00, 83.3, 243.1)">b</text><text xml:space="preserve" font-family="Menlo-Regular,Menlo" font-size="17.0" fill="#000000" transform="matrix(1.00, 0.00, -0.00, -1.00, 93.6, 243.1)">s</text><text xml:space="preserve" font-family="Menlo-Regular,Menlo" font-size="17.0" fill="#000000" transform="matrix(1.00, 0.00, -0.00, -1.00, 103.8, 243.1)">t</text><text xml:space="preserve" font-family="Menlo-Regular,Menlo" font-size="17.0" fill="#000000" transform="matrix(1.00, 0.00, -0.00, -1.00, 114.1, 243.1)">r</text><text xml:space="preserve" font-family="Menlo-Regular,Menlo" font-size="17.0" fill="#000000" transform="matrix(1.00, 0.00, -0.00, -1.00, 124.3, 243.1)">a</text><text xml:space="preserve" font-family="Menlo-Regular,Menlo" font-size="17.0" fill="#000000" transform="matrix(1.00, 0.00, -0.00, -1.00, 134.5, 243.1)">c</text><text xml:space="preserve" font-family="Menlo-Regular,Menlo" font-size="17.0" fill="#000000" transform="matrix(1.00, 0.00, -0.00, -1.00, 144.8, 243.1)">t</text><text xml:space="preserve" font-family="Menlo-Regular,Menlo" font-size="17.0" fill="#000000" transform="matrix(1.00, 0.00, -0.00, -1.00, 155.0, 243.1)"> </text><text xml:space="preserve" font-family="Menlo-Regular,Menlo" font-size="17.0" fill="#000000" transform="matrix(1.00, 0.00, -0.00, -1.00, 165.2, 243.1)">c</text><text xml:space="preserve" font-family="Menlo-Regular,Menlo" font-size="17.0" fill="#000000" transform="matrix(1.00, 0.00, -0.00, -1.00, 175.5, 243.1)">l</text><text xml:space="preserve" font-family="Menlo-Regular,Menlo" font-size="17.0" fill="#000000" transform="matrix(1.00, 0.00, -0.00, -1.00, 185.7, 243.1)">a</text><text xml:space="preserve" font-family="Menlo-Regular,Menlo" font-size="17.0" fill="#000000" transform="matrix(1.00, 0.00, -0.00, -1.00, 195.9, 243.1)">s</text><text xml:space="preserve" font-family="Menlo-Regular,Menlo" font-size="17.0" fill="#000000" transform="matrix(1.00, 0.00, -0.00, -1.00, 206.2, 243.1)">s</text><text xml:space="preserve" font-family="Menlo-Regular,Menlo" font-size="17.0" fill="#000000" transform="matrix(1.00, 0.00, -0.00, -1.00, 216.4, 243.1)"> </text><text xml:space="preserve" font-family="Menlo-Regular,Menlo" font-size="17.0" fill="#870E00" transform="matrix(1.00, 0.00, -0.00, -1.00, 226.6, 243.1)">P</text><text xml:space="preserve" font-family="Menlo-Regular,Menlo" font-size="17.0" fill="#870E00" transform="matrix(1.00, 0.00, -0.00, -1.00, 236.9, 243.1)">a</text><text xml:space="preserve" font-family="Menlo-Regular,Menlo" font-size="17.0" fill="#870E00" transform="matrix(1.00, 0.00, -0.00, -1.00, 247.1, 243.1)">r</text><text xml:space="preserve" font-family="Menlo-Regular,Menlo" font-size="17.0" fill="#870E00" transform="matrix(1.00, 0.00, -0.00, -1.00, 257.3, 243.1)">s</text><text xml:space="preserve" font-family="Menlo-Regular,Menlo" font-size="17.0" fill="#870E00" transform="matrix(1.00, 0.00, -0.00, -1.00, 267.6, 243.1)">e</text><text xml:space="preserve" font-family="Menlo-Regular,Menlo" font-size="17.0" fill="#870E00" transform="matrix(1.00, 0.00, -0.00, -1.00, 277.8, 243.1)">r</text><text xml:space="preserve" font-family="Menlo-Regular,Menlo" font-size="17.0" fill="#000000" transform="matrix(1.00, 0.00, -0.00, -1.00, 288.0, 243.1)"> </text><text xml:space="preserve" font-family="Menlo-Regular,Menlo" font-size="17.0" fill="#000000" transform="matrix(1.00, 0.00, -0.00, -1.00, 298.3, 243.1)">{</text><text xml:space="preserve" font-family="Menlo-Regular,Menlo" font-size="17.0" fill="#000000" transform="matrix(1.00, 0.00, -0.00, -1.00, 308.5, 243.1)"> </text><text xml:space="preserve" font-family="Menlo-Regular,Menlo" font-size="17.0" fill="#000000" transform="matrix(1.00, 0.00, -0.00, -1.00, 1.4, 223.1)"> </text><text xml:space="preserve" font-family="Menlo-Regular,Menlo" font-size="17.0" fill="#000000" transform="matrix(1.00, 0.00, -0.00, -1.00, 11.7, 223.1)"> </text><text xml:space="preserve" font-family="Menlo-Regular,Menlo" font-size="17.0" fill="#000000" transform="matrix(1.00, 0.00, -0.00, -1.00, 21.9, 223.1)">f</text><text xml:space="preserve" font-family="Menlo-Regular,Menlo" font-size="17.0" fill="#000000" transform="matrix(1.00, 0.00, -0.00, -1.00, 32.2, 223.1)">i</text><text xml:space="preserve" font-family="Menlo-Regular,Menlo" font-size="17.0" fill="#000000" transform="matrix(1.00, 0.00, -0.00, -1.00, 42.4, 223.1)">n</text><text xml:space="preserve" font-family="Menlo-Regular,Menlo" font-size="17.0" fill="#000000" transform="matrix(1.00, 0.00, -0.00, -1.00, 52.6, 223.1)">a</text><text xml:space="preserve" font-family="Menlo-Regular,Menlo" font-size="17.0" fill="#000000" transform="matrix(1.00, 0.00, -0.00, -1.00, 62.9, 223.1)">l</text><text xml:space="preserve" font-family="Menlo-Regular,Menlo" font-size="17.0" fill="#000000" transform="matrix(1.00, 0.00, -0.00, -1.00, 73.1, 223.1)"> </text><text xml:space="preserve" font-family="Menlo-Regular,Menlo" font-size="17.0" fill="#000000" transform="matrix(1.00, 0.00, -0.00, -1.00, 83.3, 223.1)">p</text><text xml:space="preserve" font-family="Menlo-Regular,Menlo" font-size="17.0" fill="#000000" transform="matrix(1.00, 0.00, -0.00, -1.00, 93.6, 223.1)">r</text><text xml:space="preserve" font-family="Menlo-Regular,Menlo" font-size="17.0" fill="#000000" transform="matrix(1.00, 0.00, -0.00, -1.00, 103.8, 223.1)">i</text><text xml:space="preserve" font-family="Menlo-Regular,Menlo" font-size="17.0" fill="#000000" transform="matrix(1.00, 0.00, -0.00, -1.00, 114.1, 223.1)">v</text><text xml:space="preserve" font-family="Menlo-Regular,Menlo" font-size="17.0" fill="#000000" transform="matrix(1.00, 0.00, -0.00, -1.00, 124.3, 223.1)">a</text><text xml:space="preserve" font-family="Menlo-Regular,Menlo" font-size="17.0" fill="#000000" transform="matrix(1.00, 0.00, -0.00, -1.00, 134.5, 223.1)">t</text><text xml:space="preserve" font-family="Menlo-Regular,Menlo" font-size="17.0" fill="#000000" transform="matrix(1.00, 0.00, -0.00, -1.00, 144.8, 223.1)">e</text><text xml:space="preserve" font-family="Menlo-Regular,Menlo" font-size="17.0" fill="#000000" transform="matrix(1.00, 0.00, -0.00, -1.00, 155.0, 223.1)"> </text><text xml:space="preserve" font-family="Menlo-Regular,Menlo" font-size="17.0" fill="#008800" transform="matrix(1.00, 0.00, -0.00, -1.00, 165.2, 223.1)">S</text><text xml:space="preserve" font-family="Menlo-Regular,Menlo" font-size="17.0" fill="#008800" transform="matrix(1.00, 0.00, -0.00, -1.00, 175.4, 223.1)">t</text><text xml:space="preserve" font-family="Menlo-Regular,Menlo" font-size="17.0" fill="#008800" transform="matrix(1.00, 0.00, -0.00, -1.00, 185.7, 223.1)">r</text><text xml:space="preserve" font-family="Menlo-Regular,Menlo" font-size="17.0" fill="#008800" transform="matrix(1.00, 0.00, -0.00, -1.00, 195.9, 223.1)">i</text><text xml:space="preserve" font-family="Menlo-Regular,Menlo" font-size="17.0" fill="#008800" transform="matrix(1.00, 0.00, -0.00, -1.00, 206.2, 223.1)">n</text><text xml:space="preserve" font-family="Menlo-Regular,Menlo" font-size="17.0" fill="#008800" transform="matrix(1.00, 0.00, -0.00, -1.00, 216.4, 223.1)">g</text><text xml:space="preserve" font-family="Menlo-Regular,Menlo" font-size="17.0" fill="#BA1E65" transform="matrix(1.00, 0.00, -0.00, -1.00, 226.6, 223.1)"> </text><text xml:space="preserve" font-family="Menlo-Regular,Menlo" font-size="17.0" fill="#BA1E65" transform="matrix(1.00, 0.00, -0.00, -1.00, 236.9, 223.1)">t</text><text xml:space="preserve" font-family="Menlo-Regular,Menlo" font-size="17.0" fill="#BA1E65" transform="matrix(1.00, 0.00, -0.00, -1.00, 247.1, 223.1)">e</text><text xml:space="preserve" font-family="Menlo-Regular,Menlo" font-size="17.0" fill="#BA1E65" transform="matrix(1.00, 0.00, -0.00, -1.00, 257.3, 223.1)">x</text><text xml:space="preserve" font-family="Menlo-Regular,Menlo" font-size="17.0" fill="#BA1E65" transform="matrix(1.00, 0.00, -0.00, -1.00, 267.6, 223.1)">t</text><text xml:space="preserve" font-family="Menlo-Regular,Menlo" font-size="17.0" fill="#BA1E65" transform="matrix(1.00, 0.00, -0.00, -1.00, 277.8, 223.1)">;</text><text xml:space="preserve" font-family="Menlo-Regular,Menlo" font-size="17.0" fill="#BA1E65" transform="matrix(1.00, 0.00, -0.00, -1.00, 288.0, 223.1)"> </text><text xml:space="preserve" font-family="Menlo-Regular,Menlo" font-size="17.0" fill="#BA1E65" transform="matrix(1.00, 0.00, -0.00, -1.00, 298.3, 223.1)"> </text><text xml:space="preserve" font-family="Menlo-Regular,Menlo" font-size="17.0" fill="#000000" transform="matrix(1.00, 0.00, -0.00, -1.00, 308.5, 223.1)"> </text><text xml:space="preserve" font-family="Menlo-Regular,Menlo" font-size="17.0" fill="#000000" transform="matrix(1.00, 0.00, -0.00, -1.00, 1.4, 183.1)"> </text><text xml:space="preserve" font-family="Menlo-Regular,Menlo" font-size="17.0" fill="#000000" transform="matrix(1.00, 0.00, -0.00, -1.00, 11.7, 183.1)"> </text><text xml:space="preserve" font-family="Menlo-Regular,Menlo" font-size="17.0" fill="#000000" transform="matrix(1.00, 0.00, -0.00, -1.00, 21.9, 183.1)">p</text><text xml:space="preserve" font-family="Menlo-Regular,Menlo" font-size="17.0" fill="#000000" transform="matrix(1.00, 0.00, -0.00, -1.00, 32.2, 183.1)">u</text><text xml:space="preserve" font-family="Menlo-Regular,Menlo" font-size="17.0" fill="#000000" transform="matrix(1.00, 0.00, -0.00, -1.00, 42.4, 183.1)">b</text><text xml:space="preserve" font-family="Menlo-Regular,Menlo" font-size="17.0" fill="#000000" transform="matrix(1.00, 0.00, -0.00, -1.00, 52.6, 183.1)">l</text><text xml:space="preserve" font-family="Menlo-Regular,Menlo" font-size="17.0" fill="#000000" transform="matrix(1.00, 0.00, -0.00, -1.00, 62.9, 183.1)">i</text><text xml:space="preserve" font-family="Menlo-Regular,Menlo" font-size="17.0" fill="#000000" transform="matrix(1.00, 0.00, -0.00, -1.00, 73.1, 183.1)">c</text><text xml:space="preserve" font-family="Menlo-Regular,Menlo" font-size="17.0" fill="#000000" transform="matrix(1.00, 0.00, -0.00, -1.00, 83.3, 183.1)"> </text><text xml:space="preserve" font-family="Menlo-Regular,Menlo" font-size="17.0" fill="#000000" transform="matrix(1.00, 0.00, -0.00, -1.00, 93.6, 183.1)">P</text><text xml:space="preserve" font-family="Menlo-Regular,Menlo" font-size="17.0" fill="#000000" transform="matrix(1.00, 0.00, -0.00, -1.00, 103.8, 183.1)">a</text><text xml:space="preserve" font-family="Menlo-Regular,Menlo" font-size="17.0" fill="#000000" transform="matrix(1.00, 0.00, -0.00, -1.00, 114.1, 183.1)">r</text><text xml:space="preserve" font-family="Menlo-Regular,Menlo" font-size="17.0" fill="#000000" transform="matrix(1.00, 0.00, -0.00, -1.00, 124.3, 183.1)">s</text><text xml:space="preserve" font-family="Menlo-Regular,Menlo" font-size="17.0" fill="#000000" transform="matrix(1.00, 0.00, -0.00, -1.00, 134.5, 183.1)">e</text><text xml:space="preserve" font-family="Menlo-Regular,Menlo" font-size="17.0" fill="#000000" transform="matrix(1.00, 0.00, -0.00, -1.00, 144.8, 183.1)">r</text><text xml:space="preserve" font-family="Menlo-Regular,Menlo" font-size="17.0" fill="#000000" transform="matrix(1.00, 0.00, -0.00, -1.00, 155.0, 183.1)">(</text><text xml:space="preserve" font-family="Menlo-Regular,Menlo" font-size="17.0" fill="#008800" transform="matrix(1.00, 0.00, -0.00, -1.00, 165.2, 183.1)">S</text><text xml:space="preserve" font-family="Menlo-Regular,Menlo" font-size="17.0" fill="#008800" transform="matrix(1.00, 0.00, -0.00, -1.00, 175.4, 183.1)">t</text><text xml:space="preserve" font-family="Menlo-Regular,Menlo" font-size="17.0" fill="#008800" transform="matrix(1.00, 0.00, -0.00, -1.00, 185.7, 183.1)">r</text><text xml:space="preserve" font-family="Menlo-Regular,Menlo" font-size="17.0" fill="#008800" transform="matrix(1.00, 0.00, -0.00, -1.00, 195.9, 183.1)">i</text><text xml:space="preserve" font-family="Menlo-Regular,Menlo" font-size="17.0" fill="#008800" transform="matrix(1.00, 0.00, -0.00, -1.00, 206.2, 183.1)">n</text><text xml:space="preserve" font-family="Menlo-Regular,Menlo" font-size="17.0" fill="#008800" transform="matrix(1.00, 0.00, -0.00, -1.00, 216.4, 183.1)">g</text><text xml:space="preserve" font-family="Menlo-Regular,Menlo" font-size="17.0" fill="#000000" transform="matrix(1.00, 0.00, -0.00, -1.00, 226.6, 183.1)"> </text><text xml:space="preserve" font-family="Menlo-Regular,Menlo" font-size="17.0" fill="#003277" transform="matrix(1.00, 0.00, -0.00, -1.00, 236.9, 183.1)">t</text><text xml:space="preserve" font-family="Menlo-Regular,Menlo" font-size="17.0" fill="#003277" transform="matrix(1.00, 0.00, -0.00, -1.00, 247.1, 183.1)">e</text><text xml:space="preserve" font-family="Menlo-Regular,Menlo" font-size="17.0" fill="#003277" transform="matrix(1.00, 0.00, -0.00, -1.00, 257.3, 183.1)">x</text><text xml:space="preserve" font-family="Menlo-Regular,Menlo" font-size="17.0" fill="#003277" transform="matrix(1.00, 0.00, -0.00, -1.00, 267.6, 183.1)">t</text><text xml:space="preserve" font-family="Menlo-Regular,Menlo" font-size="17.0" fill="#000000" transform="matrix(1.00, 0.00, -0.00, -1.00, 277.8, 183.1)">)</text><text xml:space="preserve" font-family="Menlo-Regular,Menlo" font-size="17.0" fill="#000000" transform="matrix(1.00, 0.00, -0.00, -1.00, 288.0, 183.1)"> </text><text xml:space="preserve" font-family="Menlo-Regular,Menlo" font-size="17.0" fill="#000000" transform="matrix(1.00, 0.00, -0.00, -1.00, 298.3, 183.1)">{</text><text xml:space="preserve" font-family="Menlo-Regular,Menlo" font-size="17.0" fill="#000000" transform="matrix(1.00, 0.00, -0.00, -1.00, 308.5, 183.1)"> </text><text xml:space="preserve" font-family="Menlo-Regular,Menlo" font-size="17.0" fill="#000000" transform="matrix(1.00, 0.00, -0.00, -1.00, 1.4, 163.1)"> </text><text xml:space="preserve" font-family="Menlo-Regular,Menlo" font-size="17.0" fill="#000000" transform="matrix(1.00, 0.00, -0.00, -1.00, 11.7, 163.1)"> </text><text xml:space="preserve" font-family="Menlo-Regular,Menlo" font-size="17.0" fill="#000000" transform="matrix(1.00, 0.00, -0.00, -1.00, 21.9, 163.1)"> </text><text xml:space="preserve" font-family="Menlo-Regular,Menlo" font-size="17.0" fill="#000000" transform="matrix(1.00, 0.00, -0.00, -1.00, 32.2, 163.1)"> </text><text xml:space="preserve" font-family="Menlo-Regular,Menlo" font-size="17.0" fill="#003388" transform="matrix(1.00, 0.00, -0.00, -1.00, 42.4, 163.1)">t</text><text xml:space="preserve" font-family="Menlo-Regular,Menlo" font-size="17.0" fill="#003388" transform="matrix(1.00, 0.00, -0.00, -1.00, 52.6, 163.1)">h</text><text xml:space="preserve" font-family="Menlo-Regular,Menlo" font-size="17.0" fill="#003388" transform="matrix(1.00, 0.00, -0.00, -1.00, 62.9, 163.1)">i</text><text xml:space="preserve" font-family="Menlo-Regular,Menlo" font-size="17.0" fill="#003388" transform="matrix(1.00, 0.00, -0.00, -1.00, 73.1, 163.1)">s</text><text xml:space="preserve" font-family="Menlo-Regular,Menlo" font-size="17.0" fill="#000000" transform="matrix(1.00, 0.00, -0.00, -1.00, 83.3, 163.1)">.</text><text xml:space="preserve" font-family="Menlo-Regular,Menlo" font-size="17.0" fill="#000000" transform="matrix(1.00, 0.00, -0.00, -1.00, 93.6, 163.1)">t</text><text xml:space="preserve" font-family="Menlo-Regular,Menlo" font-size="17.0" fill="#000000" transform="matrix(1.00, 0.00, -0.00, -1.00, 103.8, 163.1)">e</text><text xml:space="preserve" font-family="Menlo-Regular,Menlo" font-size="17.0" fill="#000000" transform="matrix(1.00, 0.00, -0.00, -1.00, 114.0, 163.1)">x</text><text xml:space="preserve" font-family="Menlo-Regular,Menlo" font-size="17.0" fill="#000000" transform="matrix(1.00, 0.00, -0.00, -1.00, 124.3, 163.1)">t</text><text xml:space="preserve" font-family="Menlo-Regular,Menlo" font-size="17.0" fill="#000000" transform="matrix(1.00, 0.00, -0.00, -1.00, 134.5, 163.1)"> </text><text xml:space="preserve" font-family="Menlo-Regular,Menlo" font-size="17.0" fill="#000000" transform="matrix(1.00, 0.00, -0.00, -1.00, 144.7, 163.1)">=</text><text xml:space="preserve" font-family="Menlo-Regular,Menlo" font-size="17.0" fill="#000000" transform="matrix(1.00, 0.00, -0.00, -1.00, 155.0, 163.1)"> </text><text xml:space="preserve" font-family="Menlo-Regular,Menlo" font-size="17.0" fill="#000000" transform="matrix(1.00, 0.00, -0.00, -1.00, 165.2, 163.1)">t</text><text xml:space="preserve" font-family="Menlo-Regular,Menlo" font-size="17.0" fill="#000000" transform="matrix(1.00, 0.00, -0.00, -1.00, 175.5, 163.1)">e</text><text xml:space="preserve" font-family="Menlo-Regular,Menlo" font-size="17.0" fill="#000000" transform="matrix(1.00, 0.00, -0.00, -1.00, 185.7, 163.1)">x</text><text xml:space="preserve" font-family="Menlo-Regular,Menlo" font-size="17.0" fill="#000000" transform="matrix(1.00, 0.00, -0.00, -1.00, 195.9, 163.1)">t</text><text xml:space="preserve" font-family="Menlo-Regular,Menlo" font-size="17.0" fill="#000000" transform="matrix(1.00, 0.00, -0.00, -1.00, 206.2, 163.1)">;</text><text xml:space="preserve" font-family="Menlo-Regular,Menlo" font-size="17.0" fill="#000000" transform="matrix(1.00, 0.00, -0.00, -1.00, 216.4, 163.1)"> </text><text xml:space="preserve" font-family="Menlo-Regular,Menlo" font-size="17.0" fill="#000000" transform="matrix(1.00, 0.00, -0.00, -1.00, 1.4, 143.1)"> </text><text xml:space="preserve" font-family="Menlo-Regular,Menlo" font-size="17.0" fill="#000000" transform="matrix(1.00, 0.00, -0.00, -1.00, 11.7, 143.1)"> </text><text xml:space="preserve" font-family="Menlo-Regular,Menlo" font-size="17.0" fill="#000000" transform="matrix(1.00, 0.00, -0.00, -1.00, 21.9, 143.1)">}</text><text xml:space="preserve" font-family="Menlo-Regular,Menlo" font-size="17.0" fill="#000000" transform="matrix(1.00, 0.00, -0.00, -1.00, 32.2, 143.1)"> </text><text xml:space="preserve" font-family="Menlo-Regular,Menlo" font-size="17.0" fill="#000000" transform="matrix(1.00, 0.00, -0.00, -1.00, 1.4, 123.1)"> </text><text xml:space="preserve" font-family="Menlo-Regular,Menlo" font-size="17.0" fill="#000000" transform="matrix(1.00, 0.00, -0.00, -1.00, 11.7, 123.1)"> </text><text xml:space="preserve" font-family="Menlo-Regular,Menlo" font-size="17.0" fill="#000000" transform="matrix(1.00, 0.00, -0.00, -1.00, 21.9, 123.1)">p</text><text xml:space="preserve" font-family="Menlo-Regular,Menlo" font-size="17.0" fill="#000000" transform="matrix(1.00, 0.00, -0.00, -1.00, 32.2, 123.1)">u</text><text xml:space="preserve" font-family="Menlo-Regular,Menlo" font-size="17.0" fill="#000000" transform="matrix(1.00, 0.00, -0.00, -1.00, 42.4, 123.1)">b</text><text xml:space="preserve" font-family="Menlo-Regular,Menlo" font-size="17.0" fill="#000000" transform="matrix(1.00, 0.00, -0.00, -1.00, 52.6, 123.1)">l</text><text xml:space="preserve" font-family="Menlo-Regular,Menlo" font-size="17.0" fill="#000000" transform="matrix(1.00, 0.00, -0.00, -1.00, 62.9, 123.1)">i</text><text xml:space="preserve" font-family="Menlo-Regular,Menlo" font-size="17.0" fill="#000000" transform="matrix(1.00, 0.00, -0.00, -1.00, 73.1, 123.1)">c</text><text xml:space="preserve" font-family="Menlo-Regular,Menlo" font-size="17.0" fill="#000000" transform="matrix(1.00, 0.00, -0.00, -1.00, 83.3, 123.1)"> </text><text xml:space="preserve" font-family="Menlo-Regular,Menlo" font-size="17.0" fill="#008800" transform="matrix(1.00, 0.00, -0.00, -1.00, 93.6, 123.1)">S</text><text xml:space="preserve" font-family="Menlo-Regular,Menlo" font-size="17.0" fill="#008800" transform="matrix(1.00, 0.00, -0.00, -1.00, 103.8, 123.1)">t</text><text xml:space="preserve" font-family="Menlo-Regular,Menlo" font-size="17.0" fill="#008800" transform="matrix(1.00, 0.00, -0.00, -1.00, 114.0, 123.1)">r</text><text xml:space="preserve" font-family="Menlo-Regular,Menlo" font-size="17.0" fill="#008800" transform="matrix(1.00, 0.00, -0.00, -1.00, 124.3, 123.1)">i</text><text xml:space="preserve" font-family="Menlo-Regular,Menlo" font-size="17.0" fill="#008800" transform="matrix(1.00, 0.00, -0.00, -1.00, 134.5, 123.1)">n</text><text xml:space="preserve" font-family="Menlo-Regular,Menlo" font-size="17.0" fill="#008800" transform="matrix(1.00, 0.00, -0.00, -1.00, 144.7, 123.1)">g</text><text xml:space="preserve" font-family="Menlo-Regular,Menlo" font-size="17.0" fill="#008800" transform="matrix(1.00, 0.00, -0.00, -1.00, 155.0, 123.1)"> </text><text xml:space="preserve" font-family="Menlo-Regular,Menlo" font-size="17.0" fill="#870E00" transform="matrix(1.00, 0.00, -0.00, -1.00, 165.2, 123.1)">p</text><text xml:space="preserve" font-family="Menlo-Regular,Menlo" font-size="17.0" fill="#870E00" transform="matrix(1.00, 0.00, -0.00, -1.00, 175.4, 123.1)">a</text><text xml:space="preserve" font-family="Menlo-Regular,Menlo" font-size="17.0" fill="#870E00" transform="matrix(1.00, 0.00, -0.00, -1.00, 185.7, 123.1)">r</text><text xml:space="preserve" font-family="Menlo-Regular,Menlo" font-size="17.0" fill="#870E00" transform="matrix(1.00, 0.00, -0.00, -1.00, 195.9, 123.1)">s</text><text xml:space="preserve" font-family="Menlo-Regular,Menlo" font-size="17.0" fill="#870E00" transform="matrix(1.00, 0.00, -0.00, -1.00, 206.2, 123.1)">e</text><text xml:space="preserve" font-family="Menlo-Regular,Menlo" font-size="17.0" fill="#000000" transform="matrix(1.00, 0.00, -0.00, -1.00, 216.4, 123.1)">(</text><text xml:space="preserve" font-family="Menlo-Regular,Menlo" font-size="17.0" fill="#000000" transform="matrix(1.00, 0.00, -0.00, -1.00, 226.6, 123.1)">)</text><text xml:space="preserve" font-family="Menlo-Regular,Menlo" font-size="17.0" fill="#000000" transform="matrix(1.00, 0.00, -0.00, -1.00, 236.9, 123.1)"> </text><text xml:space="preserve" font-family="Menlo-Regular,Menlo" font-size="17.0" fill="#000000" transform="matrix(1.00, 0.00, -0.00, -1.00, 247.1, 123.1)">{</text><text xml:space="preserve" font-family="Menlo-Regular,Menlo" font-size="17.0" fill="#000000" transform="matrix(1.00, 0.00, -0.00, -1.00, 257.3, 123.1)"> </text><text xml:space="preserve" font-family="Menlo-Regular,Menlo" font-size="17.0" fill="#000000" transform="matrix(1.00, 0.00, -0.00, -1.00, 1.4, 103.1)"> </text><text xml:space="preserve" font-family="Menlo-Regular,Menlo" font-size="17.0" fill="#000000" transform="matrix(1.00, 0.00, -0.00, -1.00, 11.7, 103.1)"> </text><text xml:space="preserve" font-family="Menlo-Regular,Menlo" font-size="17.0" fill="#000000" transform="matrix(1.00, 0.00, -0.00, -1.00, 21.9, 103.1)"> </text><text xml:space="preserve" font-family="Menlo-Regular,Menlo" font-size="17.0" fill="#000000" transform="matrix(1.00, 0.00, -0.00, -1.00, 32.2, 103.1)"> </text><text xml:space="preserve" font-family="Menlo-Regular,Menlo" font-size="17.0" fill="#000000" transform="matrix(1.00, 0.00, -0.00, -1.00, 42.4, 103.1)">r</text><text xml:space="preserve" font-family="Menlo-Regular,Menlo" font-size="17.0" fill="#000000" transform="matrix(1.00, 0.00, -0.00, -1.00, 52.6, 103.1)">e</text><text xml:space="preserve" font-family="Menlo-Regular,Menlo" font-size="17.0" fill="#000000" transform="matrix(1.00, 0.00, -0.00, -1.00, 62.9, 103.1)">t</text><text xml:space="preserve" font-family="Menlo-Regular,Menlo" font-size="17.0" fill="#000000" transform="matrix(1.00, 0.00, -0.00, -1.00, 73.1, 103.1)">u</text><text xml:space="preserve" font-family="Menlo-Regular,Menlo" font-size="17.0" fill="#000000" transform="matrix(1.00, 0.00, -0.00, -1.00, 83.3, 103.1)">r</text><text xml:space="preserve" font-family="Menlo-Regular,Menlo" font-size="17.0" fill="#000000" transform="matrix(1.00, 0.00, -0.00, -1.00, 93.6, 103.1)">n</text><text xml:space="preserve" font-family="Menlo-Regular,Menlo" font-size="17.0" fill="#000000" transform="matrix(1.00, 0.00, -0.00, -1.00, 103.8, 103.1)"> </text><text xml:space="preserve" font-family="Menlo-Regular,Menlo" font-size="17.0" fill="#000000" transform="matrix(1.00, 0.00, -0.00, -1.00, 114.1, 103.1)">t</text><text xml:space="preserve" font-family="Menlo-Regular,Menlo" font-size="17.0" fill="#000000" transform="matrix(1.00, 0.00, -0.00, -1.00, 124.3, 103.1)">e</text><text xml:space="preserve" font-family="Menlo-Regular,Menlo" font-size="17.0" fill="#000000" transform="matrix(1.00, 0.00, -0.00, -1.00, 134.5, 103.1)">x</text><text xml:space="preserve" font-family="Menlo-Regular,Menlo" font-size="17.0" fill="#000000" transform="matrix(1.00, 0.00, -0.00, -1.00, 144.8, 103.1)">t</text><text xml:space="preserve" font-family="Menlo-Regular,Menlo" font-size="17.0" fill="#000000" transform="matrix(1.00, 0.00, -0.00, -1.00, 155.0, 103.1)">;</text><text xml:space="preserve" font-family="Menlo-Regular,Menlo" font-size="17.0" fill="#000000" transform="matrix(1.00, 0.00, -0.00, -1.00, 165.2, 103.1)"> </text><text xml:space="preserve" font-family="Menlo-Regular,Menlo" font-size="17.0" fill="#000000" transform="matrix(1.00, 0.00, -0.00, -1.00, 1.4, 83.1)"> </text><text xml:space="preserve" font-family="Menlo-Regular,Menlo" font-size="17.0" fill="#000000" transform="matrix(1.00, 0.00, -0.00, -1.00, 11.7, 83.1)"> </text><text xml:space="preserve" font-family="Menlo-Regular,Menlo" font-size="17.0" fill="#000000" transform="matrix(1.00, 0.00, -0.00, -1.00, 21.9, 83.1)">}</text><text xml:space="preserve" font-family="Menlo-Regular,Menlo" font-size="17.0" fill="#000000" transform="matrix(1.00, 0.00, -0.00, -1.00, 32.2, 83.1)"> </text><text xml:space="preserve" font-family="Menlo-Regular,Menlo" font-size="17.0" fill="#000000" transform="matrix(1.00, 0.00, -0.00, -1.00, 1.4, 63.1)"> </text><text xml:space="preserve" font-family="Menlo-Regular,Menlo" font-size="17.0" fill="#000000" transform="matrix(1.00, 0.00, -0.00, -1.00, 11.7, 63.1)"> </text><text xml:space="preserve" font-family="Menlo-Regular,Menlo" font-size="17.0" fill="#000000" transform="matrix(1.00, 0.00, -0.00, -1.00, 21.9, 63.1)">p</text><text xml:space="preserve" font-family="Menlo-Regular,Menlo" font-size="17.0" fill="#000000" transform="matrix(1.00, 0.00, -0.00, -1.00, 32.2, 63.1)">u</text><text xml:space="preserve" font-family="Menlo-Regular,Menlo" font-size="17.0" fill="#000000" transform="matrix(1.00, 0.00, -0.00, -1.00, 42.4, 63.1)">b</text><text xml:space="preserve" font-family="Menlo-Regular,Menlo" font-size="17.0" fill="#000000" transform="matrix(1.00, 0.00, -0.00, -1.00, 52.6, 63.1)">l</text><text xml:space="preserve" font-family="Menlo-Regular,Menlo" font-size="17.0" fill="#000000" transform="matrix(1.00, 0.00, -0.00, -1.00, 62.9, 63.1)">i</text><text xml:space="preserve" font-family="Menlo-Regular,Menlo" font-size="17.0" fill="#000000" transform="matrix(1.00, 0.00, -0.00, -1.00, 73.1, 63.1)">c</text><text xml:space="preserve" font-family="Menlo-Regular,Menlo" font-size="17.0" fill="#000000" transform="matrix(1.00, 0.00, -0.00, -1.00, 83.3, 63.1)"> </text><text xml:space="preserve" font-family="Menlo-Regular,Menlo" font-size="17.0" fill="#000000" transform="matrix(1.00, 0.00, -0.00, -1.00, 93.6, 63.1)">S</text><text xml:space="preserve" font-family="Menlo-Regular,Menlo" font-size="17.0" fill="#000000" transform="matrix(1.00, 0.00, -0.00, -1.00, 103.8, 63.1)">t</text><text xml:space="preserve" font-family="Menlo-Regular,Menlo" font-size="17.0" fill="#000000" transform="matrix(1.00, 0.00, -0.00, -1.00, 114.1, 63.1)">r</text><text xml:space="preserve" font-family="Menlo-Regular,Menlo" font-size="17.0" fill="#000000" transform="matrix(1.00, 0.00, -0.00, -1.00, 124.3, 63.1)">i</text><text xml:space="preserve" font-family="Menlo-Regular,Menlo" font-size="17.0" fill="#000000" transform="matrix(1.00, 0.00, -0.00, -1.00, 134.5, 63.1)">n</text><text xml:space="preserve" font-family="Menlo-Regular,Menlo" font-size="17.0" fill="#000000" transform="matrix(1.00, 0.00, -0.00, -1.00, 144.8, 63.1)">g</text><text xml:space="preserve" font-family="Menlo-Regular,Menlo" font-size="17.0" fill="#000000" transform="matrix(1.00, 0.00, -0.00, -1.00, 155.0, 63.1)"> </text><text xml:space="preserve" font-family="Menlo-Regular,Menlo" font-size="17.0" fill="#000000" transform="matrix(1.00, 0.00, -0.00, -1.00, 165.2, 63.1)">t</text><text xml:space="preserve" font-family="Menlo-Regular,Menlo" font-size="17.0" fill="#000000" transform="matrix(1.00, 0.00, -0.00, -1.00, 175.5, 63.1)">o</text><text xml:space="preserve" font-family="Menlo-Regular,Menlo" font-size="17.0" fill="#000000" transform="matrix(1.00, 0.00, -0.00, -1.00, 185.7, 63.1)">S</text><text xml:space="preserve" font-family="Menlo-Regular,Menlo" font-size="17.0" fill="#000000" transform="matrix(1.00, 0.00, -0.00, -1.00, 195.9, 63.1)">t</text><text xml:space="preserve" font-family="Menlo-Regular,Menlo" font-size="17.0" fill="#000000" transform="matrix(1.00, 0.00, -0.00, -1.00, 206.2, 63.1)">r</text><text xml:space="preserve" font-family="Menlo-Regular,Menlo" font-size="17.0" fill="#000000" transform="matrix(1.00, 0.00, -0.00, -1.00, 216.4, 63.1)">i</text><text xml:space="preserve" font-family="Menlo-Regular,Menlo" font-size="17.0" fill="#000000" transform="matrix(1.00, 0.00, -0.00, -1.00, 226.7, 63.1)">n</text><text xml:space="preserve" font-family="Menlo-Regular,Menlo" font-size="17.0" fill="#000000" transform="matrix(1.00, 0.00, -0.00, -1.00, 236.9, 63.1)">g</text><text xml:space="preserve" font-family="Menlo-Regular,Menlo" font-size="17.0" fill="#000000" transform="matrix(1.00, 0.00, -0.00, -1.00, 247.1, 63.1)">(</text><text xml:space="preserve" font-family="Menlo-Regular,Menlo" font-size="17.0" fill="#000000" transform="matrix(1.00, 0.00, -0.00, -1.00, 257.4, 63.1)">)</text><text xml:space="preserve" font-family="Menlo-Regular,Menlo" font-size="17.0" fill="#000000" transform="matrix(1.00, 0.00, -0.00, -1.00, 267.6, 63.1)"> </text><text xml:space="preserve" font-family="Menlo-Regular,Menlo" font-size="17.0" fill="#000000" transform="matrix(1.00, 0.00, -0.00, -1.00, 277.8, 63.1)">{</text><text xml:space="preserve" font-family="Menlo-Regular,Menlo" font-size="17.0" fill="#000000" transform="matrix(1.00, 0.00, -0.00, -1.00, 288.1, 63.1)"> </text><text xml:space="preserve" font-family="Menlo-Regular,Menlo" font-size="17.0" fill="#000000" transform="matrix(1.00, 0.00, -0.00, -1.00, 1.4, 43.1)"> </text><text xml:space="preserve" font-family="Menlo-Regular,Menlo" font-size="17.0" fill="#000000" transform="matrix(1.00, 0.00, -0.00, -1.00, 37.4, 43.1)">r</text><text xml:space="preserve" font-family="Menlo-Regular,Menlo" font-size="17.0" fill="#000000" transform="matrix(1.00, 0.00, -0.00, -1.00, 47.7, 43.1)">e</text><text xml:space="preserve" font-family="Menlo-Regular,Menlo" font-size="17.0" fill="#000000" transform="matrix(1.00, 0.00, -0.00, -1.00, 57.9, 43.1)">t</text><text xml:space="preserve" font-family="Menlo-Regular,Menlo" font-size="17.0" fill="#000000" transform="matrix(1.00, 0.00, -0.00, -1.00, 68.1, 43.1)">u</text><text xml:space="preserve" font-family="Menlo-Regular,Menlo" font-size="17.0" fill="#000000" transform="matrix(1.00, 0.00, -0.00, -1.00, 78.4, 43.1)">r</text><text xml:space="preserve" font-family="Menlo-Regular,Menlo" font-size="17.0" fill="#000000" transform="matrix(1.00, 0.00, -0.00, -1.00, 88.6, 43.1)">n</text><text xml:space="preserve" font-family="Menlo-Regular,Menlo" font-size="17.0" fill="#000000" transform="matrix(1.00, 0.00, -0.00, -1.00, 98.8, 43.1)"> </text><text xml:space="preserve" font-family="Menlo-Regular,Menlo" font-size="17.0" fill="#000000" transform="matrix(1.00, 0.00, -0.00, -1.00, 109.0, 43.1)">t</text><text xml:space="preserve" font-family="Menlo-Regular,Menlo" font-size="17.0" fill="#000000" transform="matrix(1.00, 0.00, -0.00, -1.00, 119.3, 43.1)">e</text><text xml:space="preserve" font-family="Menlo-Regular,Menlo" font-size="17.0" fill="#000000" transform="matrix(1.00, 0.00, -0.00, -1.00, 129.5, 43.1)">x</text><text xml:space="preserve" font-family="Menlo-Regular,Menlo" font-size="17.0" fill="#000000" transform="matrix(1.00, 0.00, -0.00, -1.00, 139.7, 43.1)">t</text><text xml:space="preserve" font-family="Menlo-Regular,Menlo" font-size="17.0" fill="#000000" transform="matrix(1.00, 0.00, -0.00, -1.00, 150.0, 43.1)">;</text><text xml:space="preserve" font-family="Menlo-Regular,Menlo" font-size="17.0" fill="#000000" transform="matrix(1.00, 0.00, -0.00, -1.00, 160.2, 43.1)"> </text><text xml:space="preserve" font-family="Menlo-Regular,Menlo" font-size="17.0" fill="#000000" transform="matrix(1.00, 0.00, -0.00, -1.00, 1.4, 23.1)"> </text><text xml:space="preserve" font-family="Menlo-Regular,Menlo" font-size="17.0" fill="#000000" transform="matrix(1.00, 0.00, -0.00, -1.00, 11.7, 23.1)"> </text><text xml:space="preserve" font-family="Menlo-Regular,Menlo" font-size="17.0" fill="#000000" transform="matrix(1.00, 0.00, -0.00, -1.00, 21.9, 23.1)">}</text><text xml:space="preserve" font-family="Menlo-Regular,Menlo" font-size="17.0" fill="#000000" transform="matrix(1.00, 0.00, -0.00, -1.00, 32.2, 23.1)"> </text><text xml:space="preserve" font-family="Menlo-Regular,Menlo" font-size="17.0" fill="#000000" transform="matrix(1.00, 0.00, -0.00, -1.00, 1.4, 3.1)">}</text></g></svg>