<?xml version="1.0" encoding="UTF-8" standalone="no"?><svg xmlns="http://www.w3.org/2000/svg" xmlns:xlink="http://www.w3.org/1999/xlink" clip-rule="evenodd" stroke-miterlimit="10" viewBox="0 0 44 67"><desc>SVG generated by Keynote</desc><defs><linearGradient id="gradSh1.11" x1="0.0" y1="0.0" x2="100.0" y2="0.0" gradientUnits="userSpaceOnUse" gradientTransform="matrix(0.00, -0.29, -0.28, 0.00, 18.0, 46.0)"><stop offset="0.00000" stop-color="#FF280E"></stop><stop offset="0.00733" stop-color="#FE280E"></stop><stop offset="0.03079" stop-color="#FD2810"></stop><stop offset="0.03446" stop-color="#FC2810"></stop><stop offset="0.39516" stop-color="#E23020"></stop><stop offset="0.40249" stop-color="#E13020"></stop><stop offset="1.00000" stop-color="#B63C3A"></stop></linearGradient></defs><g transform="matrix(1.00, 0.00, -0.00, -1.00, 0.0, 67.0)"><g><clipPath id="clip0x6180006bb000"><path d="M 3.9 9.4 L 39.2 9.4 L 39.2 46.8 L 3.9 46.8 Z M 3.9 9.4 "></path></clipPath><g clip-path="url(#clip0x6180006bb000)"><image xlink:href="../../FAFFCD48-36AE-41AF-8B5F-667F821EA1C1/assets/0B176607CD81D82BBC3FBE793AF33613.png" width="33.00" height="35.00" transform="matrix(1.01, 0.00, -0.00, -1.01, 4.9, 45.8)" opacity="0.50"></image></g></g><g><clipPath id="clip0x6180006bb060"><path d="M 5.0 45.0 L 31.0 45.0 L 31.0 18.0 L 5.0 18.0 Z M 5.3 45.3 "></path></clipPath><g clip-path="url(#clip0x6180006bb060)"><g><clipPath id="clip0x6180006bb840"><path d="M 3.9 9.4 L 39.2 9.4 L 39.2 46.8 L 3.9 46.8 Z M 3.9 9.4 "></path></clipPath><g clip-path="url(#clip0x6180006bb840)"><path d="M 3.9 9.4 L 39.2 9.4 L 39.2 46.8 L 3.9 46.8 Z M 3.9 9.4 " fill="url(#gradSh1.11)"></path></g></g></g></g><g><clipPath id="clip0x6180008bb7e0"><path d="M 0.4 0.7 L 43.4 0.7 L 43.4 66.5 L 0.4 66.5 Z M 0.4 0.7 "></path></clipPath><g clip-path="url(#clip0x6180008bb7e0)"><image xlink:href="../../FAFFCD48-36AE-41AF-8B5F-667F821EA1C1/assets/C9D80E6DF8477F20697FF56E9AAE37D1.png" width="41.00" height="64.00" transform="matrix(1.00, 0.00, -0.00, -1.00, 1.4, 65.5)" opacity="0.50"></image></g></g><g><clipPath id="clip0x6180008bb840"><path d="M -6.1 0.1 L 42.8 0.1 L 42.8 73.0 L -6.1 73.0 Z M -6.1 0.1 "></path></clipPath><g clip-path="url(#clip0x6180008bb840)"><text xml:space="preserve" font-family="HelveticaNeue-Medium,Helvetica Neue" font-size="40.0" fill="#FEFFFE" transform="matrix(1.00, 0.00, -0.00, -1.00, 6.3, 21.9)">+</text></g></g></g></svg>