<?xml version="1.0" encoding="UTF-8" standalone="no"?><svg xmlns="http://www.w3.org/2000/svg" xmlns:xlink="http://www.w3.org/1999/xlink" clip-rule="evenodd" stroke-miterlimit="10" viewBox="0 0 1024 768"><desc>SVG generated by Keynote</desc><defs></defs><g transform="matrix(1.00, 0.00, -0.00, -1.00, 0.0, 768.0)"><path d="M 0.0 768.0 L 1024.0 768.0 L 1024.0 0.0 L 0.0 0.0 Z M 0.0 768.0 " fill="#FEFFFE"></path><text xml:space="preserve" font-family="Menlo-Regular,Menlo" font-size="30.0" fill="#000000" transform="matrix(1.00, 0.00, -0.00, -1.00, 95.8, 513.9)">v</text><text xml:space="preserve" font-family="Menlo-Regular,Menlo" font-size="30.0" fill="#000000" transform="matrix(1.00, 0.00, -0.00, -1.00, 113.9, 513.9)">a</text><text xml:space="preserve" font-family="Menlo-Regular,Menlo" font-size="30.0" fill="#000000" transform="matrix(1.00, 0.00, -0.00, -1.00, 131.9, 513.9)">l</text><text xml:space="preserve" font-family="Menlo-Regular,Menlo" font-size="30.0" fill="#000000" transform="matrix(1.00, 0.00, -0.00, -1.00, 150.0, 513.9)"> </text><text xml:space="preserve" font-family="Menlo-Regular,Menlo" font-size="30.0" fill="#000000" transform="matrix(1.00, 0.00, -0.00, -1.00, 168.1, 513.9)">s</text><text xml:space="preserve" font-family="Menlo-Regular,Menlo" font-size="30.0" fill="#000000" transform="matrix(1.00, 0.00, -0.00, -1.00, 186.1, 513.9)">r</text><text xml:space="preserve" font-family="Menlo-Regular,Menlo" font-size="30.0" fill="#000000" transform="matrix(1.00, 0.00, -0.00, -1.00, 204.2, 513.9)">c</text><text xml:space="preserve" font-family="Menlo-Regular,Menlo" font-size="30.0" fill="#000000" transform="matrix(1.00, 0.00, -0.00, -1.00, 222.2, 513.9)"> </text><text xml:space="preserve" font-family="Menlo-Regular,Menlo" font-size="30.0" fill="#000000" transform="matrix(1.00, 0.00, -0.00, -1.00, 240.3, 513.9)">=</text><text xml:space="preserve" font-family="Menlo-Regular,Menlo" font-size="30.0" fill="#000000" transform="matrix(1.00, 0.00, -0.00, -1.00, 258.4, 513.9)"> </text><text xml:space="preserve" font-family="Menlo-Regular,Menlo" font-size="30.0" fill="#000000" transform="matrix(1.00, 0.00, -0.00, -1.00, 276.4, 513.9)">M</text><text xml:space="preserve" font-family="Menlo-Regular,Menlo" font-size="30.0" fill="#000000" transform="matrix(1.00, 0.00, -0.00, -1.00, 294.5, 513.9)">a</text><text xml:space="preserve" font-family="Menlo-Regular,Menlo" font-size="30.0" fill="#000000" transform="matrix(1.00, 0.00, -0.00, -1.00, 312.6, 513.9)">p</text><text xml:space="preserve" font-family="Menlo-Regular,Menlo" font-size="30.0" fill="#000000" transform="matrix(1.00, 0.00, -0.00, -1.00, 330.6, 513.9)">(</text><text xml:space="preserve" font-family="Menlo-Regular,Menlo" font-size="30.0" fill="#000000" transform="matrix(1.00, 0.00, -0.00, -1.00, 348.7, 513.9)">‘</text><text xml:space="preserve" font-family="Menlo-Regular,Menlo" font-size="30.0" fill="#000000" transform="matrix(1.00, 0.00, -0.00, -1.00, 366.8, 513.9)">o</text><text xml:space="preserve" font-family="Menlo-Regular,Menlo" font-size="30.0" fill="#000000" transform="matrix(1.00, 0.00, -0.00, -1.00, 384.8, 513.9)">d</text><text xml:space="preserve" font-family="Menlo-Regular,Menlo" font-size="30.0" fill="#000000" transform="matrix(1.00, 0.00, -0.00, -1.00, 402.9, 513.9)">d</text><text xml:space="preserve" font-family="Menlo-Regular,Menlo" font-size="30.0" fill="#000000" transform="matrix(1.00, 0.00, -0.00, -1.00, 421.0, 513.9)"> </text><text xml:space="preserve" font-family="Menlo-Regular,Menlo" font-size="30.0" fill="#000000" transform="matrix(1.00, 0.00, -0.00, -1.00, 439.0, 513.9)">-</text><text xml:space="preserve" font-family="Menlo-Regular,Menlo" font-size="30.0" fill="#000000" transform="matrix(1.00, 0.00, -0.00, -1.00, 457.1, 513.9)">&gt;</text><text xml:space="preserve" font-family="Menlo-Regular,Menlo" font-size="30.0" fill="#000000" transform="matrix(1.00, 0.00, -0.00, -1.00, 475.2, 513.9)"> </text><text xml:space="preserve" font-family="Menlo-Regular,Menlo" font-size="30.0" fill="#000000" transform="matrix(1.00, 0.00, -0.00, -1.00, 493.2, 513.9)">S</text><text xml:space="preserve" font-family="Menlo-Regular,Menlo" font-size="30.0" fill="#000000" transform="matrix(1.00, 0.00, -0.00, -1.00, 511.3, 513.9)">e</text><text xml:space="preserve" font-family="Menlo-Regular,Menlo" font-size="30.0" fill="#000000" transform="matrix(1.00, 0.00, -0.00, -1.00, 529.3, 513.9)">q</text><text xml:space="preserve" font-family="Menlo-Regular,Menlo" font-size="30.0" fill="#000000" transform="matrix(1.00, 0.00, -0.00, -1.00, 547.4, 513.9)">(</text><text xml:space="preserve" font-family="Menlo-Regular,Menlo" font-size="30.0" fill="#000000" transform="matrix(1.00, 0.00, -0.00, -1.00, 565.5, 513.9)">“</text><text xml:space="preserve" font-family="Menlo-Regular,Menlo" font-size="30.0" fill="#000000" transform="matrix(1.00, 0.00, -0.00, -1.00, 583.5, 513.9)">7</text><text xml:space="preserve" font-family="Menlo-Regular,Menlo" font-size="30.0" fill="#000000" transform="matrix(1.00, 0.00, -0.00, -1.00, 601.6, 513.9)">”</text><text xml:space="preserve" font-family="Menlo-Regular,Menlo" font-size="30.0" fill="#000000" transform="matrix(1.00, 0.00, -0.00, -1.00, 619.7, 513.9)">,</text><text xml:space="preserve" font-family="Menlo-Regular,Menlo" font-size="30.0" fill="#000000" transform="matrix(1.00, 0.00, -0.00, -1.00, 637.7, 513.9)"> </text><text xml:space="preserve" font-family="Menlo-Regular,Menlo" font-size="30.0" fill="#000000" transform="matrix(1.00, 0.00, -0.00, -1.00, 655.8, 513.9)">“</text><text xml:space="preserve" font-family="Menlo-Regular,Menlo" font-size="30.0" fill="#000000" transform="matrix(1.00, 0.00, -0.00, -1.00, 673.9, 513.9)">9</text><text xml:space="preserve" font-family="Menlo-Regular,Menlo" font-size="30.0" fill="#000000" transform="matrix(1.00, 0.00, -0.00, -1.00, 691.9, 513.9)">”</text><text xml:space="preserve" font-family="Menlo-Regular,Menlo" font-size="30.0" fill="#000000" transform="matrix(1.00, 0.00, -0.00, -1.00, 710.0, 513.9)">,</text><text xml:space="preserve" font-family="Menlo-Regular,Menlo" font-size="30.0" fill="#000000" transform="matrix(1.00, 0.00, -0.00, -1.00, 728.1, 513.9)"> </text><text xml:space="preserve" font-family="Menlo-Regular,Menlo" font-size="30.0" fill="#000000" transform="matrix(1.00, 0.00, -0.00, -1.00, 746.1, 513.9)">“</text><text xml:space="preserve" font-family="Menlo-Regular,Menlo" font-size="30.0" fill="#000000" transform="matrix(1.00, 0.00, -0.00, -1.00, 764.2, 513.9)">1</text><text xml:space="preserve" font-family="Menlo-Regular,Menlo" font-size="30.0" fill="#000000" transform="matrix(1.00, 0.00, -0.00, -1.00, 782.2, 513.9)">1</text><text xml:space="preserve" font-family="Menlo-Regular,Menlo" font-size="30.0" fill="#000000" transform="matrix(1.00, 0.00, -0.00, -1.00, 800.3, 513.9)">”</text><text xml:space="preserve" font-family="Menlo-Regular,Menlo" font-size="30.0" fill="#000000" transform="matrix(1.00, 0.00, -0.00, -1.00, 818.4, 513.9)">)</text><text xml:space="preserve" font-family="Menlo-Regular,Menlo" font-size="30.0" fill="#000000" transform="matrix(1.00, 0.00, -0.00, -1.00, 836.4, 513.9)">,</text><text xml:space="preserve" font-family="Menlo-Regular,Menlo" font-size="30.0" fill="#000000" transform="matrix(1.00, 0.00, -0.00, -1.00, 854.5, 513.9)"> </text><text xml:space="preserve" font-family="Menlo-Regular,Menlo" font-size="30.0" fill="#000000" transform="matrix(1.00, 0.00, -0.00, -1.00, 95.8, 478.9)"> </text><text xml:space="preserve" font-family="Menlo-Regular,Menlo" font-size="30.0" fill="#000000" transform="matrix(1.00, 0.00, -0.00, -1.00, 131.8, 478.9)"> </text><text xml:space="preserve" font-family="Menlo-Regular,Menlo" font-size="30.0" fill="#000000" transform="matrix(1.00, 0.00, -0.00, -1.00, 167.8, 478.9)"> </text><text xml:space="preserve" font-family="Menlo-Regular,Menlo" font-size="30.0" fill="#000000" transform="matrix(1.00, 0.00, -0.00, -1.00, 203.8, 478.9)"> </text><text xml:space="preserve" font-family="Menlo-Regular,Menlo" font-size="30.0" fill="#000000" transform="matrix(1.00, 0.00, -0.00, -1.00, 239.8, 478.9)"> </text><text xml:space="preserve" font-family="Menlo-Regular,Menlo" font-size="30.0" fill="#000000" transform="matrix(1.00, 0.00, -0.00, -1.00, 257.9, 478.9)">‘</text><text xml:space="preserve" font-family="Menlo-Regular,Menlo" font-size="30.0" fill="#000000" transform="matrix(1.00, 0.00, -0.00, -1.00, 275.9, 478.9)">e</text><text xml:space="preserve" font-family="Menlo-Regular,Menlo" font-size="30.0" fill="#000000" transform="matrix(1.00, 0.00, -0.00, -1.00, 294.0, 478.9)">v</text><text xml:space="preserve" font-family="Menlo-Regular,Menlo" font-size="30.0" fill="#000000" transform="matrix(1.00, 0.00, -0.00, -1.00, 312.0, 478.9)">e</text><text xml:space="preserve" font-family="Menlo-Regular,Menlo" font-size="30.0" fill="#000000" transform="matrix(1.00, 0.00, -0.00, -1.00, 330.1, 478.9)">n</text><text xml:space="preserve" font-family="Menlo-Regular,Menlo" font-size="30.0" fill="#000000" transform="matrix(1.00, 0.00, -0.00, -1.00, 348.2, 478.9)"> </text><text xml:space="preserve" font-family="Menlo-Regular,Menlo" font-size="30.0" fill="#000000" transform="matrix(1.00, 0.00, -0.00, -1.00, 366.2, 478.9)">-</text><text xml:space="preserve" font-family="Menlo-Regular,Menlo" font-size="30.0" fill="#000000" transform="matrix(1.00, 0.00, -0.00, -1.00, 384.3, 478.9)">&gt;</text><text xml:space="preserve" font-family="Menlo-Regular,Menlo" font-size="30.0" fill="#000000" transform="matrix(1.00, 0.00, -0.00, -1.00, 402.4, 478.9)"> </text><text xml:space="preserve" font-family="Menlo-Regular,Menlo" font-size="30.0" fill="#000000" transform="matrix(1.00, 0.00, -0.00, -1.00, 420.4, 478.9)">S</text><text xml:space="preserve" font-family="Menlo-Regular,Menlo" font-size="30.0" fill="#000000" transform="matrix(1.00, 0.00, -0.00, -1.00, 438.5, 478.9)">e</text><text xml:space="preserve" font-family="Menlo-Regular,Menlo" font-size="30.0" fill="#000000" transform="matrix(1.00, 0.00, -0.00, -1.00, 456.5, 478.9)">q</text><text xml:space="preserve" font-family="Menlo-Regular,Menlo" font-size="30.0" fill="#000000" transform="matrix(1.00, 0.00, -0.00, -1.00, 474.6, 478.9)">(</text><text xml:space="preserve" font-family="Menlo-Regular,Menlo" font-size="30.0" fill="#000000" transform="matrix(1.00, 0.00, -0.00, -1.00, 492.7, 478.9)">“</text><text xml:space="preserve" font-family="Menlo-Regular,Menlo" font-size="30.0" fill="#000000" transform="matrix(1.00, 0.00, -0.00, -1.00, 510.7, 478.9)">6</text><text xml:space="preserve" font-family="Menlo-Regular,Menlo" font-size="30.0" fill="#000000" transform="matrix(1.00, 0.00, -0.00, -1.00, 528.8, 478.9)">”</text><text xml:space="preserve" font-family="Menlo-Regular,Menlo" font-size="30.0" fill="#000000" transform="matrix(1.00, 0.00, -0.00, -1.00, 546.8, 478.9)">,</text><text xml:space="preserve" font-family="Menlo-Regular,Menlo" font-size="30.0" fill="#000000" transform="matrix(1.00, 0.00, -0.00, -1.00, 564.9, 478.9)"> </text><text xml:space="preserve" font-family="Menlo-Regular,Menlo" font-size="30.0" fill="#000000" transform="matrix(1.00, 0.00, -0.00, -1.00, 583.0, 478.9)">“</text><text xml:space="preserve" font-family="Menlo-Regular,Menlo" font-size="30.0" fill="#000000" transform="matrix(1.00, 0.00, -0.00, -1.00, 601.0, 478.9)">8</text><text xml:space="preserve" font-family="Menlo-Regular,Menlo" font-size="30.0" fill="#000000" transform="matrix(1.00, 0.00, -0.00, -1.00, 619.1, 478.9)">”</text><text xml:space="preserve" font-family="Menlo-Regular,Menlo" font-size="30.0" fill="#000000" transform="matrix(1.00, 0.00, -0.00, -1.00, 637.2, 478.9)">,</text><text xml:space="preserve" font-family="Menlo-Regular,Menlo" font-size="30.0" fill="#000000" transform="matrix(1.00, 0.00, -0.00, -1.00, 655.2, 478.9)"> </text><text xml:space="preserve" font-family="Menlo-Regular,Menlo" font-size="30.0" fill="#000000" transform="matrix(1.00, 0.00, -0.00, -1.00, 673.3, 478.9)">“</text><text xml:space="preserve" font-family="Menlo-Regular,Menlo" font-size="30.0" fill="#000000" transform="matrix(1.00, 0.00, -0.00, -1.00, 691.3, 478.9)">1</text><text xml:space="preserve" font-family="Menlo-Regular,Menlo" font-size="30.0" fill="#000000" transform="matrix(1.00, 0.00, -0.00, -1.00, 709.4, 478.9)">0</text><text xml:space="preserve" font-family="Menlo-Regular,Menlo" font-size="30.0" fill="#000000" transform="matrix(1.00, 0.00, -0.00, -1.00, 727.5, 478.9)">”</text><text xml:space="preserve" font-family="Menlo-Regular,Menlo" font-size="30.0" fill="#000000" transform="matrix(1.00, 0.00, -0.00, -1.00, 745.5, 478.9)">)</text><text xml:space="preserve" font-family="Menlo-Regular,Menlo" font-size="30.0" fill="#000000" transform="matrix(1.00, 0.00, -0.00, -1.00, 763.6, 478.9)">)</text><text xml:space="preserve" font-family="Menlo-Regular,Menlo" font-size="30.0" fill="#000000" transform="matrix(1.00, 0.00, -0.00, -1.00, 781.6, 478.9)"> </text><text xml:space="preserve" font-family="Menlo-Regular,Menlo" font-size="30.0" fill="#163D40" transform="matrix(1.00, 0.00, -0.00, -1.00, 95.8, 408.9)">v</text><text xml:space="preserve" font-family="Menlo-Regular,Menlo" font-size="30.0" fill="#163D40" transform="matrix(1.00, 0.00, -0.00, -1.00, 113.9, 408.9)">a</text><text xml:space="preserve" font-family="Menlo-Regular,Menlo" font-size="30.0" fill="#163D40" transform="matrix(1.00, 0.00, -0.00, -1.00, 131.9, 408.9)">l</text><text xml:space="preserve" font-family="Menlo-Regular,Menlo" font-size="30.0" fill="#163D40" transform="matrix(1.00, 0.00, -0.00, -1.00, 150.0, 408.9)"> </text><text xml:space="preserve" font-family="Menlo-Regular,Menlo" font-size="30.0" fill="#163D40" transform="matrix(1.00, 0.00, -0.00, -1.00, 168.1, 408.9)">d</text><text xml:space="preserve" font-family="Menlo-Regular,Menlo" font-size="30.0" fill="#163D40" transform="matrix(1.00, 0.00, -0.00, -1.00, 186.1, 408.9)">e</text><text xml:space="preserve" font-family="Menlo-Regular,Menlo" font-size="30.0" fill="#163D40" transform="matrix(1.00, 0.00, -0.00, -1.00, 204.2, 408.9)">s</text><text xml:space="preserve" font-family="Menlo-Regular,Menlo" font-size="30.0" fill="#163D40" transform="matrix(1.00, 0.00, -0.00, -1.00, 222.2, 408.9)">t</text><text xml:space="preserve" font-family="Menlo-Regular,Menlo" font-size="30.0" fill="#163D40" transform="matrix(1.00, 0.00, -0.00, -1.00, 240.3, 408.9)"> </text><text xml:space="preserve" font-family="Menlo-Regular,Menlo" font-size="30.0" fill="#163D40" transform="matrix(1.00, 0.00, -0.00, -1.00, 258.4, 408.9)">=</text><text xml:space="preserve" font-family="Menlo-Regular,Menlo" font-size="30.0" fill="#163D40" transform="matrix(1.00, 0.00, -0.00, -1.00, 276.4, 408.9)"> </text><text xml:space="preserve" font-family="Menlo-Regular,Menlo" font-size="30.0" fill="#163D40" transform="matrix(1.00, 0.00, -0.00, -1.00, 294.5, 408.9)">s</text><text xml:space="preserve" font-family="Menlo-Regular,Menlo" font-size="30.0" fill="#163D40" transform="matrix(1.00, 0.00, -0.00, -1.00, 312.6, 408.9)">r</text><text xml:space="preserve" font-family="Menlo-Regular,Menlo" font-size="30.0" fill="#163D40" transform="matrix(1.00, 0.00, -0.00, -1.00, 330.6, 408.9)">c</text><text xml:space="preserve" font-family="Menlo-Regular,Menlo" font-size="30.0" fill="#163D40" transform="matrix(1.00, 0.00, -0.00, -1.00, 348.7, 408.9)">.</text><text xml:space="preserve" font-family="Menlo-Regular,Menlo" font-size="30.0" fill="#163D40" transform="matrix(1.00, 0.00, -0.00, -1.00, 366.8, 408.9)">v</text><text xml:space="preserve" font-family="Menlo-Regular,Menlo" font-size="30.0" fill="#163D40" transform="matrix(1.00, 0.00, -0.00, -1.00, 384.8, 408.9)">a</text><text xml:space="preserve" font-family="Menlo-Regular,Menlo" font-size="30.0" fill="#163D40" transform="matrix(1.00, 0.00, -0.00, -1.00, 402.9, 408.9)">l</text><text xml:space="preserve" font-family="Menlo-Regular,Menlo" font-size="30.0" fill="#163D40" transform="matrix(1.00, 0.00, -0.00, -1.00, 421.0, 408.9)">u</text><text xml:space="preserve" font-family="Menlo-Regular,Menlo" font-size="30.0" fill="#163D40" transform="matrix(1.00, 0.00, -0.00, -1.00, 439.0, 408.9)">e</text><text xml:space="preserve" font-family="Menlo-Regular,Menlo" font-size="30.0" fill="#163D40" transform="matrix(1.00, 0.00, -0.00, -1.00, 457.1, 408.9)">s</text><text xml:space="preserve" font-family="Menlo-Regular,Menlo" font-size="30.0" fill="#163D40" transform="matrix(1.00, 0.00, -0.00, -1.00, 475.2, 408.9)">.</text><text xml:space="preserve" font-family="Menlo-Regular,Menlo" font-size="30.0" fill="#163D40" transform="matrix(1.00, 0.00, -0.00, -1.00, 493.2, 408.9)">f</text><text xml:space="preserve" font-family="Menlo-Regular,Menlo" font-size="30.0" fill="#163D40" transform="matrix(1.00, 0.00, -0.00, -1.00, 511.3, 408.9)">l</text><text xml:space="preserve" font-family="Menlo-Regular,Menlo" font-size="30.0" fill="#163D40" transform="matrix(1.00, 0.00, -0.00, -1.00, 529.3, 408.9)">a</text><text xml:space="preserve" font-family="Menlo-Regular,Menlo" font-size="30.0" fill="#163D40" transform="matrix(1.00, 0.00, -0.00, -1.00, 547.4, 408.9)">t</text><text xml:space="preserve" font-family="Menlo-Regular,Menlo" font-size="30.0" fill="#163D40" transform="matrix(1.00, 0.00, -0.00, -1.00, 565.5, 408.9)">t</text><text xml:space="preserve" font-family="Menlo-Regular,Menlo" font-size="30.0" fill="#163D40" transform="matrix(1.00, 0.00, -0.00, -1.00, 583.5, 408.9)">e</text><text xml:space="preserve" font-family="Menlo-Regular,Menlo" font-size="30.0" fill="#163D40" transform="matrix(1.00, 0.00, -0.00, -1.00, 601.6, 408.9)">n</text><text xml:space="preserve" font-family="Menlo-Regular,Menlo" font-size="30.0" fill="#163D40" transform="matrix(1.00, 0.00, -0.00, -1.00, 619.7, 408.9)">.</text><text xml:space="preserve" font-family="Menlo-Regular,Menlo" font-size="30.0" fill="#163D40" transform="matrix(1.00, 0.00, -0.00, -1.00, 637.7, 408.9)">m</text><text xml:space="preserve" font-family="Menlo-Regular,Menlo" font-size="30.0" fill="#163D40" transform="matrix(1.00, 0.00, -0.00, -1.00, 655.8, 408.9)">a</text><text xml:space="preserve" font-family="Menlo-Regular,Menlo" font-size="30.0" fill="#163D40" transform="matrix(1.00, 0.00, -0.00, -1.00, 673.9, 408.9)">p</text><text xml:space="preserve" font-family="Menlo-Regular,Menlo" font-size="30.0" fill="#163D40" transform="matrix(1.00, 0.00, -0.00, -1.00, 691.9, 408.9)">(</text><text xml:space="preserve" font-family="Menlo-Regular,Menlo" font-size="30.0" fill="#163D40" transform="matrix(1.00, 0.00, -0.00, -1.00, 710.0, 408.9)"> </text><text xml:space="preserve" font-family="Menlo-Regular,Menlo" font-size="30.0" fill="#163D40" transform="matrix(1.00, 0.00, -0.00, -1.00, 95.8, 373.9)"> </text><text xml:space="preserve" font-family="Menlo-Regular,Menlo" font-size="30.0" fill="#163D40" transform="matrix(1.00, 0.00, -0.00, -1.00, 113.9, 373.9)"> </text><text xml:space="preserve" font-family="Menlo-Regular,Menlo" font-size="30.0" fill="#163D40" transform="matrix(1.00, 0.00, -0.00, -1.00, 131.9, 373.9)">n</text><text xml:space="preserve" font-family="Menlo-Regular,Menlo" font-size="30.0" fill="#163D40" transform="matrix(1.00, 0.00, -0.00, -1.00, 150.0, 373.9)">e</text><text xml:space="preserve" font-family="Menlo-Regular,Menlo" font-size="30.0" fill="#163D40" transform="matrix(1.00, 0.00, -0.00, -1.00, 168.1, 373.9)">w</text><text xml:space="preserve" font-family="Menlo-Regular,Menlo" font-size="30.0" fill="#163D40" transform="matrix(1.00, 0.00, -0.00, -1.00, 186.1, 373.9)"> </text><text xml:space="preserve" font-family="Menlo-Regular,Menlo" font-size="30.0" fill="#163D40" transform="matrix(1.00, 0.00, -0.00, -1.00, 204.2, 373.9)">I</text><text xml:space="preserve" font-family="Menlo-Regular,Menlo" font-size="30.0" fill="#163D40" transform="matrix(1.00, 0.00, -0.00, -1.00, 222.2, 373.9)">n</text><text xml:space="preserve" font-family="Menlo-Regular,Menlo" font-size="30.0" fill="#163D40" transform="matrix(1.00, 0.00, -0.00, -1.00, 240.3, 373.9)">t</text><text xml:space="preserve" font-family="Menlo-Regular,Menlo" font-size="30.0" fill="#163D40" transform="matrix(1.00, 0.00, -0.00, -1.00, 258.4, 373.9)">P</text><text xml:space="preserve" font-family="Menlo-Regular,Menlo" font-size="30.0" fill="#163D40" transform="matrix(1.00, 0.00, -0.00, -1.00, 276.4, 373.9)">a</text><text xml:space="preserve" font-family="Menlo-Regular,Menlo" font-size="30.0" fill="#163D40" transform="matrix(1.00, 0.00, -0.00, -1.00, 294.5, 373.9)">r</text><text xml:space="preserve" font-family="Menlo-Regular,Menlo" font-size="30.0" fill="#163D40" transform="matrix(1.00, 0.00, -0.00, -1.00, 312.6, 373.9)">s</text><text xml:space="preserve" font-family="Menlo-Regular,Menlo" font-size="30.0" fill="#163D40" transform="matrix(1.00, 0.00, -0.00, -1.00, 330.6, 373.9)">e</text><text xml:space="preserve" font-family="Menlo-Regular,Menlo" font-size="30.0" fill="#163D40" transform="matrix(1.00, 0.00, -0.00, -1.00, 348.7, 373.9)">r</text><text xml:space="preserve" font-family="Menlo-Regular,Menlo" font-size="30.0" fill="#163D40" transform="matrix(1.00, 0.00, -0.00, -1.00, 366.8, 373.9)">(</text><text xml:space="preserve" font-family="Menlo-Regular,Menlo" font-size="30.0" fill="#163D40" transform="matrix(1.00, 0.00, -0.00, -1.00, 384.8, 373.9)">)</text><text xml:space="preserve" font-family="Menlo-Regular,Menlo" font-size="30.0" fill="#163D40" transform="matrix(1.00, 0.00, -0.00, -1.00, 402.9, 373.9)">.</text><text xml:space="preserve" font-family="Menlo-Regular,Menlo" font-size="30.0" fill="#163D40" transform="matrix(1.00, 0.00, -0.00, -1.00, 421.0, 373.9)">p</text><text xml:space="preserve" font-family="Menlo-Regular,Menlo" font-size="30.0" fill="#163D40" transform="matrix(1.00, 0.00, -0.00, -1.00, 439.0, 373.9)">a</text><text xml:space="preserve" font-family="Menlo-Regular,Menlo" font-size="30.0" fill="#163D40" transform="matrix(1.00, 0.00, -0.00, -1.00, 457.1, 373.9)">r</text><text xml:space="preserve" font-family="Menlo-Regular,Menlo" font-size="30.0" fill="#163D40" transform="matrix(1.00, 0.00, -0.00, -1.00, 475.2, 373.9)">s</text><text xml:space="preserve" font-family="Menlo-Regular,Menlo" font-size="30.0" fill="#163D40" transform="matrix(1.00, 0.00, -0.00, -1.00, 493.2, 373.9)">e</text><text xml:space="preserve" font-family="Menlo-Regular,Menlo" font-size="30.0" fill="#163D40" transform="matrix(1.00, 0.00, -0.00, -1.00, 511.3, 373.9)">)</text><text xml:space="preserve" font-family="Menlo-Regular,Menlo" font-size="30.0" fill="#163D40" transform="matrix(1.00, 0.00, -0.00, -1.00, 529.3, 373.9)"> </text><text xml:space="preserve" font-family="Menlo-Regular,Menlo" font-size="30.0" fill="#000000" transform="matrix(1.00, 0.00, -0.00, -1.00, 95.8, 303.9)">v</text><text xml:space="preserve" font-family="Menlo-Regular,Menlo" font-size="30.0" fill="#000000" transform="matrix(1.00, 0.00, -0.00, -1.00, 113.9, 303.9)">a</text><text xml:space="preserve" font-family="Menlo-Regular,Menlo" font-size="30.0" fill="#000000" transform="matrix(1.00, 0.00, -0.00, -1.00, 131.9, 303.9)">r</text><text xml:space="preserve" font-family="Menlo-Regular,Menlo" font-size="30.0" fill="#000000" transform="matrix(1.00, 0.00, -0.00, -1.00, 150.0, 303.9)"> </text><text xml:space="preserve" font-family="Menlo-Regular,Menlo" font-size="30.0" fill="#000000" transform="matrix(1.00, 0.00, -0.00, -1.00, 168.1, 303.9)">g</text><text xml:space="preserve" font-family="Menlo-Regular,Menlo" font-size="30.0" fill="#000000" transform="matrix(1.00, 0.00, -0.00, -1.00, 186.1, 303.9)">r</text><text xml:space="preserve" font-family="Menlo-Regular,Menlo" font-size="30.0" fill="#000000" transform="matrix(1.00, 0.00, -0.00, -1.00, 204.2, 303.9)">o</text><text xml:space="preserve" font-family="Menlo-Regular,Menlo" font-size="30.0" fill="#000000" transform="matrix(1.00, 0.00, -0.00, -1.00, 222.2, 303.9)">u</text><text xml:space="preserve" font-family="Menlo-Regular,Menlo" font-size="30.0" fill="#000000" transform="matrix(1.00, 0.00, -0.00, -1.00, 240.3, 303.9)">p</text><text xml:space="preserve" font-family="Menlo-Regular,Menlo" font-size="30.0" fill="#000000" transform="matrix(1.00, 0.00, -0.00, -1.00, 258.4, 303.9)">e</text><text xml:space="preserve" font-family="Menlo-Regular,Menlo" font-size="30.0" fill="#000000" transform="matrix(1.00, 0.00, -0.00, -1.00, 276.4, 303.9)">d</text><text xml:space="preserve" font-family="Menlo-Regular,Menlo" font-size="30.0" fill="#000000" transform="matrix(1.00, 0.00, -0.00, -1.00, 294.5, 303.9)"> </text><text xml:space="preserve" font-family="Menlo-Regular,Menlo" font-size="30.0" fill="#000000" transform="matrix(1.00, 0.00, -0.00, -1.00, 312.6, 303.9)">=</text><text xml:space="preserve" font-family="Menlo-Regular,Menlo" font-size="30.0" fill="#000000" transform="matrix(1.00, 0.00, -0.00, -1.00, 330.6, 303.9)"> </text><text xml:space="preserve" font-family="Menlo-Regular,Menlo" font-size="30.0" fill="#000000" transform="matrix(1.00, 0.00, -0.00, -1.00, 348.7, 303.9)">d</text><text xml:space="preserve" font-family="Menlo-Regular,Menlo" font-size="30.0" fill="#000000" transform="matrix(1.00, 0.00, -0.00, -1.00, 366.8, 303.9)">e</text><text xml:space="preserve" font-family="Menlo-Regular,Menlo" font-size="30.0" fill="#000000" transform="matrix(1.00, 0.00, -0.00, -1.00, 384.8, 303.9)">s</text><text xml:space="preserve" font-family="Menlo-Regular,Menlo" font-size="30.0" fill="#000000" transform="matrix(1.00, 0.00, -0.00, -1.00, 402.9, 303.9)">t</text><text xml:space="preserve" font-family="Menlo-Regular,Menlo" font-size="30.0" fill="#000000" transform="matrix(1.00, 0.00, -0.00, -1.00, 421.0, 303.9)">.</text><text xml:space="preserve" font-family="Menlo-Regular,Menlo" font-size="30.0" fill="#000000" transform="matrix(1.00, 0.00, -0.00, -1.00, 439.0, 303.9)">g</text><text xml:space="preserve" font-family="Menlo-Regular,Menlo" font-size="30.0" fill="#000000" transform="matrix(1.00, 0.00, -0.00, -1.00, 457.1, 303.9)">r</text><text xml:space="preserve" font-family="Menlo-Regular,Menlo" font-size="30.0" fill="#000000" transform="matrix(1.00, 0.00, -0.00, -1.00, 475.2, 303.9)">o</text><text xml:space="preserve" font-family="Menlo-Regular,Menlo" font-size="30.0" fill="#000000" transform="matrix(1.00, 0.00, -0.00, -1.00, 493.2, 303.9)">u</text><text xml:space="preserve" font-family="Menlo-Regular,Menlo" font-size="30.0" fill="#000000" transform="matrix(1.00, 0.00, -0.00, -1.00, 511.3, 303.9)">p</text><text xml:space="preserve" font-family="Menlo-Regular,Menlo" font-size="30.0" fill="#000000" transform="matrix(1.00, 0.00, -0.00, -1.00, 529.3, 303.9)">B</text><text xml:space="preserve" font-family="Menlo-Regular,Menlo" font-size="30.0" fill="#000000" transform="matrix(1.00, 0.00, -0.00, -1.00, 547.4, 303.9)">y</text><text xml:space="preserve" font-family="Menlo-Regular,Menlo" font-size="30.0" fill="#000000" transform="matrix(1.00, 0.00, -0.00, -1.00, 565.5, 303.9)">(</text><text xml:space="preserve" font-family="Menlo-Regular,Menlo" font-size="30.0" fill="#000000" transform="matrix(1.00, 0.00, -0.00, -1.00, 583.5, 303.9)">_</text><text xml:space="preserve" font-family="Menlo-Regular,Menlo" font-size="30.0" fill="#000000" transform="matrix(1.00, 0.00, -0.00, -1.00, 601.6, 303.9)"> </text><text xml:space="preserve" font-family="Menlo-Regular,Menlo" font-size="30.0" fill="#000000" transform="matrix(1.00, 0.00, -0.00, -1.00, 619.7, 303.9)">%</text><text xml:space="preserve" font-family="Menlo-Regular,Menlo" font-size="30.0" fill="#000000" transform="matrix(1.00, 0.00, -0.00, -1.00, 637.7, 303.9)"> </text><text xml:space="preserve" font-family="Menlo-Regular,Menlo" font-size="30.0" fill="#000000" transform="matrix(1.00, 0.00, -0.00, -1.00, 655.8, 303.9)">2</text><text xml:space="preserve" font-family="Menlo-Regular,Menlo" font-size="30.0" fill="#000000" transform="matrix(1.00, 0.00, -0.00, -1.00, 673.9, 303.9)"> </text><text xml:space="preserve" font-family="Menlo-Regular,Menlo" font-size="30.0" fill="#000000" transform="matrix(1.00, 0.00, -0.00, -1.00, 691.9, 303.9)">=</text><text xml:space="preserve" font-family="Menlo-Regular,Menlo" font-size="30.0" fill="#000000" transform="matrix(1.00, 0.00, -0.00, -1.00, 710.0, 303.9)">=</text><text xml:space="preserve" font-family="Menlo-Regular,Menlo" font-size="30.0" fill="#000000" transform="matrix(1.00, 0.00, -0.00, -1.00, 728.1, 303.9)"> </text><text xml:space="preserve" font-family="Menlo-Regular,Menlo" font-size="30.0" fill="#000000" transform="matrix(1.00, 0.00, -0.00, -1.00, 746.1, 303.9)">0</text><text xml:space="preserve" font-family="Menlo-Regular,Menlo" font-size="30.0" fill="#000000" transform="matrix(1.00, 0.00, -0.00, -1.00, 764.2, 303.9)">)</text><text xml:space="preserve" font-family="Menlo-Regular,Menlo" font-size="30.0" fill="#000000" transform="matrix(1.00, 0.00, -0.00, -1.00, 782.2, 303.9)"> </text><text xml:space="preserve" font-family="Menlo-Regular,Menlo" font-size="30.0" fill="#163D40" transform="matrix(1.00, 0.00, -0.00, -1.00, 95.8, 233.9)">v</text><text xml:space="preserve" font-family="Menlo-Regular,Menlo" font-size="30.0" fill="#163D40" transform="matrix(1.00, 0.00, -0.00, -1.00, 113.9, 233.9)">a</text><text xml:space="preserve" font-family="Menlo-Regular,Menlo" font-size="30.0" fill="#163D40" transform="matrix(1.00, 0.00, -0.00, -1.00, 131.9, 233.9)">l</text><text xml:space="preserve" font-family="Menlo-Regular,Menlo" font-size="30.0" fill="#163D40" transform="matrix(1.00, 0.00, -0.00, -1.00, 150.0, 233.9)"> </text><text xml:space="preserve" font-family="Menlo-Regular,Menlo" font-size="30.0" fill="#163D40" transform="matrix(1.00, 0.00, -0.00, -1.00, 168.1, 233.9)">o</text><text xml:space="preserve" font-family="Menlo-Regular,Menlo" font-size="30.0" fill="#163D40" transform="matrix(1.00, 0.00, -0.00, -1.00, 186.1, 233.9)">r</text><text xml:space="preserve" font-family="Menlo-Regular,Menlo" font-size="30.0" fill="#163D40" transform="matrix(1.00, 0.00, -0.00, -1.00, 204.2, 233.9)">i</text><text xml:space="preserve" font-family="Menlo-Regular,Menlo" font-size="30.0" fill="#163D40" transform="matrix(1.00, 0.00, -0.00, -1.00, 222.2, 233.9)">g</text><text xml:space="preserve" font-family="Menlo-Regular,Menlo" font-size="30.0" fill="#163D40" transform="matrix(1.00, 0.00, -0.00, -1.00, 240.3, 233.9)">i</text><text xml:space="preserve" font-family="Menlo-Regular,Menlo" font-size="30.0" fill="#163D40" transform="matrix(1.00, 0.00, -0.00, -1.00, 258.4, 233.9)">n</text><text xml:space="preserve" font-family="Menlo-Regular,Menlo" font-size="30.0" fill="#163D40" transform="matrix(1.00, 0.00, -0.00, -1.00, 276.4, 233.9)">a</text><text xml:space="preserve" font-family="Menlo-Regular,Menlo" font-size="30.0" fill="#163D40" transform="matrix(1.00, 0.00, -0.00, -1.00, 294.5, 233.9)">l</text><text xml:space="preserve" font-family="Menlo-Regular,Menlo" font-size="30.0" fill="#163D40" transform="matrix(1.00, 0.00, -0.00, -1.00, 312.6, 233.9)"> </text><text xml:space="preserve" font-family="Menlo-Regular,Menlo" font-size="30.0" fill="#163D40" transform="matrix(1.00, 0.00, -0.00, -1.00, 330.6, 233.9)">=</text><text xml:space="preserve" font-family="Menlo-Regular,Menlo" font-size="30.0" fill="#163D40" transform="matrix(1.00, 0.00, -0.00, -1.00, 348.7, 233.9)"> </text><text xml:space="preserve" font-family="Menlo-Regular,Menlo" font-size="30.0" fill="#163D40" transform="matrix(1.00, 0.00, -0.00, -1.00, 366.8, 233.9)">M</text><text xml:space="preserve" font-family="Menlo-Regular,Menlo" font-size="30.0" fill="#163D40" transform="matrix(1.00, 0.00, -0.00, -1.00, 384.8, 233.9)">a</text><text xml:space="preserve" font-family="Menlo-Regular,Menlo" font-size="30.0" fill="#163D40" transform="matrix(1.00, 0.00, -0.00, -1.00, 402.9, 233.9)">p</text><text xml:space="preserve" font-family="Menlo-Regular,Menlo" font-size="30.0" fill="#163D40" transform="matrix(1.00, 0.00, -0.00, -1.00, 421.0, 233.9)">(</text><text xml:space="preserve" font-family="Menlo-Regular,Menlo" font-size="30.0" fill="#163D40" transform="matrix(1.00, 0.00, -0.00, -1.00, 439.0, 233.9)">‘</text><text xml:space="preserve" font-family="Menlo-Regular,Menlo" font-size="30.0" fill="#163D40" transform="matrix(1.00, 0.00, -0.00, -1.00, 457.1, 233.9)">o</text><text xml:space="preserve" font-family="Menlo-Regular,Menlo" font-size="30.0" fill="#163D40" transform="matrix(1.00, 0.00, -0.00, -1.00, 475.2, 233.9)">d</text><text xml:space="preserve" font-family="Menlo-Regular,Menlo" font-size="30.0" fill="#163D40" transform="matrix(1.00, 0.00, -0.00, -1.00, 493.2, 233.9)">d</text><text xml:space="preserve" font-family="Menlo-Regular,Menlo" font-size="30.0" fill="#163D40" transform="matrix(1.00, 0.00, -0.00, -1.00, 511.3, 233.9)"> </text><text xml:space="preserve" font-family="Menlo-Regular,Menlo" font-size="30.0" fill="#163D40" transform="matrix(1.00, 0.00, -0.00, -1.00, 529.3, 233.9)">-</text><text xml:space="preserve" font-family="Menlo-Regular,Menlo" font-size="30.0" fill="#163D40" transform="matrix(1.00, 0.00, -0.00, -1.00, 547.4, 233.9)">&gt;</text><text xml:space="preserve" font-family="Menlo-Regular,Menlo" font-size="30.0" fill="#163D40" transform="matrix(1.00, 0.00, -0.00, -1.00, 565.5, 233.9)"> </text><text xml:space="preserve" font-family="Menlo-Regular,Menlo" font-size="30.0" fill="#163D40" transform="matrix(1.00, 0.00, -0.00, -1.00, 583.5, 233.9)">g</text><text xml:space="preserve" font-family="Menlo-Regular,Menlo" font-size="30.0" fill="#163D40" transform="matrix(1.00, 0.00, -0.00, -1.00, 601.6, 233.9)">r</text><text xml:space="preserve" font-family="Menlo-Regular,Menlo" font-size="30.0" fill="#163D40" transform="matrix(1.00, 0.00, -0.00, -1.00, 619.7, 233.9)">o</text><text xml:space="preserve" font-family="Menlo-Regular,Menlo" font-size="30.0" fill="#163D40" transform="matrix(1.00, 0.00, -0.00, -1.00, 637.7, 233.9)">u</text><text xml:space="preserve" font-family="Menlo-Regular,Menlo" font-size="30.0" fill="#163D40" transform="matrix(1.00, 0.00, -0.00, -1.00, 655.8, 233.9)">p</text><text xml:space="preserve" font-family="Menlo-Regular,Menlo" font-size="30.0" fill="#163D40" transform="matrix(1.00, 0.00, -0.00, -1.00, 673.9, 233.9)">e</text><text xml:space="preserve" font-family="Menlo-Regular,Menlo" font-size="30.0" fill="#163D40" transform="matrix(1.00, 0.00, -0.00, -1.00, 691.9, 233.9)">d</text><text xml:space="preserve" font-family="Menlo-Regular,Menlo" font-size="30.0" fill="#163D40" transform="matrix(1.00, 0.00, -0.00, -1.00, 710.0, 233.9)">(</text><text xml:space="preserve" font-family="Menlo-Regular,Menlo" font-size="30.0" fill="#163D40" transform="matrix(1.00, 0.00, -0.00, -1.00, 728.1, 233.9)">f</text><text xml:space="preserve" font-family="Menlo-Regular,Menlo" font-size="30.0" fill="#163D40" transform="matrix(1.00, 0.00, -0.00, -1.00, 746.1, 233.9)">a</text><text xml:space="preserve" font-family="Menlo-Regular,Menlo" font-size="30.0" fill="#163D40" transform="matrix(1.00, 0.00, -0.00, -1.00, 764.2, 233.9)">l</text><text xml:space="preserve" font-family="Menlo-Regular,Menlo" font-size="30.0" fill="#163D40" transform="matrix(1.00, 0.00, -0.00, -1.00, 782.2, 233.9)">s</text><text xml:space="preserve" font-family="Menlo-Regular,Menlo" font-size="30.0" fill="#163D40" transform="matrix(1.00, 0.00, -0.00, -1.00, 800.3, 233.9)">e</text><text xml:space="preserve" font-family="Menlo-Regular,Menlo" font-size="30.0" fill="#163D40" transform="matrix(1.00, 0.00, -0.00, -1.00, 818.4, 233.9)">)</text><text xml:space="preserve" font-family="Menlo-Regular,Menlo" font-size="30.0" fill="#163D40" transform="matrix(1.00, 0.00, -0.00, -1.00, 836.4, 233.9)">,</text><text xml:space="preserve" font-family="Menlo-Regular,Menlo" font-size="30.0" fill="#163D40" transform="matrix(1.00, 0.00, -0.00, -1.00, 854.5, 233.9)"> </text><text xml:space="preserve" font-family="Menlo-Regular,Menlo" font-size="30.0" fill="#163D40" transform="matrix(1.00, 0.00, -0.00, -1.00, 872.6, 233.9)"> </text><text xml:space="preserve" font-family="Menlo-Regular,Menlo" font-size="30.0" fill="#163D40" transform="matrix(1.00, 0.00, -0.00, -1.00, 95.8, 198.9)"> </text><text xml:space="preserve" font-family="Menlo-Regular,Menlo" font-size="30.0" fill="#163D40" transform="matrix(1.00, 0.00, -0.00, -1.00, 131.8, 198.9)">‘</text><text xml:space="preserve" font-family="Menlo-Regular,Menlo" font-size="30.0" fill="#163D40" transform="matrix(1.00, 0.00, -0.00, -1.00, 149.9, 198.9)">e</text><text xml:space="preserve" font-family="Menlo-Regular,Menlo" font-size="30.0" fill="#163D40" transform="matrix(1.00, 0.00, -0.00, -1.00, 167.9, 198.9)">v</text><text xml:space="preserve" font-family="Menlo-Regular,Menlo" font-size="30.0" fill="#163D40" transform="matrix(1.00, 0.00, -0.00, -1.00, 186.0, 198.9)">e</text><text xml:space="preserve" font-family="Menlo-Regular,Menlo" font-size="30.0" fill="#163D40" transform="matrix(1.00, 0.00, -0.00, -1.00, 204.0, 198.9)">n</text><text xml:space="preserve" font-family="Menlo-Regular,Menlo" font-size="30.0" fill="#163D40" transform="matrix(1.00, 0.00, -0.00, -1.00, 222.1, 198.9)"> </text><text xml:space="preserve" font-family="Menlo-Regular,Menlo" font-size="30.0" fill="#163D40" transform="matrix(1.00, 0.00, -0.00, -1.00, 240.2, 198.9)">-</text><text xml:space="preserve" font-family="Menlo-Regular,Menlo" font-size="30.0" fill="#163D40" transform="matrix(1.00, 0.00, -0.00, -1.00, 258.2, 198.9)">&gt;</text><text xml:space="preserve" font-family="Menlo-Regular,Menlo" font-size="30.0" fill="#163D40" transform="matrix(1.00, 0.00, -0.00, -1.00, 276.3, 198.9)"> </text><text xml:space="preserve" font-family="Menlo-Regular,Menlo" font-size="30.0" fill="#163D40" transform="matrix(1.00, 0.00, -0.00, -1.00, 294.4, 198.9)">g</text><text xml:space="preserve" font-family="Menlo-Regular,Menlo" font-size="30.0" fill="#163D40" transform="matrix(1.00, 0.00, -0.00, -1.00, 312.4, 198.9)">r</text><text xml:space="preserve" font-family="Menlo-Regular,Menlo" font-size="30.0" fill="#163D40" transform="matrix(1.00, 0.00, -0.00, -1.00, 330.5, 198.9)">o</text><text xml:space="preserve" font-family="Menlo-Regular,Menlo" font-size="30.0" fill="#163D40" transform="matrix(1.00, 0.00, -0.00, -1.00, 348.5, 198.9)">u</text><text xml:space="preserve" font-family="Menlo-Regular,Menlo" font-size="30.0" fill="#163D40" transform="matrix(1.00, 0.00, -0.00, -1.00, 366.6, 198.9)">p</text><text xml:space="preserve" font-family="Menlo-Regular,Menlo" font-size="30.0" fill="#163D40" transform="matrix(1.00, 0.00, -0.00, -1.00, 384.7, 198.9)">e</text><text xml:space="preserve" font-family="Menlo-Regular,Menlo" font-size="30.0" fill="#163D40" transform="matrix(1.00, 0.00, -0.00, -1.00, 402.7, 198.9)">d</text><text xml:space="preserve" font-family="Menlo-Regular,Menlo" font-size="30.0" fill="#163D40" transform="matrix(1.00, 0.00, -0.00, -1.00, 420.8, 198.9)">(</text><text xml:space="preserve" font-family="Menlo-Regular,Menlo" font-size="30.0" fill="#163D40" transform="matrix(1.00, 0.00, -0.00, -1.00, 438.8, 198.9)">t</text><text xml:space="preserve" font-family="Menlo-Regular,Menlo" font-size="30.0" fill="#163D40" transform="matrix(1.00, 0.00, -0.00, -1.00, 456.9, 198.9)">r</text><text xml:space="preserve" font-family="Menlo-Regular,Menlo" font-size="30.0" fill="#163D40" transform="matrix(1.00, 0.00, -0.00, -1.00, 475.0, 198.9)">u</text><text xml:space="preserve" font-family="Menlo-Regular,Menlo" font-size="30.0" fill="#163D40" transform="matrix(1.00, 0.00, -0.00, -1.00, 493.0, 198.9)">e</text><text xml:space="preserve" font-family="Menlo-Regular,Menlo" font-size="30.0" fill="#163D40" transform="matrix(1.00, 0.00, -0.00, -1.00, 511.1, 198.9)">)</text><text xml:space="preserve" font-family="Menlo-Regular,Menlo" font-size="30.0" fill="#163D40" transform="matrix(1.00, 0.00, -0.00, -1.00, 529.2, 198.9)">)</text><text xml:space="preserve" font-family="Menlo-Regular,Menlo" font-size="30.0" fill="#163D40" transform="matrix(1.00, 0.00, -0.00, -1.00, 547.2, 198.9)"> </text><g><clipPath id="clip0x6080028bcaa0"><path d="M 87.1 161.8 L 937.2 161.8 L 937.2 541.8 L 87.1 541.8 Z M 87.1 161.8 "></path></clipPath><g clip-path="url(#clip0x6080028bcaa0)"></g></g><text xml:space="preserve" font-family="HelveticaNeue-Medium,Helvetica Neue" font-size="62.0" fill="#000000" transform="matrix(1.00, 0.00, -0.00, -1.00, 257.0, 637.0)">M</text><text xml:space="preserve" font-family="HelveticaNeue-Medium,Helvetica Neue" font-size="62.0" fill="#000000" transform="matrix(1.00, 0.00, -0.00, -1.00, 312.2, 637.0)">a</text><text xml:space="preserve" font-family="HelveticaNeue-Medium,Helvetica Neue" font-size="62.0" fill="#000000" transform="matrix(1.00, 0.00, -0.00, -1.00, 346.7, 637.0)">p</text><text xml:space="preserve" font-family="HelveticaNeue-Medium,Helvetica Neue" font-size="62.0" fill="#000000" transform="matrix(1.00, 0.00, -0.00, -1.00, 384.6, 637.0)"> </text><text xml:space="preserve" font-family="HelveticaNeue-Medium,Helvetica Neue" font-size="62.0" fill="#000000" transform="matrix(1.00, 0.00, -0.00, -1.00, 401.8, 637.0)"> </text><text xml:space="preserve" font-family="HelveticaNeue-Medium,Helvetica Neue" font-size="62.0" fill="#000000" transform="matrix(1.00, 0.00, -0.00, -1.00, 419.1, 637.0)"> </text><text xml:space="preserve" font-family="HelveticaNeue-Medium,Helvetica Neue" font-size="62.0" fill="#000000" transform="matrix(1.00, 0.00, -0.00, -1.00, 436.3, 637.0)"> </text><text xml:space="preserve" font-family="HelveticaNeue-Medium,Helvetica Neue" font-size="62.0" fill="#000000" transform="matrix(1.00, 0.00, -0.00, -1.00, 453.6, 637.0)"> </text><text xml:space="preserve" font-family="HelveticaNeue-Medium,Helvetica Neue" font-size="62.0" fill="#000000" transform="matrix(1.00, 0.00, -0.00, -1.00, 470.8, 637.0)"> </text><text xml:space="preserve" font-family="HelveticaNeue-Medium,Helvetica Neue" font-size="62.0" fill="#000000" transform="matrix(1.00, 0.00, -0.00, -1.00, 488.1, 637.0)"> </text><text xml:space="preserve" font-family="HelveticaNeue-Medium,Helvetica Neue" font-size="62.0" fill="#000000" transform="matrix(1.00, 0.00, -0.00, -1.00, 505.3, 637.0)"> </text><text xml:space="preserve" font-family="HelveticaNeue-Medium,Helvetica Neue" font-size="62.0" fill="#000000" transform="matrix(1.00, 0.00, -0.00, -1.00, 522.6, 637.0)">S</text><text xml:space="preserve" font-family="HelveticaNeue-Medium,Helvetica Neue" font-size="62.0" fill="#000000" transform="matrix(1.00, 0.00, -0.00, -1.00, 562.8, 637.0)">e</text><text xml:space="preserve" font-family="HelveticaNeue-Medium,Helvetica Neue" font-size="62.0" fill="#000000" transform="matrix(1.00, 0.00, -0.00, -1.00, 597.3, 637.0)">q</text><image xlink:href="../../B487C36D-E658-4F19-B647-040A81FB28F0/assets/793F7FF135A52E535FEA3FC05AAB1AFD.png" width="167.00" height="246.00" transform="matrix(0.25, 0.00, -0.00, -0.25, 952.0, 100.5)"></image><path d="M 0.4 -0.4 L 92.9 -0.4 L 95.4 -0.4 " fill="none" stroke="#000000" stroke-width="6.00" transform="matrix(1.00, 0.00, 0.00, -1.00, 397.6, 672.6)"></path><path d="M 490.0 661.0 L 514.0 673.0 L 490.0 685.0 Z M 490.0 661.0 " fill="#000000"></path><path d="M 21.4 -0.4 L 24.0 -0.4 L 116.4 -0.4 " fill="none" stroke="#000000" stroke-width="6.00" transform="matrix(1.00, 0.00, 0.00, -1.00, 397.6, 644.6)"></path><path d="M 422.0 657.0 L 398.0 645.0 L 422.0 633.0 Z M 422.0 657.0 " fill="#000000"></path></g></svg>