<?xml version="1.0" encoding="UTF-8" standalone="no"?><svg xmlns="http://www.w3.org/2000/svg" xmlns:xlink="http://www.w3.org/1999/xlink" clip-rule="evenodd" stroke-miterlimit="10" viewBox="0 0 421 224"><desc>SVG generated by Keynote</desc><defs></defs><g transform="matrix(1.00, 0.00, -0.00, -1.00, 0.0, 224.0)"><text xml:space="preserve" font-family="Menlo-Regular,Menlo" font-size="17.0" fill="#008800" transform="matrix(1.00, 0.00, -0.00, -1.00, 1.0, 123.0)">o</text><text xml:space="preserve" font-family="Menlo-Regular,Menlo" font-size="17.0" fill="#008800" transform="matrix(1.00, 0.00, -0.00, -1.00, 11.2, 123.0)">b</text><text xml:space="preserve" font-family="Menlo-Regular,Menlo" font-size="17.0" fill="#008800" transform="matrix(1.00, 0.00, -0.00, -1.00, 21.5, 123.0)">j</text><text xml:space="preserve" font-family="Menlo-Regular,Menlo" font-size="17.0" fill="#008800" transform="matrix(1.00, 0.00, -0.00, -1.00, 31.7, 123.0)">e</text><text xml:space="preserve" font-family="Menlo-Regular,Menlo" font-size="17.0" fill="#008800" transform="matrix(1.00, 0.00, -0.00, -1.00, 41.9, 123.0)">c</text><text xml:space="preserve" font-family="Menlo-Regular,Menlo" font-size="17.0" fill="#008800" transform="matrix(1.00, 0.00, -0.00, -1.00, 52.2, 123.0)">t</text><text xml:space="preserve" font-family="Menlo-Regular,Menlo" font-size="17.0" fill="#000000" transform="matrix(1.00, 0.00, -0.00, -1.00, 62.4, 123.0)"> </text><text xml:space="preserve" font-family="Menlo-Regular,Menlo" font-size="17.0" fill="#870E00" transform="matrix(1.00, 0.00, -0.00, -1.00, 72.6, 123.0)">A</text><text xml:space="preserve" font-family="Menlo-Regular,Menlo" font-size="17.0" fill="#870E00" transform="matrix(1.00, 0.00, -0.00, -1.00, 82.9, 123.0)">p</text><text xml:space="preserve" font-family="Menlo-Regular,Menlo" font-size="17.0" fill="#870E00" transform="matrix(1.00, 0.00, -0.00, -1.00, 93.1, 123.0)">p</text><text xml:space="preserve" font-family="Menlo-Regular,Menlo" font-size="17.0" fill="#870E00" transform="matrix(1.00, 0.00, -0.00, -1.00, 103.4, 123.0)">l</text><text xml:space="preserve" font-family="Menlo-Regular,Menlo" font-size="17.0" fill="#870E00" transform="matrix(1.00, 0.00, -0.00, -1.00, 113.6, 123.0)">i</text><text xml:space="preserve" font-family="Menlo-Regular,Menlo" font-size="17.0" fill="#870E00" transform="matrix(1.00, 0.00, -0.00, -1.00, 123.8, 123.0)">c</text><text xml:space="preserve" font-family="Menlo-Regular,Menlo" font-size="17.0" fill="#870E00" transform="matrix(1.00, 0.00, -0.00, -1.00, 134.1, 123.0)">a</text><text xml:space="preserve" font-family="Menlo-Regular,Menlo" font-size="17.0" fill="#870E00" transform="matrix(1.00, 0.00, -0.00, -1.00, 144.3, 123.0)">t</text><text xml:space="preserve" font-family="Menlo-Regular,Menlo" font-size="17.0" fill="#870E00" transform="matrix(1.00, 0.00, -0.00, -1.00, 154.5, 123.0)">i</text><text xml:space="preserve" font-family="Menlo-Regular,Menlo" font-size="17.0" fill="#870E00" transform="matrix(1.00, 0.00, -0.00, -1.00, 164.8, 123.0)">o</text><text xml:space="preserve" font-family="Menlo-Regular,Menlo" font-size="17.0" fill="#870E00" transform="matrix(1.00, 0.00, -0.00, -1.00, 175.0, 123.0)">n</text><text xml:space="preserve" font-family="Menlo-Regular,Menlo" font-size="17.0" fill="#000000" transform="matrix(1.00, 0.00, -0.00, -1.00, 185.2, 123.0)"> </text><text xml:space="preserve" font-family="Menlo-Regular,Menlo" font-size="17.0" fill="#000000" transform="matrix(1.00, 0.00, -0.00, -1.00, 195.5, 123.0)">{</text><text xml:space="preserve" font-family="Menlo-Regular,Menlo" font-size="17.0" fill="#000000" transform="matrix(1.00, 0.00, -0.00, -1.00, 205.7, 123.0)"> </text><text xml:space="preserve" font-family="Menlo-Regular,Menlo" font-size="17.0" fill="#000000" transform="matrix(1.00, 0.00, -0.00, -1.00, 1.0, 103.0)"> </text><text xml:space="preserve" font-family="Menlo-Regular,Menlo" font-size="17.0" fill="#000000" transform="matrix(1.00, 0.00, -0.00, -1.00, 11.2, 103.0)"> </text><text xml:space="preserve" font-family="Menlo-Regular,Menlo" font-size="17.0" fill="#008800" transform="matrix(1.00, 0.00, -0.00, -1.00, 21.5, 103.0)">d</text><text xml:space="preserve" font-family="Menlo-Regular,Menlo" font-size="17.0" fill="#008800" transform="matrix(1.00, 0.00, -0.00, -1.00, 31.7, 103.0)">e</text><text xml:space="preserve" font-family="Menlo-Regular,Menlo" font-size="17.0" fill="#008800" transform="matrix(1.00, 0.00, -0.00, -1.00, 41.9, 103.0)">f</text><text xml:space="preserve" font-family="Menlo-Regular,Menlo" font-size="17.0" fill="#000000" transform="matrix(1.00, 0.00, -0.00, -1.00, 52.2, 103.0)"> </text><text xml:space="preserve" font-family="Menlo-Regular,Menlo" font-size="17.0" fill="#870E00" transform="matrix(1.00, 0.00, -0.00, -1.00, 62.4, 103.0)">m</text><text xml:space="preserve" font-family="Menlo-Regular,Menlo" font-size="17.0" fill="#870E00" transform="matrix(1.00, 0.00, -0.00, -1.00, 72.6, 103.0)">a</text><text xml:space="preserve" font-family="Menlo-Regular,Menlo" font-size="17.0" fill="#870E00" transform="matrix(1.00, 0.00, -0.00, -1.00, 82.9, 103.0)">i</text><text xml:space="preserve" font-family="Menlo-Regular,Menlo" font-size="17.0" fill="#870E00" transform="matrix(1.00, 0.00, -0.00, -1.00, 93.1, 103.0)">n</text><text xml:space="preserve" font-family="Menlo-Regular,Menlo" font-size="17.0" fill="#000000" transform="matrix(1.00, 0.00, -0.00, -1.00, 103.3, 103.0)">(</text><text xml:space="preserve" font-family="Menlo-Regular,Menlo" font-size="17.0" fill="#003277" transform="matrix(1.00, 0.00, -0.00, -1.00, 113.6, 103.0)">a</text><text xml:space="preserve" font-family="Menlo-Regular,Menlo" font-size="17.0" fill="#003277" transform="matrix(1.00, 0.00, -0.00, -1.00, 123.8, 103.0)">r</text><text xml:space="preserve" font-family="Menlo-Regular,Menlo" font-size="17.0" fill="#003277" transform="matrix(1.00, 0.00, -0.00, -1.00, 134.1, 103.0)">g</text><text xml:space="preserve" font-family="Menlo-Regular,Menlo" font-size="17.0" fill="#003277" transform="matrix(1.00, 0.00, -0.00, -1.00, 144.3, 103.0)">s</text><text xml:space="preserve" font-family="Menlo-Regular,Menlo" font-size="17.0" fill="#000000" transform="matrix(1.00, 0.00, -0.00, -1.00, 154.5, 103.0)">:</text><text xml:space="preserve" font-family="Menlo-Regular,Menlo" font-size="17.0" fill="#000000" transform="matrix(1.00, 0.00, -0.00, -1.00, 164.8, 103.0)"> </text><text xml:space="preserve" font-family="Menlo-Regular,Menlo" font-size="17.0" fill="#870E00" transform="matrix(1.00, 0.00, -0.00, -1.00, 175.0, 103.0)">A</text><text xml:space="preserve" font-family="Menlo-Regular,Menlo" font-size="17.0" fill="#870E00" transform="matrix(1.00, 0.00, -0.00, -1.00, 185.2, 103.0)">r</text><text xml:space="preserve" font-family="Menlo-Regular,Menlo" font-size="17.0" fill="#870E00" transform="matrix(1.00, 0.00, -0.00, -1.00, 195.5, 103.0)">r</text><text xml:space="preserve" font-family="Menlo-Regular,Menlo" font-size="17.0" fill="#870E00" transform="matrix(1.00, 0.00, -0.00, -1.00, 205.7, 103.0)">a</text><text xml:space="preserve" font-family="Menlo-Regular,Menlo" font-size="17.0" fill="#870E00" transform="matrix(1.00, 0.00, -0.00, -1.00, 215.9, 103.0)">y</text><text xml:space="preserve" font-family="Menlo-Regular,Menlo" font-size="17.0" fill="#000000" transform="matrix(1.00, 0.00, -0.00, -1.00, 226.2, 103.0)">[</text><text xml:space="preserve" font-family="Menlo-Regular,Menlo" font-size="17.0" fill="#008800" transform="matrix(1.00, 0.00, -0.00, -1.00, 236.4, 103.0)">S</text><text xml:space="preserve" font-family="Menlo-Regular,Menlo" font-size="17.0" fill="#008800" transform="matrix(1.00, 0.00, -0.00, -1.00, 246.6, 103.0)">t</text><text xml:space="preserve" font-family="Menlo-Regular,Menlo" font-size="17.0" fill="#008800" transform="matrix(1.00, 0.00, -0.00, -1.00, 256.9, 103.0)">r</text><text xml:space="preserve" font-family="Menlo-Regular,Menlo" font-size="17.0" fill="#008800" transform="matrix(1.00, 0.00, -0.00, -1.00, 267.1, 103.0)">i</text><text xml:space="preserve" font-family="Menlo-Regular,Menlo" font-size="17.0" fill="#008800" transform="matrix(1.00, 0.00, -0.00, -1.00, 277.3, 103.0)">n</text><text xml:space="preserve" font-family="Menlo-Regular,Menlo" font-size="17.0" fill="#008800" transform="matrix(1.00, 0.00, -0.00, -1.00, 287.6, 103.0)">g</text><text xml:space="preserve" font-family="Menlo-Regular,Menlo" font-size="17.0" fill="#000000" transform="matrix(1.00, 0.00, -0.00, -1.00, 297.8, 103.0)">]</text><text xml:space="preserve" font-family="Menlo-Regular,Menlo" font-size="17.0" fill="#000000" transform="matrix(1.00, 0.00, -0.00, -1.00, 308.0, 103.0)">)</text><text xml:space="preserve" font-family="Menlo-Regular,Menlo" font-size="17.0" fill="#000000" transform="matrix(1.00, 0.00, -0.00, -1.00, 318.3, 103.0)">:</text><text xml:space="preserve" font-family="Menlo-Regular,Menlo" font-size="17.0" fill="#000000" transform="matrix(1.00, 0.00, -0.00, -1.00, 328.5, 103.0)"> </text><text xml:space="preserve" font-family="Menlo-Regular,Menlo" font-size="17.0" fill="#000000" transform="matrix(1.00, 0.00, -0.00, -1.00, 338.8, 103.0)">U</text><text xml:space="preserve" font-family="Menlo-Regular,Menlo" font-size="17.0" fill="#000000" transform="matrix(1.00, 0.00, -0.00, -1.00, 349.0, 103.0)">n</text><text xml:space="preserve" font-family="Menlo-Regular,Menlo" font-size="17.0" fill="#000000" transform="matrix(1.00, 0.00, -0.00, -1.00, 359.2, 103.0)">i</text><text xml:space="preserve" font-family="Menlo-Regular,Menlo" font-size="17.0" fill="#000000" transform="matrix(1.00, 0.00, -0.00, -1.00, 369.5, 103.0)">t</text><text xml:space="preserve" font-family="Menlo-Regular,Menlo" font-size="17.0" fill="#000000" transform="matrix(1.00, 0.00, -0.00, -1.00, 379.7, 103.0)"> </text><text xml:space="preserve" font-family="Menlo-Regular,Menlo" font-size="17.0" fill="#000000" transform="matrix(1.00, 0.00, -0.00, -1.00, 389.9, 103.0)">=</text><text xml:space="preserve" font-family="Menlo-Regular,Menlo" font-size="17.0" fill="#000000" transform="matrix(1.00, 0.00, -0.00, -1.00, 400.2, 103.0)"> </text><text xml:space="preserve" font-family="Menlo-Regular,Menlo" font-size="17.0" fill="#000000" transform="matrix(1.00, 0.00, -0.00, -1.00, 410.4, 103.0)">{</text><text xml:space="preserve" font-family="Menlo-Regular,Menlo" font-size="17.0" fill="#008800" transform="matrix(1.00, 0.00, -0.00, -1.00, 420.6, 103.0)"> </text><text xml:space="preserve" font-family="Menlo-Regular,Menlo" font-size="17.0" fill="#000000" transform="matrix(1.00, 0.00, -0.00, -1.00, 1.0, 83.0)"> </text><text xml:space="preserve" font-family="Menlo-Regular,Menlo" font-size="17.0" fill="#000000" transform="matrix(1.00, 0.00, -0.00, -1.00, 11.2, 83.0)"> </text><text xml:space="preserve" font-family="Menlo-Regular,Menlo" font-size="17.0" fill="#000000" transform="matrix(1.00, 0.00, -0.00, -1.00, 21.5, 83.0)"> </text><text xml:space="preserve" font-family="Menlo-Regular,Menlo" font-size="17.0" fill="#000000" transform="matrix(1.00, 0.00, -0.00, -1.00, 31.7, 83.0)"> </text><text xml:space="preserve" font-family="Menlo-Regular,Menlo" font-size="17.0" fill="#008800" transform="matrix(1.00, 0.00, -0.00, -1.00, 41.9, 83.0)">a</text><text xml:space="preserve" font-family="Menlo-Regular,Menlo" font-size="17.0" fill="#008800" transform="matrix(1.00, 0.00, -0.00, -1.00, 52.2, 83.0)">r</text><text xml:space="preserve" font-family="Menlo-Regular,Menlo" font-size="17.0" fill="#008800" transform="matrix(1.00, 0.00, -0.00, -1.00, 62.4, 83.0)">g</text><text xml:space="preserve" font-family="Menlo-Regular,Menlo" font-size="17.0" fill="#008800" transform="matrix(1.00, 0.00, -0.00, -1.00, 72.6, 83.0)">s</text><text xml:space="preserve" font-family="Menlo-Regular,Menlo" font-size="17.0" fill="#008800" transform="matrix(1.00, 0.00, -0.00, -1.00, 82.9, 83.0)">.</text><text xml:space="preserve" font-family="Menlo-Regular,Menlo" font-size="17.0" fill="#008800" transform="matrix(1.00, 0.00, -0.00, -1.00, 93.1, 83.0)">f</text><text xml:space="preserve" font-family="Menlo-Regular,Menlo" font-size="17.0" fill="#008800" transform="matrix(1.00, 0.00, -0.00, -1.00, 103.4, 83.0)">o</text><text xml:space="preserve" font-family="Menlo-Regular,Menlo" font-size="17.0" fill="#008800" transform="matrix(1.00, 0.00, -0.00, -1.00, 113.6, 83.0)">r</text><text xml:space="preserve" font-family="Menlo-Regular,Menlo" font-size="17.0" fill="#008800" transform="matrix(1.00, 0.00, -0.00, -1.00, 123.8, 83.0)">e</text><text xml:space="preserve" font-family="Menlo-Regular,Menlo" font-size="17.0" fill="#008800" transform="matrix(1.00, 0.00, -0.00, -1.00, 134.1, 83.0)">a</text><text xml:space="preserve" font-family="Menlo-Regular,Menlo" font-size="17.0" fill="#008800" transform="matrix(1.00, 0.00, -0.00, -1.00, 144.3, 83.0)">c</text><text xml:space="preserve" font-family="Menlo-Regular,Menlo" font-size="17.0" fill="#008800" transform="matrix(1.00, 0.00, -0.00, -1.00, 154.5, 83.0)">h</text><text xml:space="preserve" font-family="Menlo-Regular,Menlo" font-size="17.0" fill="#000000" transform="matrix(1.00, 0.00, -0.00, -1.00, 164.8, 83.0)"> </text><text xml:space="preserve" font-family="Menlo-Regular,Menlo" font-size="17.0" fill="#000000" transform="matrix(1.00, 0.00, -0.00, -1.00, 175.0, 83.0)">{</text><text xml:space="preserve" font-family="Menlo-Regular,Menlo" font-size="17.0" fill="#000000" transform="matrix(1.00, 0.00, -0.00, -1.00, 185.2, 83.0)"> </text><text xml:space="preserve" font-family="Menlo-Regular,Menlo" font-size="17.0" fill="#000000" transform="matrix(1.00, 0.00, -0.00, -1.00, 195.5, 83.0)">s</text><text xml:space="preserve" font-family="Menlo-Regular,Menlo" font-size="17.0" fill="#000000" transform="matrix(1.00, 0.00, -0.00, -1.00, 205.7, 83.0)">t</text><text xml:space="preserve" font-family="Menlo-Regular,Menlo" font-size="17.0" fill="#000000" transform="matrix(1.00, 0.00, -0.00, -1.00, 215.9, 83.0)">r</text><text xml:space="preserve" font-family="Menlo-Regular,Menlo" font-size="17.0" fill="#000000" transform="matrix(1.00, 0.00, -0.00, -1.00, 226.2, 83.0)"> </text><text xml:space="preserve" font-family="Menlo-Regular,Menlo" font-size="17.0" fill="#000000" transform="matrix(1.00, 0.00, -0.00, -1.00, 236.4, 83.0)">=</text><text xml:space="preserve" font-family="Menlo-Regular,Menlo" font-size="17.0" fill="#000000" transform="matrix(1.00, 0.00, -0.00, -1.00, 246.7, 83.0)">&gt;</text><text xml:space="preserve" font-family="Menlo-Regular,Menlo" font-size="17.0" fill="#000000" transform="matrix(1.00, 0.00, -0.00, -1.00, 256.9, 83.0)"> </text><text xml:space="preserve" font-family="Menlo-Regular,Menlo" font-size="17.0" fill="#000000" transform="matrix(1.00, 0.00, -0.00, -1.00, 1.0, 63.0)"> </text><text xml:space="preserve" font-family="Menlo-Regular,Menlo" font-size="17.0" fill="#000000" transform="matrix(1.00, 0.00, -0.00, -1.00, 11.2, 63.0)"> </text><text xml:space="preserve" font-family="Menlo-Regular,Menlo" font-size="17.0" fill="#000000" transform="matrix(1.00, 0.00, -0.00, -1.00, 21.5, 63.0)"> </text><text xml:space="preserve" font-family="Menlo-Regular,Menlo" font-size="17.0" fill="#000000" transform="matrix(1.00, 0.00, -0.00, -1.00, 31.7, 63.0)"> </text><text xml:space="preserve" font-family="Menlo-Regular,Menlo" font-size="17.0" fill="#000000" transform="matrix(1.00, 0.00, -0.00, -1.00, 41.9, 63.0)"> </text><text xml:space="preserve" font-family="Menlo-Regular,Menlo" font-size="17.0" fill="#000000" transform="matrix(1.00, 0.00, -0.00, -1.00, 52.2, 63.0)"> </text><text xml:space="preserve" font-family="Menlo-Regular,Menlo" font-size="17.0" fill="#000000" transform="matrix(1.00, 0.00, -0.00, -1.00, 62.4, 63.0)">p</text><text xml:space="preserve" font-family="Menlo-Regular,Menlo" font-size="17.0" fill="#000000" transform="matrix(1.00, 0.00, -0.00, -1.00, 72.7, 63.0)">r</text><text xml:space="preserve" font-family="Menlo-Regular,Menlo" font-size="17.0" fill="#000000" transform="matrix(1.00, 0.00, -0.00, -1.00, 82.9, 63.0)">i</text><text xml:space="preserve" font-family="Menlo-Regular,Menlo" font-size="17.0" fill="#000000" transform="matrix(1.00, 0.00, -0.00, -1.00, 93.1, 63.0)">n</text><text xml:space="preserve" font-family="Menlo-Regular,Menlo" font-size="17.0" fill="#000000" transform="matrix(1.00, 0.00, -0.00, -1.00, 103.4, 63.0)">t</text><text xml:space="preserve" font-family="Menlo-Regular,Menlo" font-size="17.0" fill="#000000" transform="matrix(1.00, 0.00, -0.00, -1.00, 113.6, 63.0)">l</text><text xml:space="preserve" font-family="Menlo-Regular,Menlo" font-size="17.0" fill="#000000" transform="matrix(1.00, 0.00, -0.00, -1.00, 123.8, 63.0)">n</text><text xml:space="preserve" font-family="Menlo-Regular,Menlo" font-size="17.0" fill="#000000" transform="matrix(1.00, 0.00, -0.00, -1.00, 134.1, 63.0)">(</text><text xml:space="preserve" font-family="Menlo-Regular,Menlo" font-size="17.0" fill="#008800" transform="matrix(1.00, 0.00, -0.00, -1.00, 144.3, 63.0)">n</text><text xml:space="preserve" font-family="Menlo-Regular,Menlo" font-size="17.0" fill="#008800" transform="matrix(1.00, 0.00, -0.00, -1.00, 154.5, 63.0)">e</text><text xml:space="preserve" font-family="Menlo-Regular,Menlo" font-size="17.0" fill="#008800" transform="matrix(1.00, 0.00, -0.00, -1.00, 164.8, 63.0)">w</text><text xml:space="preserve" font-family="Menlo-Regular,Menlo" font-size="17.0" fill="#000000" transform="matrix(1.00, 0.00, -0.00, -1.00, 175.0, 63.0)"> </text><text xml:space="preserve" font-family="Menlo-Regular,Menlo" font-size="17.0" fill="#870E00" transform="matrix(1.00, 0.00, -0.00, -1.00, 185.2, 63.0)">P</text><text xml:space="preserve" font-family="Menlo-Regular,Menlo" font-size="17.0" fill="#870E00" transform="matrix(1.00, 0.00, -0.00, -1.00, 195.5, 63.0)">a</text><text xml:space="preserve" font-family="Menlo-Regular,Menlo" font-size="17.0" fill="#870E00" transform="matrix(1.00, 0.00, -0.00, -1.00, 205.7, 63.0)">r</text><text xml:space="preserve" font-family="Menlo-Regular,Menlo" font-size="17.0" fill="#870E00" transform="matrix(1.00, 0.00, -0.00, -1.00, 215.9, 63.0)">s</text><text xml:space="preserve" font-family="Menlo-Regular,Menlo" font-size="17.0" fill="#870E00" transform="matrix(1.00, 0.00, -0.00, -1.00, 226.2, 63.0)">e</text><text xml:space="preserve" font-family="Menlo-Regular,Menlo" font-size="17.0" fill="#870E00" transform="matrix(1.00, 0.00, -0.00, -1.00, 236.4, 63.0)">r</text><text xml:space="preserve" font-family="Menlo-Regular,Menlo" font-size="17.0" fill="#000000" transform="matrix(1.00, 0.00, -0.00, -1.00, 246.6, 63.0)">(</text><text xml:space="preserve" font-family="Menlo-Regular,Menlo" font-size="17.0" fill="#000000" transform="matrix(1.00, 0.00, -0.00, -1.00, 256.9, 63.0)">s</text><text xml:space="preserve" font-family="Menlo-Regular,Menlo" font-size="17.0" fill="#000000" transform="matrix(1.00, 0.00, -0.00, -1.00, 267.1, 63.0)">t</text><text xml:space="preserve" font-family="Menlo-Regular,Menlo" font-size="17.0" fill="#000000" transform="matrix(1.00, 0.00, -0.00, -1.00, 277.3, 63.0)">r</text><text xml:space="preserve" font-family="Menlo-Regular,Menlo" font-size="17.0" fill="#000000" transform="matrix(1.00, 0.00, -0.00, -1.00, 287.6, 63.0)">)</text><text xml:space="preserve" font-family="Menlo-Regular,Menlo" font-size="17.0" fill="#000000" transform="matrix(1.00, 0.00, -0.00, -1.00, 297.8, 63.0)">.</text><text xml:space="preserve" font-family="Menlo-Regular,Menlo" font-size="17.0" fill="#000000" transform="matrix(1.00, 0.00, -0.00, -1.00, 308.1, 63.0)">p</text><text xml:space="preserve" font-family="Menlo-Regular,Menlo" font-size="17.0" fill="#000000" transform="matrix(1.00, 0.00, -0.00, -1.00, 318.3, 63.0)">a</text><text xml:space="preserve" font-family="Menlo-Regular,Menlo" font-size="17.0" fill="#000000" transform="matrix(1.00, 0.00, -0.00, -1.00, 328.5, 63.0)">r</text><text xml:space="preserve" font-family="Menlo-Regular,Menlo" font-size="17.0" fill="#000000" transform="matrix(1.00, 0.00, -0.00, -1.00, 338.8, 63.0)">s</text><text xml:space="preserve" font-family="Menlo-Regular,Menlo" font-size="17.0" fill="#000000" transform="matrix(1.00, 0.00, -0.00, -1.00, 349.0, 63.0)">e</text><text xml:space="preserve" font-family="Menlo-Regular,Menlo" font-size="17.0" fill="#000000" transform="matrix(1.00, 0.00, -0.00, -1.00, 359.2, 63.0)">)</text><text xml:space="preserve" font-family="Menlo-Regular,Menlo" font-size="17.0" fill="#000000" transform="matrix(1.00, 0.00, -0.00, -1.00, 369.5, 63.0)"> </text><text xml:space="preserve" font-family="Menlo-Regular,Menlo" font-size="17.0" fill="#000000" transform="matrix(1.00, 0.00, -0.00, -1.00, 1.0, 43.0)"> </text><text xml:space="preserve" font-family="Menlo-Regular,Menlo" font-size="17.0" fill="#000000" transform="matrix(1.00, 0.00, -0.00, -1.00, 11.2, 43.0)"> </text><text xml:space="preserve" font-family="Menlo-Regular,Menlo" font-size="17.0" fill="#000000" transform="matrix(1.00, 0.00, -0.00, -1.00, 21.5, 43.0)"> </text><text xml:space="preserve" font-family="Menlo-Regular,Menlo" font-size="17.0" fill="#000000" transform="matrix(1.00, 0.00, -0.00, -1.00, 31.7, 43.0)"> </text><text xml:space="preserve" font-family="Menlo-Regular,Menlo" font-size="17.0" fill="#000000" transform="matrix(1.00, 0.00, -0.00, -1.00, 41.9, 43.0)">}</text><text xml:space="preserve" font-family="Menlo-Regular,Menlo" font-size="17.0" fill="#000000" transform="matrix(1.00, 0.00, -0.00, -1.00, 52.2, 43.0)"> </text><text xml:space="preserve" font-family="Menlo-Regular,Menlo" font-size="17.0" fill="#000000" transform="matrix(1.00, 0.00, -0.00, -1.00, 1.0, 23.0)"> </text><text xml:space="preserve" font-family="Menlo-Regular,Menlo" font-size="17.0" fill="#000000" transform="matrix(1.00, 0.00, -0.00, -1.00, 11.2, 23.0)"> </text><text xml:space="preserve" font-family="Menlo-Regular,Menlo" font-size="17.0" fill="#000000" transform="matrix(1.00, 0.00, -0.00, -1.00, 21.5, 23.0)">}</text><text xml:space="preserve" font-family="Menlo-Regular,Menlo" font-size="17.0" fill="#000000" transform="matrix(1.00, 0.00, -0.00, -1.00, 31.7, 23.0)"> </text><text xml:space="preserve" font-family="Menlo-Regular,Menlo" font-size="17.0" fill="#000000" transform="matrix(1.00, 0.00, -0.00, -1.00, 1.0, 3.0)">}</text></g></svg>