<?xml version="1.0" encoding="UTF-8" standalone="no"?><svg xmlns="http://www.w3.org/2000/svg" xmlns:xlink="http://www.w3.org/1999/xlink" clip-rule="evenodd" stroke-miterlimit="10" viewBox="0 0 863 43"><desc>SVG generated by Keynote</desc><defs></defs><g transform="matrix(1.00, 0.00, -0.00, -1.00, 0.0, 43.0)"><text xml:space="preserve" font-family="Menlo-Regular,Menlo" font-size="38.0" fill="#000000" transform="matrix(1.00, 0.00, -0.00, -1.00, -0.3, 10.3)">a</text><text xml:space="preserve" font-family="Menlo-Regular,Menlo" font-size="38.0" fill="#000000" transform="matrix(1.00, 0.00, -0.00, -1.00, 22.6, 10.3)">r</text><text xml:space="preserve" font-family="Menlo-Regular,Menlo" font-size="38.0" fill="#000000" transform="matrix(1.00, 0.00, -0.00, -1.00, 45.5, 10.3)">g</text><text xml:space="preserve" font-family="Menlo-Regular,Menlo" font-size="38.0" fill="#000000" transform="matrix(1.00, 0.00, -0.00, -1.00, 68.4, 10.3)">s</text><text xml:space="preserve" font-family="Menlo-Regular,Menlo" font-size="38.0" fill="#000000" transform="matrix(1.00, 0.00, -0.00, -1.00, 91.2, 10.3)">.</text><text xml:space="preserve" font-family="Menlo-Regular,Menlo" font-size="38.0" fill="#000000" transform="matrix(1.00, 0.00, -0.00, -1.00, 114.1, 10.3)">f</text><text xml:space="preserve" font-family="Menlo-Regular,Menlo" font-size="38.0" fill="#000000" transform="matrix(1.00, 0.00, -0.00, -1.00, 137.0, 10.3)">o</text><text xml:space="preserve" font-family="Menlo-Regular,Menlo" font-size="38.0" fill="#000000" transform="matrix(1.00, 0.00, -0.00, -1.00, 159.9, 10.3)">r</text><text xml:space="preserve" font-family="Menlo-Regular,Menlo" font-size="38.0" fill="#000000" transform="matrix(1.00, 0.00, -0.00, -1.00, 182.8, 10.3)">e</text><text xml:space="preserve" font-family="Menlo-Regular,Menlo" font-size="38.0" fill="#000000" transform="matrix(1.00, 0.00, -0.00, -1.00, 205.7, 10.3)">a</text><text xml:space="preserve" font-family="Menlo-Regular,Menlo" font-size="38.0" fill="#000000" transform="matrix(1.00, 0.00, -0.00, -1.00, 228.5, 10.3)">c</text><text xml:space="preserve" font-family="Menlo-Regular,Menlo" font-size="38.0" fill="#000000" transform="matrix(1.00, 0.00, -0.00, -1.00, 251.4, 10.3)">h</text><text xml:space="preserve" font-family="Menlo-Regular,Menlo" font-size="38.0" fill="#000000" transform="matrix(1.00, 0.00, -0.00, -1.00, 274.3, 10.3)">(</text><text xml:space="preserve" font-family="Menlo-Regular,Menlo" font-size="38.0" fill="#000000" transform="matrix(1.00, 0.00, -0.00, -1.00, 297.2, 10.3)">s</text><text xml:space="preserve" font-family="Menlo-Regular,Menlo" font-size="38.0" fill="#000000" transform="matrix(1.00, 0.00, -0.00, -1.00, 320.1, 10.3)"> </text><text xml:space="preserve" font-family="Menlo-Regular,Menlo" font-size="38.0" fill="#000000" transform="matrix(1.00, 0.00, -0.00, -1.00, 342.9, 10.3)">=</text><text xml:space="preserve" font-family="Menlo-Regular,Menlo" font-size="38.0" fill="#000000" transform="matrix(1.00, 0.00, -0.00, -1.00, 365.8, 10.3)">&gt;</text><text xml:space="preserve" font-family="Menlo-Regular,Menlo" font-size="38.0" fill="#000000" transform="matrix(1.00, 0.00, -0.00, -1.00, 388.7, 10.3)"> </text><text xml:space="preserve" font-family="Menlo-Regular,Menlo" font-size="38.0" fill="#000000" transform="matrix(1.00, 0.00, -0.00, -1.00, 411.6, 10.3)">n</text><text xml:space="preserve" font-family="Menlo-Regular,Menlo" font-size="38.0" fill="#000000" transform="matrix(1.00, 0.00, -0.00, -1.00, 434.5, 10.3)">e</text><text xml:space="preserve" font-family="Menlo-Regular,Menlo" font-size="38.0" fill="#000000" transform="matrix(1.00, 0.00, -0.00, -1.00, 457.4, 10.3)">w</text><text xml:space="preserve" font-family="Menlo-Regular,Menlo" font-size="38.0" fill="#000000" transform="matrix(1.00, 0.00, -0.00, -1.00, 480.2, 10.3)"> </text><text xml:space="preserve" font-family="Menlo-Regular,Menlo" font-size="38.0" fill="#000000" transform="matrix(1.00, 0.00, -0.00, -1.00, 503.1, 10.3)">P</text><text xml:space="preserve" font-family="Menlo-Regular,Menlo" font-size="38.0" fill="#000000" transform="matrix(1.00, 0.00, -0.00, -1.00, 526.0, 10.3)">a</text><text xml:space="preserve" font-family="Menlo-Regular,Menlo" font-size="38.0" fill="#000000" transform="matrix(1.00, 0.00, -0.00, -1.00, 548.9, 10.3)">r</text><text xml:space="preserve" font-family="Menlo-Regular,Menlo" font-size="38.0" fill="#000000" transform="matrix(1.00, 0.00, -0.00, -1.00, 571.8, 10.3)">s</text><text xml:space="preserve" font-family="Menlo-Regular,Menlo" font-size="38.0" fill="#000000" transform="matrix(1.00, 0.00, -0.00, -1.00, 594.6, 10.3)">e</text><text xml:space="preserve" font-family="Menlo-Regular,Menlo" font-size="38.0" fill="#000000" transform="matrix(1.00, 0.00, -0.00, -1.00, 617.5, 10.3)">r</text><text xml:space="preserve" font-family="Menlo-Regular,Menlo" font-size="38.0" fill="#000000" transform="matrix(1.00, 0.00, -0.00, -1.00, 640.4, 10.3)">(</text><text xml:space="preserve" font-family="Menlo-Regular,Menlo" font-size="38.0" fill="#000000" transform="matrix(1.00, 0.00, -0.00, -1.00, 663.3, 10.3)">s</text><text xml:space="preserve" font-family="Menlo-Regular,Menlo" font-size="38.0" fill="#000000" transform="matrix(1.00, 0.00, -0.00, -1.00, 686.2, 10.3)">)</text><text xml:space="preserve" font-family="Menlo-Regular,Menlo" font-size="38.0" fill="#000000" transform="matrix(1.00, 0.00, -0.00, -1.00, 709.1, 10.3)">.</text><text xml:space="preserve" font-family="Menlo-Regular,Menlo" font-size="38.0" fill="#000000" transform="matrix(1.00, 0.00, -0.00, -1.00, 731.9, 10.3)">p</text><text xml:space="preserve" font-family="Menlo-Regular,Menlo" font-size="38.0" fill="#000000" transform="matrix(1.00, 0.00, -0.00, -1.00, 754.8, 10.3)">a</text><text xml:space="preserve" font-family="Menlo-Regular,Menlo" font-size="38.0" fill="#000000" transform="matrix(1.00, 0.00, -0.00, -1.00, 777.7, 10.3)">r</text><text xml:space="preserve" font-family="Menlo-Regular,Menlo" font-size="38.0" fill="#000000" transform="matrix(1.00, 0.00, -0.00, -1.00, 800.6, 10.3)">s</text><text xml:space="preserve" font-family="Menlo-Regular,Menlo" font-size="38.0" fill="#000000" transform="matrix(1.00, 0.00, -0.00, -1.00, 823.5, 10.3)">e</text><text xml:space="preserve" font-family="Menlo-Regular,Menlo" font-size="38.0" fill="#000000" transform="matrix(1.00, 0.00, -0.00, -1.00, 846.3, 10.3)">)</text></g></svg>