<?xml version="1.0" encoding="UTF-8" standalone="no"?><svg xmlns="http://www.w3.org/2000/svg" xmlns:xlink="http://www.w3.org/1999/xlink" clip-rule="evenodd" stroke-miterlimit="10" viewBox="0 0 432 381"><desc>SVG generated by Keynote</desc><defs></defs><g transform="matrix(1.00, 0.00, -0.00, -1.00, 0.0, 381.0)"><text xml:space="preserve" font-family="Menlo-Regular,Menlo" font-size="17.0" fill="#000000" transform="matrix(1.00, 0.00, -0.00, -1.00, 1.0, 280.1)">p</text><text xml:space="preserve" font-family="Menlo-Regular,Menlo" font-size="17.0" fill="#000000" transform="matrix(1.00, 0.00, -0.00, -1.00, 11.2, 280.1)">u</text><text xml:space="preserve" font-family="Menlo-Regular,Menlo" font-size="17.0" fill="#000000" transform="matrix(1.00, 0.00, -0.00, -1.00, 21.5, 280.1)">b</text><text xml:space="preserve" font-family="Menlo-Regular,Menlo" font-size="17.0" fill="#000000" transform="matrix(1.00, 0.00, -0.00, -1.00, 31.7, 280.1)">l</text><text xml:space="preserve" font-family="Menlo-Regular,Menlo" font-size="17.0" fill="#000000" transform="matrix(1.00, 0.00, -0.00, -1.00, 41.9, 280.1)">i</text><text xml:space="preserve" font-family="Menlo-Regular,Menlo" font-size="17.0" fill="#000000" transform="matrix(1.00, 0.00, -0.00, -1.00, 52.2, 280.1)">c</text><text xml:space="preserve" font-family="Menlo-Regular,Menlo" font-size="17.0" fill="#000000" transform="matrix(1.00, 0.00, -0.00, -1.00, 62.4, 280.1)"> </text><text xml:space="preserve" font-family="Menlo-Regular,Menlo" font-size="17.0" fill="#000000" transform="matrix(1.00, 0.00, -0.00, -1.00, 72.7, 280.1)">c</text><text xml:space="preserve" font-family="Menlo-Regular,Menlo" font-size="17.0" fill="#000000" transform="matrix(1.00, 0.00, -0.00, -1.00, 82.9, 280.1)">l</text><text xml:space="preserve" font-family="Menlo-Regular,Menlo" font-size="17.0" fill="#000000" transform="matrix(1.00, 0.00, -0.00, -1.00, 93.1, 280.1)">a</text><text xml:space="preserve" font-family="Menlo-Regular,Menlo" font-size="17.0" fill="#000000" transform="matrix(1.00, 0.00, -0.00, -1.00, 103.4, 280.1)">s</text><text xml:space="preserve" font-family="Menlo-Regular,Menlo" font-size="17.0" fill="#000000" transform="matrix(1.00, 0.00, -0.00, -1.00, 113.6, 280.1)">s</text><text xml:space="preserve" font-family="Menlo-Regular,Menlo" font-size="17.0" fill="#000000" transform="matrix(1.00, 0.00, -0.00, -1.00, 123.8, 280.1)"> </text><text xml:space="preserve" font-family="Menlo-Regular,Menlo" font-size="17.0" fill="#870E00" transform="matrix(1.00, 0.00, -0.00, -1.00, 134.1, 280.1)">A</text><text xml:space="preserve" font-family="Menlo-Regular,Menlo" font-size="17.0" fill="#870E00" transform="matrix(1.00, 0.00, -0.00, -1.00, 144.3, 280.1)">p</text><text xml:space="preserve" font-family="Menlo-Regular,Menlo" font-size="17.0" fill="#870E00" transform="matrix(1.00, 0.00, -0.00, -1.00, 154.5, 280.1)">p</text><text xml:space="preserve" font-family="Menlo-Regular,Menlo" font-size="17.0" fill="#870E00" transform="matrix(1.00, 0.00, -0.00, -1.00, 164.8, 280.1)">l</text><text xml:space="preserve" font-family="Menlo-Regular,Menlo" font-size="17.0" fill="#870E00" transform="matrix(1.00, 0.00, -0.00, -1.00, 175.0, 280.1)">i</text><text xml:space="preserve" font-family="Menlo-Regular,Menlo" font-size="17.0" fill="#870E00" transform="matrix(1.00, 0.00, -0.00, -1.00, 185.2, 280.1)">c</text><text xml:space="preserve" font-family="Menlo-Regular,Menlo" font-size="17.0" fill="#870E00" transform="matrix(1.00, 0.00, -0.00, -1.00, 195.5, 280.1)">a</text><text xml:space="preserve" font-family="Menlo-Regular,Menlo" font-size="17.0" fill="#870E00" transform="matrix(1.00, 0.00, -0.00, -1.00, 205.7, 280.1)">t</text><text xml:space="preserve" font-family="Menlo-Regular,Menlo" font-size="17.0" fill="#870E00" transform="matrix(1.00, 0.00, -0.00, -1.00, 215.9, 280.1)">i</text><text xml:space="preserve" font-family="Menlo-Regular,Menlo" font-size="17.0" fill="#870E00" transform="matrix(1.00, 0.00, -0.00, -1.00, 226.2, 280.1)">o</text><text xml:space="preserve" font-family="Menlo-Regular,Menlo" font-size="17.0" fill="#870E00" transform="matrix(1.00, 0.00, -0.00, -1.00, 236.4, 280.1)">n</text><text xml:space="preserve" font-family="Menlo-Regular,Menlo" font-size="17.0" fill="#000000" transform="matrix(1.00, 0.00, -0.00, -1.00, 246.6, 280.1)"> </text><text xml:space="preserve" font-family="Menlo-Regular,Menlo" font-size="17.0" fill="#000000" transform="matrix(1.00, 0.00, -0.00, -1.00, 256.9, 280.1)">{</text><text xml:space="preserve" font-family="Menlo-Regular,Menlo" font-size="17.0" fill="#000000" transform="matrix(1.00, 0.00, -0.00, -1.00, 267.1, 280.1)"> </text><text xml:space="preserve" font-family="Menlo-Regular,Menlo" font-size="17.0" fill="#000000" transform="matrix(1.00, 0.00, -0.00, -1.00, 1.0, 260.1)"> </text><text xml:space="preserve" font-family="Menlo-Regular,Menlo" font-size="17.0" fill="#000000" transform="matrix(1.00, 0.00, -0.00, -1.00, 11.2, 260.1)"> </text><text xml:space="preserve" font-family="Menlo-Regular,Menlo" font-size="17.0" fill="#000000" transform="matrix(1.00, 0.00, -0.00, -1.00, 21.5, 260.1)">p</text><text xml:space="preserve" font-family="Menlo-Regular,Menlo" font-size="17.0" fill="#000000" transform="matrix(1.00, 0.00, -0.00, -1.00, 31.7, 260.1)">r</text><text xml:space="preserve" font-family="Menlo-Regular,Menlo" font-size="17.0" fill="#000000" transform="matrix(1.00, 0.00, -0.00, -1.00, 41.9, 260.1)">i</text><text xml:space="preserve" font-family="Menlo-Regular,Menlo" font-size="17.0" fill="#000000" transform="matrix(1.00, 0.00, -0.00, -1.00, 52.2, 260.1)">v</text><text xml:space="preserve" font-family="Menlo-Regular,Menlo" font-size="17.0" fill="#000000" transform="matrix(1.00, 0.00, -0.00, -1.00, 62.4, 260.1)">a</text><text xml:space="preserve" font-family="Menlo-Regular,Menlo" font-size="17.0" fill="#000000" transform="matrix(1.00, 0.00, -0.00, -1.00, 72.7, 260.1)">t</text><text xml:space="preserve" font-family="Menlo-Regular,Menlo" font-size="17.0" fill="#000000" transform="matrix(1.00, 0.00, -0.00, -1.00, 82.9, 260.1)">e</text><text xml:space="preserve" font-family="Menlo-Regular,Menlo" font-size="17.0" fill="#000000" transform="matrix(1.00, 0.00, -0.00, -1.00, 93.1, 260.1)"> </text><text xml:space="preserve" font-family="Menlo-Regular,Menlo" font-size="17.0" fill="#008800" transform="matrix(1.00, 0.00, -0.00, -1.00, 103.3, 260.1)">S</text><text xml:space="preserve" font-family="Menlo-Regular,Menlo" font-size="17.0" fill="#008800" transform="matrix(1.00, 0.00, -0.00, -1.00, 113.6, 260.1)">t</text><text xml:space="preserve" font-family="Menlo-Regular,Menlo" font-size="17.0" fill="#008800" transform="matrix(1.00, 0.00, -0.00, -1.00, 123.8, 260.1)">r</text><text xml:space="preserve" font-family="Menlo-Regular,Menlo" font-size="17.0" fill="#008800" transform="matrix(1.00, 0.00, -0.00, -1.00, 134.1, 260.1)">i</text><text xml:space="preserve" font-family="Menlo-Regular,Menlo" font-size="17.0" fill="#008800" transform="matrix(1.00, 0.00, -0.00, -1.00, 144.3, 260.1)">n</text><text xml:space="preserve" font-family="Menlo-Regular,Menlo" font-size="17.0" fill="#008800" transform="matrix(1.00, 0.00, -0.00, -1.00, 154.5, 260.1)">g</text><text xml:space="preserve" font-family="Menlo-Regular,Menlo" font-size="17.0" fill="#000000" transform="matrix(1.00, 0.00, -0.00, -1.00, 164.8, 260.1)"> </text><text xml:space="preserve" font-family="Menlo-Regular,Menlo" font-size="17.0" fill="#000000" transform="matrix(1.00, 0.00, -0.00, -1.00, 175.0, 260.1)">t</text><text xml:space="preserve" font-family="Menlo-Regular,Menlo" font-size="17.0" fill="#000000" transform="matrix(1.00, 0.00, -0.00, -1.00, 185.2, 260.1)">e</text><text xml:space="preserve" font-family="Menlo-Regular,Menlo" font-size="17.0" fill="#000000" transform="matrix(1.00, 0.00, -0.00, -1.00, 195.5, 260.1)">x</text><text xml:space="preserve" font-family="Menlo-Regular,Menlo" font-size="17.0" fill="#000000" transform="matrix(1.00, 0.00, -0.00, -1.00, 205.7, 260.1)">t</text><text xml:space="preserve" font-family="Menlo-Regular,Menlo" font-size="17.0" fill="#000000" transform="matrix(1.00, 0.00, -0.00, -1.00, 215.9, 260.1)">;</text><text xml:space="preserve" font-family="Menlo-Regular,Menlo" font-size="17.0" fill="#000000" transform="matrix(1.00, 0.00, -0.00, -1.00, 226.2, 260.1)"> </text><text xml:space="preserve" font-family="Menlo-Regular,Menlo" font-size="17.0" fill="#000000" transform="matrix(1.00, 0.00, -0.00, -1.00, 236.4, 260.1)"> </text><text xml:space="preserve" font-family="Menlo-Regular,Menlo" font-size="17.0" fill="#000000" transform="matrix(1.00, 0.00, -0.00, -1.00, 246.6, 260.1)"> </text><text xml:space="preserve" font-family="Menlo-Regular,Menlo" font-size="17.0" fill="#000000" transform="matrix(1.00, 0.00, -0.00, -1.00, 1.0, 220.1)"> </text><text xml:space="preserve" font-family="Menlo-Regular,Menlo" font-size="17.0" fill="#000000" transform="matrix(1.00, 0.00, -0.00, -1.00, 11.2, 220.1)"> </text><text xml:space="preserve" font-family="Menlo-Regular,Menlo" font-size="17.0" fill="#000000" transform="matrix(1.00, 0.00, -0.00, -1.00, 21.5, 220.1)">p</text><text xml:space="preserve" font-family="Menlo-Regular,Menlo" font-size="17.0" fill="#000000" transform="matrix(1.00, 0.00, -0.00, -1.00, 31.7, 220.1)">u</text><text xml:space="preserve" font-family="Menlo-Regular,Menlo" font-size="17.0" fill="#000000" transform="matrix(1.00, 0.00, -0.00, -1.00, 41.9, 220.1)">b</text><text xml:space="preserve" font-family="Menlo-Regular,Menlo" font-size="17.0" fill="#000000" transform="matrix(1.00, 0.00, -0.00, -1.00, 52.2, 220.1)">l</text><text xml:space="preserve" font-family="Menlo-Regular,Menlo" font-size="17.0" fill="#000000" transform="matrix(1.00, 0.00, -0.00, -1.00, 62.4, 220.1)">i</text><text xml:space="preserve" font-family="Menlo-Regular,Menlo" font-size="17.0" fill="#000000" transform="matrix(1.00, 0.00, -0.00, -1.00, 72.7, 220.1)">c</text><text xml:space="preserve" font-family="Menlo-Regular,Menlo" font-size="17.0" fill="#000000" transform="matrix(1.00, 0.00, -0.00, -1.00, 82.9, 220.1)"> </text><text xml:space="preserve" font-family="Menlo-Regular,Menlo" font-size="17.0" fill="#000000" transform="matrix(1.00, 0.00, -0.00, -1.00, 93.1, 220.1)">s</text><text xml:space="preserve" font-family="Menlo-Regular,Menlo" font-size="17.0" fill="#000000" transform="matrix(1.00, 0.00, -0.00, -1.00, 103.4, 220.1)">t</text><text xml:space="preserve" font-family="Menlo-Regular,Menlo" font-size="17.0" fill="#000000" transform="matrix(1.00, 0.00, -0.00, -1.00, 113.6, 220.1)">a</text><text xml:space="preserve" font-family="Menlo-Regular,Menlo" font-size="17.0" fill="#000000" transform="matrix(1.00, 0.00, -0.00, -1.00, 123.8, 220.1)">t</text><text xml:space="preserve" font-family="Menlo-Regular,Menlo" font-size="17.0" fill="#000000" transform="matrix(1.00, 0.00, -0.00, -1.00, 134.1, 220.1)">i</text><text xml:space="preserve" font-family="Menlo-Regular,Menlo" font-size="17.0" fill="#000000" transform="matrix(1.00, 0.00, -0.00, -1.00, 144.3, 220.1)">c</text><text xml:space="preserve" font-family="Menlo-Regular,Menlo" font-size="17.0" fill="#000000" transform="matrix(1.00, 0.00, -0.00, -1.00, 154.5, 220.1)"> </text><text xml:space="preserve" font-family="Menlo-Regular,Menlo" font-size="17.0" fill="#008800" transform="matrix(1.00, 0.00, -0.00, -1.00, 164.8, 220.1)">v</text><text xml:space="preserve" font-family="Menlo-Regular,Menlo" font-size="17.0" fill="#008800" transform="matrix(1.00, 0.00, -0.00, -1.00, 175.0, 220.1)">o</text><text xml:space="preserve" font-family="Menlo-Regular,Menlo" font-size="17.0" fill="#008800" transform="matrix(1.00, 0.00, -0.00, -1.00, 185.2, 220.1)">i</text><text xml:space="preserve" font-family="Menlo-Regular,Menlo" font-size="17.0" fill="#008800" transform="matrix(1.00, 0.00, -0.00, -1.00, 195.5, 220.1)">d</text><text xml:space="preserve" font-family="Menlo-Regular,Menlo" font-size="17.0" fill="#000000" transform="matrix(1.00, 0.00, -0.00, -1.00, 205.7, 220.1)"> </text><text xml:space="preserve" font-family="Menlo-Regular,Menlo" font-size="17.0" fill="#870E00" transform="matrix(1.00, 0.00, -0.00, -1.00, 215.9, 220.1)">m</text><text xml:space="preserve" font-family="Menlo-Regular,Menlo" font-size="17.0" fill="#870E00" transform="matrix(1.00, 0.00, -0.00, -1.00, 226.2, 220.1)">a</text><text xml:space="preserve" font-family="Menlo-Regular,Menlo" font-size="17.0" fill="#870E00" transform="matrix(1.00, 0.00, -0.00, -1.00, 236.4, 220.1)">i</text><text xml:space="preserve" font-family="Menlo-Regular,Menlo" font-size="17.0" fill="#870E00" transform="matrix(1.00, 0.00, -0.00, -1.00, 246.6, 220.1)">n</text><text xml:space="preserve" font-family="Menlo-Regular,Menlo" font-size="17.0" fill="#000000" transform="matrix(1.00, 0.00, -0.00, -1.00, 256.9, 220.1)">(</text><text xml:space="preserve" font-family="Menlo-Regular,Menlo" font-size="17.0" fill="#008800" transform="matrix(1.00, 0.00, -0.00, -1.00, 267.1, 220.1)">S</text><text xml:space="preserve" font-family="Menlo-Regular,Menlo" font-size="17.0" fill="#008800" transform="matrix(1.00, 0.00, -0.00, -1.00, 277.3, 220.1)">t</text><text xml:space="preserve" font-family="Menlo-Regular,Menlo" font-size="17.0" fill="#008800" transform="matrix(1.00, 0.00, -0.00, -1.00, 287.6, 220.1)">r</text><text xml:space="preserve" font-family="Menlo-Regular,Menlo" font-size="17.0" fill="#008800" transform="matrix(1.00, 0.00, -0.00, -1.00, 297.8, 220.1)">i</text><text xml:space="preserve" font-family="Menlo-Regular,Menlo" font-size="17.0" fill="#008800" transform="matrix(1.00, 0.00, -0.00, -1.00, 308.1, 220.1)">n</text><text xml:space="preserve" font-family="Menlo-Regular,Menlo" font-size="17.0" fill="#008800" transform="matrix(1.00, 0.00, -0.00, -1.00, 318.3, 220.1)">g</text><text xml:space="preserve" font-family="Menlo-Regular,Menlo" font-size="17.0" fill="#000000" transform="matrix(1.00, 0.00, -0.00, -1.00, 328.5, 220.1)">[</text><text xml:space="preserve" font-family="Menlo-Regular,Menlo" font-size="17.0" fill="#000000" transform="matrix(1.00, 0.00, -0.00, -1.00, 338.8, 220.1)">]</text><text xml:space="preserve" font-family="Menlo-Regular,Menlo" font-size="17.0" fill="#000000" transform="matrix(1.00, 0.00, -0.00, -1.00, 349.0, 220.1)"> </text><text xml:space="preserve" font-family="Menlo-Regular,Menlo" font-size="17.0" fill="#003277" transform="matrix(1.00, 0.00, -0.00, -1.00, 359.2, 220.1)">a</text><text xml:space="preserve" font-family="Menlo-Regular,Menlo" font-size="17.0" fill="#003277" transform="matrix(1.00, 0.00, -0.00, -1.00, 369.5, 220.1)">r</text><text xml:space="preserve" font-family="Menlo-Regular,Menlo" font-size="17.0" fill="#003277" transform="matrix(1.00, 0.00, -0.00, -1.00, 379.7, 220.1)">g</text><text xml:space="preserve" font-family="Menlo-Regular,Menlo" font-size="17.0" fill="#003277" transform="matrix(1.00, 0.00, -0.00, -1.00, 389.9, 220.1)">s</text><text xml:space="preserve" font-family="Menlo-Regular,Menlo" font-size="17.0" fill="#000000" transform="matrix(1.00, 0.00, -0.00, -1.00, 400.2, 220.1)">)</text><text xml:space="preserve" font-family="Menlo-Regular,Menlo" font-size="17.0" fill="#000000" transform="matrix(1.00, 0.00, -0.00, -1.00, 410.4, 220.1)"> </text><text xml:space="preserve" font-family="Menlo-Regular,Menlo" font-size="17.0" fill="#000000" transform="matrix(1.00, 0.00, -0.00, -1.00, 420.6, 220.1)">{</text><text xml:space="preserve" font-family="Menlo-Regular,Menlo" font-size="17.0" fill="#000000" transform="matrix(1.00, 0.00, -0.00, -1.00, 430.9, 220.1)"> </text><text xml:space="preserve" font-family="Menlo-Regular,Menlo" font-size="17.0" fill="#000000" transform="matrix(1.00, 0.00, -0.00, -1.00, 1.0, 200.1)"> </text><text xml:space="preserve" font-family="Menlo-Regular,Menlo" font-size="17.0" fill="#000000" transform="matrix(1.00, 0.00, -0.00, -1.00, 11.2, 200.1)"> </text><text xml:space="preserve" font-family="Menlo-Regular,Menlo" font-size="17.0" fill="#000000" transform="matrix(1.00, 0.00, -0.00, -1.00, 21.5, 200.1)"> </text><text xml:space="preserve" font-family="Menlo-Regular,Menlo" font-size="17.0" fill="#000000" transform="matrix(1.00, 0.00, -0.00, -1.00, 31.7, 200.1)"> </text><text xml:space="preserve" font-family="Menlo-Regular,Menlo" font-size="17.0" fill="#008800" transform="matrix(1.00, 0.00, -0.00, -1.00, 41.9, 200.1)">f</text><text xml:space="preserve" font-family="Menlo-Regular,Menlo" font-size="17.0" fill="#008800" transform="matrix(1.00, 0.00, -0.00, -1.00, 52.2, 200.1)">o</text><text xml:space="preserve" font-family="Menlo-Regular,Menlo" font-size="17.0" fill="#008800" transform="matrix(1.00, 0.00, -0.00, -1.00, 62.4, 200.1)">r</text><text xml:space="preserve" font-family="Menlo-Regular,Menlo" font-size="17.0" fill="#000000" transform="matrix(1.00, 0.00, -0.00, -1.00, 72.6, 200.1)">(</text><text xml:space="preserve" font-family="Menlo-Regular,Menlo" font-size="17.0" fill="#008800" transform="matrix(1.00, 0.00, -0.00, -1.00, 82.9, 200.1)">S</text><text xml:space="preserve" font-family="Menlo-Regular,Menlo" font-size="17.0" fill="#008800" transform="matrix(1.00, 0.00, -0.00, -1.00, 93.1, 200.1)">t</text><text xml:space="preserve" font-family="Menlo-Regular,Menlo" font-size="17.0" fill="#008800" transform="matrix(1.00, 0.00, -0.00, -1.00, 103.4, 200.1)">r</text><text xml:space="preserve" font-family="Menlo-Regular,Menlo" font-size="17.0" fill="#008800" transform="matrix(1.00, 0.00, -0.00, -1.00, 113.6, 200.1)">i</text><text xml:space="preserve" font-family="Menlo-Regular,Menlo" font-size="17.0" fill="#008800" transform="matrix(1.00, 0.00, -0.00, -1.00, 123.8, 200.1)">n</text><text xml:space="preserve" font-family="Menlo-Regular,Menlo" font-size="17.0" fill="#008800" transform="matrix(1.00, 0.00, -0.00, -1.00, 134.1, 200.1)">g</text><text xml:space="preserve" font-family="Menlo-Regular,Menlo" font-size="17.0" fill="#000000" transform="matrix(1.00, 0.00, -0.00, -1.00, 144.3, 200.1)"> </text><text xml:space="preserve" font-family="Menlo-Regular,Menlo" font-size="17.0" fill="#000000" transform="matrix(1.00, 0.00, -0.00, -1.00, 154.5, 200.1)">s</text><text xml:space="preserve" font-family="Menlo-Regular,Menlo" font-size="17.0" fill="#000000" transform="matrix(1.00, 0.00, -0.00, -1.00, 164.8, 200.1)">t</text><text xml:space="preserve" font-family="Menlo-Regular,Menlo" font-size="17.0" fill="#000000" transform="matrix(1.00, 0.00, -0.00, -1.00, 175.0, 200.1)">r</text><text xml:space="preserve" font-family="Menlo-Regular,Menlo" font-size="17.0" fill="#008800" transform="matrix(1.00, 0.00, -0.00, -1.00, 185.2, 200.1)">:</text><text xml:space="preserve" font-family="Menlo-Regular,Menlo" font-size="17.0" fill="#000000" transform="matrix(1.00, 0.00, -0.00, -1.00, 195.5, 200.1)"> </text><text xml:space="preserve" font-family="Menlo-Regular,Menlo" font-size="17.0" fill="#000000" transform="matrix(1.00, 0.00, -0.00, -1.00, 205.7, 200.1)">a</text><text xml:space="preserve" font-family="Menlo-Regular,Menlo" font-size="17.0" fill="#000000" transform="matrix(1.00, 0.00, -0.00, -1.00, 215.9, 200.1)">r</text><text xml:space="preserve" font-family="Menlo-Regular,Menlo" font-size="17.0" fill="#000000" transform="matrix(1.00, 0.00, -0.00, -1.00, 226.2, 200.1)">g</text><text xml:space="preserve" font-family="Menlo-Regular,Menlo" font-size="17.0" fill="#000000" transform="matrix(1.00, 0.00, -0.00, -1.00, 236.4, 200.1)">s</text><text xml:space="preserve" font-family="Menlo-Regular,Menlo" font-size="17.0" fill="#000000" transform="matrix(1.00, 0.00, -0.00, -1.00, 246.6, 200.1)">)</text><text xml:space="preserve" font-family="Menlo-Regular,Menlo" font-size="17.0" fill="#000000" transform="matrix(1.00, 0.00, -0.00, -1.00, 256.9, 200.1)"> </text><text xml:space="preserve" font-family="Menlo-Regular,Menlo" font-size="17.0" fill="#000000" transform="matrix(1.00, 0.00, -0.00, -1.00, 267.1, 200.1)">{</text><text xml:space="preserve" font-family="Menlo-Regular,Menlo" font-size="17.0" fill="#000000" transform="matrix(1.00, 0.00, -0.00, -1.00, 277.4, 200.1)"> </text><text xml:space="preserve" font-family="Menlo-Regular,Menlo" font-size="17.0" fill="#000000" transform="matrix(1.00, 0.00, -0.00, -1.00, 1.0, 180.1)"> </text><text xml:space="preserve" font-family="Menlo-Regular,Menlo" font-size="17.0" fill="#000000" transform="matrix(1.00, 0.00, -0.00, -1.00, 11.2, 180.1)"> </text><text xml:space="preserve" font-family="Menlo-Regular,Menlo" font-size="17.0" fill="#000000" transform="matrix(1.00, 0.00, -0.00, -1.00, 21.5, 180.1)"> </text><text xml:space="preserve" font-family="Menlo-Regular,Menlo" font-size="17.0" fill="#000000" transform="matrix(1.00, 0.00, -0.00, -1.00, 31.7, 180.1)"> </text><text xml:space="preserve" font-family="Menlo-Regular,Menlo" font-size="17.0" fill="#000000" transform="matrix(1.00, 0.00, -0.00, -1.00, 41.9, 180.1)"> </text><text xml:space="preserve" font-family="Menlo-Regular,Menlo" font-size="17.0" fill="#000000" transform="matrix(1.00, 0.00, -0.00, -1.00, 52.2, 180.1)"> </text><text xml:space="preserve" font-family="Menlo-Regular,Menlo" font-size="17.0" fill="#008800" transform="matrix(1.00, 0.00, -0.00, -1.00, 62.4, 180.1)">S</text><text xml:space="preserve" font-family="Menlo-Regular,Menlo" font-size="17.0" fill="#008800" transform="matrix(1.00, 0.00, -0.00, -1.00, 72.6, 180.1)">y</text><text xml:space="preserve" font-family="Menlo-Regular,Menlo" font-size="17.0" fill="#008800" transform="matrix(1.00, 0.00, -0.00, -1.00, 82.9, 180.1)">s</text><text xml:space="preserve" font-family="Menlo-Regular,Menlo" font-size="17.0" fill="#008800" transform="matrix(1.00, 0.00, -0.00, -1.00, 93.1, 180.1)">t</text><text xml:space="preserve" font-family="Menlo-Regular,Menlo" font-size="17.0" fill="#008800" transform="matrix(1.00, 0.00, -0.00, -1.00, 103.4, 180.1)">e</text><text xml:space="preserve" font-family="Menlo-Regular,Menlo" font-size="17.0" fill="#008800" transform="matrix(1.00, 0.00, -0.00, -1.00, 113.6, 180.1)">m</text><text xml:space="preserve" font-family="Menlo-Regular,Menlo" font-size="17.0" fill="#000000" transform="matrix(1.00, 0.00, -0.00, -1.00, 123.8, 180.1)">.</text><text xml:space="preserve" font-family="Menlo-Regular,Menlo" font-size="17.0" fill="#000000" transform="matrix(1.00, 0.00, -0.00, -1.00, 134.1, 180.1)">o</text><text xml:space="preserve" font-family="Menlo-Regular,Menlo" font-size="17.0" fill="#000000" transform="matrix(1.00, 0.00, -0.00, -1.00, 144.3, 180.1)">u</text><text xml:space="preserve" font-family="Menlo-Regular,Menlo" font-size="17.0" fill="#000000" transform="matrix(1.00, 0.00, -0.00, -1.00, 154.5, 180.1)">t</text><text xml:space="preserve" font-family="Menlo-Regular,Menlo" font-size="17.0" fill="#000000" transform="matrix(1.00, 0.00, -0.00, -1.00, 164.8, 180.1)">.</text><text xml:space="preserve" font-family="Menlo-Regular,Menlo" font-size="17.0" fill="#000000" transform="matrix(1.00, 0.00, -0.00, -1.00, 175.0, 180.1)">p</text><text xml:space="preserve" font-family="Menlo-Regular,Menlo" font-size="17.0" fill="#000000" transform="matrix(1.00, 0.00, -0.00, -1.00, 185.2, 180.1)">r</text><text xml:space="preserve" font-family="Menlo-Regular,Menlo" font-size="17.0" fill="#000000" transform="matrix(1.00, 0.00, -0.00, -1.00, 195.5, 180.1)">i</text><text xml:space="preserve" font-family="Menlo-Regular,Menlo" font-size="17.0" fill="#000000" transform="matrix(1.00, 0.00, -0.00, -1.00, 205.7, 180.1)">n</text><text xml:space="preserve" font-family="Menlo-Regular,Menlo" font-size="17.0" fill="#000000" transform="matrix(1.00, 0.00, -0.00, -1.00, 215.9, 180.1)">t</text><text xml:space="preserve" font-family="Menlo-Regular,Menlo" font-size="17.0" fill="#000000" transform="matrix(1.00, 0.00, -0.00, -1.00, 226.2, 180.1)">l</text><text xml:space="preserve" font-family="Menlo-Regular,Menlo" font-size="17.0" fill="#000000" transform="matrix(1.00, 0.00, -0.00, -1.00, 236.4, 180.1)">n</text><text xml:space="preserve" font-family="Menlo-Regular,Menlo" font-size="17.0" fill="#000000" transform="matrix(1.00, 0.00, -0.00, -1.00, 246.7, 180.1)">(</text><text xml:space="preserve" font-family="Menlo-Regular,Menlo" font-size="17.0" fill="#000000" transform="matrix(1.00, 0.00, -0.00, -1.00, 256.9, 180.1)"> </text><text xml:space="preserve" font-family="Menlo-Regular,Menlo" font-size="17.0" fill="#000000" transform="matrix(1.00, 0.00, -0.00, -1.00, 1.0, 160.1)"> </text><text xml:space="preserve" font-family="Menlo-Regular,Menlo" font-size="17.0" fill="#000000" transform="matrix(1.00, 0.00, -0.00, -1.00, 37.0, 160.1)"> </text><text xml:space="preserve" font-family="Menlo-Regular,Menlo" font-size="17.0" fill="#000000" transform="matrix(1.00, 0.00, -0.00, -1.00, 47.2, 160.1)"> </text><text xml:space="preserve" font-family="Menlo-Regular,Menlo" font-size="17.0" fill="#000000" transform="matrix(1.00, 0.00, -0.00, -1.00, 57.5, 160.1)"> </text><text xml:space="preserve" font-family="Menlo-Regular,Menlo" font-size="17.0" fill="#000000" transform="matrix(1.00, 0.00, -0.00, -1.00, 67.7, 160.1)"> </text><text xml:space="preserve" font-family="Menlo-Regular,Menlo" font-size="17.0" fill="#008800" transform="matrix(1.00, 0.00, -0.00, -1.00, 77.9, 160.1)">n</text><text xml:space="preserve" font-family="Menlo-Regular,Menlo" font-size="17.0" fill="#008800" transform="matrix(1.00, 0.00, -0.00, -1.00, 88.2, 160.1)">e</text><text xml:space="preserve" font-family="Menlo-Regular,Menlo" font-size="17.0" fill="#008800" transform="matrix(1.00, 0.00, -0.00, -1.00, 98.4, 160.1)">w</text><text xml:space="preserve" font-family="Menlo-Regular,Menlo" font-size="17.0" fill="#000000" transform="matrix(1.00, 0.00, -0.00, -1.00, 108.6, 160.1)"> </text><text xml:space="preserve" font-family="Menlo-Regular,Menlo" font-size="17.0" fill="#870E00" transform="matrix(1.00, 0.00, -0.00, -1.00, 118.9, 160.1)">P</text><text xml:space="preserve" font-family="Menlo-Regular,Menlo" font-size="17.0" fill="#870E00" transform="matrix(1.00, 0.00, -0.00, -1.00, 129.1, 160.1)">a</text><text xml:space="preserve" font-family="Menlo-Regular,Menlo" font-size="17.0" fill="#870E00" transform="matrix(1.00, 0.00, -0.00, -1.00, 139.4, 160.1)">r</text><text xml:space="preserve" font-family="Menlo-Regular,Menlo" font-size="17.0" fill="#870E00" transform="matrix(1.00, 0.00, -0.00, -1.00, 149.6, 160.1)">s</text><text xml:space="preserve" font-family="Menlo-Regular,Menlo" font-size="17.0" fill="#870E00" transform="matrix(1.00, 0.00, -0.00, -1.00, 159.8, 160.1)">e</text><text xml:space="preserve" font-family="Menlo-Regular,Menlo" font-size="17.0" fill="#870E00" transform="matrix(1.00, 0.00, -0.00, -1.00, 170.1, 160.1)">r</text><text xml:space="preserve" font-family="Menlo-Regular,Menlo" font-size="17.0" fill="#000000" transform="matrix(1.00, 0.00, -0.00, -1.00, 180.3, 160.1)">(</text><text xml:space="preserve" font-family="Menlo-Regular,Menlo" font-size="17.0" fill="#000000" transform="matrix(1.00, 0.00, -0.00, -1.00, 190.5, 160.1)">s</text><text xml:space="preserve" font-family="Menlo-Regular,Menlo" font-size="17.0" fill="#000000" transform="matrix(1.00, 0.00, -0.00, -1.00, 200.8, 160.1)">t</text><text xml:space="preserve" font-family="Menlo-Regular,Menlo" font-size="17.0" fill="#000000" transform="matrix(1.00, 0.00, -0.00, -1.00, 211.0, 160.1)">r</text><text xml:space="preserve" font-family="Menlo-Regular,Menlo" font-size="17.0" fill="#000000" transform="matrix(1.00, 0.00, -0.00, -1.00, 221.2, 160.1)">)</text><text xml:space="preserve" font-family="Menlo-Regular,Menlo" font-size="17.0" fill="#000000" transform="matrix(1.00, 0.00, -0.00, -1.00, 231.5, 160.1)">.</text><text xml:space="preserve" font-family="Menlo-Regular,Menlo" font-size="17.0" fill="#000000" transform="matrix(1.00, 0.00, -0.00, -1.00, 241.7, 160.1)">p</text><text xml:space="preserve" font-family="Menlo-Regular,Menlo" font-size="17.0" fill="#000000" transform="matrix(1.00, 0.00, -0.00, -1.00, 251.9, 160.1)">a</text><text xml:space="preserve" font-family="Menlo-Regular,Menlo" font-size="17.0" fill="#000000" transform="matrix(1.00, 0.00, -0.00, -1.00, 262.2, 160.1)">r</text><text xml:space="preserve" font-family="Menlo-Regular,Menlo" font-size="17.0" fill="#000000" transform="matrix(1.00, 0.00, -0.00, -1.00, 272.4, 160.1)">s</text><text xml:space="preserve" font-family="Menlo-Regular,Menlo" font-size="17.0" fill="#000000" transform="matrix(1.00, 0.00, -0.00, -1.00, 282.7, 160.1)">e</text><text xml:space="preserve" font-family="Menlo-Regular,Menlo" font-size="17.0" fill="#000000" transform="matrix(1.00, 0.00, -0.00, -1.00, 292.9, 160.1)">(</text><text xml:space="preserve" font-family="Menlo-Regular,Menlo" font-size="17.0" fill="#000000" transform="matrix(1.00, 0.00, -0.00, -1.00, 303.1, 160.1)">)</text><text xml:space="preserve" font-family="Menlo-Regular,Menlo" font-size="17.0" fill="#000000" transform="matrix(1.00, 0.00, -0.00, -1.00, 313.3, 160.1)">)</text><text xml:space="preserve" font-family="Menlo-Regular,Menlo" font-size="17.0" fill="#000000" transform="matrix(1.00, 0.00, -0.00, -1.00, 323.6, 160.1)">;</text><text xml:space="preserve" font-family="Menlo-Regular,Menlo" font-size="17.0" fill="#000000" transform="matrix(1.00, 0.00, -0.00, -1.00, 333.8, 160.1)"> </text><text xml:space="preserve" font-family="Menlo-Regular,Menlo" font-size="17.0" fill="#000000" transform="matrix(1.00, 0.00, -0.00, -1.00, 1.0, 140.1)"> </text><text xml:space="preserve" font-family="Menlo-Regular,Menlo" font-size="17.0" fill="#000000" transform="matrix(1.00, 0.00, -0.00, -1.00, 11.2, 140.1)"> </text><text xml:space="preserve" font-family="Menlo-Regular,Menlo" font-size="17.0" fill="#000000" transform="matrix(1.00, 0.00, -0.00, -1.00, 21.5, 140.1)"> </text><text xml:space="preserve" font-family="Menlo-Regular,Menlo" font-size="17.0" fill="#000000" transform="matrix(1.00, 0.00, -0.00, -1.00, 31.7, 140.1)"> </text><text xml:space="preserve" font-family="Menlo-Regular,Menlo" font-size="17.0" fill="#000000" transform="matrix(1.00, 0.00, -0.00, -1.00, 41.9, 140.1)">}</text><text xml:space="preserve" font-family="Menlo-Regular,Menlo" font-size="17.0" fill="#000000" transform="matrix(1.00, 0.00, -0.00, -1.00, 52.2, 140.1)"> </text><text xml:space="preserve" font-family="Menlo-Regular,Menlo" font-size="17.0" fill="#000000" transform="matrix(1.00, 0.00, -0.00, -1.00, 1.0, 120.1)"> </text><text xml:space="preserve" font-family="Menlo-Regular,Menlo" font-size="17.0" fill="#000000" transform="matrix(1.00, 0.00, -0.00, -1.00, 11.2, 120.1)"> </text><text xml:space="preserve" font-family="Menlo-Regular,Menlo" font-size="17.0" fill="#000000" transform="matrix(1.00, 0.00, -0.00, -1.00, 21.5, 120.1)">}</text><text xml:space="preserve" font-family="Menlo-Regular,Menlo" font-size="17.0" fill="#000000" transform="matrix(1.00, 0.00, -0.00, -1.00, 31.7, 120.1)"> </text><text xml:space="preserve" font-family="Menlo-Regular,Menlo" font-size="17.0" fill="#870E00" transform="matrix(1.00, 0.00, -0.00, -1.00, 1.0, 100.1)">}</text><text xml:space="preserve" font-family="Menlo-Regular,Menlo" font-size="17.0" fill="#870E00" transform="matrix(1.00, 0.00, -0.00, -1.00, 11.2, 100.1)"> </text></g></svg>