<?xml version="1.0" encoding="UTF-8" standalone="no"?><svg xmlns="http://www.w3.org/2000/svg" xmlns:xlink="http://www.w3.org/1999/xlink" clip-rule="evenodd" stroke-miterlimit="10" viewBox="0 0 211 30"><desc>SVG generated by Keynote</desc><defs></defs><g transform="matrix(1.00, 0.00, -0.00, -1.00, 0.0, 30.0)"><text xml:space="preserve" font-family="HelveticaNeue-LightItalic,Helvetica Neue" font-style="italic" font-size="35.0" fill="#000000" transform="matrix(1.00, 0.00, -0.00, -1.00, 1.4, 2.9)">f</text><text xml:space="preserve" font-family="HelveticaNeue-LightItalic,Helvetica Neue" font-style="italic" font-size="35.0" fill="#000000" transform="matrix(1.00, 0.00, -0.00, -1.00, 10.4, 2.9)">u</text><text xml:space="preserve" font-family="HelveticaNeue-LightItalic,Helvetica Neue" font-style="italic" font-size="35.0" fill="#000000" transform="matrix(1.00, 0.00, -0.00, -1.00, 29.2, 2.9)">n</text><text xml:space="preserve" font-family="HelveticaNeue-LightItalic,Helvetica Neue" font-style="italic" font-size="35.0" fill="#000000" transform="matrix(1.00, 0.00, -0.00, -1.00, 48.0, 2.9)">c</text><text xml:space="preserve" font-family="HelveticaNeue-LightItalic,Helvetica Neue" font-style="italic" font-size="35.0" fill="#000000" transform="matrix(1.00, 0.00, -0.00, -1.00, 66.2, 2.9)">t</text><text xml:space="preserve" font-family="HelveticaNeue-LightItalic,Helvetica Neue" font-style="italic" font-size="35.0" fill="#000000" transform="matrix(1.00, 0.00, -0.00, -1.00, 76.5, 2.9)">i</text><text xml:space="preserve" font-family="HelveticaNeue-LightItalic,Helvetica Neue" font-style="italic" font-size="35.0" fill="#000000" transform="matrix(1.00, 0.00, -0.00, -1.00, 83.0, 2.9)">o</text><text xml:space="preserve" font-family="HelveticaNeue-LightItalic,Helvetica Neue" font-style="italic" font-size="35.0" fill="#000000" transform="matrix(1.00, 0.00, -0.00, -1.00, 102.5, 2.9)">n</text><text xml:space="preserve" font-family="HelveticaNeue-LightItalic,Helvetica Neue" font-style="italic" font-size="35.0" fill="#000000" transform="matrix(1.00, 0.00, -0.00, -1.00, 121.3, 2.9)"> </text><text xml:space="preserve" font-family="HelveticaNeue-LightItalic,Helvetica Neue" font-style="italic" font-size="35.0" fill="#000000" transform="matrix(1.00, 0.00, -0.00, -1.00, 131.0, 2.9)">l</text><text xml:space="preserve" font-family="HelveticaNeue-LightItalic,Helvetica Neue" font-style="italic" font-size="35.0" fill="#000000" transform="matrix(1.00, 0.00, -0.00, -1.00, 137.5, 2.9)">i</text><text xml:space="preserve" font-family="HelveticaNeue-LightItalic,Helvetica Neue" font-style="italic" font-size="35.0" fill="#000000" transform="matrix(1.00, 0.00, -0.00, -1.00, 143.9, 2.9)">t</text><text xml:space="preserve" font-family="HelveticaNeue-LightItalic,Helvetica Neue" font-style="italic" font-size="35.0" fill="#000000" transform="matrix(1.00, 0.00, -0.00, -1.00, 154.3, 2.9)">e</text><text xml:space="preserve" font-family="HelveticaNeue-LightItalic,Helvetica Neue" font-style="italic" font-size="35.0" fill="#000000" transform="matrix(1.00, 0.00, -0.00, -1.00, 172.5, 2.9)">r</text><text xml:space="preserve" font-family="HelveticaNeue-LightItalic,Helvetica Neue" font-style="italic" font-size="35.0" fill="#000000" transform="matrix(1.00, 0.00, -0.00, -1.00, 183.5, 2.9)">a</text><text xml:space="preserve" font-family="HelveticaNeue-LightItalic,Helvetica Neue" font-style="italic" font-size="35.0" fill="#000000" transform="matrix(1.00, 0.00, -0.00, -1.00, 201.7, 2.9)">l</text></g></svg>