<?xml version="1.0" encoding="UTF-8" standalone="no"?><svg xmlns="http://www.w3.org/2000/svg" xmlns:xlink="http://www.w3.org/1999/xlink" clip-rule="evenodd" stroke-miterlimit="10" viewBox="0 0 39 52"><desc>SVG generated by Keynote</desc><defs><linearGradient id="gradSh1.60" x1="0.0" y1="0.0" x2="100.0" y2="0.0" gradientUnits="userSpaceOnUse" gradientTransform="matrix(0.00, -0.29, -0.27, 0.00, 15.5, 43.0)"><stop offset="0.00000" stop-color="#FF280E"></stop><stop offset="0.00733" stop-color="#FE280E"></stop><stop offset="0.03079" stop-color="#FD2810"></stop><stop offset="0.03446" stop-color="#FC2810"></stop><stop offset="0.39516" stop-color="#E23020"></stop><stop offset="0.40249" stop-color="#E13020"></stop><stop offset="1.00000" stop-color="#B63C3A"></stop></linearGradient></defs><g transform="matrix(1.00, 0.00, -0.00, -1.00, 0.0, 52.0)"><g><clipPath id="clip0x60000f2bd100"><path d="M 1.3 6.1 L 36.6 6.1 L 36.6 43.5 L 1.3 43.5 Z M 1.3 6.1 "></path></clipPath><g clip-path="url(#clip0x60000f2bd100)"><image xlink:href="../../B8180A85-4634-4071-BD11-B567ECB6C875/assets/39802047390CC2BE044BBCDF521C119D.png" width="33.00" height="35.00" transform="matrix(1.01, 0.00, -0.00, -1.01, 2.3, 42.5)" opacity="0.50"></image></g></g><g><clipPath id="clip0x60000f2bc980"><path d="M 3.0 42.0 L 28.0 42.0 L 28.0 15.0 L 3.0 15.0 Z M 2.8 42.0 "></path></clipPath><g clip-path="url(#clip0x60000f2bc980)"><g><clipPath id="clip0x60000f6bd340"><path d="M 1.3 6.1 L 36.6 6.1 L 36.6 43.5 L 1.3 43.5 Z M 1.3 6.1 "></path></clipPath><g clip-path="url(#clip0x60000f6bd340)"><path d="M 1.3 6.1 L 36.6 6.1 L 36.6 43.5 L 1.3 43.5 Z M 1.3 6.1 " fill="url(#gradSh1.60)"></path></g></g></g></g><g><clipPath id="clip0x60000f8bd640"><path d="M 0.2 0.7 L 38.3 0.7 L 38.3 51.9 L 0.2 51.9 Z M 0.2 0.7 "></path></clipPath><g clip-path="url(#clip0x60000f8bd640)"><image xlink:href="../../3146C294-0BB5-4E88-A65A-3A2D0FEB8B2A/assets/EF5986BB1D86B18C4EEB84FF0A4B0CD9.png" width="36.00" height="49.00" transform="matrix(1.00, 0.00, -0.00, -1.00, 1.2, 50.9)" opacity="0.50"></image></g></g><g><clipPath id="clip0x60000f8bd6a0"><path d="M -2.7 4.1 L 34.2 4.1 L 34.2 54.8 L -2.7 54.8 Z M -2.7 4.1 "></path></clipPath><g clip-path="url(#clip0x60000f8bd6a0)"><text xml:space="preserve" font-family="HelveticaNeue-Medium,Helvetica Neue" font-size="28.0" fill="#FEFFFE" transform="matrix(1.00, 0.00, -0.00, -1.00, 6.2, 19.3)">∆</text></g></g></g></svg>