<?xml version="1.0" encoding="UTF-8" standalone="no"?><svg xmlns="http://www.w3.org/2000/svg" xmlns:xlink="http://www.w3.org/1999/xlink" clip-rule="evenodd" stroke-miterlimit="10" viewBox="0 0 429 49"><desc>SVG generated by Keynote</desc><defs></defs><g transform="matrix(1.00, 0.00, -0.00, -1.00, 0.0, 49.0)"><text xml:space="preserve" font-family="HelveticaNeue-Medium,Helvetica Neue" font-size="62.0" fill="#000000" transform="matrix(1.00, 0.00, -0.00, -1.00, -2.4, 2.8)">L</text><text xml:space="preserve" font-family="HelveticaNeue-Medium,Helvetica Neue" font-size="62.0" fill="#000000" transform="matrix(1.00, 0.00, -0.00, -1.00, 33.3, 2.8)">e</text><text xml:space="preserve" font-family="HelveticaNeue-Medium,Helvetica Neue" font-size="62.0" fill="#000000" transform="matrix(1.00, 0.00, -0.00, -1.00, 67.7, 2.8)">t</text><text xml:space="preserve" font-family="HelveticaNeue-Medium,Helvetica Neue" font-size="62.0" fill="#000000" transform="matrix(1.00, 0.00, -0.00, -1.00, 88.4, 2.8)">’</text><text xml:space="preserve" font-family="HelveticaNeue-Medium,Helvetica Neue" font-size="62.0" fill="#000000" transform="matrix(1.00, 0.00, -0.00, -1.00, 101.1, 2.8)">s</text><text xml:space="preserve" font-family="HelveticaNeue-Medium,Helvetica Neue" font-size="62.0" fill="#000000" transform="matrix(1.00, 0.00, -0.00, -1.00, 133.3, 2.8)"> </text><text xml:space="preserve" font-family="HelveticaNeue-Medium,Helvetica Neue" font-size="62.0" fill="#000000" transform="matrix(1.00, 0.00, -0.00, -1.00, 150.5, 2.8)">u</text><text xml:space="preserve" font-family="HelveticaNeue-Medium,Helvetica Neue" font-size="62.0" fill="#000000" transform="matrix(1.00, 0.00, -0.00, -1.00, 186.1, 2.8)">s</text><text xml:space="preserve" font-family="HelveticaNeue-Medium,Helvetica Neue" font-size="62.0" fill="#000000" transform="matrix(1.00, 0.00, -0.00, -1.00, 218.3, 2.8)">e</text><text xml:space="preserve" font-family="HelveticaNeue-Medium,Helvetica Neue" font-size="62.0" fill="#000000" transform="matrix(1.00, 0.00, -0.00, -1.00, 252.8, 2.8)"> </text><text xml:space="preserve" font-family="HelveticaNeue-Medium,Helvetica Neue" font-size="62.0" fill="#000000" transform="matrix(1.00, 0.00, -0.00, -1.00, 270.1, 2.8)">t</text><text xml:space="preserve" font-family="HelveticaNeue-Medium,Helvetica Neue" font-size="62.0" fill="#000000" transform="matrix(1.00, 0.00, -0.00, -1.00, 290.7, 2.8)">h</text><text xml:space="preserve" font-family="HelveticaNeue-Medium,Helvetica Neue" font-size="62.0" fill="#000000" transform="matrix(1.00, 0.00, -0.00, -1.00, 326.3, 2.8)">e</text><text xml:space="preserve" font-family="HelveticaNeue-Medium,Helvetica Neue" font-size="62.0" fill="#000000" transform="matrix(1.00, 0.00, -0.00, -1.00, 360.8, 2.8)">m</text><text xml:space="preserve" font-family="HelveticaNeue-Medium,Helvetica Neue" font-size="62.0" fill="#000000" transform="matrix(1.00, 0.00, -0.00, -1.00, 414.8, 2.8)">!</text></g></svg>