<?xml version="1.0" encoding="UTF-8" standalone="no"?><svg xmlns="http://www.w3.org/2000/svg" xmlns:xlink="http://www.w3.org/1999/xlink" clip-rule="evenodd" stroke-miterlimit="10" viewBox="0 0 39 52"><desc>SVG generated by Keynote</desc><defs><linearGradient id="gradSh1.59" x1="0.0" y1="0.0" x2="100.0" y2="0.0" gradientUnits="userSpaceOnUse" gradientTransform="matrix(0.00, -0.29, -0.27, 0.00, 15.5, 43.0)"><stop offset="0.00000" stop-color="#FF280E"></stop><stop offset="0.00733" stop-color="#FE280E"></stop><stop offset="0.03079" stop-color="#FD2810"></stop><stop offset="0.03446" stop-color="#FC2810"></stop><stop offset="0.39516" stop-color="#E23020"></stop><stop offset="0.40249" stop-color="#E13020"></stop><stop offset="1.00000" stop-color="#B63C3A"></stop></linearGradient></defs><g transform="matrix(1.00, 0.00, -0.00, -1.00, 0.0, 52.0)"><g><clipPath id="clip0x60000f0bbe40"><path d="M 1.6 6.0 L 36.9 6.0 L 36.9 43.4 L 1.6 43.4 Z M 1.6 6.0 "></path></clipPath><g clip-path="url(#clip0x60000f0bbe40)"><image xlink:href="../../B8180A85-4634-4071-BD11-B567ECB6C875/assets/90F5D6BBEC62848289E57B8AEAFD3A31.png" width="33.00" height="35.00" transform="matrix(1.01, 0.00, -0.00, -1.01, 2.6, 42.4)" opacity="0.50"></image></g></g><g><clipPath id="clip0x60000f0bbea0"><path d="M 3.0 42.0 L 28.0 42.0 L 28.0 15.0 L 3.0 15.0 Z M 3.1 41.9 "></path></clipPath><g clip-path="url(#clip0x60000f0bbea0)"><g><clipPath id="clip0x60000f0bc200"><path d="M 1.6 6.0 L 36.9 6.0 L 36.9 43.4 L 1.6 43.4 Z M 1.6 6.0 "></path></clipPath><g clip-path="url(#clip0x60000f0bc200)"><path d="M 1.6 6.0 L 36.9 6.0 L 36.9 43.4 L 1.6 43.4 Z M 1.6 6.0 " fill="url(#gradSh1.59)"></path></g></g></g></g><g><clipPath id="clip0x60000f2bc500"><path d="M 0.5 0.6 L 38.7 0.6 L 38.7 51.8 L 0.5 51.8 Z M 0.5 0.6 "></path></clipPath><g clip-path="url(#clip0x60000f2bc500)"><image xlink:href="../../3146C294-0BB5-4E88-A65A-3A2D0FEB8B2A/assets/EF5986BB1D86B18C4EEB84FF0A4B0CD9.png" width="36.00" height="49.00" transform="matrix(1.00, 0.00, -0.00, -1.00, 1.5, 50.8)" opacity="0.50"></image></g></g><g><clipPath id="clip0x60000f2bc560"><path d="M -2.3 4.0 L 34.5 4.0 L 34.5 54.7 L -2.3 54.7 Z M -2.3 4.0 "></path></clipPath><g clip-path="url(#clip0x60000f2bc560)"><text xml:space="preserve" font-family="HelveticaNeue-Medium,Helvetica Neue" font-size="28.0" fill="#FEFFFE" transform="matrix(1.00, 0.00, -0.00, -1.00, 6.5, 19.2)">∆</text></g></g></g></svg>