<?xml version="1.0" encoding="UTF-8" standalone="no"?><svg xmlns="http://www.w3.org/2000/svg" xmlns:xlink="http://www.w3.org/1999/xlink" clip-rule="evenodd" stroke-miterlimit="10" viewBox="0 0 32 43"><desc>SVG generated by Keynote</desc><defs><linearGradient id="gradSh1.71" x1="0.0" y1="0.0" x2="100.0" y2="0.0" gradientUnits="userSpaceOnUse" gradientTransform="matrix(0.00, -0.20, -0.19, 0.00, 12.5, 32.0)"><stop offset="0.00000" stop-color="#FF280E"></stop><stop offset="0.00733" stop-color="#FE280E"></stop><stop offset="0.03079" stop-color="#FD2810"></stop><stop offset="0.03446" stop-color="#FC2810"></stop><stop offset="0.39516" stop-color="#E23020"></stop><stop offset="0.40249" stop-color="#E13020"></stop><stop offset="1.00000" stop-color="#B63C3A"></stop></linearGradient></defs><g transform="matrix(1.00, 0.00, -0.00, -1.00, 0.0, 43.0)"><g><clipPath id="clip0x6000116bd640"><path d="M 2.7 4.2 L 29.9 4.2 L 29.9 32.6 L 2.7 32.6 Z M 2.7 4.2 "></path></clipPath><g clip-path="url(#clip0x6000116bd640)"><image xlink:href="../../72C1DE48-15E7-4C8A-9E1F-DB3F8FDFE38F/assets/C790DC85D3BD5FD1342775D0C74B4C51.png" width="25.00" height="26.00" transform="matrix(1.01, 0.00, -0.00, -1.02, 3.7, 31.6)" opacity="0.50"></image></g></g><g><clipPath id="clip0x6000116bd6a0"><path d="M 4.0 31.0 L 21.0 31.0 L 21.0 13.0 L 4.0 13.0 Z M 4.2 31.2 "></path></clipPath><g clip-path="url(#clip0x6000116bd6a0)"><g><clipPath id="clip0x6000116bda00"><path d="M 2.7 4.2 L 29.9 4.2 L 29.9 32.6 L 2.7 32.6 Z M 2.7 4.2 "></path></clipPath><g clip-path="url(#clip0x6000116bda00)"><path d="M 2.7 4.2 L 29.9 4.2 L 29.9 32.6 L 2.7 32.6 Z M 2.7 4.2 " fill="url(#gradSh1.71)"></path></g></g></g></g><g><clipPath id="clip0x6000118bdd00"><path d="M 0.2 0.3 L 31.2 0.3 L 31.2 42.7 L 0.2 42.7 Z M 0.2 0.3 "></path></clipPath><g clip-path="url(#clip0x6000118bdd00)"><image xlink:href="../../5E12F62A-307D-4FF4-844D-F51B2C2857DC/assets/1599012E2D0298B4218BAD95493D10D3.png" width="29.00" height="40.00" transform="matrix(1.00, 0.00, -0.00, -1.01, 1.2, 41.7)" opacity="0.50"></image></g></g><g><clipPath id="clip0x6080060a0960"><path d="M -0.3 6.2 L 24.6 6.2 L 24.6 43.2 L -0.3 43.2 Z M -0.3 6.2 "></path></clipPath><g clip-path="url(#clip0x6080060a0960)"><text xml:space="preserve" font-family="HelveticaNeue-Medium,Helvetica Neue" font-size="20.0" fill="#FEFFFE" transform="matrix(1.00, 0.00, -0.00, -1.00, 6.2, 17.1)">+</text></g></g></g></svg>