<?xml version="1.0" encoding="UTF-8" standalone="no"?><svg xmlns="http://www.w3.org/2000/svg" xmlns:xlink="http://www.w3.org/1999/xlink" clip-rule="evenodd" stroke-miterlimit="10" viewBox="0 0 1024 768"><desc>SVG generated by Keynote</desc><defs></defs><g transform="matrix(1.00, 0.00, -0.00, -1.00, 0.0, 768.0)"><path d="M 0.0 768.0 L 1024.0 768.0 L 1024.0 0.0 L 0.0 0.0 Z M 0.0 768.0 " fill="#FEFFFE"></path><g><clipPath id="clip0x610000aaa8c0"><path d="M 44.0 649.0 L 980.0 649.0 L 980.0 329.0 L 44.0 329.0 Z M 44.2 648.7 "></path></clipPath><g clip-path="url(#clip0x610000aaa8c0)"><image xlink:href="../../DE124F66-373D-4B6B-9E51-F80C01C0A405/assets/85D374D5ED68E0D5DF76081633F0C372.jpeg" width="1024.00" height="768.00" transform="matrix(0.91, 0.00, -0.00, -0.91, 44.2, 801.4)"></image></g></g><text xml:space="preserve" font-family="HelveticaNeue,Helvetica Neue" font-size="60.7" fill="#FEFFFE" transform="matrix(1.00, 0.00, -0.00, -1.00, 345.2, 576.4)">E</text><text xml:space="preserve" font-family="HelveticaNeue,Helvetica Neue" font-size="60.7" fill="#FEFFFE" transform="matrix(1.00, 0.00, -0.00, -1.00, 382.3, 576.4)">v</text><text xml:space="preserve" font-family="HelveticaNeue,Helvetica Neue" font-size="60.7" fill="#FEFFFE" transform="matrix(1.00, 0.00, -0.00, -1.00, 412.6, 576.4)">e</text><text xml:space="preserve" font-family="HelveticaNeue,Helvetica Neue" font-size="60.7" fill="#FEFFFE" transform="matrix(1.00, 0.00, -0.00, -1.00, 445.2, 576.4)">r</text><text xml:space="preserve" font-family="HelveticaNeue,Helvetica Neue" font-size="60.7" fill="#FEFFFE" transform="matrix(1.00, 0.00, -0.00, -1.00, 465.5, 576.4)">y</text><text xml:space="preserve" font-family="HelveticaNeue,Helvetica Neue" font-size="60.7" fill="#FEFFFE" transform="matrix(1.00, 0.00, -0.00, -1.00, 495.8, 576.4)">t</text><text xml:space="preserve" font-family="HelveticaNeue,Helvetica Neue" font-size="60.7" fill="#FEFFFE" transform="matrix(1.00, 0.00, -0.00, -1.00, 514.9, 576.4)">h</text><text xml:space="preserve" font-family="HelveticaNeue,Helvetica Neue" font-size="60.7" fill="#FEFFFE" transform="matrix(1.00, 0.00, -0.00, -1.00, 548.7, 576.4)">i</text><text xml:space="preserve" font-family="HelveticaNeue,Helvetica Neue" font-size="60.7" fill="#FEFFFE" transform="matrix(1.00, 0.00, -0.00, -1.00, 562.2, 576.4)">n</text><text xml:space="preserve" font-family="HelveticaNeue,Helvetica Neue" font-size="60.7" fill="#FEFFFE" transform="matrix(1.00, 0.00, -0.00, -1.00, 595.9, 576.4)">g</text><text xml:space="preserve" font-family="HelveticaNeue,Helvetica Neue" font-size="60.7" fill="#FEFFFE" transform="matrix(1.00, 0.00, -0.00, -1.00, 630.8, 576.4)"> </text><text xml:space="preserve" font-family="HelveticaNeue,Helvetica Neue" font-size="60.7" fill="#FEFFFE" transform="matrix(1.00, 0.00, -0.00, -1.00, 647.7, 576.4)">i</text><text xml:space="preserve" font-family="HelveticaNeue,Helvetica Neue" font-size="60.7" fill="#FEFFFE" transform="matrix(1.00, 0.00, -0.00, -1.00, 661.2, 576.4)">s</text><text xml:space="preserve" font-family="HelveticaNeue,Helvetica Neue" font-size="60.7" fill="#FEFFFE" transform="matrix(1.00, 0.00, -0.00, -1.00, 691.5, 576.4)"> </text><text xml:space="preserve" font-family="HelveticaNeue,Helvetica Neue" font-size="60.7" fill="#FEFFFE" transform="matrix(1.00, 0.00, -0.00, -1.00, 708.4, 576.4)">a</text><text xml:space="preserve" font-family="HelveticaNeue,Helvetica Neue" font-size="60.7" fill="#FEFFFE" transform="matrix(1.00, 0.00, -0.00, -1.00, 741.0, 576.4)">n</text><text xml:space="preserve" font-family="HelveticaNeue,Helvetica Neue" font-size="60.7" fill="#FEFFFE" transform="matrix(1.00, 0.00, -0.00, -1.00, 774.8, 576.4)"> </text><text xml:space="preserve" font-family="HelveticaNeue,Helvetica Neue" font-size="60.7" fill="#FEFFFE" transform="matrix(1.00, 0.00, -0.00, -1.00, 791.6, 576.4)">o</text><text xml:space="preserve" font-family="HelveticaNeue,Helvetica Neue" font-size="60.7" fill="#FEFFFE" transform="matrix(1.00, 0.00, -0.00, -1.00, 826.5, 576.4)">b</text><text xml:space="preserve" font-family="HelveticaNeue,Helvetica Neue" font-size="60.7" fill="#FEFFFE" transform="matrix(1.00, 0.00, -0.00, -1.00, 862.5, 576.4)">j</text><text xml:space="preserve" font-family="HelveticaNeue,Helvetica Neue" font-size="60.7" fill="#FEFFFE" transform="matrix(1.00, 0.00, -0.00, -1.00, 876.0, 576.4)">e</text><text xml:space="preserve" font-family="HelveticaNeue,Helvetica Neue" font-size="60.7" fill="#FEFFFE" transform="matrix(1.00, 0.00, -0.00, -1.00, 908.6, 576.4)">c</text><text xml:space="preserve" font-family="HelveticaNeue,Helvetica Neue" font-size="60.7" fill="#FEFFFE" transform="matrix(1.00, 0.00, -0.00, -1.00, 941.2, 576.4)">t</text><image xlink:href="../../B487C36D-E658-4F19-B647-040A81FB28F0/assets/793F7FF135A52E535FEA3FC05AAB1AFD.png" width="167.00" height="246.00" transform="matrix(0.25, 0.00, -0.00, -0.25, 952.0, 100.0)"></image></g></svg>