<?xml version="1.0" encoding="UTF-8" standalone="no"?><svg xmlns="http://www.w3.org/2000/svg" xmlns:xlink="http://www.w3.org/1999/xlink" clip-rule="evenodd" stroke-miterlimit="10" viewBox="0 0 257 61"><desc>SVG generated by Keynote</desc><defs></defs><g transform="matrix(1.00, 0.00, -0.00, -1.00, 0.0, 61.0)"><text xml:space="preserve" font-family="HelveticaNeue-LightItalic,Helvetica Neue" font-style="italic" font-size="63.0" fill="#557D8A" transform="matrix(1.00, 0.00, -0.00, -1.00, 10.7, 13.9)">j</text><text xml:space="preserve" font-family="HelveticaNeue-LightItalic,Helvetica Neue" font-style="italic" font-size="63.0" fill="#557D8A" transform="matrix(1.00, 0.00, -0.00, -1.00, 22.3, 13.9)">u</text><text xml:space="preserve" font-family="HelveticaNeue-LightItalic,Helvetica Neue" font-style="italic" font-size="63.0" fill="#557D8A" transform="matrix(1.00, 0.00, -0.00, -1.00, 56.2, 13.9)">s</text><text xml:space="preserve" font-family="HelveticaNeue-LightItalic,Helvetica Neue" font-style="italic" font-size="63.0" fill="#557D8A" transform="matrix(1.00, 0.00, -0.00, -1.00, 86.5, 13.9)">t</text><text xml:space="preserve" font-family="HelveticaNeue-LightItalic,Helvetica Neue" font-style="italic" font-size="63.0" fill="#557D8A" transform="matrix(1.00, 0.00, -0.00, -1.00, 105.1, 13.9)"> </text><text xml:space="preserve" font-family="HelveticaNeue-LightItalic,Helvetica Neue" font-style="italic" font-size="63.0" fill="#557D8A" transform="matrix(1.00, 0.00, -0.00, -1.00, 122.6, 13.9)">a</text><text xml:space="preserve" font-family="HelveticaNeue-LightItalic,Helvetica Neue" font-style="italic" font-size="63.0" fill="#557D8A" transform="matrix(1.00, 0.00, -0.00, -1.00, 155.3, 13.9)">s</text><text xml:space="preserve" font-family="HelveticaNeue-LightItalic,Helvetica Neue" font-style="italic" font-size="63.0" fill="#557D8A" transform="matrix(1.00, 0.00, -0.00, -1.00, 185.6, 13.9)"> </text><text xml:space="preserve" font-family="HelveticaNeue-LightItalic,Helvetica Neue" font-style="italic" font-size="63.0" fill="#557D8A" transform="matrix(1.00, 0.00, -0.00, -1.00, 203.2, 13.9)">…</text></g></svg>