<?xml version="1.0" encoding="UTF-8" standalone="no"?><svg xmlns="http://www.w3.org/2000/svg" xmlns:xlink="http://www.w3.org/1999/xlink" clip-rule="evenodd" stroke-miterlimit="10" viewBox="0 0 1024 768"><desc>SVG generated by Keynote</desc><defs></defs><g transform="matrix(1.00, 0.00, -0.00, -1.00, 0.0, 768.0)"><path d="M 0.0 768.0 L 1024.0 768.0 L 1024.0 0.0 L 0.0 0.0 Z M 0.0 768.0 " fill="#FEFFFE"></path><g><clipPath id="clip0x6000140bad00"><path d="M 44.0 768.0 L 980.0 768.0 L 980.0 608.0 L 44.0 608.0 Z M 44.2 768.0 "></path></clipPath><g clip-path="url(#clip0x6000140bad00)"><image xlink:href="../../7208C4A7-1934-4049-92E2-F62952F7F4DB/assets/0D82164238DE9538C7615B43BAE59E4C.jpeg" width="1024.00" height="1023.00" transform="matrix(0.91, 0.00, -0.00, -0.91, 44.2, 1044.2)"></image></g></g><text xml:space="preserve" font-family="HelveticaNeue-Light,Helvetica Neue" font-size="36.0" fill="#265564" transform="matrix(1.00, 0.00, -0.00, -1.00, 234.7, 345.1)">h</text><text xml:space="preserve" font-family="HelveticaNeue-Light,Helvetica Neue" font-size="36.0" fill="#265564" transform="matrix(1.00, 0.00, -0.00, -1.00, 254.0, 345.1)">t</text><text xml:space="preserve" font-family="HelveticaNeue-Light,Helvetica Neue" font-size="36.0" fill="#265564" transform="matrix(1.00, 0.00, -0.00, -1.00, 264.6, 345.1)">t</text><text xml:space="preserve" font-family="HelveticaNeue-Light,Helvetica Neue" font-size="36.0" fill="#265564" transform="matrix(1.00, 0.00, -0.00, -1.00, 275.3, 345.1)">p</text><text xml:space="preserve" font-family="HelveticaNeue-Light,Helvetica Neue" font-size="36.0" fill="#265564" transform="matrix(1.00, 0.00, -0.00, -1.00, 296.0, 345.1)">:</text><text xml:space="preserve" font-family="HelveticaNeue-Light,Helvetica Neue" font-size="36.0" fill="#265564" transform="matrix(1.00, 0.00, -0.00, -1.00, 306.0, 345.1)">/</text><text xml:space="preserve" font-family="HelveticaNeue-Light,Helvetica Neue" font-size="36.0" fill="#265564" transform="matrix(1.00, 0.00, -0.00, -1.00, 318.0, 345.1)">/</text><text xml:space="preserve" font-family="HelveticaNeue-Light,Helvetica Neue" font-size="36.0" fill="#265564" transform="matrix(1.00, 0.00, -0.00, -1.00, 329.9, 345.1)">t</text><text xml:space="preserve" font-family="HelveticaNeue-Light,Helvetica Neue" font-size="36.0" fill="#265564" transform="matrix(1.00, 0.00, -0.00, -1.00, 340.6, 345.1)">w</text><text xml:space="preserve" font-family="HelveticaNeue-Light,Helvetica Neue" font-size="36.0" fill="#265564" transform="matrix(1.00, 0.00, -0.00, -1.00, 367.3, 345.1)">i</text><text xml:space="preserve" font-family="HelveticaNeue-Light,Helvetica Neue" font-size="36.0" fill="#265564" transform="matrix(1.00, 0.00, -0.00, -1.00, 373.9, 345.1)">t</text><text xml:space="preserve" font-family="HelveticaNeue-Light,Helvetica Neue" font-size="36.0" fill="#265564" transform="matrix(1.00, 0.00, -0.00, -1.00, 384.6, 345.1)">t</text><text xml:space="preserve" font-family="HelveticaNeue-Light,Helvetica Neue" font-size="36.0" fill="#265564" transform="matrix(1.00, 0.00, -0.00, -1.00, 395.3, 345.1)">e</text><text xml:space="preserve" font-family="HelveticaNeue-Light,Helvetica Neue" font-size="36.0" fill="#265564" transform="matrix(1.00, 0.00, -0.00, -1.00, 413.9, 345.1)">r</text><text xml:space="preserve" font-family="HelveticaNeue-Light,Helvetica Neue" font-size="36.0" fill="#265564" transform="matrix(1.00, 0.00, -0.00, -1.00, 422.0, 345.1)">.</text><text xml:space="preserve" font-family="HelveticaNeue-Light,Helvetica Neue" font-size="36.0" fill="#265564" transform="matrix(1.00, 0.00, -0.00, -1.00, 432.0, 345.1)">g</text><text xml:space="preserve" font-family="HelveticaNeue-Light,Helvetica Neue" font-size="36.0" fill="#265564" transform="matrix(1.00, 0.00, -0.00, -1.00, 452.0, 345.1)">i</text><text xml:space="preserve" font-family="HelveticaNeue-Light,Helvetica Neue" font-size="36.0" fill="#265564" transform="matrix(1.00, 0.00, -0.00, -1.00, 458.6, 345.1)">t</text><text xml:space="preserve" font-family="HelveticaNeue-Light,Helvetica Neue" font-size="36.0" fill="#265564" transform="matrix(1.00, 0.00, -0.00, -1.00, 469.3, 345.1)">h</text><text xml:space="preserve" font-family="HelveticaNeue-Light,Helvetica Neue" font-size="36.0" fill="#265564" transform="matrix(1.00, 0.00, -0.00, -1.00, 488.6, 345.1)">u</text><text xml:space="preserve" font-family="HelveticaNeue-Light,Helvetica Neue" font-size="36.0" fill="#265564" transform="matrix(1.00, 0.00, -0.00, -1.00, 508.0, 345.1)">b</text><text xml:space="preserve" font-family="HelveticaNeue-Light,Helvetica Neue" font-size="36.0" fill="#265564" transform="matrix(1.00, 0.00, -0.00, -1.00, 528.6, 345.1)">.</text><text xml:space="preserve" font-family="HelveticaNeue-Light,Helvetica Neue" font-size="36.0" fill="#265564" transform="matrix(1.00, 0.00, -0.00, -1.00, 538.6, 345.1)">i</text><text xml:space="preserve" font-family="HelveticaNeue-Light,Helvetica Neue" font-size="36.0" fill="#265564" transform="matrix(1.00, 0.00, -0.00, -1.00, 545.3, 345.1)">o</text><text xml:space="preserve" font-family="HelveticaNeue-Light,Helvetica Neue" font-size="36.0" fill="#265564" transform="matrix(1.00, 0.00, -0.00, -1.00, 565.3, 345.1)">/</text><text xml:space="preserve" font-family="HelveticaNeue-Light,Helvetica Neue" font-size="36.0" fill="#265564" transform="matrix(1.00, 0.00, -0.00, -1.00, 577.3, 345.1)">s</text><text xml:space="preserve" font-family="HelveticaNeue-Light,Helvetica Neue" font-size="36.0" fill="#265564" transform="matrix(1.00, 0.00, -0.00, -1.00, 594.6, 345.1)">c</text><text xml:space="preserve" font-family="HelveticaNeue-Light,Helvetica Neue" font-size="36.0" fill="#265564" transform="matrix(1.00, 0.00, -0.00, -1.00, 613.3, 345.1)">a</text><text xml:space="preserve" font-family="HelveticaNeue-Light,Helvetica Neue" font-size="36.0" fill="#265564" transform="matrix(1.00, 0.00, -0.00, -1.00, 632.0, 345.1)">l</text><text xml:space="preserve" font-family="HelveticaNeue-Light,Helvetica Neue" font-size="36.0" fill="#265564" transform="matrix(1.00, 0.00, -0.00, -1.00, 638.6, 345.1)">a</text><text xml:space="preserve" font-family="HelveticaNeue-Light,Helvetica Neue" font-size="36.0" fill="#265564" transform="matrix(1.00, 0.00, -0.00, -1.00, 657.3, 345.1)">_</text><text xml:space="preserve" font-family="HelveticaNeue-Light,Helvetica Neue" font-size="36.0" fill="#265564" transform="matrix(1.00, 0.00, -0.00, -1.00, 675.3, 345.1)">s</text><text xml:space="preserve" font-family="HelveticaNeue-Light,Helvetica Neue" font-size="36.0" fill="#265564" transform="matrix(1.00, 0.00, -0.00, -1.00, 692.6, 345.1)">c</text><text xml:space="preserve" font-family="HelveticaNeue-Light,Helvetica Neue" font-size="36.0" fill="#265564" transform="matrix(1.00, 0.00, -0.00, -1.00, 711.3, 345.1)">h</text><text xml:space="preserve" font-family="HelveticaNeue-Light,Helvetica Neue" font-size="36.0" fill="#265564" transform="matrix(1.00, 0.00, -0.00, -1.00, 730.7, 345.1)">o</text><text xml:space="preserve" font-family="HelveticaNeue-Light,Helvetica Neue" font-size="36.0" fill="#265564" transform="matrix(1.00, 0.00, -0.00, -1.00, 750.7, 345.1)">o</text><text xml:space="preserve" font-family="HelveticaNeue-Light,Helvetica Neue" font-size="36.0" fill="#265564" transform="matrix(1.00, 0.00, -0.00, -1.00, 770.7, 345.1)">l</text><text xml:space="preserve" font-family="HelveticaNeue-Light,Helvetica Neue" font-size="36.0" fill="#265564" transform="matrix(1.00, 0.00, -0.00, -1.00, 777.4, 345.1)">/</text><g><clipPath id="clip0x6180048aa500"><path d="M 233.7 339.6 L 789.3 339.6 L 789.3 343.4 L 233.7 343.4 Z M 233.7 339.6 "></path></clipPath><g clip-path="url(#clip0x6180048aa500)"><path d="M 4.5 42.9 L 559.2 42.9 " fill="none" stroke="#265564" stroke-width="1.80" transform="matrix(1.00, 0.00, 0.00, -1.00, 230.2, 384.4)"></path></g></g><text xml:space="preserve" font-family="HelveticaNeue-Light,Helvetica Neue" font-size="36.0" fill="#265564" transform="matrix(1.00, 0.00, -0.00, -1.00, 130.0, 440.2)">h</text><text xml:space="preserve" font-family="HelveticaNeue-Light,Helvetica Neue" font-size="36.0" fill="#265564" transform="matrix(1.00, 0.00, -0.00, -1.00, 149.3, 440.2)">t</text><text xml:space="preserve" font-family="HelveticaNeue-Light,Helvetica Neue" font-size="36.0" fill="#265564" transform="matrix(1.00, 0.00, -0.00, -1.00, 160.0, 440.2)">t</text><text xml:space="preserve" font-family="HelveticaNeue-Light,Helvetica Neue" font-size="36.0" fill="#265564" transform="matrix(1.00, 0.00, -0.00, -1.00, 170.6, 440.2)">p</text><text xml:space="preserve" font-family="HelveticaNeue-Light,Helvetica Neue" font-size="36.0" fill="#265564" transform="matrix(1.00, 0.00, -0.00, -1.00, 191.3, 440.2)">:</text><text xml:space="preserve" font-family="HelveticaNeue-Light,Helvetica Neue" font-size="36.0" fill="#265564" transform="matrix(1.00, 0.00, -0.00, -1.00, 201.3, 440.2)">/</text><text xml:space="preserve" font-family="HelveticaNeue-Light,Helvetica Neue" font-size="36.0" fill="#265564" transform="matrix(1.00, 0.00, -0.00, -1.00, 213.3, 440.2)">/</text><text xml:space="preserve" font-family="HelveticaNeue-Light,Helvetica Neue" font-size="36.0" fill="#265564" transform="matrix(1.00, 0.00, -0.00, -1.00, 225.3, 440.2)">d</text><text xml:space="preserve" font-family="HelveticaNeue-Light,Helvetica Neue" font-size="36.0" fill="#265564" transform="matrix(1.00, 0.00, -0.00, -1.00, 245.9, 440.2)">a</text><text xml:space="preserve" font-family="HelveticaNeue-Light,Helvetica Neue" font-size="36.0" fill="#265564" transform="matrix(1.00, 0.00, -0.00, -1.00, 264.6, 440.2)">n</text><text xml:space="preserve" font-family="HelveticaNeue-Light,Helvetica Neue" font-size="36.0" fill="#265564" transform="matrix(1.00, 0.00, -0.00, -1.00, 284.0, 440.2)">i</text><text xml:space="preserve" font-family="HelveticaNeue-Light,Helvetica Neue" font-size="36.0" fill="#265564" transform="matrix(1.00, 0.00, -0.00, -1.00, 290.6, 440.2)">e</text><text xml:space="preserve" font-family="HelveticaNeue-Light,Helvetica Neue" font-size="36.0" fill="#265564" transform="matrix(1.00, 0.00, -0.00, -1.00, 309.3, 440.2)">l</text><text xml:space="preserve" font-family="HelveticaNeue-Light,Helvetica Neue" font-size="36.0" fill="#265564" transform="matrix(1.00, 0.00, -0.00, -1.00, 316.0, 440.2)">w</text><text xml:space="preserve" font-family="HelveticaNeue-Light,Helvetica Neue" font-size="36.0" fill="#265564" transform="matrix(1.00, 0.00, -0.00, -1.00, 342.6, 440.2)">e</text><text xml:space="preserve" font-family="HelveticaNeue-Light,Helvetica Neue" font-size="36.0" fill="#265564" transform="matrix(1.00, 0.00, -0.00, -1.00, 361.3, 440.2)">s</text><text xml:space="preserve" font-family="HelveticaNeue-Light,Helvetica Neue" font-size="36.0" fill="#265564" transform="matrix(1.00, 0.00, -0.00, -1.00, 378.6, 440.2)">t</text><text xml:space="preserve" font-family="HelveticaNeue-Light,Helvetica Neue" font-size="36.0" fill="#265564" transform="matrix(1.00, 0.00, -0.00, -1.00, 389.3, 440.2)">h</text><text xml:space="preserve" font-family="HelveticaNeue-Light,Helvetica Neue" font-size="36.0" fill="#265564" transform="matrix(1.00, 0.00, -0.00, -1.00, 408.6, 440.2)">e</text><text xml:space="preserve" font-family="HelveticaNeue-Light,Helvetica Neue" font-size="36.0" fill="#265564" transform="matrix(1.00, 0.00, -0.00, -1.00, 427.3, 440.2)">i</text><text xml:space="preserve" font-family="HelveticaNeue-Light,Helvetica Neue" font-size="36.0" fill="#265564" transform="matrix(1.00, 0.00, -0.00, -1.00, 434.0, 440.2)">d</text><text xml:space="preserve" font-family="HelveticaNeue-Light,Helvetica Neue" font-size="36.0" fill="#265564" transform="matrix(1.00, 0.00, -0.00, -1.00, 454.6, 440.2)">e</text><text xml:space="preserve" font-family="HelveticaNeue-Light,Helvetica Neue" font-size="36.0" fill="#265564" transform="matrix(1.00, 0.00, -0.00, -1.00, 473.3, 440.2)">.</text><text xml:space="preserve" font-family="HelveticaNeue-Light,Helvetica Neue" font-size="36.0" fill="#265564" transform="matrix(1.00, 0.00, -0.00, -1.00, 483.3, 440.2)">c</text><text xml:space="preserve" font-family="HelveticaNeue-Light,Helvetica Neue" font-size="36.0" fill="#265564" transform="matrix(1.00, 0.00, -0.00, -1.00, 502.0, 440.2)">o</text><text xml:space="preserve" font-family="HelveticaNeue-Light,Helvetica Neue" font-size="36.0" fill="#265564" transform="matrix(1.00, 0.00, -0.00, -1.00, 522.0, 440.2)">m</text><text xml:space="preserve" font-family="HelveticaNeue-Light,Helvetica Neue" font-size="36.0" fill="#265564" transform="matrix(1.00, 0.00, -0.00, -1.00, 552.0, 440.2)">/</text><text xml:space="preserve" font-family="HelveticaNeue-Light,Helvetica Neue" font-size="36.0" fill="#265564" transform="matrix(1.00, 0.00, -0.00, -1.00, 564.0, 440.2)">s</text><text xml:space="preserve" font-family="HelveticaNeue-Light,Helvetica Neue" font-size="36.0" fill="#265564" transform="matrix(1.00, 0.00, -0.00, -1.00, 581.3, 440.2)">c</text><text xml:space="preserve" font-family="HelveticaNeue-Light,Helvetica Neue" font-size="36.0" fill="#265564" transform="matrix(1.00, 0.00, -0.00, -1.00, 600.0, 440.2)">a</text><text xml:space="preserve" font-family="HelveticaNeue-Light,Helvetica Neue" font-size="36.0" fill="#265564" transform="matrix(1.00, 0.00, -0.00, -1.00, 618.7, 440.2)">l</text><text xml:space="preserve" font-family="HelveticaNeue-Light,Helvetica Neue" font-size="36.0" fill="#265564" transform="matrix(1.00, 0.00, -0.00, -1.00, 625.3, 440.2)">a</text><text xml:space="preserve" font-family="HelveticaNeue-Light,Helvetica Neue" font-size="36.0" fill="#265564" transform="matrix(1.00, 0.00, -0.00, -1.00, 644.0, 440.2)">/</text><text xml:space="preserve" font-family="HelveticaNeue-Light,Helvetica Neue" font-size="36.0" fill="#265564" transform="matrix(1.00, 0.00, -0.00, -1.00, 656.0, 440.2)">n</text><text xml:space="preserve" font-family="HelveticaNeue-Light,Helvetica Neue" font-size="36.0" fill="#265564" transform="matrix(1.00, 0.00, -0.00, -1.00, 675.4, 440.2)">e</text><text xml:space="preserve" font-family="HelveticaNeue-Light,Helvetica Neue" font-size="36.0" fill="#265564" transform="matrix(1.00, 0.00, -0.00, -1.00, 694.0, 440.2)">o</text><text xml:space="preserve" font-family="HelveticaNeue-Light,Helvetica Neue" font-size="36.0" fill="#265564" transform="matrix(1.00, 0.00, -0.00, -1.00, 714.1, 440.2)">p</text><text xml:space="preserve" font-family="HelveticaNeue-Light,Helvetica Neue" font-size="36.0" fill="#265564" transform="matrix(1.00, 0.00, -0.00, -1.00, 734.7, 440.2)">h</text><text xml:space="preserve" font-family="HelveticaNeue-Light,Helvetica Neue" font-size="36.0" fill="#265564" transform="matrix(1.00, 0.00, -0.00, -1.00, 754.0, 440.2)">y</text><text xml:space="preserve" font-family="HelveticaNeue-Light,Helvetica Neue" font-size="36.0" fill="#265564" transform="matrix(1.00, 0.00, -0.00, -1.00, 770.7, 440.2)">t</text><text xml:space="preserve" font-family="HelveticaNeue-Light,Helvetica Neue" font-size="36.0" fill="#265564" transform="matrix(1.00, 0.00, -0.00, -1.00, 781.4, 440.2)">e</text><text xml:space="preserve" font-family="HelveticaNeue-Light,Helvetica Neue" font-size="36.0" fill="#265564" transform="matrix(1.00, 0.00, -0.00, -1.00, 800.1, 440.2)">s</text><text xml:space="preserve" font-family="HelveticaNeue-Light,Helvetica Neue" font-size="36.0" fill="#265564" transform="matrix(1.00, 0.00, -0.00, -1.00, 817.4, 440.2)">.</text><text xml:space="preserve" font-family="HelveticaNeue-Light,Helvetica Neue" font-size="36.0" fill="#265564" transform="matrix(1.00, 0.00, -0.00, -1.00, 827.4, 440.2)">h</text><text xml:space="preserve" font-family="HelveticaNeue-Light,Helvetica Neue" font-size="36.0" fill="#265564" transform="matrix(1.00, 0.00, -0.00, -1.00, 846.7, 440.2)">t</text><text xml:space="preserve" font-family="HelveticaNeue-Light,Helvetica Neue" font-size="36.0" fill="#265564" transform="matrix(1.00, 0.00, -0.00, -1.00, 857.4, 440.2)">m</text><text xml:space="preserve" font-family="HelveticaNeue-Light,Helvetica Neue" font-size="36.0" fill="#265564" transform="matrix(1.00, 0.00, -0.00, -1.00, 887.4, 440.2)">l</text><g><clipPath id="clip0x6180048ab940"><path d="M 129.0 434.7 L 894.0 434.7 L 894.0 438.5 L 129.0 438.5 Z M 129.0 434.7 "></path></clipPath><g clip-path="url(#clip0x6180048ab940)"><path d="M 4.5 42.9 L 768.5 42.9 " fill="none" stroke="#265564" stroke-width="1.80" transform="matrix(1.00, 0.00, 0.00, -1.00, 125.5, 479.4)"></path></g></g><text xml:space="preserve" font-family="HelveticaNeue-Light,Helvetica Neue" font-size="36.0" fill="#265564" transform="matrix(1.00, 0.00, -0.00, -1.00, 318.3, 250.0)">h</text><text xml:space="preserve" font-family="HelveticaNeue-Light,Helvetica Neue" font-size="36.0" fill="#265564" transform="matrix(1.00, 0.00, -0.00, -1.00, 337.7, 250.0)">t</text><text xml:space="preserve" font-family="HelveticaNeue-Light,Helvetica Neue" font-size="36.0" fill="#265564" transform="matrix(1.00, 0.00, -0.00, -1.00, 348.3, 250.0)">t</text><text xml:space="preserve" font-family="HelveticaNeue-Light,Helvetica Neue" font-size="36.0" fill="#265564" transform="matrix(1.00, 0.00, -0.00, -1.00, 359.0, 250.0)">p</text><text xml:space="preserve" font-family="HelveticaNeue-Light,Helvetica Neue" font-size="36.0" fill="#265564" transform="matrix(1.00, 0.00, -0.00, -1.00, 379.6, 250.0)">:</text><text xml:space="preserve" font-family="HelveticaNeue-Light,Helvetica Neue" font-size="36.0" fill="#265564" transform="matrix(1.00, 0.00, -0.00, -1.00, 389.7, 250.0)">/</text><text xml:space="preserve" font-family="HelveticaNeue-Light,Helvetica Neue" font-size="36.0" fill="#265564" transform="matrix(1.00, 0.00, -0.00, -1.00, 401.6, 250.0)">/</text><text xml:space="preserve" font-family="HelveticaNeue-Light,Helvetica Neue" font-size="36.0" fill="#265564" transform="matrix(1.00, 0.00, -0.00, -1.00, 413.6, 250.0)">s</text><text xml:space="preserve" font-family="HelveticaNeue-Light,Helvetica Neue" font-size="36.0" fill="#265564" transform="matrix(1.00, 0.00, -0.00, -1.00, 430.9, 250.0)">c</text><text xml:space="preserve" font-family="HelveticaNeue-Light,Helvetica Neue" font-size="36.0" fill="#265564" transform="matrix(1.00, 0.00, -0.00, -1.00, 449.6, 250.0)">a</text><text xml:space="preserve" font-family="HelveticaNeue-Light,Helvetica Neue" font-size="36.0" fill="#265564" transform="matrix(1.00, 0.00, -0.00, -1.00, 468.3, 250.0)">l</text><text xml:space="preserve" font-family="HelveticaNeue-Light,Helvetica Neue" font-size="36.0" fill="#265564" transform="matrix(1.00, 0.00, -0.00, -1.00, 475.0, 250.0)">a</text><text xml:space="preserve" font-family="HelveticaNeue-Light,Helvetica Neue" font-size="36.0" fill="#265564" transform="matrix(1.00, 0.00, -0.00, -1.00, 493.7, 250.0)">t</text><text xml:space="preserve" font-family="HelveticaNeue-Light,Helvetica Neue" font-size="36.0" fill="#265564" transform="matrix(1.00, 0.00, -0.00, -1.00, 504.3, 250.0)">u</text><text xml:space="preserve" font-family="HelveticaNeue-Light,Helvetica Neue" font-size="36.0" fill="#265564" transform="matrix(1.00, 0.00, -0.00, -1.00, 523.6, 250.0)">t</text><text xml:space="preserve" font-family="HelveticaNeue-Light,Helvetica Neue" font-size="36.0" fill="#265564" transform="matrix(1.00, 0.00, -0.00, -1.00, 534.3, 250.0)">o</text><text xml:space="preserve" font-family="HelveticaNeue-Light,Helvetica Neue" font-size="36.0" fill="#265564" transform="matrix(1.00, 0.00, -0.00, -1.00, 554.3, 250.0)">r</text><text xml:space="preserve" font-family="HelveticaNeue-Light,Helvetica Neue" font-size="36.0" fill="#265564" transform="matrix(1.00, 0.00, -0.00, -1.00, 565.7, 250.0)">i</text><text xml:space="preserve" font-family="HelveticaNeue-Light,Helvetica Neue" font-size="36.0" fill="#265564" transform="matrix(1.00, 0.00, -0.00, -1.00, 572.3, 250.0)">a</text><text xml:space="preserve" font-family="HelveticaNeue-Light,Helvetica Neue" font-size="36.0" fill="#265564" transform="matrix(1.00, 0.00, -0.00, -1.00, 591.0, 250.0)">l</text><text xml:space="preserve" font-family="HelveticaNeue-Light,Helvetica Neue" font-size="36.0" fill="#265564" transform="matrix(1.00, 0.00, -0.00, -1.00, 597.7, 250.0)">s</text><text xml:space="preserve" font-family="HelveticaNeue-Light,Helvetica Neue" font-size="36.0" fill="#265564" transform="matrix(1.00, 0.00, -0.00, -1.00, 615.0, 250.0)">.</text><text xml:space="preserve" font-family="HelveticaNeue-Light,Helvetica Neue" font-size="36.0" fill="#265564" transform="matrix(1.00, 0.00, -0.00, -1.00, 625.0, 250.0)">c</text><text xml:space="preserve" font-family="HelveticaNeue-Light,Helvetica Neue" font-size="36.0" fill="#265564" transform="matrix(1.00, 0.00, -0.00, -1.00, 643.7, 250.0)">o</text><text xml:space="preserve" font-family="HelveticaNeue-Light,Helvetica Neue" font-size="36.0" fill="#265564" transform="matrix(1.00, 0.00, -0.00, -1.00, 663.7, 250.0)">m</text><text xml:space="preserve" font-family="HelveticaNeue-Light,Helvetica Neue" font-size="36.0" fill="#265564" transform="matrix(1.00, 0.00, -0.00, -1.00, 693.7, 250.0)">/</text><g><clipPath id="clip0x6180048ac5a0"><path d="M 317.3 244.5 L 705.7 244.5 L 705.7 248.3 L 317.3 248.3 Z M 317.3 244.5 "></path></clipPath><g clip-path="url(#clip0x6180048ac5a0)"><path d="M 4.5 42.9 L 391.8 42.9 " fill="none" stroke="#265564" stroke-width="1.80" transform="matrix(1.00, 0.00, 0.00, -1.00, 313.8, 289.3)"></path></g></g><text xml:space="preserve" font-family="HelveticaNeue-Light,Helvetica Neue" font-size="36.0" fill="#265564" transform="matrix(1.00, 0.00, -0.00, -1.00, 23.7, 128.9)">h</text><text xml:space="preserve" font-family="HelveticaNeue-Light,Helvetica Neue" font-size="36.0" fill="#265564" transform="matrix(1.00, 0.00, -0.00, -1.00, 43.0, 128.9)">t</text><text xml:space="preserve" font-family="HelveticaNeue-Light,Helvetica Neue" font-size="36.0" fill="#265564" transform="matrix(1.00, 0.00, -0.00, -1.00, 53.7, 128.9)">t</text><text xml:space="preserve" font-family="HelveticaNeue-Light,Helvetica Neue" font-size="36.0" fill="#265564" transform="matrix(1.00, 0.00, -0.00, -1.00, 64.3, 128.9)">p</text><text xml:space="preserve" font-family="HelveticaNeue-Light,Helvetica Neue" font-size="36.0" fill="#265564" transform="matrix(1.00, 0.00, -0.00, -1.00, 85.0, 128.9)">:</text><text xml:space="preserve" font-family="HelveticaNeue-Light,Helvetica Neue" font-size="36.0" fill="#265564" transform="matrix(1.00, 0.00, -0.00, -1.00, 95.0, 128.9)">/</text><text xml:space="preserve" font-family="HelveticaNeue-Light,Helvetica Neue" font-size="36.0" fill="#265564" transform="matrix(1.00, 0.00, -0.00, -1.00, 107.0, 128.9)">/</text><text xml:space="preserve" font-family="HelveticaNeue-Light,Helvetica Neue" font-size="36.0" fill="#265564" transform="matrix(1.00, 0.00, -0.00, -1.00, 119.0, 128.9)">w</text><text xml:space="preserve" font-family="HelveticaNeue-Light,Helvetica Neue" font-size="36.0" fill="#265564" transform="matrix(1.00, 0.00, -0.00, -1.00, 145.7, 128.9)">w</text><text xml:space="preserve" font-family="HelveticaNeue-Light,Helvetica Neue" font-size="36.0" fill="#265564" transform="matrix(1.00, 0.00, -0.00, -1.00, 172.3, 128.9)">w</text><text xml:space="preserve" font-family="HelveticaNeue-Light,Helvetica Neue" font-size="36.0" fill="#265564" transform="matrix(1.00, 0.00, -0.00, -1.00, 197.0, 128.9)">.</text><text xml:space="preserve" font-family="HelveticaNeue-Light,Helvetica Neue" font-size="36.0" fill="#265564" transform="matrix(1.00, 0.00, -0.00, -1.00, 207.0, 128.9)">s</text><text xml:space="preserve" font-family="HelveticaNeue-Light,Helvetica Neue" font-size="36.0" fill="#265564" transform="matrix(1.00, 0.00, -0.00, -1.00, 224.3, 128.9)">c</text><text xml:space="preserve" font-family="HelveticaNeue-Light,Helvetica Neue" font-size="36.0" fill="#265564" transform="matrix(1.00, 0.00, -0.00, -1.00, 243.0, 128.9)">a</text><text xml:space="preserve" font-family="HelveticaNeue-Light,Helvetica Neue" font-size="36.0" fill="#265564" transform="matrix(1.00, 0.00, -0.00, -1.00, 261.7, 128.9)">l</text><text xml:space="preserve" font-family="HelveticaNeue-Light,Helvetica Neue" font-size="36.0" fill="#265564" transform="matrix(1.00, 0.00, -0.00, -1.00, 268.4, 128.9)">a</text><text xml:space="preserve" font-family="HelveticaNeue-Light,Helvetica Neue" font-size="36.0" fill="#265564" transform="matrix(1.00, 0.00, -0.00, -1.00, 287.1, 128.9)">-</text><text xml:space="preserve" font-family="HelveticaNeue-Light,Helvetica Neue" font-size="36.0" fill="#265564" transform="matrix(1.00, 0.00, -0.00, -1.00, 300.4, 128.9)">l</text><text xml:space="preserve" font-family="HelveticaNeue-Light,Helvetica Neue" font-size="36.0" fill="#265564" transform="matrix(1.00, 0.00, -0.00, -1.00, 307.0, 128.9)">a</text><text xml:space="preserve" font-family="HelveticaNeue-Light,Helvetica Neue" font-size="36.0" fill="#265564" transform="matrix(1.00, 0.00, -0.00, -1.00, 325.7, 128.9)">n</text><text xml:space="preserve" font-family="HelveticaNeue-Light,Helvetica Neue" font-size="36.0" fill="#265564" transform="matrix(1.00, 0.00, -0.00, -1.00, 345.1, 128.9)">g</text><text xml:space="preserve" font-family="HelveticaNeue-Light,Helvetica Neue" font-size="36.0" fill="#265564" transform="matrix(1.00, 0.00, -0.00, -1.00, 365.1, 128.9)">.</text><text xml:space="preserve" font-family="HelveticaNeue-Light,Helvetica Neue" font-size="36.0" fill="#265564" transform="matrix(1.00, 0.00, -0.00, -1.00, 375.1, 128.9)">o</text><text xml:space="preserve" font-family="HelveticaNeue-Light,Helvetica Neue" font-size="36.0" fill="#265564" transform="matrix(1.00, 0.00, -0.00, -1.00, 395.1, 128.9)">r</text><text xml:space="preserve" font-family="HelveticaNeue-Light,Helvetica Neue" font-size="36.0" fill="#265564" transform="matrix(1.00, 0.00, -0.00, -1.00, 406.4, 128.9)">g</text><g><clipPath id="clip0x6180048ad1a0"><path d="M 22.7 123.4 L 426.5 123.4 L 426.5 127.2 L 22.7 127.2 Z M 22.7 123.4 "></path></clipPath><g clip-path="url(#clip0x6180048ad1a0)"><path d="M 4.5 42.9 L 407.3 42.9 " fill="none" stroke="#265564" stroke-width="1.80" transform="matrix(1.00, 0.00, 0.00, -1.00, 19.2, 168.2)"></path></g></g><text xml:space="preserve" font-family="HelveticaNeue-Light,Helvetica Neue" font-size="36.0" fill="#265564" transform="matrix(1.00, 0.00, -0.00, -1.00, 691.6, 128.9)">h</text><text xml:space="preserve" font-family="HelveticaNeue-Light,Helvetica Neue" font-size="36.0" fill="#265564" transform="matrix(1.00, 0.00, -0.00, -1.00, 711.0, 128.9)">t</text><text xml:space="preserve" font-family="HelveticaNeue-Light,Helvetica Neue" font-size="36.0" fill="#265564" transform="matrix(1.00, 0.00, -0.00, -1.00, 721.6, 128.9)">t</text><text xml:space="preserve" font-family="HelveticaNeue-Light,Helvetica Neue" font-size="36.0" fill="#265564" transform="matrix(1.00, 0.00, -0.00, -1.00, 732.3, 128.9)">p</text><text xml:space="preserve" font-family="HelveticaNeue-Light,Helvetica Neue" font-size="36.0" fill="#265564" transform="matrix(1.00, 0.00, -0.00, -1.00, 753.0, 128.9)">:</text><text xml:space="preserve" font-family="HelveticaNeue-Light,Helvetica Neue" font-size="36.0" fill="#265564" transform="matrix(1.00, 0.00, -0.00, -1.00, 763.0, 128.9)">/</text><text xml:space="preserve" font-family="HelveticaNeue-Light,Helvetica Neue" font-size="36.0" fill="#265564" transform="matrix(1.00, 0.00, -0.00, -1.00, 775.0, 128.9)">/</text><text xml:space="preserve" font-family="HelveticaNeue-Light,Helvetica Neue" font-size="36.0" fill="#265564" transform="matrix(1.00, 0.00, -0.00, -1.00, 786.9, 128.9)">t</text><text xml:space="preserve" font-family="HelveticaNeue-Light,Helvetica Neue" font-size="36.0" fill="#265564" transform="matrix(1.00, 0.00, -0.00, -1.00, 797.6, 128.9)">y</text><text xml:space="preserve" font-family="HelveticaNeue-Light,Helvetica Neue" font-size="36.0" fill="#265564" transform="matrix(1.00, 0.00, -0.00, -1.00, 814.3, 128.9)">p</text><text xml:space="preserve" font-family="HelveticaNeue-Light,Helvetica Neue" font-size="36.0" fill="#265564" transform="matrix(1.00, 0.00, -0.00, -1.00, 834.9, 128.9)">e</text><text xml:space="preserve" font-family="HelveticaNeue-Light,Helvetica Neue" font-size="36.0" fill="#265564" transform="matrix(1.00, 0.00, -0.00, -1.00, 853.6, 128.9)">s</text><text xml:space="preserve" font-family="HelveticaNeue-Light,Helvetica Neue" font-size="36.0" fill="#265564" transform="matrix(1.00, 0.00, -0.00, -1.00, 870.9, 128.9)">a</text><text xml:space="preserve" font-family="HelveticaNeue-Light,Helvetica Neue" font-size="36.0" fill="#265564" transform="matrix(1.00, 0.00, -0.00, -1.00, 889.6, 128.9)">f</text><text xml:space="preserve" font-family="HelveticaNeue-Light,Helvetica Neue" font-size="36.0" fill="#265564" transform="matrix(1.00, 0.00, -0.00, -1.00, 898.9, 128.9)">e</text><text xml:space="preserve" font-family="HelveticaNeue-Light,Helvetica Neue" font-size="36.0" fill="#265564" transform="matrix(1.00, 0.00, -0.00, -1.00, 917.6, 128.9)">.</text><text xml:space="preserve" font-family="HelveticaNeue-Light,Helvetica Neue" font-size="36.0" fill="#265564" transform="matrix(1.00, 0.00, -0.00, -1.00, 927.6, 128.9)">c</text><text xml:space="preserve" font-family="HelveticaNeue-Light,Helvetica Neue" font-size="36.0" fill="#265564" transform="matrix(1.00, 0.00, -0.00, -1.00, 946.3, 128.9)">o</text><text xml:space="preserve" font-family="HelveticaNeue-Light,Helvetica Neue" font-size="36.0" fill="#265564" transform="matrix(1.00, 0.00, -0.00, -1.00, 966.3, 128.9)">m</text><g><clipPath id="clip0x6180048adb60"><path d="M 690.6 123.4 L 996.3 123.4 L 996.3 127.2 L 690.6 127.2 Z M 690.6 123.4 "></path></clipPath><g clip-path="url(#clip0x6180048adb60)"><path d="M 4.5 42.9 L 309.2 42.9 " fill="none" stroke="#265564" stroke-width="1.80" transform="matrix(1.00, 0.00, 0.00, -1.00, 687.1, 168.2)"></path></g></g></g></svg>