<?xml version="1.0" encoding="UTF-8" standalone="no"?><svg xmlns="http://www.w3.org/2000/svg" xmlns:xlink="http://www.w3.org/1999/xlink" clip-rule="evenodd" stroke-miterlimit="10" viewBox="0 0 1024 768"><desc>SVG generated by Keynote</desc><defs></defs><g transform="matrix(1.00, 0.00, -0.00, -1.00, 0.0, 768.0)"><path d="M 0.0 768.0 L 1024.0 768.0 L 1024.0 0.0 L 0.0 0.0 Z M 0.0 768.0 " fill="#FEFFFE"></path><path d="M 0.5 0.5 L 934.5 0.5 L 934.5 0.5 L 0.5 0.5 Z M 0.0 0.0 " fill="none" stroke="#9A9A99" stroke-width="1.00" transform="matrix(1.00, 0.00, 0.00, -1.00, 45.0, 613.0)"></path><g><clipPath id="clip0x6180048ae0a0"><path d="M 44.0 1020.0 L 980.0 1020.0 L 980.0 301.0 L 44.0 301.0 Z M 44.2 1020.4 "></path></clipPath><g clip-path="url(#clip0x6180048ae0a0)"><image xlink:href="../../38EFA9B6-75EF-4880-B593-861CB0D88A86/assets/18DEB628F849829467D7C2AF7FE94BEB.jpeg" width="768.00" height="1024.00" transform="matrix(1.22, 0.00, -0.00, -1.22, 44.2, 845.6)"></image></g></g><text xml:space="preserve" font-family="HelveticaNeue-Medium,Helvetica Neue" font-size="96.0" fill="#747373" transform="matrix(1.00, 0.00, -0.00, -1.00, 163.4, 223.2)">A</text><text xml:space="preserve" font-family="HelveticaNeue-Medium,Helvetica Neue" font-size="96.0" fill="#747373" transform="matrix(1.00, 0.00, -0.00, -1.00, 227.4, 223.2)">n</text><text xml:space="preserve" font-family="HelveticaNeue-Medium,Helvetica Neue" font-size="96.0" fill="#747373" transform="matrix(1.00, 0.00, -0.00, -1.00, 282.5, 223.2)">y</text><text xml:space="preserve" font-family="HelveticaNeue-Medium,Helvetica Neue" font-size="96.0" fill="#747373" transform="matrix(1.00, 0.00, -0.00, -1.00, 332.3, 223.2)"> </text><text xml:space="preserve" font-family="HelveticaNeue-Medium,Helvetica Neue" font-size="96.0" fill="#747373" transform="matrix(1.00, 0.00, -0.00, -1.00, 359.0, 223.2)">Q</text><text xml:space="preserve" font-family="HelveticaNeue-Medium,Helvetica Neue" font-size="96.0" fill="#747373" transform="matrix(1.00, 0.00, -0.00, -1.00, 432.0, 223.2)">u</text><text xml:space="preserve" font-family="HelveticaNeue-Medium,Helvetica Neue" font-size="96.0" fill="#747373" transform="matrix(1.00, 0.00, -0.00, -1.00, 487.1, 223.2)">e</text><text xml:space="preserve" font-family="HelveticaNeue-Medium,Helvetica Neue" font-size="96.0" fill="#747373" transform="matrix(1.00, 0.00, -0.00, -1.00, 540.5, 223.2)">s</text><text xml:space="preserve" font-family="HelveticaNeue-Medium,Helvetica Neue" font-size="96.0" fill="#747373" transform="matrix(1.00, 0.00, -0.00, -1.00, 590.3, 223.2)">t</text><text xml:space="preserve" font-family="HelveticaNeue-Medium,Helvetica Neue" font-size="96.0" fill="#747373" transform="matrix(1.00, 0.00, -0.00, -1.00, 622.3, 223.2)">i</text><text xml:space="preserve" font-family="HelveticaNeue-Medium,Helvetica Neue" font-size="96.0" fill="#747373" transform="matrix(1.00, 0.00, -0.00, -1.00, 645.4, 223.2)">o</text><text xml:space="preserve" font-family="HelveticaNeue-Medium,Helvetica Neue" font-size="96.0" fill="#747373" transform="matrix(1.00, 0.00, -0.00, -1.00, 702.3, 223.2)">n</text><text xml:space="preserve" font-family="HelveticaNeue-Medium,Helvetica Neue" font-size="96.0" fill="#747373" transform="matrix(1.00, 0.00, -0.00, -1.00, 757.4, 223.2)">s</text><text xml:space="preserve" font-family="HelveticaNeue-Medium,Helvetica Neue" font-size="96.0" fill="#747373" transform="matrix(1.00, 0.00, -0.00, -1.00, 807.2, 223.2)">?</text><text xml:space="preserve" font-family="HelveticaNeue-Light,Helvetica Neue" font-size="70.0" fill="#242BE1" transform="matrix(1.00, 0.00, -0.00, -1.00, 336.2, 91.5)">@</text><text xml:space="preserve" font-family="HelveticaNeue-Light,Helvetica Neue" font-size="70.0" fill="#242BE1" transform="matrix(1.00, 0.00, -0.00, -1.00, 392.2, 91.5)">r</text><text xml:space="preserve" font-family="HelveticaNeue-Light,Helvetica Neue" font-size="70.0" fill="#242BE1" transform="matrix(1.00, 0.00, -0.00, -1.00, 414.2, 91.5)">y</text><text xml:space="preserve" font-family="HelveticaNeue-Light,Helvetica Neue" font-size="70.0" fill="#242BE1" transform="matrix(1.00, 0.00, -0.00, -1.00, 446.6, 91.5)">a</text><text xml:space="preserve" font-family="HelveticaNeue-Light,Helvetica Neue" font-size="70.0" fill="#242BE1" transform="matrix(1.00, 0.00, -0.00, -1.00, 483.0, 91.5)">n</text><text xml:space="preserve" font-family="HelveticaNeue-Light,Helvetica Neue" font-size="70.0" fill="#242BE1" transform="matrix(1.00, 0.00, -0.00, -1.00, 520.5, 91.5)">o</text><text xml:space="preserve" font-family="HelveticaNeue-Light,Helvetica Neue" font-size="70.0" fill="#242BE1" transform="matrix(1.00, 0.00, -0.00, -1.00, 559.5, 91.5)">n</text><text xml:space="preserve" font-family="HelveticaNeue-Light,Helvetica Neue" font-size="70.0" fill="#242BE1" transform="matrix(1.00, 0.00, -0.00, -1.00, 597.0, 91.5)">s</text><text xml:space="preserve" font-family="HelveticaNeue-Light,Helvetica Neue" font-size="70.0" fill="#242BE1" transform="matrix(1.00, 0.00, -0.00, -1.00, 630.7, 91.5)">r</text><text xml:space="preserve" font-family="HelveticaNeue-Light,Helvetica Neue" font-size="70.0" fill="#242BE1" transform="matrix(1.00, 0.00, -0.00, -1.00, 651.5, 91.5)">c</text></g></svg>