<?xml version="1.0" encoding="UTF-8" standalone="no"?><svg xmlns="http://www.w3.org/2000/svg" xmlns:xlink="http://www.w3.org/1999/xlink" clip-rule="evenodd" stroke-miterlimit="10" viewBox="0 0 392 42"><desc>SVG generated by Keynote</desc><defs></defs><g transform="matrix(1.00, 0.00, -0.00, -1.00, 0.0, 42.0)"><text xml:space="preserve" font-family="HelveticaNeue-Light,Helvetica Neue" font-size="41.6" fill="#242534" transform="matrix(1.00, 0.00, -0.00, -1.00, -0.6, 9.9)">h</text><text xml:space="preserve" font-family="HelveticaNeue-Light,Helvetica Neue" font-size="41.6" fill="#242534" transform="matrix(1.00, 0.00, -0.00, -1.00, 21.7, 9.9)">i</text><text xml:space="preserve" font-family="HelveticaNeue-Light,Helvetica Neue" font-size="41.6" fill="#242534" transform="matrix(1.00, 0.00, -0.00, -1.00, 29.4, 9.9)">g</text><text xml:space="preserve" font-family="HelveticaNeue-Light,Helvetica Neue" font-size="41.6" fill="#242534" transform="matrix(1.00, 0.00, -0.00, -1.00, 52.5, 9.9)">h</text><text xml:space="preserve" font-family="HelveticaNeue-Light,Helvetica Neue" font-size="41.6" fill="#242534" transform="matrix(1.00, 0.00, -0.00, -1.00, 74.8, 9.9)">e</text><text xml:space="preserve" font-family="HelveticaNeue-Light,Helvetica Neue" font-size="41.6" fill="#242534" transform="matrix(1.00, 0.00, -0.00, -1.00, 96.4, 9.9)">r</text><text xml:space="preserve" font-family="HelveticaNeue-Light,Helvetica Neue" font-size="41.6" fill="#242534" transform="matrix(1.00, 0.00, -0.00, -1.00, 107.2, 9.9)">-</text><text xml:space="preserve" font-family="HelveticaNeue-Light,Helvetica Neue" font-size="41.6" fill="#242534" transform="matrix(1.00, 0.00, -0.00, -1.00, 122.6, 9.9)">o</text><text xml:space="preserve" font-family="HelveticaNeue-Light,Helvetica Neue" font-size="41.6" fill="#242534" transform="matrix(1.00, 0.00, -0.00, -1.00, 145.7, 9.9)">r</text><text xml:space="preserve" font-family="HelveticaNeue-Light,Helvetica Neue" font-size="41.6" fill="#242534" transform="matrix(1.00, 0.00, -0.00, -1.00, 158.1, 9.9)">d</text><text xml:space="preserve" font-family="HelveticaNeue-Light,Helvetica Neue" font-size="41.6" fill="#242534" transform="matrix(1.00, 0.00, -0.00, -1.00, 181.9, 9.9)">e</text><text xml:space="preserve" font-family="HelveticaNeue-Light,Helvetica Neue" font-size="41.6" fill="#242534" transform="matrix(1.00, 0.00, -0.00, -1.00, 203.5, 9.9)">r</text><text xml:space="preserve" font-family="HelveticaNeue-Light,Helvetica Neue" font-size="41.6" fill="#242534" transform="matrix(1.00, 0.00, -0.00, -1.00, 216.6, 9.9)"> </text><text xml:space="preserve" font-family="HelveticaNeue-Light,Helvetica Neue" font-size="41.6" fill="#242534" transform="matrix(1.00, 0.00, -0.00, -1.00, 228.2, 9.9)">f</text><text xml:space="preserve" font-family="HelveticaNeue-Light,Helvetica Neue" font-size="41.6" fill="#242534" transform="matrix(1.00, 0.00, -0.00, -1.00, 239.0, 9.9)">u</text><text xml:space="preserve" font-family="HelveticaNeue-Light,Helvetica Neue" font-size="41.6" fill="#242534" transform="matrix(1.00, 0.00, -0.00, -1.00, 261.3, 9.9)">n</text><text xml:space="preserve" font-family="HelveticaNeue-Light,Helvetica Neue" font-size="41.6" fill="#242534" transform="matrix(1.00, 0.00, -0.00, -1.00, 283.6, 9.9)">c</text><text xml:space="preserve" font-family="HelveticaNeue-Light,Helvetica Neue" font-size="41.6" fill="#242534" transform="matrix(1.00, 0.00, -0.00, -1.00, 305.2, 9.9)">t</text><text xml:space="preserve" font-family="HelveticaNeue-Light,Helvetica Neue" font-size="41.6" fill="#242534" transform="matrix(1.00, 0.00, -0.00, -1.00, 317.5, 9.9)">i</text><text xml:space="preserve" font-family="HelveticaNeue-Light,Helvetica Neue" font-size="41.6" fill="#242534" transform="matrix(1.00, 0.00, -0.00, -1.00, 325.2, 9.9)">o</text><text xml:space="preserve" font-family="HelveticaNeue-Light,Helvetica Neue" font-size="41.6" fill="#242534" transform="matrix(1.00, 0.00, -0.00, -1.00, 348.3, 9.9)">n</text><text xml:space="preserve" font-family="HelveticaNeue-Light,Helvetica Neue" font-size="41.6" fill="#242534" transform="matrix(1.00, 0.00, -0.00, -1.00, 370.6, 9.9)">s</text></g></svg>