<?xml version="1.0" encoding="UTF-8" standalone="no"?><svg xmlns="http://www.w3.org/2000/svg" xmlns:xlink="http://www.w3.org/1999/xlink" clip-rule="evenodd" stroke-miterlimit="10" viewBox="0 0 1024 768"><desc>SVG generated by Keynote</desc><defs></defs><g transform="matrix(1.00, 0.00, -0.00, -1.00, 0.0, 768.0)"><path d="M 0.0 768.0 L 1024.0 768.0 L 1024.0 0.0 L 0.0 0.0 Z M 0.0 768.0 " fill="#FEFFFE"></path><path d="M 0.5 0.5 L 934.5 0.5 L 934.5 0.5 L 0.5 0.5 Z M 0.0 0.0 " fill="none" stroke="#9A9A99" stroke-width="1.00" transform="matrix(1.00, 0.00, 0.00, -1.00, 45.0, 613.0)"></path><path d="M 0.5 767.5 L 1024.5 767.5 L 1024.5 -0.5 L 0.5 -0.5 Z M 0.0 768.0 " fill="#FEFFFE"></path><path d="M 0.5 0.5 L 1024.5 0.5 L 1024.5 768.5 L 0.5 768.5 Z M 0.0 0.0 " fill="none" stroke="#000000" stroke-width="1.00" transform="matrix(1.00, 0.00, 0.00, -1.00, 0.0, 768.0)"></path><path d="M 0.5 0.5 L 934.5 0.5 L 934.5 0.5 L 0.5 0.5 Z M 0.0 0.0 " fill="none" stroke="#9A9A99" stroke-width="1.00" transform="matrix(1.00, 0.00, 0.00, -1.00, 45.0, 613.0)"></path><g><clipPath id="clip0x6000140b25a0"><path d="M 44.0 1020.0 L 980.0 1020.0 L 980.0 608.0 L 44.0 608.0 Z M 44.2 1020.4 "></path></clipPath><g clip-path="url(#clip0x6000140b25a0)"><image xlink:href="../../0FAF49A3-C393-444F-BC3C-DE9FCA7D20FE/assets/2FCB4711645CD5AD25C3452C0D2B627A.jpeg" width="667.00" height="1000.00" transform="matrix(1.40, 0.00, -0.00, -1.40, 44.2, 1312.0)"></image></g></g><text xml:space="preserve" font-family="HelveticaNeue-Light,Helvetica Neue" font-size="72.0" fill="#FEFFFE" transform="matrix(1.00, 0.00, -0.00, -1.00, 325.0, 641.4)">I</text><text xml:space="preserve" font-family="HelveticaNeue-Light,Helvetica Neue" font-size="72.0" fill="#FEFFFE" transform="matrix(1.00, 0.00, -0.00, -1.00, 341.0, 641.4)">n</text><text xml:space="preserve" font-family="HelveticaNeue-Light,Helvetica Neue" font-size="72.0" fill="#FEFFFE" transform="matrix(1.00, 0.00, -0.00, -1.00, 379.6, 641.4)"> </text><text xml:space="preserve" font-family="HelveticaNeue-Light,Helvetica Neue" font-size="72.0" fill="#FEFFFE" transform="matrix(1.00, 0.00, -0.00, -1.00, 399.7, 641.4)">S</text><text xml:space="preserve" font-family="HelveticaNeue-Light,Helvetica Neue" font-size="72.0" fill="#FEFFFE" transform="matrix(1.00, 0.00, -0.00, -1.00, 445.0, 641.4)">u</text><text xml:space="preserve" font-family="HelveticaNeue-Light,Helvetica Neue" font-size="72.0" fill="#FEFFFE" transform="matrix(1.00, 0.00, -0.00, -1.00, 483.7, 641.4)">m</text><text xml:space="preserve" font-family="HelveticaNeue-Light,Helvetica Neue" font-size="72.0" fill="#FEFFFE" transform="matrix(1.00, 0.00, -0.00, -1.00, 543.7, 641.4)">m</text><text xml:space="preserve" font-family="HelveticaNeue-Light,Helvetica Neue" font-size="72.0" fill="#FEFFFE" transform="matrix(1.00, 0.00, -0.00, -1.00, 603.6, 641.4)">a</text><text xml:space="preserve" font-family="HelveticaNeue-Light,Helvetica Neue" font-size="72.0" fill="#FEFFFE" transform="matrix(1.00, 0.00, -0.00, -1.00, 641.0, 641.4)">r</text><text xml:space="preserve" font-family="HelveticaNeue-Light,Helvetica Neue" font-size="72.0" fill="#FEFFFE" transform="matrix(1.00, 0.00, -0.00, -1.00, 663.7, 641.4)">y</text><image xlink:href="../../B487C36D-E658-4F19-B647-040A81FB28F0/assets/793F7FF135A52E535FEA3FC05AAB1AFD.png" width="167.00" height="246.00" transform="matrix(0.16, 0.00, -0.00, -0.16, 953.0, 76.0)"></image><text xml:space="preserve" font-family="HelveticaNeue-Light,Helvetica Neue" font-size="41.6" fill="#242534" transform="matrix(1.00, 0.00, -0.00, -1.00, 311.0, 557.3)">E</text><text xml:space="preserve" font-family="HelveticaNeue-Light,Helvetica Neue" font-size="41.6" fill="#242534" transform="matrix(1.00, 0.00, -0.00, -1.00, 335.6, 557.3)">v</text><text xml:space="preserve" font-family="HelveticaNeue-Light,Helvetica Neue" font-size="41.6" fill="#242534" transform="matrix(1.00, 0.00, -0.00, -1.00, 354.9, 557.3)">e</text><text xml:space="preserve" font-family="HelveticaNeue-Light,Helvetica Neue" font-size="41.6" fill="#242534" transform="matrix(1.00, 0.00, -0.00, -1.00, 376.5, 557.3)">r</text><text xml:space="preserve" font-family="HelveticaNeue-Light,Helvetica Neue" font-size="41.6" fill="#242534" transform="matrix(1.00, 0.00, -0.00, -1.00, 389.6, 557.3)">y</text><text xml:space="preserve" font-family="HelveticaNeue-Light,Helvetica Neue" font-size="41.6" fill="#242534" transform="matrix(1.00, 0.00, -0.00, -1.00, 408.8, 557.3)">t</text><text xml:space="preserve" font-family="HelveticaNeue-Light,Helvetica Neue" font-size="41.6" fill="#242534" transform="matrix(1.00, 0.00, -0.00, -1.00, 421.1, 557.3)">h</text><text xml:space="preserve" font-family="HelveticaNeue-Light,Helvetica Neue" font-size="41.6" fill="#242534" transform="matrix(1.00, 0.00, -0.00, -1.00, 443.5, 557.3)">i</text><text xml:space="preserve" font-family="HelveticaNeue-Light,Helvetica Neue" font-size="41.6" fill="#242534" transform="matrix(1.00, 0.00, -0.00, -1.00, 451.1, 557.3)">n</text><text xml:space="preserve" font-family="HelveticaNeue-Light,Helvetica Neue" font-size="41.6" fill="#242534" transform="matrix(1.00, 0.00, -0.00, -1.00, 473.5, 557.3)">g</text><text xml:space="preserve" font-family="HelveticaNeue-Light,Helvetica Neue" font-size="41.6" fill="#242534" transform="matrix(1.00, 0.00, -0.00, -1.00, 496.6, 557.3)"> </text><text xml:space="preserve" font-family="HelveticaNeue-Light,Helvetica Neue" font-size="41.6" fill="#242534" transform="matrix(1.00, 0.00, -0.00, -1.00, 508.2, 557.3)">i</text><text xml:space="preserve" font-family="HelveticaNeue-Light,Helvetica Neue" font-size="41.6" fill="#242534" transform="matrix(1.00, 0.00, -0.00, -1.00, 515.8, 557.3)">s</text><text xml:space="preserve" font-family="HelveticaNeue-Light,Helvetica Neue" font-size="41.6" fill="#242534" transform="matrix(1.00, 0.00, -0.00, -1.00, 535.8, 557.3)"> </text><text xml:space="preserve" font-family="HelveticaNeue-Light,Helvetica Neue" font-size="41.6" fill="#242534" transform="matrix(1.00, 0.00, -0.00, -1.00, 547.4, 557.3)">a</text><text xml:space="preserve" font-family="HelveticaNeue-Light,Helvetica Neue" font-size="41.6" fill="#242534" transform="matrix(1.00, 0.00, -0.00, -1.00, 569.0, 557.3)">n</text><text xml:space="preserve" font-family="HelveticaNeue-Light,Helvetica Neue" font-size="41.6" fill="#242534" transform="matrix(1.00, 0.00, -0.00, -1.00, 591.3, 557.3)"> </text><text xml:space="preserve" font-family="HelveticaNeue-Light,Helvetica Neue" font-size="41.6" fill="#242534" transform="matrix(1.00, 0.00, -0.00, -1.00, 602.9, 557.3)">o</text><text xml:space="preserve" font-family="HelveticaNeue-Light,Helvetica Neue" font-size="41.6" fill="#242534" transform="matrix(1.00, 0.00, -0.00, -1.00, 626.0, 557.3)">b</text><text xml:space="preserve" font-family="HelveticaNeue-Light,Helvetica Neue" font-size="41.6" fill="#242534" transform="matrix(1.00, 0.00, -0.00, -1.00, 649.9, 557.3)">j</text><text xml:space="preserve" font-family="HelveticaNeue-Light,Helvetica Neue" font-size="41.6" fill="#242534" transform="matrix(1.00, 0.00, -0.00, -1.00, 657.6, 557.3)">e</text><text xml:space="preserve" font-family="HelveticaNeue-Light,Helvetica Neue" font-size="41.6" fill="#242534" transform="matrix(1.00, 0.00, -0.00, -1.00, 679.1, 557.3)">c</text><text xml:space="preserve" font-family="HelveticaNeue-Light,Helvetica Neue" font-size="41.6" fill="#242534" transform="matrix(1.00, 0.00, -0.00, -1.00, 700.7, 557.3)">t</text><text xml:space="preserve" font-family="HelveticaNeue-Light,Helvetica Neue" font-size="41.6" fill="#242534" transform="matrix(1.00, 0.00, -0.00, -1.00, 273.7, 485.3)">i</text><text xml:space="preserve" font-family="HelveticaNeue-Light,Helvetica Neue" font-size="41.6" fill="#242534" transform="matrix(1.00, 0.00, -0.00, -1.00, 281.4, 485.3)">m</text><text xml:space="preserve" font-family="HelveticaNeue-Light,Helvetica Neue" font-size="41.6" fill="#242534" transform="matrix(1.00, 0.00, -0.00, -1.00, 316.0, 485.3)">m</text><text xml:space="preserve" font-family="HelveticaNeue-Light,Helvetica Neue" font-size="41.6" fill="#242534" transform="matrix(1.00, 0.00, -0.00, -1.00, 350.6, 485.3)">u</text><text xml:space="preserve" font-family="HelveticaNeue-Light,Helvetica Neue" font-size="41.6" fill="#242534" transform="matrix(1.00, 0.00, -0.00, -1.00, 373.0, 485.3)">t</text><text xml:space="preserve" font-family="HelveticaNeue-Light,Helvetica Neue" font-size="41.6" fill="#242534" transform="matrix(1.00, 0.00, -0.00, -1.00, 385.3, 485.3)">a</text><text xml:space="preserve" font-family="HelveticaNeue-Light,Helvetica Neue" font-size="41.6" fill="#242534" transform="matrix(1.00, 0.00, -0.00, -1.00, 406.8, 485.3)">b</text><text xml:space="preserve" font-family="HelveticaNeue-Light,Helvetica Neue" font-size="41.6" fill="#242534" transform="matrix(1.00, 0.00, -0.00, -1.00, 430.7, 485.3)">i</text><text xml:space="preserve" font-family="HelveticaNeue-Light,Helvetica Neue" font-size="41.6" fill="#242534" transform="matrix(1.00, 0.00, -0.00, -1.00, 438.4, 485.3)">l</text><text xml:space="preserve" font-family="HelveticaNeue-Light,Helvetica Neue" font-size="41.6" fill="#242534" transform="matrix(1.00, 0.00, -0.00, -1.00, 446.1, 485.3)">i</text><text xml:space="preserve" font-family="HelveticaNeue-Light,Helvetica Neue" font-size="41.6" fill="#242534" transform="matrix(1.00, 0.00, -0.00, -1.00, 453.8, 485.3)">t</text><text xml:space="preserve" font-family="HelveticaNeue-Light,Helvetica Neue" font-size="41.6" fill="#242534" transform="matrix(1.00, 0.00, -0.00, -1.00, 466.1, 485.3)">y</text><text xml:space="preserve" font-family="HelveticaNeue-Light,Helvetica Neue" font-size="41.6" fill="#242534" transform="matrix(1.00, 0.00, -0.00, -1.00, 485.3, 485.3)"> </text><text xml:space="preserve" font-family="HelveticaNeue-Light,Helvetica Neue" font-size="41.6" fill="#242534" transform="matrix(1.00, 0.00, -0.00, -1.00, 496.9, 485.3)">i</text><text xml:space="preserve" font-family="HelveticaNeue-Light,Helvetica Neue" font-size="41.6" fill="#242534" transform="matrix(1.00, 0.00, -0.00, -1.00, 504.6, 485.3)">s</text><text xml:space="preserve" font-family="HelveticaNeue-Light,Helvetica Neue" font-size="41.6" fill="#242534" transform="matrix(1.00, 0.00, -0.00, -1.00, 524.6, 485.3)"> </text><text xml:space="preserve" font-family="HelveticaNeue-Light,Helvetica Neue" font-size="41.6" fill="#242534" transform="matrix(1.00, 0.00, -0.00, -1.00, 536.2, 485.3)">e</text><text xml:space="preserve" font-family="HelveticaNeue-Light,Helvetica Neue" font-size="41.6" fill="#242534" transform="matrix(1.00, 0.00, -0.00, -1.00, 557.7, 485.3)">n</text><text xml:space="preserve" font-family="HelveticaNeue-Light,Helvetica Neue" font-size="41.6" fill="#242534" transform="matrix(1.00, 0.00, -0.00, -1.00, 580.1, 485.3)">c</text><text xml:space="preserve" font-family="HelveticaNeue-Light,Helvetica Neue" font-size="41.6" fill="#242534" transform="matrix(1.00, 0.00, -0.00, -1.00, 601.6, 485.3)">o</text><text xml:space="preserve" font-family="HelveticaNeue-Light,Helvetica Neue" font-size="41.6" fill="#242534" transform="matrix(1.00, 0.00, -0.00, -1.00, 624.8, 485.3)">u</text><text xml:space="preserve" font-family="HelveticaNeue-Light,Helvetica Neue" font-size="41.6" fill="#242534" transform="matrix(1.00, 0.00, -0.00, -1.00, 647.1, 485.3)">r</text><text xml:space="preserve" font-family="HelveticaNeue-Light,Helvetica Neue" font-size="41.6" fill="#242534" transform="matrix(1.00, 0.00, -0.00, -1.00, 660.2, 485.3)">a</text><text xml:space="preserve" font-family="HelveticaNeue-Light,Helvetica Neue" font-size="41.6" fill="#242534" transform="matrix(1.00, 0.00, -0.00, -1.00, 681.8, 485.3)">g</text><text xml:space="preserve" font-family="HelveticaNeue-Light,Helvetica Neue" font-size="41.6" fill="#242534" transform="matrix(1.00, 0.00, -0.00, -1.00, 704.9, 485.3)">e</text><text xml:space="preserve" font-family="HelveticaNeue-Light,Helvetica Neue" font-size="41.6" fill="#242534" transform="matrix(1.00, 0.00, -0.00, -1.00, 726.5, 485.3)">d</text><text xml:space="preserve" font-family="HelveticaNeue-Light,Helvetica Neue" font-size="41.6" fill="#242534" transform="matrix(1.00, 0.00, -0.00, -1.00, 240.9, 413.2)">n</text><text xml:space="preserve" font-family="HelveticaNeue-Light,Helvetica Neue" font-size="41.6" fill="#242534" transform="matrix(1.00, 0.00, -0.00, -1.00, 263.2, 413.2)">u</text><text xml:space="preserve" font-family="HelveticaNeue-Light,Helvetica Neue" font-size="41.6" fill="#242534" transform="matrix(1.00, 0.00, -0.00, -1.00, 285.6, 413.2)">l</text><text xml:space="preserve" font-family="HelveticaNeue-Light,Helvetica Neue" font-size="41.6" fill="#242534" transform="matrix(1.00, 0.00, -0.00, -1.00, 293.3, 413.2)">l</text><text xml:space="preserve" font-family="HelveticaNeue-Light,Helvetica Neue" font-size="41.6" fill="#242534" transform="matrix(1.00, 0.00, -0.00, -1.00, 301.0, 413.2)"> </text><text xml:space="preserve" font-family="HelveticaNeue-Light,Helvetica Neue" font-size="41.6" fill="#242534" transform="matrix(1.00, 0.00, -0.00, -1.00, 312.5, 413.2)">p</text><text xml:space="preserve" font-family="HelveticaNeue-Light,Helvetica Neue" font-size="41.6" fill="#242534" transform="matrix(1.00, 0.00, -0.00, -1.00, 336.4, 413.2)">o</text><text xml:space="preserve" font-family="HelveticaNeue-Light,Helvetica Neue" font-size="41.6" fill="#242534" transform="matrix(1.00, 0.00, -0.00, -1.00, 359.5, 413.2)">i</text><text xml:space="preserve" font-family="HelveticaNeue-Light,Helvetica Neue" font-size="41.6" fill="#242534" transform="matrix(1.00, 0.00, -0.00, -1.00, 367.2, 413.2)">n</text><text xml:space="preserve" font-family="HelveticaNeue-Light,Helvetica Neue" font-size="41.6" fill="#242534" transform="matrix(1.00, 0.00, -0.00, -1.00, 389.5, 413.2)">t</text><text xml:space="preserve" font-family="HelveticaNeue-Light,Helvetica Neue" font-size="41.6" fill="#242534" transform="matrix(1.00, 0.00, -0.00, -1.00, 401.8, 413.2)">e</text><text xml:space="preserve" font-family="HelveticaNeue-Light,Helvetica Neue" font-size="41.6" fill="#242534" transform="matrix(1.00, 0.00, -0.00, -1.00, 423.4, 413.2)">r</text><text xml:space="preserve" font-family="HelveticaNeue-Light,Helvetica Neue" font-size="41.6" fill="#242534" transform="matrix(1.00, 0.00, -0.00, -1.00, 436.5, 413.2)">s</text><text xml:space="preserve" font-family="HelveticaNeue-Light,Helvetica Neue" font-size="41.6" fill="#242534" transform="matrix(1.00, 0.00, -0.00, -1.00, 456.5, 413.2)"> </text><text xml:space="preserve" font-family="HelveticaNeue-Light,Helvetica Neue" font-size="41.6" fill="#242534" transform="matrix(1.00, 0.00, -0.00, -1.00, 468.1, 413.2)">c</text><text xml:space="preserve" font-family="HelveticaNeue-Light,Helvetica Neue" font-size="41.6" fill="#242534" transform="matrix(1.00, 0.00, -0.00, -1.00, 489.7, 413.2)">a</text><text xml:space="preserve" font-family="HelveticaNeue-Light,Helvetica Neue" font-size="41.6" fill="#242534" transform="matrix(1.00, 0.00, -0.00, -1.00, 511.2, 413.2)">n</text><text xml:space="preserve" font-family="HelveticaNeue-Light,Helvetica Neue" font-size="41.6" fill="#242534" transform="matrix(1.00, 0.00, -0.00, -1.00, 533.6, 413.2)"> </text><text xml:space="preserve" font-family="HelveticaNeue-Light,Helvetica Neue" font-size="41.6" fill="#242534" transform="matrix(1.00, 0.00, -0.00, -1.00, 545.1, 413.2)">b</text><text xml:space="preserve" font-family="HelveticaNeue-Light,Helvetica Neue" font-size="41.6" fill="#242534" transform="matrix(1.00, 0.00, -0.00, -1.00, 569.0, 413.2)">e</text><text xml:space="preserve" font-family="HelveticaNeue-Light,Helvetica Neue" font-size="41.6" fill="#242534" transform="matrix(1.00, 0.00, -0.00, -1.00, 590.6, 413.2)"> </text><text xml:space="preserve" font-family="HelveticaNeue-Light,Helvetica Neue" font-size="41.6" fill="#242534" transform="matrix(1.00, 0.00, -0.00, -1.00, 602.1, 413.2)">e</text><text xml:space="preserve" font-family="HelveticaNeue-Light,Helvetica Neue" font-size="41.6" fill="#242534" transform="matrix(1.00, 0.00, -0.00, -1.00, 623.7, 413.2)">l</text><text xml:space="preserve" font-family="HelveticaNeue-Light,Helvetica Neue" font-size="41.6" fill="#242534" transform="matrix(1.00, 0.00, -0.00, -1.00, 631.4, 413.2)">i</text><text xml:space="preserve" font-family="HelveticaNeue-Light,Helvetica Neue" font-size="41.6" fill="#242534" transform="matrix(1.00, 0.00, -0.00, -1.00, 639.1, 413.2)">m</text><text xml:space="preserve" font-family="HelveticaNeue-Light,Helvetica Neue" font-size="41.6" fill="#242534" transform="matrix(1.00, 0.00, -0.00, -1.00, 673.7, 413.2)">i</text><text xml:space="preserve" font-family="HelveticaNeue-Light,Helvetica Neue" font-size="41.6" fill="#242534" transform="matrix(1.00, 0.00, -0.00, -1.00, 681.4, 413.2)">n</text><text xml:space="preserve" font-family="HelveticaNeue-Light,Helvetica Neue" font-size="41.6" fill="#242534" transform="matrix(1.00, 0.00, -0.00, -1.00, 703.7, 413.2)">a</text><text xml:space="preserve" font-family="HelveticaNeue-Light,Helvetica Neue" font-size="41.6" fill="#242534" transform="matrix(1.00, 0.00, -0.00, -1.00, 725.3, 413.2)">t</text><text xml:space="preserve" font-family="HelveticaNeue-Light,Helvetica Neue" font-size="41.6" fill="#242534" transform="matrix(1.00, 0.00, -0.00, -1.00, 737.6, 413.2)">e</text><text xml:space="preserve" font-family="HelveticaNeue-Light,Helvetica Neue" font-size="41.6" fill="#242534" transform="matrix(1.00, 0.00, -0.00, -1.00, 759.2, 413.2)">d</text><text xml:space="preserve" font-family="HelveticaNeue-Light,Helvetica Neue" font-size="41.6" fill="#242534" transform="matrix(1.00, 0.00, -0.00, -1.00, 271.3, 341.1)">e</text><text xml:space="preserve" font-family="HelveticaNeue-Light,Helvetica Neue" font-size="41.6" fill="#242534" transform="matrix(1.00, 0.00, -0.00, -1.00, 292.9, 341.1)">v</text><text xml:space="preserve" font-family="HelveticaNeue-Light,Helvetica Neue" font-size="41.6" fill="#242534" transform="matrix(1.00, 0.00, -0.00, -1.00, 312.2, 341.1)">e</text><text xml:space="preserve" font-family="HelveticaNeue-Light,Helvetica Neue" font-size="41.6" fill="#242534" transform="matrix(1.00, 0.00, -0.00, -1.00, 333.7, 341.1)">r</text><text xml:space="preserve" font-family="HelveticaNeue-Light,Helvetica Neue" font-size="41.6" fill="#242534" transform="matrix(1.00, 0.00, -0.00, -1.00, 346.8, 341.1)">y</text><text xml:space="preserve" font-family="HelveticaNeue-Light,Helvetica Neue" font-size="41.6" fill="#242534" transform="matrix(1.00, 0.00, -0.00, -1.00, 366.1, 341.1)">t</text><text xml:space="preserve" font-family="HelveticaNeue-Light,Helvetica Neue" font-size="41.6" fill="#242534" transform="matrix(1.00, 0.00, -0.00, -1.00, 378.4, 341.1)">h</text><text xml:space="preserve" font-family="HelveticaNeue-Light,Helvetica Neue" font-size="41.6" fill="#242534" transform="matrix(1.00, 0.00, -0.00, -1.00, 400.7, 341.1)">i</text><text xml:space="preserve" font-family="HelveticaNeue-Light,Helvetica Neue" font-size="41.6" fill="#242534" transform="matrix(1.00, 0.00, -0.00, -1.00, 408.4, 341.1)">n</text><text xml:space="preserve" font-family="HelveticaNeue-Light,Helvetica Neue" font-size="41.6" fill="#242534" transform="matrix(1.00, 0.00, -0.00, -1.00, 430.8, 341.1)">g</text><text xml:space="preserve" font-family="HelveticaNeue-Light,Helvetica Neue" font-size="41.6" fill="#242534" transform="matrix(1.00, 0.00, -0.00, -1.00, 453.9, 341.1)"> </text><text xml:space="preserve" font-family="HelveticaNeue-Light,Helvetica Neue" font-size="41.6" fill="#242534" transform="matrix(1.00, 0.00, -0.00, -1.00, 465.4, 341.1)">i</text><text xml:space="preserve" font-family="HelveticaNeue-Light,Helvetica Neue" font-size="41.6" fill="#242534" transform="matrix(1.00, 0.00, -0.00, -1.00, 473.1, 341.1)">s</text><text xml:space="preserve" font-family="HelveticaNeue-Light,Helvetica Neue" font-size="41.6" fill="#242534" transform="matrix(1.00, 0.00, -0.00, -1.00, 493.1, 341.1)"> </text><text xml:space="preserve" font-family="HelveticaNeue-Light,Helvetica Neue" font-size="41.6" fill="#242534" transform="matrix(1.00, 0.00, -0.00, -1.00, 504.7, 341.1)">a</text><text xml:space="preserve" font-family="HelveticaNeue-Light,Helvetica Neue" font-size="41.6" fill="#242534" transform="matrix(1.00, 0.00, -0.00, -1.00, 526.3, 341.1)">n</text><text xml:space="preserve" font-family="HelveticaNeue-Light,Helvetica Neue" font-size="41.6" fill="#242534" transform="matrix(1.00, 0.00, -0.00, -1.00, 548.6, 341.1)"> </text><text xml:space="preserve" font-family="HelveticaNeue-Light,Helvetica Neue" font-size="41.6" fill="#242534" transform="matrix(1.00, 0.00, -0.00, -1.00, 560.1, 341.1)">e</text><text xml:space="preserve" font-family="HelveticaNeue-Light,Helvetica Neue" font-size="41.6" fill="#242534" transform="matrix(1.00, 0.00, -0.00, -1.00, 581.7, 341.1)">x</text><text xml:space="preserve" font-family="HelveticaNeue-Light,Helvetica Neue" font-size="41.6" fill="#242534" transform="matrix(1.00, 0.00, -0.00, -1.00, 601.7, 341.1)">p</text><text xml:space="preserve" font-family="HelveticaNeue-Light,Helvetica Neue" font-size="41.6" fill="#242534" transform="matrix(1.00, 0.00, -0.00, -1.00, 625.6, 341.1)">r</text><text xml:space="preserve" font-family="HelveticaNeue-Light,Helvetica Neue" font-size="41.6" fill="#242534" transform="matrix(1.00, 0.00, -0.00, -1.00, 637.9, 341.1)">e</text><text xml:space="preserve" font-family="HelveticaNeue-Light,Helvetica Neue" font-size="41.6" fill="#242534" transform="matrix(1.00, 0.00, -0.00, -1.00, 659.5, 341.1)">s</text><text xml:space="preserve" font-family="HelveticaNeue-Light,Helvetica Neue" font-size="41.6" fill="#242534" transform="matrix(1.00, 0.00, -0.00, -1.00, 679.5, 341.1)">s</text><text xml:space="preserve" font-family="HelveticaNeue-Light,Helvetica Neue" font-size="41.6" fill="#242534" transform="matrix(1.00, 0.00, -0.00, -1.00, 699.5, 341.1)">i</text><text xml:space="preserve" font-family="HelveticaNeue-Light,Helvetica Neue" font-size="41.6" fill="#242534" transform="matrix(1.00, 0.00, -0.00, -1.00, 707.2, 341.1)">o</text><text xml:space="preserve" font-family="HelveticaNeue-Light,Helvetica Neue" font-size="41.6" fill="#242534" transform="matrix(1.00, 0.00, -0.00, -1.00, 730.3, 341.1)">n</text><text xml:space="preserve" font-family="HelveticaNeue-Light,Helvetica Neue" font-size="41.6" fill="#242534" transform="matrix(1.00, 0.00, -0.00, -1.00, 276.3, 269.1)">p</text><text xml:space="preserve" font-family="HelveticaNeue-Light,Helvetica Neue" font-size="41.6" fill="#242534" transform="matrix(1.00, 0.00, -0.00, -1.00, 300.2, 269.1)">o</text><text xml:space="preserve" font-family="HelveticaNeue-Light,Helvetica Neue" font-size="41.6" fill="#242534" transform="matrix(1.00, 0.00, -0.00, -1.00, 323.3, 269.1)">w</text><text xml:space="preserve" font-family="HelveticaNeue-Light,Helvetica Neue" font-size="41.6" fill="#242534" transform="matrix(1.00, 0.00, -0.00, -1.00, 354.1, 269.1)">e</text><text xml:space="preserve" font-family="HelveticaNeue-Light,Helvetica Neue" font-size="41.6" fill="#242534" transform="matrix(1.00, 0.00, -0.00, -1.00, 375.7, 269.1)">r</text><text xml:space="preserve" font-family="HelveticaNeue-Light,Helvetica Neue" font-size="41.6" fill="#242534" transform="matrix(1.00, 0.00, -0.00, -1.00, 388.8, 269.1)">f</text><text xml:space="preserve" font-family="HelveticaNeue-Light,Helvetica Neue" font-size="41.6" fill="#242534" transform="matrix(1.00, 0.00, -0.00, -1.00, 399.6, 269.1)">u</text><text xml:space="preserve" font-family="HelveticaNeue-Light,Helvetica Neue" font-size="41.6" fill="#242534" transform="matrix(1.00, 0.00, -0.00, -1.00, 421.9, 269.1)">l</text><text xml:space="preserve" font-family="HelveticaNeue-Light,Helvetica Neue" font-size="41.6" fill="#242534" transform="matrix(1.00, 0.00, -0.00, -1.00, 429.6, 269.1)"> </text><text xml:space="preserve" font-family="HelveticaNeue-Light,Helvetica Neue" font-size="41.6" fill="#242534" transform="matrix(1.00, 0.00, -0.00, -1.00, 441.1, 269.1)">c</text><text xml:space="preserve" font-family="HelveticaNeue-Light,Helvetica Neue" font-size="41.6" fill="#242534" transform="matrix(1.00, 0.00, -0.00, -1.00, 462.7, 269.1)">o</text><text xml:space="preserve" font-family="HelveticaNeue-Light,Helvetica Neue" font-size="41.6" fill="#242534" transform="matrix(1.00, 0.00, -0.00, -1.00, 485.8, 269.1)">l</text><text xml:space="preserve" font-family="HelveticaNeue-Light,Helvetica Neue" font-size="41.6" fill="#242534" transform="matrix(1.00, 0.00, -0.00, -1.00, 493.5, 269.1)">l</text><text xml:space="preserve" font-family="HelveticaNeue-Light,Helvetica Neue" font-size="41.6" fill="#242534" transform="matrix(1.00, 0.00, -0.00, -1.00, 501.2, 269.1)">e</text><text xml:space="preserve" font-family="HelveticaNeue-Light,Helvetica Neue" font-size="41.6" fill="#242534" transform="matrix(1.00, 0.00, -0.00, -1.00, 522.8, 269.1)">c</text><text xml:space="preserve" font-family="HelveticaNeue-Light,Helvetica Neue" font-size="41.6" fill="#242534" transform="matrix(1.00, 0.00, -0.00, -1.00, 544.4, 269.1)">t</text><text xml:space="preserve" font-family="HelveticaNeue-Light,Helvetica Neue" font-size="41.6" fill="#242534" transform="matrix(1.00, 0.00, -0.00, -1.00, 556.7, 269.1)">i</text><text xml:space="preserve" font-family="HelveticaNeue-Light,Helvetica Neue" font-size="41.6" fill="#242534" transform="matrix(1.00, 0.00, -0.00, -1.00, 564.4, 269.1)">o</text><text xml:space="preserve" font-family="HelveticaNeue-Light,Helvetica Neue" font-size="41.6" fill="#242534" transform="matrix(1.00, 0.00, -0.00, -1.00, 587.5, 269.1)">n</text><text xml:space="preserve" font-family="HelveticaNeue-Light,Helvetica Neue" font-size="41.6" fill="#242534" transform="matrix(1.00, 0.00, -0.00, -1.00, 609.8, 269.1)">s</text><text xml:space="preserve" font-family="HelveticaNeue-Light,Helvetica Neue" font-size="41.6" fill="#242534" transform="matrix(1.00, 0.00, -0.00, -1.00, 629.8, 269.1)"> </text><text xml:space="preserve" font-family="HelveticaNeue-Light,Helvetica Neue" font-size="41.6" fill="#242534" transform="matrix(1.00, 0.00, -0.00, -1.00, 641.4, 269.1)">l</text><text xml:space="preserve" font-family="HelveticaNeue-Light,Helvetica Neue" font-size="41.6" fill="#242534" transform="matrix(1.00, 0.00, -0.00, -1.00, 649.1, 269.1)">i</text><text xml:space="preserve" font-family="HelveticaNeue-Light,Helvetica Neue" font-size="41.6" fill="#242534" transform="matrix(1.00, 0.00, -0.00, -1.00, 656.8, 269.1)">b</text><text xml:space="preserve" font-family="HelveticaNeue-Light,Helvetica Neue" font-size="41.6" fill="#242534" transform="matrix(1.00, 0.00, -0.00, -1.00, 680.6, 269.1)">r</text><text xml:space="preserve" font-family="HelveticaNeue-Light,Helvetica Neue" font-size="41.6" fill="#242534" transform="matrix(1.00, 0.00, -0.00, -1.00, 693.7, 269.1)">a</text><text xml:space="preserve" font-family="HelveticaNeue-Light,Helvetica Neue" font-size="41.6" fill="#242534" transform="matrix(1.00, 0.00, -0.00, -1.00, 715.3, 269.1)">r</text><text xml:space="preserve" font-family="HelveticaNeue-Light,Helvetica Neue" font-size="41.6" fill="#242534" transform="matrix(1.00, 0.00, -0.00, -1.00, 728.4, 269.1)">y</text><text xml:space="preserve" font-family="HelveticaNeue-Light,Helvetica Neue" font-size="41.6" fill="#242534" transform="matrix(1.00, 0.00, -0.00, -1.00, 359.5, 197.0)">p</text><text xml:space="preserve" font-family="HelveticaNeue-Light,Helvetica Neue" font-size="41.6" fill="#242534" transform="matrix(1.00, 0.00, -0.00, -1.00, 383.4, 197.0)">a</text><text xml:space="preserve" font-family="HelveticaNeue-Light,Helvetica Neue" font-size="41.6" fill="#242534" transform="matrix(1.00, 0.00, -0.00, -1.00, 405.0, 197.0)">t</text><text xml:space="preserve" font-family="HelveticaNeue-Light,Helvetica Neue" font-size="41.6" fill="#242534" transform="matrix(1.00, 0.00, -0.00, -1.00, 417.3, 197.0)">t</text><text xml:space="preserve" font-family="HelveticaNeue-Light,Helvetica Neue" font-size="41.6" fill="#242534" transform="matrix(1.00, 0.00, -0.00, -1.00, 429.6, 197.0)">e</text><text xml:space="preserve" font-family="HelveticaNeue-Light,Helvetica Neue" font-size="41.6" fill="#242534" transform="matrix(1.00, 0.00, -0.00, -1.00, 451.2, 197.0)">r</text><text xml:space="preserve" font-family="HelveticaNeue-Light,Helvetica Neue" font-size="41.6" fill="#242534" transform="matrix(1.00, 0.00, -0.00, -1.00, 465.0, 197.0)">n</text><text xml:space="preserve" font-family="HelveticaNeue-Light,Helvetica Neue" font-size="41.6" fill="#242534" transform="matrix(1.00, 0.00, -0.00, -1.00, 487.3, 197.0)"> </text><text xml:space="preserve" font-family="HelveticaNeue-Light,Helvetica Neue" font-size="41.6" fill="#242534" transform="matrix(1.00, 0.00, -0.00, -1.00, 498.9, 197.0)">m</text><text xml:space="preserve" font-family="HelveticaNeue-Light,Helvetica Neue" font-size="41.6" fill="#242534" transform="matrix(1.00, 0.00, -0.00, -1.00, 533.5, 197.0)">a</text><text xml:space="preserve" font-family="HelveticaNeue-Light,Helvetica Neue" font-size="41.6" fill="#242534" transform="matrix(1.00, 0.00, -0.00, -1.00, 555.1, 197.0)">t</text><text xml:space="preserve" font-family="HelveticaNeue-Light,Helvetica Neue" font-size="41.6" fill="#242534" transform="matrix(1.00, 0.00, -0.00, -1.00, 567.4, 197.0)">c</text><text xml:space="preserve" font-family="HelveticaNeue-Light,Helvetica Neue" font-size="41.6" fill="#242534" transform="matrix(1.00, 0.00, -0.00, -1.00, 589.0, 197.0)">h</text><text xml:space="preserve" font-family="HelveticaNeue-Light,Helvetica Neue" font-size="41.6" fill="#242534" transform="matrix(1.00, 0.00, -0.00, -1.00, 611.3, 197.0)">i</text><text xml:space="preserve" font-family="HelveticaNeue-Light,Helvetica Neue" font-size="41.6" fill="#242534" transform="matrix(1.00, 0.00, -0.00, -1.00, 619.0, 197.0)">n</text><text xml:space="preserve" font-family="HelveticaNeue-Light,Helvetica Neue" font-size="41.6" fill="#242534" transform="matrix(1.00, 0.00, -0.00, -1.00, 641.4, 197.0)">g</text><text xml:space="preserve" font-family="HelveticaNeue-Light,Helvetica Neue" font-size="41.6" fill="#242534" transform="matrix(1.00, 0.00, -0.00, -1.00, 316.4, 124.9)">h</text><text xml:space="preserve" font-family="HelveticaNeue-Light,Helvetica Neue" font-size="41.6" fill="#242534" transform="matrix(1.00, 0.00, -0.00, -1.00, 338.7, 124.9)">i</text><text xml:space="preserve" font-family="HelveticaNeue-Light,Helvetica Neue" font-size="41.6" fill="#242534" transform="matrix(1.00, 0.00, -0.00, -1.00, 346.4, 124.9)">g</text><text xml:space="preserve" font-family="HelveticaNeue-Light,Helvetica Neue" font-size="41.6" fill="#242534" transform="matrix(1.00, 0.00, -0.00, -1.00, 369.5, 124.9)">h</text><text xml:space="preserve" font-family="HelveticaNeue-Light,Helvetica Neue" font-size="41.6" fill="#242534" transform="matrix(1.00, 0.00, -0.00, -1.00, 391.8, 124.9)">e</text><text xml:space="preserve" font-family="HelveticaNeue-Light,Helvetica Neue" font-size="41.6" fill="#242534" transform="matrix(1.00, 0.00, -0.00, -1.00, 413.4, 124.9)">r</text><text xml:space="preserve" font-family="HelveticaNeue-Light,Helvetica Neue" font-size="41.6" fill="#242534" transform="matrix(1.00, 0.00, -0.00, -1.00, 424.2, 124.9)">-</text><text xml:space="preserve" font-family="HelveticaNeue-Light,Helvetica Neue" font-size="41.6" fill="#242534" transform="matrix(1.00, 0.00, -0.00, -1.00, 439.6, 124.9)">o</text><text xml:space="preserve" font-family="HelveticaNeue-Light,Helvetica Neue" font-size="41.6" fill="#242534" transform="matrix(1.00, 0.00, -0.00, -1.00, 462.7, 124.9)">r</text><text xml:space="preserve" font-family="HelveticaNeue-Light,Helvetica Neue" font-size="41.6" fill="#242534" transform="matrix(1.00, 0.00, -0.00, -1.00, 475.1, 124.9)">d</text><text xml:space="preserve" font-family="HelveticaNeue-Light,Helvetica Neue" font-size="41.6" fill="#242534" transform="matrix(1.00, 0.00, -0.00, -1.00, 498.9, 124.9)">e</text><text xml:space="preserve" font-family="HelveticaNeue-Light,Helvetica Neue" font-size="41.6" fill="#242534" transform="matrix(1.00, 0.00, -0.00, -1.00, 520.5, 124.9)">r</text><text xml:space="preserve" font-family="HelveticaNeue-Light,Helvetica Neue" font-size="41.6" fill="#242534" transform="matrix(1.00, 0.00, -0.00, -1.00, 533.6, 124.9)"> </text><text xml:space="preserve" font-family="HelveticaNeue-Light,Helvetica Neue" font-size="41.6" fill="#242534" transform="matrix(1.00, 0.00, -0.00, -1.00, 545.2, 124.9)">f</text><text xml:space="preserve" font-family="HelveticaNeue-Light,Helvetica Neue" font-size="41.6" fill="#242534" transform="matrix(1.00, 0.00, -0.00, -1.00, 556.0, 124.9)">u</text><text xml:space="preserve" font-family="HelveticaNeue-Light,Helvetica Neue" font-size="41.6" fill="#242534" transform="matrix(1.00, 0.00, -0.00, -1.00, 578.3, 124.9)">n</text><text xml:space="preserve" font-family="HelveticaNeue-Light,Helvetica Neue" font-size="41.6" fill="#242534" transform="matrix(1.00, 0.00, -0.00, -1.00, 600.6, 124.9)">c</text><text xml:space="preserve" font-family="HelveticaNeue-Light,Helvetica Neue" font-size="41.6" fill="#242534" transform="matrix(1.00, 0.00, -0.00, -1.00, 622.2, 124.9)">t</text><text xml:space="preserve" font-family="HelveticaNeue-Light,Helvetica Neue" font-size="41.6" fill="#242534" transform="matrix(1.00, 0.00, -0.00, -1.00, 634.5, 124.9)">i</text><text xml:space="preserve" font-family="HelveticaNeue-Light,Helvetica Neue" font-size="41.6" fill="#242534" transform="matrix(1.00, 0.00, -0.00, -1.00, 642.2, 124.9)">o</text><text xml:space="preserve" font-family="HelveticaNeue-Light,Helvetica Neue" font-size="41.6" fill="#242534" transform="matrix(1.00, 0.00, -0.00, -1.00, 665.3, 124.9)">n</text><text xml:space="preserve" font-family="HelveticaNeue-Light,Helvetica Neue" font-size="41.6" fill="#242534" transform="matrix(1.00, 0.00, -0.00, -1.00, 687.6, 124.9)">s</text><text xml:space="preserve" font-family="HelveticaNeue-Light,Helvetica Neue" font-size="41.6" fill="#242534" transform="matrix(1.00, 0.00, -0.00, -1.00, 221.7, 52.9)">l</text><text xml:space="preserve" font-family="HelveticaNeue-Light,Helvetica Neue" font-size="41.6" fill="#242534" transform="matrix(1.00, 0.00, -0.00, -1.00, 229.4, 52.9)">o</text><text xml:space="preserve" font-family="HelveticaNeue-Light,Helvetica Neue" font-size="41.6" fill="#242534" transform="matrix(1.00, 0.00, -0.00, -1.00, 252.5, 52.9)">o</text><text xml:space="preserve" font-family="HelveticaNeue-Light,Helvetica Neue" font-size="41.6" fill="#242534" transform="matrix(1.00, 0.00, -0.00, -1.00, 275.6, 52.9)">s</text><text xml:space="preserve" font-family="HelveticaNeue-Light,Helvetica Neue" font-size="41.6" fill="#242534" transform="matrix(1.00, 0.00, -0.00, -1.00, 295.6, 52.9)">e</text><text xml:space="preserve" font-family="HelveticaNeue-Light,Helvetica Neue" font-size="41.6" fill="#242534" transform="matrix(1.00, 0.00, -0.00, -1.00, 317.2, 52.9)">,</text><text xml:space="preserve" font-family="HelveticaNeue-Light,Helvetica Neue" font-size="41.6" fill="#242534" transform="matrix(1.00, 0.00, -0.00, -1.00, 328.7, 52.9)"> </text><text xml:space="preserve" font-family="HelveticaNeue-Light,Helvetica Neue" font-size="41.6" fill="#242534" transform="matrix(1.00, 0.00, -0.00, -1.00, 340.3, 52.9)">e</text><text xml:space="preserve" font-family="HelveticaNeue-Light,Helvetica Neue" font-size="41.6" fill="#242534" transform="matrix(1.00, 0.00, -0.00, -1.00, 361.9, 52.9)">x</text><text xml:space="preserve" font-family="HelveticaNeue-Light,Helvetica Neue" font-size="41.6" fill="#242534" transform="matrix(1.00, 0.00, -0.00, -1.00, 381.9, 52.9)">p</text><text xml:space="preserve" font-family="HelveticaNeue-Light,Helvetica Neue" font-size="41.6" fill="#242534" transform="matrix(1.00, 0.00, -0.00, -1.00, 405.7, 52.9)">r</text><text xml:space="preserve" font-family="HelveticaNeue-Light,Helvetica Neue" font-size="41.6" fill="#242534" transform="matrix(1.00, 0.00, -0.00, -1.00, 418.1, 52.9)">e</text><text xml:space="preserve" font-family="HelveticaNeue-Light,Helvetica Neue" font-size="41.6" fill="#242534" transform="matrix(1.00, 0.00, -0.00, -1.00, 439.7, 52.9)">s</text><text xml:space="preserve" font-family="HelveticaNeue-Light,Helvetica Neue" font-size="41.6" fill="#242534" transform="matrix(1.00, 0.00, -0.00, -1.00, 459.7, 52.9)">s</text><text xml:space="preserve" font-family="HelveticaNeue-Light,Helvetica Neue" font-size="41.6" fill="#242534" transform="matrix(1.00, 0.00, -0.00, -1.00, 479.7, 52.9)">i</text><text xml:space="preserve" font-family="HelveticaNeue-Light,Helvetica Neue" font-size="41.6" fill="#242534" transform="matrix(1.00, 0.00, -0.00, -1.00, 487.4, 52.9)">v</text><text xml:space="preserve" font-family="HelveticaNeue-Light,Helvetica Neue" font-size="41.6" fill="#242534" transform="matrix(1.00, 0.00, -0.00, -1.00, 506.6, 52.9)">e</text><text xml:space="preserve" font-family="HelveticaNeue-Light,Helvetica Neue" font-size="41.6" fill="#242534" transform="matrix(1.00, 0.00, -0.00, -1.00, 528.2, 52.9)"> </text><text xml:space="preserve" font-family="HelveticaNeue-Light,Helvetica Neue" font-size="41.6" fill="#242534" transform="matrix(1.00, 0.00, -0.00, -1.00, 539.8, 52.9)">a</text><text xml:space="preserve" font-family="HelveticaNeue-Light,Helvetica Neue" font-size="41.6" fill="#242534" transform="matrix(1.00, 0.00, -0.00, -1.00, 561.3, 52.9)">n</text><text xml:space="preserve" font-family="HelveticaNeue-Light,Helvetica Neue" font-size="41.6" fill="#242534" transform="matrix(1.00, 0.00, -0.00, -1.00, 583.7, 52.9)">d</text><text xml:space="preserve" font-family="HelveticaNeue-Light,Helvetica Neue" font-size="41.6" fill="#242534" transform="matrix(1.00, 0.00, -0.00, -1.00, 607.5, 52.9)"> </text><text xml:space="preserve" font-family="HelveticaNeue-Light,Helvetica Neue" font-size="41.6" fill="#242534" transform="matrix(1.00, 0.00, -0.00, -1.00, 619.1, 52.9)">c</text><text xml:space="preserve" font-family="HelveticaNeue-Light,Helvetica Neue" font-size="41.6" fill="#242534" transform="matrix(1.00, 0.00, -0.00, -1.00, 640.7, 52.9)">o</text><text xml:space="preserve" font-family="HelveticaNeue-Light,Helvetica Neue" font-size="41.6" fill="#242534" transform="matrix(1.00, 0.00, -0.00, -1.00, 663.8, 52.9)">n</text><text xml:space="preserve" font-family="HelveticaNeue-Light,Helvetica Neue" font-size="41.6" fill="#242534" transform="matrix(1.00, 0.00, -0.00, -1.00, 686.1, 52.9)">s</text><text xml:space="preserve" font-family="HelveticaNeue-Light,Helvetica Neue" font-size="41.6" fill="#242534" transform="matrix(1.00, 0.00, -0.00, -1.00, 706.1, 52.9)">i</text><text xml:space="preserve" font-family="HelveticaNeue-Light,Helvetica Neue" font-size="41.6" fill="#242534" transform="matrix(1.00, 0.00, -0.00, -1.00, 713.8, 52.9)">s</text><text xml:space="preserve" font-family="HelveticaNeue-Light,Helvetica Neue" font-size="41.6" fill="#242534" transform="matrix(1.00, 0.00, -0.00, -1.00, 733.8, 52.9)">t</text><text xml:space="preserve" font-family="HelveticaNeue-Light,Helvetica Neue" font-size="41.6" fill="#242534" transform="matrix(1.00, 0.00, -0.00, -1.00, 746.1, 52.9)">e</text><text xml:space="preserve" font-family="HelveticaNeue-Light,Helvetica Neue" font-size="41.6" fill="#242534" transform="matrix(1.00, 0.00, -0.00, -1.00, 767.7, 52.9)">n</text><text xml:space="preserve" font-family="HelveticaNeue-Light,Helvetica Neue" font-size="41.6" fill="#242534" transform="matrix(1.00, 0.00, -0.00, -1.00, 790.0, 52.9)">t</text></g></svg>