<?xml version="1.0" encoding="UTF-8" standalone="no"?><svg xmlns="http://www.w3.org/2000/svg" xmlns:xlink="http://www.w3.org/1999/xlink" clip-rule="evenodd" stroke-miterlimit="10" viewBox="0 0 402 42"><desc>SVG generated by Keynote</desc><defs></defs><g transform="matrix(1.00, 0.00, -0.00, -1.00, 0.0, 42.0)"><text xml:space="preserve" font-family="HelveticaNeue-Light,Helvetica Neue" font-size="41.6" fill="#242534" transform="matrix(1.00, 0.00, -0.00, -1.00, -1.0, 10.3)">E</text><text xml:space="preserve" font-family="HelveticaNeue-Light,Helvetica Neue" font-size="41.6" fill="#242534" transform="matrix(1.00, 0.00, -0.00, -1.00, 23.6, 10.3)">v</text><text xml:space="preserve" font-family="HelveticaNeue-Light,Helvetica Neue" font-size="41.6" fill="#242534" transform="matrix(1.00, 0.00, -0.00, -1.00, 42.9, 10.3)">e</text><text xml:space="preserve" font-family="HelveticaNeue-Light,Helvetica Neue" font-size="41.6" fill="#242534" transform="matrix(1.00, 0.00, -0.00, -1.00, 64.5, 10.3)">r</text><text xml:space="preserve" font-family="HelveticaNeue-Light,Helvetica Neue" font-size="41.6" fill="#242534" transform="matrix(1.00, 0.00, -0.00, -1.00, 77.6, 10.3)">y</text><text xml:space="preserve" font-family="HelveticaNeue-Light,Helvetica Neue" font-size="41.6" fill="#242534" transform="matrix(1.00, 0.00, -0.00, -1.00, 96.8, 10.3)">t</text><text xml:space="preserve" font-family="HelveticaNeue-Light,Helvetica Neue" font-size="41.6" fill="#242534" transform="matrix(1.00, 0.00, -0.00, -1.00, 109.1, 10.3)">h</text><text xml:space="preserve" font-family="HelveticaNeue-Light,Helvetica Neue" font-size="41.6" fill="#242534" transform="matrix(1.00, 0.00, -0.00, -1.00, 131.5, 10.3)">i</text><text xml:space="preserve" font-family="HelveticaNeue-Light,Helvetica Neue" font-size="41.6" fill="#242534" transform="matrix(1.00, 0.00, -0.00, -1.00, 139.1, 10.3)">n</text><text xml:space="preserve" font-family="HelveticaNeue-Light,Helvetica Neue" font-size="41.6" fill="#242534" transform="matrix(1.00, 0.00, -0.00, -1.00, 161.5, 10.3)">g</text><text xml:space="preserve" font-family="HelveticaNeue-Light,Helvetica Neue" font-size="41.6" fill="#242534" transform="matrix(1.00, 0.00, -0.00, -1.00, 184.6, 10.3)"> </text><text xml:space="preserve" font-family="HelveticaNeue-Light,Helvetica Neue" font-size="41.6" fill="#242534" transform="matrix(1.00, 0.00, -0.00, -1.00, 196.2, 10.3)">i</text><text xml:space="preserve" font-family="HelveticaNeue-Light,Helvetica Neue" font-size="41.6" fill="#242534" transform="matrix(1.00, 0.00, -0.00, -1.00, 203.8, 10.3)">s</text><text xml:space="preserve" font-family="HelveticaNeue-Light,Helvetica Neue" font-size="41.6" fill="#242534" transform="matrix(1.00, 0.00, -0.00, -1.00, 223.8, 10.3)"> </text><text xml:space="preserve" font-family="HelveticaNeue-Light,Helvetica Neue" font-size="41.6" fill="#242534" transform="matrix(1.00, 0.00, -0.00, -1.00, 235.4, 10.3)">a</text><text xml:space="preserve" font-family="HelveticaNeue-Light,Helvetica Neue" font-size="41.6" fill="#242534" transform="matrix(1.00, 0.00, -0.00, -1.00, 257.0, 10.3)">n</text><text xml:space="preserve" font-family="HelveticaNeue-Light,Helvetica Neue" font-size="41.6" fill="#242534" transform="matrix(1.00, 0.00, -0.00, -1.00, 279.3, 10.3)"> </text><text xml:space="preserve" font-family="HelveticaNeue-Light,Helvetica Neue" font-size="41.6" fill="#242534" transform="matrix(1.00, 0.00, -0.00, -1.00, 290.9, 10.3)">o</text><text xml:space="preserve" font-family="HelveticaNeue-Light,Helvetica Neue" font-size="41.6" fill="#242534" transform="matrix(1.00, 0.00, -0.00, -1.00, 314.0, 10.3)">b</text><text xml:space="preserve" font-family="HelveticaNeue-Light,Helvetica Neue" font-size="41.6" fill="#242534" transform="matrix(1.00, 0.00, -0.00, -1.00, 337.9, 10.3)">j</text><text xml:space="preserve" font-family="HelveticaNeue-Light,Helvetica Neue" font-size="41.6" fill="#242534" transform="matrix(1.00, 0.00, -0.00, -1.00, 345.6, 10.3)">e</text><text xml:space="preserve" font-family="HelveticaNeue-Light,Helvetica Neue" font-size="41.6" fill="#242534" transform="matrix(1.00, 0.00, -0.00, -1.00, 367.1, 10.3)">c</text><text xml:space="preserve" font-family="HelveticaNeue-Light,Helvetica Neue" font-size="41.6" fill="#242534" transform="matrix(1.00, 0.00, -0.00, -1.00, 388.7, 10.3)">t</text></g></svg>