<?xml version="1.0" encoding="UTF-8" standalone="no"?><svg xmlns="http://www.w3.org/2000/svg" xmlns:xlink="http://www.w3.org/1999/xlink" clip-rule="evenodd" stroke-miterlimit="10" viewBox="0 0 541 41"><desc>SVG generated by Keynote</desc><defs></defs><g transform="matrix(1.00, 0.00, -0.00, -1.00, 0.0, 41.0)"><text xml:space="preserve" font-family="HelveticaNeue-Light,Helvetica Neue" font-size="41.6" fill="#242534" transform="matrix(1.00, 0.00, -0.00, -1.00, -1.1, 9.2)">n</text><text xml:space="preserve" font-family="HelveticaNeue-Light,Helvetica Neue" font-size="41.6" fill="#242534" transform="matrix(1.00, 0.00, -0.00, -1.00, 21.2, 9.2)">u</text><text xml:space="preserve" font-family="HelveticaNeue-Light,Helvetica Neue" font-size="41.6" fill="#242534" transform="matrix(1.00, 0.00, -0.00, -1.00, 43.6, 9.2)">l</text><text xml:space="preserve" font-family="HelveticaNeue-Light,Helvetica Neue" font-size="41.6" fill="#242534" transform="matrix(1.00, 0.00, -0.00, -1.00, 51.3, 9.2)">l</text><text xml:space="preserve" font-family="HelveticaNeue-Light,Helvetica Neue" font-size="41.6" fill="#242534" transform="matrix(1.00, 0.00, -0.00, -1.00, 59.0, 9.2)"> </text><text xml:space="preserve" font-family="HelveticaNeue-Light,Helvetica Neue" font-size="41.6" fill="#242534" transform="matrix(1.00, 0.00, -0.00, -1.00, 70.5, 9.2)">p</text><text xml:space="preserve" font-family="HelveticaNeue-Light,Helvetica Neue" font-size="41.6" fill="#242534" transform="matrix(1.00, 0.00, -0.00, -1.00, 94.4, 9.2)">o</text><text xml:space="preserve" font-family="HelveticaNeue-Light,Helvetica Neue" font-size="41.6" fill="#242534" transform="matrix(1.00, 0.00, -0.00, -1.00, 117.5, 9.2)">i</text><text xml:space="preserve" font-family="HelveticaNeue-Light,Helvetica Neue" font-size="41.6" fill="#242534" transform="matrix(1.00, 0.00, -0.00, -1.00, 125.2, 9.2)">n</text><text xml:space="preserve" font-family="HelveticaNeue-Light,Helvetica Neue" font-size="41.6" fill="#242534" transform="matrix(1.00, 0.00, -0.00, -1.00, 147.5, 9.2)">t</text><text xml:space="preserve" font-family="HelveticaNeue-Light,Helvetica Neue" font-size="41.6" fill="#242534" transform="matrix(1.00, 0.00, -0.00, -1.00, 159.8, 9.2)">e</text><text xml:space="preserve" font-family="HelveticaNeue-Light,Helvetica Neue" font-size="41.6" fill="#242534" transform="matrix(1.00, 0.00, -0.00, -1.00, 181.4, 9.2)">r</text><text xml:space="preserve" font-family="HelveticaNeue-Light,Helvetica Neue" font-size="41.6" fill="#242534" transform="matrix(1.00, 0.00, -0.00, -1.00, 194.5, 9.2)">s</text><text xml:space="preserve" font-family="HelveticaNeue-Light,Helvetica Neue" font-size="41.6" fill="#242534" transform="matrix(1.00, 0.00, -0.00, -1.00, 214.5, 9.2)"> </text><text xml:space="preserve" font-family="HelveticaNeue-Light,Helvetica Neue" font-size="41.6" fill="#242534" transform="matrix(1.00, 0.00, -0.00, -1.00, 226.1, 9.2)">c</text><text xml:space="preserve" font-family="HelveticaNeue-Light,Helvetica Neue" font-size="41.6" fill="#242534" transform="matrix(1.00, 0.00, -0.00, -1.00, 247.7, 9.2)">a</text><text xml:space="preserve" font-family="HelveticaNeue-Light,Helvetica Neue" font-size="41.6" fill="#242534" transform="matrix(1.00, 0.00, -0.00, -1.00, 269.2, 9.2)">n</text><text xml:space="preserve" font-family="HelveticaNeue-Light,Helvetica Neue" font-size="41.6" fill="#242534" transform="matrix(1.00, 0.00, -0.00, -1.00, 291.6, 9.2)"> </text><text xml:space="preserve" font-family="HelveticaNeue-Light,Helvetica Neue" font-size="41.6" fill="#242534" transform="matrix(1.00, 0.00, -0.00, -1.00, 303.1, 9.2)">b</text><text xml:space="preserve" font-family="HelveticaNeue-Light,Helvetica Neue" font-size="41.6" fill="#242534" transform="matrix(1.00, 0.00, -0.00, -1.00, 327.0, 9.2)">e</text><text xml:space="preserve" font-family="HelveticaNeue-Light,Helvetica Neue" font-size="41.6" fill="#242534" transform="matrix(1.00, 0.00, -0.00, -1.00, 348.6, 9.2)"> </text><text xml:space="preserve" font-family="HelveticaNeue-Light,Helvetica Neue" font-size="41.6" fill="#242534" transform="matrix(1.00, 0.00, -0.00, -1.00, 360.1, 9.2)">e</text><text xml:space="preserve" font-family="HelveticaNeue-Light,Helvetica Neue" font-size="41.6" fill="#242534" transform="matrix(1.00, 0.00, -0.00, -1.00, 381.7, 9.2)">l</text><text xml:space="preserve" font-family="HelveticaNeue-Light,Helvetica Neue" font-size="41.6" fill="#242534" transform="matrix(1.00, 0.00, -0.00, -1.00, 389.4, 9.2)">i</text><text xml:space="preserve" font-family="HelveticaNeue-Light,Helvetica Neue" font-size="41.6" fill="#242534" transform="matrix(1.00, 0.00, -0.00, -1.00, 397.1, 9.2)">m</text><text xml:space="preserve" font-family="HelveticaNeue-Light,Helvetica Neue" font-size="41.6" fill="#242534" transform="matrix(1.00, 0.00, -0.00, -1.00, 431.7, 9.2)">i</text><text xml:space="preserve" font-family="HelveticaNeue-Light,Helvetica Neue" font-size="41.6" fill="#242534" transform="matrix(1.00, 0.00, -0.00, -1.00, 439.4, 9.2)">n</text><text xml:space="preserve" font-family="HelveticaNeue-Light,Helvetica Neue" font-size="41.6" fill="#242534" transform="matrix(1.00, 0.00, -0.00, -1.00, 461.7, 9.2)">a</text><text xml:space="preserve" font-family="HelveticaNeue-Light,Helvetica Neue" font-size="41.6" fill="#242534" transform="matrix(1.00, 0.00, -0.00, -1.00, 483.3, 9.2)">t</text><text xml:space="preserve" font-family="HelveticaNeue-Light,Helvetica Neue" font-size="41.6" fill="#242534" transform="matrix(1.00, 0.00, -0.00, -1.00, 495.6, 9.2)">e</text><text xml:space="preserve" font-family="HelveticaNeue-Light,Helvetica Neue" font-size="41.6" fill="#242534" transform="matrix(1.00, 0.00, -0.00, -1.00, 517.2, 9.2)">d</text></g></svg>