<?xml version="1.0" encoding="UTF-8" standalone="no"?><svg xmlns="http://www.w3.org/2000/svg" xmlns:xlink="http://www.w3.org/1999/xlink" clip-rule="evenodd" stroke-miterlimit="10" viewBox="0 0 1024 768"><desc>SVG generated by Keynote</desc><defs></defs><g transform="matrix(1.00, 0.00, -0.00, -1.00, 0.0, 768.0)"><path d="M 0.0 768.0 L 1024.0 768.0 L 1024.0 0.0 L 0.0 0.0 Z M 0.0 768.0 " fill="#FEFFFE"></path><text xml:space="preserve" font-family="Menlo-Regular,Menlo" font-size="35.0" fill="#008800" transform="matrix(1.00, 0.00, -0.00, -1.00, 94.1, 449.0)">d</text><text xml:space="preserve" font-family="Menlo-Regular,Menlo" font-size="35.0" fill="#008800" transform="matrix(1.00, 0.00, -0.00, -1.00, 115.1, 449.0)">e</text><text xml:space="preserve" font-family="Menlo-Regular,Menlo" font-size="35.0" fill="#008800" transform="matrix(1.00, 0.00, -0.00, -1.00, 136.2, 449.0)">f</text><text xml:space="preserve" font-family="Menlo-Regular,Menlo" font-size="35.0" fill="#000000" transform="matrix(1.00, 0.00, -0.00, -1.00, 157.3, 449.0)"> </text><text xml:space="preserve" font-family="Menlo-Regular,Menlo" font-size="35.0" fill="#870E00" transform="matrix(1.00, 0.00, -0.00, -1.00, 178.3, 449.0)">t</text><text xml:space="preserve" font-family="Menlo-Regular,Menlo" font-size="35.0" fill="#870E00" transform="matrix(1.00, 0.00, -0.00, -1.00, 199.4, 449.0)">o</text><text xml:space="preserve" font-family="Menlo-Regular,Menlo" font-size="35.0" fill="#870E00" transform="matrix(1.00, 0.00, -0.00, -1.00, 220.5, 449.0)">S</text><text xml:space="preserve" font-family="Menlo-Regular,Menlo" font-size="35.0" fill="#870E00" transform="matrix(1.00, 0.00, -0.00, -1.00, 241.6, 449.0)">t</text><text xml:space="preserve" font-family="Menlo-Regular,Menlo" font-size="35.0" fill="#870E00" transform="matrix(1.00, 0.00, -0.00, -1.00, 262.6, 449.0)">r</text><text xml:space="preserve" font-family="Menlo-Regular,Menlo" font-size="35.0" fill="#870E00" transform="matrix(1.00, 0.00, -0.00, -1.00, 283.7, 449.0)">i</text><text xml:space="preserve" font-family="Menlo-Regular,Menlo" font-size="35.0" fill="#870E00" transform="matrix(1.00, 0.00, -0.00, -1.00, 304.8, 449.0)">n</text><text xml:space="preserve" font-family="Menlo-Regular,Menlo" font-size="35.0" fill="#870E00" transform="matrix(1.00, 0.00, -0.00, -1.00, 325.9, 449.0)">g</text><text xml:space="preserve" font-family="Menlo-Regular,Menlo" font-size="35.0" fill="#000000" transform="matrix(1.00, 0.00, -0.00, -1.00, 346.9, 449.0)"> </text><text xml:space="preserve" font-family="Menlo-Regular,Menlo" font-size="35.0" fill="#000000" transform="matrix(1.00, 0.00, -0.00, -1.00, 368.0, 449.0)">:</text><text xml:space="preserve" font-family="Menlo-Regular,Menlo" font-size="35.0" fill="#000000" transform="matrix(1.00, 0.00, -0.00, -1.00, 389.1, 449.0)"> </text><text xml:space="preserve" font-family="Menlo-Regular,Menlo" font-size="35.0" fill="#008800" transform="matrix(1.00, 0.00, -0.00, -1.00, 410.1, 449.0)">S</text><text xml:space="preserve" font-family="Menlo-Regular,Menlo" font-size="35.0" fill="#008800" transform="matrix(1.00, 0.00, -0.00, -1.00, 431.2, 449.0)">t</text><text xml:space="preserve" font-family="Menlo-Regular,Menlo" font-size="35.0" fill="#008800" transform="matrix(1.00, 0.00, -0.00, -1.00, 452.3, 449.0)">r</text><text xml:space="preserve" font-family="Menlo-Regular,Menlo" font-size="35.0" fill="#008800" transform="matrix(1.00, 0.00, -0.00, -1.00, 473.4, 449.0)">i</text><text xml:space="preserve" font-family="Menlo-Regular,Menlo" font-size="35.0" fill="#008800" transform="matrix(1.00, 0.00, -0.00, -1.00, 494.4, 449.0)">n</text><text xml:space="preserve" font-family="Menlo-Regular,Menlo" font-size="35.0" fill="#008800" transform="matrix(1.00, 0.00, -0.00, -1.00, 515.5, 449.0)">g</text><text xml:space="preserve" font-family="Menlo-Regular,Menlo" font-size="35.0" fill="#000000" transform="matrix(1.00, 0.00, -0.00, -1.00, 536.6, 449.0)"> </text><text xml:space="preserve" font-family="Menlo-Regular,Menlo" font-size="35.0" fill="#000000" transform="matrix(1.00, 0.00, -0.00, -1.00, 557.6, 449.0)">=</text><text xml:space="preserve" font-family="Menlo-Regular,Menlo" font-size="35.0" fill="#000000" transform="matrix(1.00, 0.00, -0.00, -1.00, 578.7, 449.0)"> </text><text xml:space="preserve" font-family="Menlo-Regular,Menlo" font-size="35.0" fill="#000000" transform="matrix(1.00, 0.00, -0.00, -1.00, 599.8, 449.0)"> </text><text xml:space="preserve" font-family="Menlo-Regular,Menlo" font-size="35.0" fill="#000000" transform="matrix(1.00, 0.00, -0.00, -1.00, 94.1, 409.0)"> </text><text xml:space="preserve" font-family="Menlo-Regular,Menlo" font-size="35.0" fill="#000000" transform="matrix(1.00, 0.00, -0.00, -1.00, 130.1, 409.0)">i</text><text xml:space="preserve" font-family="Menlo-Regular,Menlo" font-size="35.0" fill="#000000" transform="matrix(1.00, 0.00, -0.00, -1.00, 151.1, 409.0)">f</text><text xml:space="preserve" font-family="Menlo-Regular,Menlo" font-size="35.0" fill="#000000" transform="matrix(1.00, 0.00, -0.00, -1.00, 172.2, 409.0)">(</text><text xml:space="preserve" font-family="Menlo-Regular,Menlo" font-size="35.0" fill="#000000" transform="matrix(1.00, 0.00, -0.00, -1.00, 193.2, 409.0)">t</text><text xml:space="preserve" font-family="Menlo-Regular,Menlo" font-size="35.0" fill="#000000" transform="matrix(1.00, 0.00, -0.00, -1.00, 214.3, 409.0)">e</text><text xml:space="preserve" font-family="Menlo-Regular,Menlo" font-size="35.0" fill="#000000" transform="matrix(1.00, 0.00, -0.00, -1.00, 235.3, 409.0)">x</text><text xml:space="preserve" font-family="Menlo-Regular,Menlo" font-size="35.0" fill="#000000" transform="matrix(1.00, 0.00, -0.00, -1.00, 256.4, 409.0)">t</text><text xml:space="preserve" font-family="Menlo-Regular,Menlo" font-size="35.0" fill="#000000" transform="matrix(1.00, 0.00, -0.00, -1.00, 277.5, 409.0)"> </text><text xml:space="preserve" font-family="Menlo-Regular,Menlo" font-size="35.0" fill="#265564" transform="matrix(1.00, 0.00, -0.00, -1.00, 298.6, 409.0)">f</text><text xml:space="preserve" font-family="Menlo-Regular,Menlo" font-size="35.0" fill="#265564" transform="matrix(1.00, 0.00, -0.00, -1.00, 319.7, 409.0)">o</text><text xml:space="preserve" font-family="Menlo-Regular,Menlo" font-size="35.0" fill="#265564" transform="matrix(1.00, 0.00, -0.00, -1.00, 340.8, 409.0)">r</text><text xml:space="preserve" font-family="Menlo-Regular,Menlo" font-size="35.0" fill="#265564" transform="matrix(1.00, 0.00, -0.00, -1.00, 361.9, 409.0)">a</text><text xml:space="preserve" font-family="Menlo-Regular,Menlo" font-size="35.0" fill="#265564" transform="matrix(1.00, 0.00, -0.00, -1.00, 382.9, 409.0)">l</text><text xml:space="preserve" font-family="Menlo-Regular,Menlo" font-size="35.0" fill="#265564" transform="matrix(1.00, 0.00, -0.00, -1.00, 404.0, 409.0)">l</text><text xml:space="preserve" font-family="Menlo-Regular,Menlo" font-size="35.0" fill="#000000" transform="matrix(1.00, 0.00, -0.00, -1.00, 425.1, 409.0)"> </text><text xml:space="preserve" font-family="Menlo-Regular,Menlo" font-size="35.0" fill="#000000" transform="matrix(1.00, 0.00, -0.00, -1.00, 446.1, 409.0)">C</text><text xml:space="preserve" font-family="Menlo-Regular,Menlo" font-size="35.0" fill="#000000" transform="matrix(1.00, 0.00, -0.00, -1.00, 467.2, 409.0)">h</text><text xml:space="preserve" font-family="Menlo-Regular,Menlo" font-size="35.0" fill="#000000" transform="matrix(1.00, 0.00, -0.00, -1.00, 488.3, 409.0)">a</text><text xml:space="preserve" font-family="Menlo-Regular,Menlo" font-size="35.0" fill="#000000" transform="matrix(1.00, 0.00, -0.00, -1.00, 509.4, 409.0)">r</text><text xml:space="preserve" font-family="Menlo-Regular,Menlo" font-size="35.0" fill="#000000" transform="matrix(1.00, 0.00, -0.00, -1.00, 530.4, 409.0)">a</text><text xml:space="preserve" font-family="Menlo-Regular,Menlo" font-size="35.0" fill="#000000" transform="matrix(1.00, 0.00, -0.00, -1.00, 551.5, 409.0)">c</text><text xml:space="preserve" font-family="Menlo-Regular,Menlo" font-size="35.0" fill="#000000" transform="matrix(1.00, 0.00, -0.00, -1.00, 572.6, 409.0)">t</text><text xml:space="preserve" font-family="Menlo-Regular,Menlo" font-size="35.0" fill="#000000" transform="matrix(1.00, 0.00, -0.00, -1.00, 593.7, 409.0)">e</text><text xml:space="preserve" font-family="Menlo-Regular,Menlo" font-size="35.0" fill="#000000" transform="matrix(1.00, 0.00, -0.00, -1.00, 614.7, 409.0)">r</text><text xml:space="preserve" font-family="Menlo-Regular,Menlo" font-size="35.0" fill="#000000" transform="matrix(1.00, 0.00, -0.00, -1.00, 635.8, 409.0)">.</text><text xml:space="preserve" font-family="Menlo-Regular,Menlo" font-size="35.0" fill="#000000" transform="matrix(1.00, 0.00, -0.00, -1.00, 656.9, 409.0)">i</text><text xml:space="preserve" font-family="Menlo-Regular,Menlo" font-size="35.0" fill="#000000" transform="matrix(1.00, 0.00, -0.00, -1.00, 678.0, 409.0)">s</text><text xml:space="preserve" font-family="Menlo-Regular,Menlo" font-size="35.0" fill="#000000" transform="matrix(1.00, 0.00, -0.00, -1.00, 699.0, 409.0)">D</text><text xml:space="preserve" font-family="Menlo-Regular,Menlo" font-size="35.0" fill="#000000" transform="matrix(1.00, 0.00, -0.00, -1.00, 720.1, 409.0)">i</text><text xml:space="preserve" font-family="Menlo-Regular,Menlo" font-size="35.0" fill="#000000" transform="matrix(1.00, 0.00, -0.00, -1.00, 741.2, 409.0)">g</text><text xml:space="preserve" font-family="Menlo-Regular,Menlo" font-size="35.0" fill="#000000" transform="matrix(1.00, 0.00, -0.00, -1.00, 762.3, 409.0)">i</text><text xml:space="preserve" font-family="Menlo-Regular,Menlo" font-size="35.0" fill="#000000" transform="matrix(1.00, 0.00, -0.00, -1.00, 783.3, 409.0)">t</text><text xml:space="preserve" font-family="Menlo-Regular,Menlo" font-size="35.0" fill="#000000" transform="matrix(1.00, 0.00, -0.00, -1.00, 804.3, 409.0)">)</text><text xml:space="preserve" font-family="Menlo-Regular,Menlo" font-size="35.0" fill="#000000" transform="matrix(1.00, 0.00, -0.00, -1.00, 825.4, 409.0)"> </text><text xml:space="preserve" font-family="Menlo-Regular,Menlo" font-size="35.0" fill="#000000" transform="matrix(1.00, 0.00, -0.00, -1.00, 94.1, 369.0)"> </text><text xml:space="preserve" font-family="Menlo-Regular,Menlo" font-size="35.0" fill="#000000" transform="matrix(1.00, 0.00, -0.00, -1.00, 115.1, 369.0)"> </text><text xml:space="preserve" font-family="Menlo-Regular,Menlo" font-size="35.0" fill="#000000" transform="matrix(1.00, 0.00, -0.00, -1.00, 136.2, 369.0)"> </text><text xml:space="preserve" font-family="Menlo-Regular,Menlo" font-size="35.0" fill="#000000" transform="matrix(1.00, 0.00, -0.00, -1.00, 157.3, 369.0)"> </text><text xml:space="preserve" font-family="Menlo-Regular,Menlo" font-size="35.0" fill="#000000" transform="matrix(1.00, 0.00, -0.00, -1.00, 178.4, 369.0)"> </text><text xml:space="preserve" font-family="Menlo-Regular,Menlo" font-size="35.0" fill="#000000" transform="matrix(1.00, 0.00, -0.00, -1.00, 199.4, 369.0)"> </text><text xml:space="preserve" font-family="Menlo-Regular,Menlo" font-size="35.0" fill="#000000" transform="matrix(1.00, 0.00, -0.00, -1.00, 220.5, 369.0)">“</text><text xml:space="preserve" font-family="Menlo-Regular,Menlo" font-size="35.0" fill="#000000" transform="matrix(1.00, 0.00, -0.00, -1.00, 241.6, 369.0)">H</text><text xml:space="preserve" font-family="Menlo-Regular,Menlo" font-size="35.0" fill="#000000" transform="matrix(1.00, 0.00, -0.00, -1.00, 262.7, 369.0)">e</text><text xml:space="preserve" font-family="Menlo-Regular,Menlo" font-size="35.0" fill="#000000" transform="matrix(1.00, 0.00, -0.00, -1.00, 283.7, 369.0)">y</text><text xml:space="preserve" font-family="Menlo-Regular,Menlo" font-size="35.0" fill="#000000" transform="matrix(1.00, 0.00, -0.00, -1.00, 304.8, 369.0)">,</text><text xml:space="preserve" font-family="Menlo-Regular,Menlo" font-size="35.0" fill="#000000" transform="matrix(1.00, 0.00, -0.00, -1.00, 325.9, 369.0)"> </text><text xml:space="preserve" font-family="Menlo-Regular,Menlo" font-size="35.0" fill="#000000" transform="matrix(1.00, 0.00, -0.00, -1.00, 347.0, 369.0)">t</text><text xml:space="preserve" font-family="Menlo-Regular,Menlo" font-size="35.0" fill="#000000" transform="matrix(1.00, 0.00, -0.00, -1.00, 368.0, 369.0)">h</text><text xml:space="preserve" font-family="Menlo-Regular,Menlo" font-size="35.0" fill="#000000" transform="matrix(1.00, 0.00, -0.00, -1.00, 389.1, 369.0)">i</text><text xml:space="preserve" font-family="Menlo-Regular,Menlo" font-size="35.0" fill="#000000" transform="matrix(1.00, 0.00, -0.00, -1.00, 410.2, 369.0)">s</text><text xml:space="preserve" font-family="Menlo-Regular,Menlo" font-size="35.0" fill="#000000" transform="matrix(1.00, 0.00, -0.00, -1.00, 431.3, 369.0)"> </text><text xml:space="preserve" font-family="Menlo-Regular,Menlo" font-size="35.0" fill="#000000" transform="matrix(1.00, 0.00, -0.00, -1.00, 452.3, 369.0)">i</text><text xml:space="preserve" font-family="Menlo-Regular,Menlo" font-size="35.0" fill="#000000" transform="matrix(1.00, 0.00, -0.00, -1.00, 473.4, 369.0)">s</text><text xml:space="preserve" font-family="Menlo-Regular,Menlo" font-size="35.0" fill="#000000" transform="matrix(1.00, 0.00, -0.00, -1.00, 494.5, 369.0)"> </text><text xml:space="preserve" font-family="Menlo-Regular,Menlo" font-size="35.0" fill="#000000" transform="matrix(1.00, 0.00, -0.00, -1.00, 515.6, 369.0)">a</text><text xml:space="preserve" font-family="Menlo-Regular,Menlo" font-size="35.0" fill="#000000" transform="matrix(1.00, 0.00, -0.00, -1.00, 536.6, 369.0)">n</text><text xml:space="preserve" font-family="Menlo-Regular,Menlo" font-size="35.0" fill="#000000" transform="matrix(1.00, 0.00, -0.00, -1.00, 557.7, 369.0)"> </text><text xml:space="preserve" font-family="Menlo-Regular,Menlo" font-size="35.0" fill="#000000" transform="matrix(1.00, 0.00, -0.00, -1.00, 578.8, 369.0)">i</text><text xml:space="preserve" font-family="Menlo-Regular,Menlo" font-size="35.0" fill="#000000" transform="matrix(1.00, 0.00, -0.00, -1.00, 599.9, 369.0)">n</text><text xml:space="preserve" font-family="Menlo-Regular,Menlo" font-size="35.0" fill="#000000" transform="matrix(1.00, 0.00, -0.00, -1.00, 620.9, 369.0)">t</text><text xml:space="preserve" font-family="Menlo-Regular,Menlo" font-size="35.0" fill="#000000" transform="matrix(1.00, 0.00, -0.00, -1.00, 642.0, 369.0)">e</text><text xml:space="preserve" font-family="Menlo-Regular,Menlo" font-size="35.0" fill="#000000" transform="matrix(1.00, 0.00, -0.00, -1.00, 663.1, 369.0)">g</text><text xml:space="preserve" font-family="Menlo-Regular,Menlo" font-size="35.0" fill="#000000" transform="matrix(1.00, 0.00, -0.00, -1.00, 684.2, 369.0)">e</text><text xml:space="preserve" font-family="Menlo-Regular,Menlo" font-size="35.0" fill="#000000" transform="matrix(1.00, 0.00, -0.00, -1.00, 705.2, 369.0)">r</text><text xml:space="preserve" font-family="Menlo-Regular,Menlo" font-size="35.0" fill="#000000" transform="matrix(1.00, 0.00, -0.00, -1.00, 726.3, 369.0)">!</text><text xml:space="preserve" font-family="Menlo-Regular,Menlo" font-size="35.0" fill="#000000" transform="matrix(1.00, 0.00, -0.00, -1.00, 747.4, 369.0)">”</text><text xml:space="preserve" font-family="Menlo-Regular,Menlo" font-size="35.0" fill="#000000" transform="matrix(1.00, 0.00, -0.00, -1.00, 768.5, 369.0)"> </text><text xml:space="preserve" font-family="Menlo-Regular,Menlo" font-size="35.0" fill="#000000" transform="matrix(1.00, 0.00, -0.00, -1.00, 94.1, 329.0)"> </text><text xml:space="preserve" font-family="Menlo-Regular,Menlo" font-size="35.0" fill="#000000" transform="matrix(1.00, 0.00, -0.00, -1.00, 130.1, 329.0)">e</text><text xml:space="preserve" font-family="Menlo-Regular,Menlo" font-size="35.0" fill="#000000" transform="matrix(1.00, 0.00, -0.00, -1.00, 151.1, 329.0)">l</text><text xml:space="preserve" font-family="Menlo-Regular,Menlo" font-size="35.0" fill="#000000" transform="matrix(1.00, 0.00, -0.00, -1.00, 172.2, 329.0)">s</text><text xml:space="preserve" font-family="Menlo-Regular,Menlo" font-size="35.0" fill="#000000" transform="matrix(1.00, 0.00, -0.00, -1.00, 193.2, 329.0)">e</text><text xml:space="preserve" font-family="Menlo-Regular,Menlo" font-size="35.0" fill="#000000" transform="matrix(1.00, 0.00, -0.00, -1.00, 214.3, 329.0)"> </text><text xml:space="preserve" font-family="Menlo-Regular,Menlo" font-size="35.0" fill="#000000" transform="matrix(1.00, 0.00, -0.00, -1.00, 94.1, 289.0)"> </text><text xml:space="preserve" font-family="Menlo-Regular,Menlo" font-size="35.0" fill="#000000" transform="matrix(1.00, 0.00, -0.00, -1.00, 115.1, 289.0)"> </text><text xml:space="preserve" font-family="Menlo-Regular,Menlo" font-size="35.0" fill="#000000" transform="matrix(1.00, 0.00, -0.00, -1.00, 136.2, 289.0)"> </text><text xml:space="preserve" font-family="Menlo-Regular,Menlo" font-size="35.0" fill="#000000" transform="matrix(1.00, 0.00, -0.00, -1.00, 157.3, 289.0)"> </text><text xml:space="preserve" font-family="Menlo-Regular,Menlo" font-size="35.0" fill="#000000" transform="matrix(1.00, 0.00, -0.00, -1.00, 178.4, 289.0)"> </text><text xml:space="preserve" font-family="Menlo-Regular,Menlo" font-size="35.0" fill="#000000" transform="matrix(1.00, 0.00, -0.00, -1.00, 199.4, 289.0)"> </text><text xml:space="preserve" font-family="Menlo-Regular,Menlo" font-size="35.0" fill="#000000" transform="matrix(1.00, 0.00, -0.00, -1.00, 220.5, 289.0)">“</text><text xml:space="preserve" font-family="Menlo-Regular,Menlo" font-size="35.0" fill="#000000" transform="matrix(1.00, 0.00, -0.00, -1.00, 241.6, 289.0)">N</text><text xml:space="preserve" font-family="Menlo-Regular,Menlo" font-size="35.0" fill="#000000" transform="matrix(1.00, 0.00, -0.00, -1.00, 262.7, 289.0)">o</text><text xml:space="preserve" font-family="Menlo-Regular,Menlo" font-size="35.0" fill="#000000" transform="matrix(1.00, 0.00, -0.00, -1.00, 283.7, 289.0)">p</text><text xml:space="preserve" font-family="Menlo-Regular,Menlo" font-size="35.0" fill="#000000" transform="matrix(1.00, 0.00, -0.00, -1.00, 304.8, 289.0)">e</text><text xml:space="preserve" font-family="Menlo-Regular,Menlo" font-size="35.0" fill="#000000" transform="matrix(1.00, 0.00, -0.00, -1.00, 325.9, 289.0)">,</text><text xml:space="preserve" font-family="Menlo-Regular,Menlo" font-size="35.0" fill="#000000" transform="matrix(1.00, 0.00, -0.00, -1.00, 347.0, 289.0)"> </text><text xml:space="preserve" font-family="Menlo-Regular,Menlo" font-size="35.0" fill="#000000" transform="matrix(1.00, 0.00, -0.00, -1.00, 368.0, 289.0)">t</text><text xml:space="preserve" font-family="Menlo-Regular,Menlo" font-size="35.0" fill="#000000" transform="matrix(1.00, 0.00, -0.00, -1.00, 389.1, 289.0)">h</text><text xml:space="preserve" font-family="Menlo-Regular,Menlo" font-size="35.0" fill="#000000" transform="matrix(1.00, 0.00, -0.00, -1.00, 410.2, 289.0)">i</text><text xml:space="preserve" font-family="Menlo-Regular,Menlo" font-size="35.0" fill="#000000" transform="matrix(1.00, 0.00, -0.00, -1.00, 431.3, 289.0)">s</text><text xml:space="preserve" font-family="Menlo-Regular,Menlo" font-size="35.0" fill="#000000" transform="matrix(1.00, 0.00, -0.00, -1.00, 452.3, 289.0)"> </text><text xml:space="preserve" font-family="Menlo-Regular,Menlo" font-size="35.0" fill="#000000" transform="matrix(1.00, 0.00, -0.00, -1.00, 473.4, 289.0)">i</text><text xml:space="preserve" font-family="Menlo-Regular,Menlo" font-size="35.0" fill="#000000" transform="matrix(1.00, 0.00, -0.00, -1.00, 494.5, 289.0)">s</text><text xml:space="preserve" font-family="Menlo-Regular,Menlo" font-size="35.0" fill="#000000" transform="matrix(1.00, 0.00, -0.00, -1.00, 515.6, 289.0)">n</text><text xml:space="preserve" font-family="Menlo-Regular,Menlo" font-size="35.0" fill="#000000" transform="matrix(1.00, 0.00, -0.00, -1.00, 536.6, 289.0)">’</text><text xml:space="preserve" font-family="Menlo-Regular,Menlo" font-size="35.0" fill="#000000" transform="matrix(1.00, 0.00, -0.00, -1.00, 557.7, 289.0)">t</text><text xml:space="preserve" font-family="Menlo-Regular,Menlo" font-size="35.0" fill="#000000" transform="matrix(1.00, 0.00, -0.00, -1.00, 578.8, 289.0)"> </text><text xml:space="preserve" font-family="Menlo-Regular,Menlo" font-size="35.0" fill="#000000" transform="matrix(1.00, 0.00, -0.00, -1.00, 599.9, 289.0)">a</text><text xml:space="preserve" font-family="Menlo-Regular,Menlo" font-size="35.0" fill="#000000" transform="matrix(1.00, 0.00, -0.00, -1.00, 620.9, 289.0)">n</text><text xml:space="preserve" font-family="Menlo-Regular,Menlo" font-size="35.0" fill="#000000" transform="matrix(1.00, 0.00, -0.00, -1.00, 642.0, 289.0)"> </text><text xml:space="preserve" font-family="Menlo-Regular,Menlo" font-size="35.0" fill="#000000" transform="matrix(1.00, 0.00, -0.00, -1.00, 663.1, 289.0)">i</text><text xml:space="preserve" font-family="Menlo-Regular,Menlo" font-size="35.0" fill="#000000" transform="matrix(1.00, 0.00, -0.00, -1.00, 684.2, 289.0)">n</text><text xml:space="preserve" font-family="Menlo-Regular,Menlo" font-size="35.0" fill="#000000" transform="matrix(1.00, 0.00, -0.00, -1.00, 705.2, 289.0)">t</text><text xml:space="preserve" font-family="Menlo-Regular,Menlo" font-size="35.0" fill="#000000" transform="matrix(1.00, 0.00, -0.00, -1.00, 726.3, 289.0)">e</text><text xml:space="preserve" font-family="Menlo-Regular,Menlo" font-size="35.0" fill="#000000" transform="matrix(1.00, 0.00, -0.00, -1.00, 747.4, 289.0)">g</text><text xml:space="preserve" font-family="Menlo-Regular,Menlo" font-size="35.0" fill="#000000" transform="matrix(1.00, 0.00, -0.00, -1.00, 768.5, 289.0)">e</text><text xml:space="preserve" font-family="Menlo-Regular,Menlo" font-size="35.0" fill="#000000" transform="matrix(1.00, 0.00, -0.00, -1.00, 789.5, 289.0)">r</text><text xml:space="preserve" font-family="Menlo-Regular,Menlo" font-size="35.0" fill="#000000" transform="matrix(1.00, 0.00, -0.00, -1.00, 810.6, 289.0)">!</text><text xml:space="preserve" font-family="Menlo-Regular,Menlo" font-size="35.0" fill="#000000" transform="matrix(1.00, 0.00, -0.00, -1.00, 831.7, 289.0)">”</text><text xml:space="preserve" font-family="HelveticaNeue-Medium,Helvetica Neue" font-size="62.0" fill="#000000" transform="matrix(1.00, 0.00, -0.00, -1.00, 82.7, 613.0)">E</text><text xml:space="preserve" font-family="HelveticaNeue-Medium,Helvetica Neue" font-size="62.0" fill="#000000" transform="matrix(1.00, 0.00, -0.00, -1.00, 121.8, 613.0)">v</text><text xml:space="preserve" font-family="HelveticaNeue-Medium,Helvetica Neue" font-size="62.0" fill="#000000" transform="matrix(1.00, 0.00, -0.00, -1.00, 154.0, 613.0)">e</text><text xml:space="preserve" font-family="HelveticaNeue-Medium,Helvetica Neue" font-size="62.0" fill="#000000" transform="matrix(1.00, 0.00, -0.00, -1.00, 188.5, 613.0)">r</text><text xml:space="preserve" font-family="HelveticaNeue-Medium,Helvetica Neue" font-size="62.0" fill="#000000" transform="matrix(1.00, 0.00, -0.00, -1.00, 210.3, 613.0)">y</text><text xml:space="preserve" font-family="HelveticaNeue-Medium,Helvetica Neue" font-size="62.0" fill="#000000" transform="matrix(1.00, 0.00, -0.00, -1.00, 242.5, 613.0)">t</text><text xml:space="preserve" font-family="HelveticaNeue-Medium,Helvetica Neue" font-size="62.0" fill="#000000" transform="matrix(1.00, 0.00, -0.00, -1.00, 263.2, 613.0)">h</text><text xml:space="preserve" font-family="HelveticaNeue-Medium,Helvetica Neue" font-size="62.0" fill="#000000" transform="matrix(1.00, 0.00, -0.00, -1.00, 298.8, 613.0)">i</text><text xml:space="preserve" font-family="HelveticaNeue-Medium,Helvetica Neue" font-size="62.0" fill="#000000" transform="matrix(1.00, 0.00, -0.00, -1.00, 313.7, 613.0)">n</text><text xml:space="preserve" font-family="HelveticaNeue-Medium,Helvetica Neue" font-size="62.0" fill="#000000" transform="matrix(1.00, 0.00, -0.00, -1.00, 349.3, 613.0)">g</text><text xml:space="preserve" font-family="HelveticaNeue-Medium,Helvetica Neue" font-size="62.0" fill="#000000" transform="matrix(1.00, 0.00, -0.00, -1.00, 386.1, 613.0)"> </text><text xml:space="preserve" font-family="HelveticaNeue-Medium,Helvetica Neue" font-size="62.0" fill="#000000" transform="matrix(1.00, 0.00, -0.00, -1.00, 403.4, 613.0)">i</text><text xml:space="preserve" font-family="HelveticaNeue-Medium,Helvetica Neue" font-size="62.0" fill="#000000" transform="matrix(1.00, 0.00, -0.00, -1.00, 418.3, 613.0)">s</text><text xml:space="preserve" font-family="HelveticaNeue-Medium,Helvetica Neue" font-size="62.0" fill="#000000" transform="matrix(1.00, 0.00, -0.00, -1.00, 450.5, 613.0)"> </text><text xml:space="preserve" font-family="HelveticaNeue-Medium,Helvetica Neue" font-size="62.0" fill="#000000" transform="matrix(1.00, 0.00, -0.00, -1.00, 467.8, 613.0)">a</text><text xml:space="preserve" font-family="HelveticaNeue-Medium,Helvetica Neue" font-size="62.0" fill="#000000" transform="matrix(1.00, 0.00, -0.00, -1.00, 502.3, 613.0)">n</text><text xml:space="preserve" font-family="HelveticaNeue-Medium,Helvetica Neue" font-size="62.0" fill="#000000" transform="matrix(1.00, 0.00, -0.00, -1.00, 537.9, 613.0)"> </text><text xml:space="preserve" font-family="HelveticaNeue-Medium,Helvetica Neue" font-size="62.0" fill="#000000" transform="matrix(1.00, 0.00, -0.00, -1.00, 555.1, 613.0)">e</text><text xml:space="preserve" font-family="HelveticaNeue-Medium,Helvetica Neue" font-size="62.0" fill="#000000" transform="matrix(1.00, 0.00, -0.00, -1.00, 589.6, 613.0)">x</text><text xml:space="preserve" font-family="HelveticaNeue-Medium,Helvetica Neue" font-size="62.0" fill="#000000" transform="matrix(1.00, 0.00, -0.00, -1.00, 622.9, 613.0)">p</text><text xml:space="preserve" font-family="HelveticaNeue-Medium,Helvetica Neue" font-size="62.0" fill="#000000" transform="matrix(1.00, 0.00, -0.00, -1.00, 660.8, 613.0)">r</text><text xml:space="preserve" font-family="HelveticaNeue-Medium,Helvetica Neue" font-size="62.0" fill="#000000" transform="matrix(1.00, 0.00, -0.00, -1.00, 681.6, 613.0)">e</text><text xml:space="preserve" font-family="HelveticaNeue-Medium,Helvetica Neue" font-size="62.0" fill="#000000" transform="matrix(1.00, 0.00, -0.00, -1.00, 716.1, 613.0)">s</text><text xml:space="preserve" font-family="HelveticaNeue-Medium,Helvetica Neue" font-size="62.0" fill="#000000" transform="matrix(1.00, 0.00, -0.00, -1.00, 748.3, 613.0)">s</text><text xml:space="preserve" font-family="HelveticaNeue-Medium,Helvetica Neue" font-size="62.0" fill="#000000" transform="matrix(1.00, 0.00, -0.00, -1.00, 780.5, 613.0)">i</text><text xml:space="preserve" font-family="HelveticaNeue-Medium,Helvetica Neue" font-size="62.0" fill="#000000" transform="matrix(1.00, 0.00, -0.00, -1.00, 795.4, 613.0)">o</text><text xml:space="preserve" font-family="HelveticaNeue-Medium,Helvetica Neue" font-size="62.0" fill="#000000" transform="matrix(1.00, 0.00, -0.00, -1.00, 832.2, 613.0)">n</text><image xlink:href="../../B487C36D-E658-4F19-B647-040A81FB28F0/assets/793F7FF135A52E535FEA3FC05AAB1AFD.png" width="167.00" height="246.00" transform="matrix(0.25, 0.00, -0.00, -0.25, 952.0, 100.5)"></image></g></svg>