<?xml version="1.0" encoding="UTF-8" standalone="no"?><svg xmlns="http://www.w3.org/2000/svg" xmlns:xlink="http://www.w3.org/1999/xlink" clip-rule="evenodd" stroke-miterlimit="10" viewBox="0 0 31 39"><desc>SVG generated by Keynote</desc><defs><linearGradient id="gradSh1.33" x1="0.0" y1="0.0" x2="100.0" y2="0.0" gradientUnits="userSpaceOnUse" gradientTransform="matrix(0.00, -0.20, -0.19, 0.00, 11.5, 32.0)"><stop offset="0.00000" stop-color="#FF280E"></stop><stop offset="0.00733" stop-color="#FE280E"></stop><stop offset="0.03079" stop-color="#FD2810"></stop><stop offset="0.03446" stop-color="#FC2810"></stop><stop offset="0.39516" stop-color="#E23020"></stop><stop offset="0.40249" stop-color="#E13020"></stop><stop offset="1.00000" stop-color="#B63C3A"></stop></linearGradient></defs><g transform="matrix(1.00, 0.00, -0.00, -1.00, 0.0, 39.0)"><g><clipPath id="clip0x600009aa86a0"><path d="M 1.4 4.5 L 28.6 4.5 L 28.6 32.9 L 1.4 32.9 Z M 1.4 4.5 "></path></clipPath><g clip-path="url(#clip0x600009aa86a0)"><image xlink:href="../../C4648407-32A0-4D73-BDB2-B6B3EF765190/assets/A4FCB1BD14FDD7776FC257579F8BFFBE.png" width="25.00" height="26.00" transform="matrix(1.01, 0.00, -0.00, -1.02, 2.4, 31.9)" opacity="0.50"></image></g></g><g><clipPath id="clip0x600009aa7f20"><path d="M 3.0 31.0 L 20.0 31.0 L 20.0 13.0 L 3.0 13.0 Z M 2.8 31.5 "></path></clipPath><g clip-path="url(#clip0x600009aa7f20)"><g><clipPath id="clip0x600009ea88e0"><path d="M 1.4 4.5 L 28.6 4.5 L 28.6 32.9 L 1.4 32.9 Z M 1.4 4.5 "></path></clipPath><g clip-path="url(#clip0x600009ea88e0)"><path d="M 1.4 4.5 L 28.6 4.5 L 28.6 32.9 L 1.4 32.9 Z M 1.4 4.5 " fill="url(#gradSh1.33)"></path></g></g></g></g><g><clipPath id="clip0x60000a0a8be0"><path d="M 0.1 0.5 L 30.7 0.5 L 30.7 39.0 L 0.1 39.0 Z M 0.1 0.5 "></path></clipPath><g clip-path="url(#clip0x60000a0a8be0)"><image xlink:href="../../FAFFCD48-36AE-41AF-8B5F-667F821EA1C1/assets/868EFD3C3A74B9C329B44542FD3FFBFF.png" width="29.00" height="37.00" transform="matrix(0.99, 0.00, -0.00, -0.99, 1.1, 38.0)" opacity="0.50"></image></g></g><g><clipPath id="clip0x60000a0a8c40"><path d="M 0.5 7.5 L 23.2 7.5 L 23.2 38.6 L 0.5 38.6 Z M 0.5 7.5 "></path></clipPath><g clip-path="url(#clip0x60000a0a8c40)"><text xml:space="preserve" font-family="HelveticaNeue-Medium,Helvetica Neue" font-size="17.0" fill="#FEFFFE" transform="matrix(1.00, 0.00, -0.00, -1.00, 6.0, 16.7)">∆</text></g></g></g></svg>