<?xml version="1.0" encoding="UTF-8" standalone="no"?><svg xmlns="http://www.w3.org/2000/svg" xmlns:xlink="http://www.w3.org/1999/xlink" clip-rule="evenodd" stroke-miterlimit="10" viewBox="0 0 707 44"><desc>SVG generated by Keynote</desc><defs></defs><g transform="matrix(1.00, 0.00, -0.00, -1.00, 0.0, 44.0)"><text xml:space="preserve" font-family="Menlo-Regular,Menlo" font-size="38.0" fill="#000000" transform="matrix(1.00, 0.00, -0.00, -1.00, -1.1, 10.1)">c</text><text xml:space="preserve" font-family="Menlo-Regular,Menlo" font-size="38.0" fill="#000000" transform="matrix(1.00, 0.00, -0.00, -1.00, 21.7, 10.1)">h</text><text xml:space="preserve" font-family="Menlo-Regular,Menlo" font-size="38.0" fill="#000000" transform="matrix(1.00, 0.00, -0.00, -1.00, 44.6, 10.1)"> </text><text xml:space="preserve" font-family="Menlo-Regular,Menlo" font-size="38.0" fill="#000000" transform="matrix(1.00, 0.00, -0.00, -1.00, 67.5, 10.1)">=</text><text xml:space="preserve" font-family="Menlo-Regular,Menlo" font-size="38.0" fill="#000000" transform="matrix(1.00, 0.00, -0.00, -1.00, 90.4, 10.1)">&gt;</text><text xml:space="preserve" font-family="Menlo-Regular,Menlo" font-size="38.0" fill="#000000" transform="matrix(1.00, 0.00, -0.00, -1.00, 113.3, 10.1)"> </text><text xml:space="preserve" font-family="Menlo-Regular,Menlo" font-size="38.0" fill="#000000" transform="matrix(1.00, 0.00, -0.00, -1.00, 136.1, 10.1)">{</text><text xml:space="preserve" font-family="Menlo-Regular,Menlo" font-size="38.0" fill="#000000" transform="matrix(1.00, 0.00, -0.00, -1.00, 159.0, 10.1)"> </text><text xml:space="preserve" font-family="Menlo-Regular,Menlo" font-size="38.0" fill="#000000" transform="matrix(1.00, 0.00, -0.00, -1.00, 181.9, 10.1)">C</text><text xml:space="preserve" font-family="Menlo-Regular,Menlo" font-size="38.0" fill="#000000" transform="matrix(1.00, 0.00, -0.00, -1.00, 204.8, 10.1)">h</text><text xml:space="preserve" font-family="Menlo-Regular,Menlo" font-size="38.0" fill="#000000" transform="matrix(1.00, 0.00, -0.00, -1.00, 227.7, 10.1)">a</text><text xml:space="preserve" font-family="Menlo-Regular,Menlo" font-size="38.0" fill="#000000" transform="matrix(1.00, 0.00, -0.00, -1.00, 250.6, 10.1)">r</text><text xml:space="preserve" font-family="Menlo-Regular,Menlo" font-size="38.0" fill="#000000" transform="matrix(1.00, 0.00, -0.00, -1.00, 273.4, 10.1)">a</text><text xml:space="preserve" font-family="Menlo-Regular,Menlo" font-size="38.0" fill="#000000" transform="matrix(1.00, 0.00, -0.00, -1.00, 296.3, 10.1)">c</text><text xml:space="preserve" font-family="Menlo-Regular,Menlo" font-size="38.0" fill="#000000" transform="matrix(1.00, 0.00, -0.00, -1.00, 319.2, 10.1)">t</text><text xml:space="preserve" font-family="Menlo-Regular,Menlo" font-size="38.0" fill="#000000" transform="matrix(1.00, 0.00, -0.00, -1.00, 342.1, 10.1)">e</text><text xml:space="preserve" font-family="Menlo-Regular,Menlo" font-size="38.0" fill="#000000" transform="matrix(1.00, 0.00, -0.00, -1.00, 365.0, 10.1)">r</text><text xml:space="preserve" font-family="Menlo-Regular,Menlo" font-size="38.0" fill="#000000" transform="matrix(1.00, 0.00, -0.00, -1.00, 387.8, 10.1)">.</text><text xml:space="preserve" font-family="Menlo-Regular,Menlo" font-size="38.0" fill="#000000" transform="matrix(1.00, 0.00, -0.00, -1.00, 410.7, 10.1)">i</text><text xml:space="preserve" font-family="Menlo-Regular,Menlo" font-size="38.0" fill="#000000" transform="matrix(1.00, 0.00, -0.00, -1.00, 433.6, 10.1)">s</text><text xml:space="preserve" font-family="Menlo-Regular,Menlo" font-size="38.0" fill="#000000" transform="matrix(1.00, 0.00, -0.00, -1.00, 456.5, 10.1)">D</text><text xml:space="preserve" font-family="Menlo-Regular,Menlo" font-size="38.0" fill="#000000" transform="matrix(1.00, 0.00, -0.00, -1.00, 479.4, 10.1)">i</text><text xml:space="preserve" font-family="Menlo-Regular,Menlo" font-size="38.0" fill="#000000" transform="matrix(1.00, 0.00, -0.00, -1.00, 502.3, 10.1)">g</text><text xml:space="preserve" font-family="Menlo-Regular,Menlo" font-size="38.0" fill="#000000" transform="matrix(1.00, 0.00, -0.00, -1.00, 525.1, 10.1)">i</text><text xml:space="preserve" font-family="Menlo-Regular,Menlo" font-size="38.0" fill="#000000" transform="matrix(1.00, 0.00, -0.00, -1.00, 548.0, 10.1)">t</text><text xml:space="preserve" font-family="Menlo-Regular,Menlo" font-size="38.0" fill="#000000" transform="matrix(1.00, 0.00, -0.00, -1.00, 570.8, 10.1)">(</text><text xml:space="preserve" font-family="Menlo-Regular,Menlo" font-size="38.0" fill="#000000" transform="matrix(1.00, 0.00, -0.00, -1.00, 593.7, 10.1)">c</text><text xml:space="preserve" font-family="Menlo-Regular,Menlo" font-size="38.0" fill="#000000" transform="matrix(1.00, 0.00, -0.00, -1.00, 616.6, 10.1)">h</text><text xml:space="preserve" font-family="Menlo-Regular,Menlo" font-size="38.0" fill="#000000" transform="matrix(1.00, 0.00, -0.00, -1.00, 639.5, 10.1)">)</text><text xml:space="preserve" font-family="Menlo-Regular,Menlo" font-size="38.0" fill="#000000" transform="matrix(1.00, 0.00, -0.00, -1.00, 662.3, 10.1)"> </text><text xml:space="preserve" font-family="Menlo-Regular,Menlo" font-size="38.0" fill="#000000" transform="matrix(1.00, 0.00, -0.00, -1.00, 685.2, 10.1)">}</text></g></svg>