<?xml version="1.0" encoding="UTF-8" standalone="no"?><svg xmlns="http://www.w3.org/2000/svg" xmlns:xlink="http://www.w3.org/1999/xlink" clip-rule="evenodd" stroke-miterlimit="10" viewBox="0 0 1024 768"><desc>SVG generated by Keynote</desc><defs></defs><g transform="matrix(1.00, 0.00, -0.00, -1.00, 0.0, 768.0)"><path d="M 0.0 768.0 L 1024.0 768.0 L 1024.0 0.0 L 0.0 0.0 Z M 0.0 768.0 " fill="#FEFFFE"></path><text xml:space="preserve" font-family="Menlo-Regular,Menlo" font-size="38.0" fill="#000000" transform="matrix(1.00, 0.00, -0.00, -1.00, 138.1, 667.7)">t</text><text xml:space="preserve" font-family="Menlo-Regular,Menlo" font-size="38.0" fill="#000000" transform="matrix(1.00, 0.00, -0.00, -1.00, 160.9, 667.7)">e</text><text xml:space="preserve" font-family="Menlo-Regular,Menlo" font-size="38.0" fill="#000000" transform="matrix(1.00, 0.00, -0.00, -1.00, 183.8, 667.7)">x</text><text xml:space="preserve" font-family="Menlo-Regular,Menlo" font-size="38.0" fill="#000000" transform="matrix(1.00, 0.00, -0.00, -1.00, 206.7, 667.7)">t</text><text xml:space="preserve" font-family="Menlo-Regular,Menlo" font-size="38.0" fill="#000000" transform="matrix(1.00, 0.00, -0.00, -1.00, 229.6, 667.7)"> </text><text xml:space="preserve" font-family="Menlo-Regular,Menlo" font-size="38.0" fill="#000000" transform="matrix(1.00, 0.00, -0.00, -1.00, 252.5, 667.7)">f</text><text xml:space="preserve" font-family="Menlo-Regular,Menlo" font-size="38.0" fill="#000000" transform="matrix(1.00, 0.00, -0.00, -1.00, 275.3, 667.7)">o</text><text xml:space="preserve" font-family="Menlo-Regular,Menlo" font-size="38.0" fill="#000000" transform="matrix(1.00, 0.00, -0.00, -1.00, 298.2, 667.7)">r</text><text xml:space="preserve" font-family="Menlo-Regular,Menlo" font-size="38.0" fill="#000000" transform="matrix(1.00, 0.00, -0.00, -1.00, 321.1, 667.7)">a</text><text xml:space="preserve" font-family="Menlo-Regular,Menlo" font-size="38.0" fill="#000000" transform="matrix(1.00, 0.00, -0.00, -1.00, 344.0, 667.7)">l</text><text xml:space="preserve" font-family="Menlo-Regular,Menlo" font-size="38.0" fill="#000000" transform="matrix(1.00, 0.00, -0.00, -1.00, 366.9, 667.7)">l</text><text xml:space="preserve" font-family="Menlo-Regular,Menlo" font-size="38.0" fill="#000000" transform="matrix(1.00, 0.00, -0.00, -1.00, 389.7, 667.7)"> </text><text xml:space="preserve" font-family="Menlo-Regular,Menlo" font-size="38.0" fill="#000000" transform="matrix(1.00, 0.00, -0.00, -1.00, 412.6, 667.7)">C</text><text xml:space="preserve" font-family="Menlo-Regular,Menlo" font-size="38.0" fill="#000000" transform="matrix(1.00, 0.00, -0.00, -1.00, 435.5, 667.7)">h</text><text xml:space="preserve" font-family="Menlo-Regular,Menlo" font-size="38.0" fill="#000000" transform="matrix(1.00, 0.00, -0.00, -1.00, 458.4, 667.7)">a</text><text xml:space="preserve" font-family="Menlo-Regular,Menlo" font-size="38.0" fill="#000000" transform="matrix(1.00, 0.00, -0.00, -1.00, 481.3, 667.7)">r</text><text xml:space="preserve" font-family="Menlo-Regular,Menlo" font-size="38.0" fill="#000000" transform="matrix(1.00, 0.00, -0.00, -1.00, 504.2, 667.7)">a</text><text xml:space="preserve" font-family="Menlo-Regular,Menlo" font-size="38.0" fill="#000000" transform="matrix(1.00, 0.00, -0.00, -1.00, 527.0, 667.7)">c</text><text xml:space="preserve" font-family="Menlo-Regular,Menlo" font-size="38.0" fill="#000000" transform="matrix(1.00, 0.00, -0.00, -1.00, 549.9, 667.7)">t</text><text xml:space="preserve" font-family="Menlo-Regular,Menlo" font-size="38.0" fill="#000000" transform="matrix(1.00, 0.00, -0.00, -1.00, 572.8, 667.7)">e</text><text xml:space="preserve" font-family="Menlo-Regular,Menlo" font-size="38.0" fill="#000000" transform="matrix(1.00, 0.00, -0.00, -1.00, 595.7, 667.7)">r</text><text xml:space="preserve" font-family="Menlo-Regular,Menlo" font-size="38.0" fill="#000000" transform="matrix(1.00, 0.00, -0.00, -1.00, 618.6, 667.7)">.</text><text xml:space="preserve" font-family="Menlo-Regular,Menlo" font-size="38.0" fill="#000000" transform="matrix(1.00, 0.00, -0.00, -1.00, 641.4, 667.7)">i</text><text xml:space="preserve" font-family="Menlo-Regular,Menlo" font-size="38.0" fill="#000000" transform="matrix(1.00, 0.00, -0.00, -1.00, 664.3, 667.7)">s</text><text xml:space="preserve" font-family="Menlo-Regular,Menlo" font-size="38.0" fill="#000000" transform="matrix(1.00, 0.00, -0.00, -1.00, 687.2, 667.7)">D</text><text xml:space="preserve" font-family="Menlo-Regular,Menlo" font-size="38.0" fill="#000000" transform="matrix(1.00, 0.00, -0.00, -1.00, 710.1, 667.7)">i</text><text xml:space="preserve" font-family="Menlo-Regular,Menlo" font-size="38.0" fill="#000000" transform="matrix(1.00, 0.00, -0.00, -1.00, 733.0, 667.7)">g</text><text xml:space="preserve" font-family="Menlo-Regular,Menlo" font-size="38.0" fill="#000000" transform="matrix(1.00, 0.00, -0.00, -1.00, 755.9, 667.7)">i</text><text xml:space="preserve" font-family="Menlo-Regular,Menlo" font-size="38.0" fill="#000000" transform="matrix(1.00, 0.00, -0.00, -1.00, 778.7, 667.7)">t</text><image xlink:href="../../B487C36D-E658-4F19-B647-040A81FB28F0/assets/793F7FF135A52E535FEA3FC05AAB1AFD.png" width="167.00" height="246.00" transform="matrix(0.25, 0.00, -0.00, -0.25, 952.0, 100.5)"></image><text xml:space="preserve" font-family="HelveticaNeue-Light,Helvetica Neue" font-size="35.0" fill="#000000" transform="matrix(1.00, 0.00, -0.00, -1.00, 358.7, 596.2)">i</text><text xml:space="preserve" font-family="HelveticaNeue-Light,Helvetica Neue" font-size="35.0" fill="#000000" transform="matrix(1.00, 0.00, -0.00, -1.00, 365.2, 596.2)">s</text><text xml:space="preserve" font-family="HelveticaNeue-Light,Helvetica Neue" font-size="35.0" fill="#000000" transform="matrix(1.00, 0.00, -0.00, -1.00, 382.0, 596.2)"> </text><text xml:space="preserve" font-family="HelveticaNeue-Light,Helvetica Neue" font-size="35.0" fill="#000000" transform="matrix(1.00, 0.00, -0.00, -1.00, 391.7, 596.2)">t</text><text xml:space="preserve" font-family="HelveticaNeue-Light,Helvetica Neue" font-size="35.0" fill="#000000" transform="matrix(1.00, 0.00, -0.00, -1.00, 402.1, 596.2)">h</text><text xml:space="preserve" font-family="HelveticaNeue-Light,Helvetica Neue" font-size="35.0" fill="#000000" transform="matrix(1.00, 0.00, -0.00, -1.00, 420.9, 596.2)">e</text><text xml:space="preserve" font-family="HelveticaNeue-Light,Helvetica Neue" font-size="35.0" fill="#000000" transform="matrix(1.00, 0.00, -0.00, -1.00, 439.1, 596.2)"> </text><text xml:space="preserve" font-family="HelveticaNeue-Light,Helvetica Neue" font-size="35.0" fill="#000000" transform="matrix(1.00, 0.00, -0.00, -1.00, 448.8, 596.2)">s</text><text xml:space="preserve" font-family="HelveticaNeue-Light,Helvetica Neue" font-size="35.0" fill="#000000" transform="matrix(1.00, 0.00, -0.00, -1.00, 465.6, 596.2)">a</text><text xml:space="preserve" font-family="HelveticaNeue-Light,Helvetica Neue" font-size="35.0" fill="#000000" transform="matrix(1.00, 0.00, -0.00, -1.00, 483.8, 596.2)">m</text><text xml:space="preserve" font-family="HelveticaNeue-Light,Helvetica Neue" font-size="35.0" fill="#000000" transform="matrix(1.00, 0.00, -0.00, -1.00, 512.9, 596.2)">e</text><text xml:space="preserve" font-family="HelveticaNeue-Light,Helvetica Neue" font-size="35.0" fill="#000000" transform="matrix(1.00, 0.00, -0.00, -1.00, 531.1, 596.2)"> </text><text xml:space="preserve" font-family="HelveticaNeue-Light,Helvetica Neue" font-size="35.0" fill="#000000" transform="matrix(1.00, 0.00, -0.00, -1.00, 540.8, 596.2)">a</text><text xml:space="preserve" font-family="HelveticaNeue-Light,Helvetica Neue" font-size="35.0" fill="#000000" transform="matrix(1.00, 0.00, -0.00, -1.00, 559.0, 596.2)">s</text><text xml:space="preserve" font-family="Menlo-Regular,Menlo" font-size="38.0" fill="#000000" transform="matrix(1.00, 0.00, -0.00, -1.00, 138.1, 519.7)">t</text><text xml:space="preserve" font-family="Menlo-Regular,Menlo" font-size="38.0" fill="#000000" transform="matrix(1.00, 0.00, -0.00, -1.00, 160.9, 519.7)">e</text><text xml:space="preserve" font-family="Menlo-Regular,Menlo" font-size="38.0" fill="#000000" transform="matrix(1.00, 0.00, -0.00, -1.00, 183.8, 519.7)">x</text><text xml:space="preserve" font-family="Menlo-Regular,Menlo" font-size="38.0" fill="#000000" transform="matrix(1.00, 0.00, -0.00, -1.00, 206.7, 519.7)">t</text><text xml:space="preserve" font-family="Menlo-Regular,Menlo" font-size="38.0" fill="#000000" transform="matrix(1.00, 0.00, -0.00, -1.00, 229.6, 519.7)">.</text><text xml:space="preserve" font-family="Menlo-Regular,Menlo" font-size="38.0" fill="#000000" transform="matrix(1.00, 0.00, -0.00, -1.00, 252.5, 519.7)">f</text><text xml:space="preserve" font-family="Menlo-Regular,Menlo" font-size="38.0" fill="#000000" transform="matrix(1.00, 0.00, -0.00, -1.00, 275.3, 519.7)">o</text><text xml:space="preserve" font-family="Menlo-Regular,Menlo" font-size="38.0" fill="#000000" transform="matrix(1.00, 0.00, -0.00, -1.00, 298.2, 519.7)">r</text><text xml:space="preserve" font-family="Menlo-Regular,Menlo" font-size="38.0" fill="#000000" transform="matrix(1.00, 0.00, -0.00, -1.00, 321.1, 519.7)">a</text><text xml:space="preserve" font-family="Menlo-Regular,Menlo" font-size="38.0" fill="#000000" transform="matrix(1.00, 0.00, -0.00, -1.00, 344.0, 519.7)">l</text><text xml:space="preserve" font-family="Menlo-Regular,Menlo" font-size="38.0" fill="#000000" transform="matrix(1.00, 0.00, -0.00, -1.00, 366.9, 519.7)">l</text><text xml:space="preserve" font-family="Menlo-Regular,Menlo" font-size="38.0" fill="#000000" transform="matrix(1.00, 0.00, -0.00, -1.00, 389.7, 519.7)">(</text><text xml:space="preserve" font-family="Menlo-Regular,Menlo" font-size="38.0" fill="#000000" transform="matrix(1.00, 0.00, -0.00, -1.00, 412.6, 519.7)">C</text><text xml:space="preserve" font-family="Menlo-Regular,Menlo" font-size="38.0" fill="#000000" transform="matrix(1.00, 0.00, -0.00, -1.00, 435.5, 519.7)">h</text><text xml:space="preserve" font-family="Menlo-Regular,Menlo" font-size="38.0" fill="#000000" transform="matrix(1.00, 0.00, -0.00, -1.00, 458.4, 519.7)">a</text><text xml:space="preserve" font-family="Menlo-Regular,Menlo" font-size="38.0" fill="#000000" transform="matrix(1.00, 0.00, -0.00, -1.00, 481.3, 519.7)">r</text><text xml:space="preserve" font-family="Menlo-Regular,Menlo" font-size="38.0" fill="#000000" transform="matrix(1.00, 0.00, -0.00, -1.00, 504.2, 519.7)">a</text><text xml:space="preserve" font-family="Menlo-Regular,Menlo" font-size="38.0" fill="#000000" transform="matrix(1.00, 0.00, -0.00, -1.00, 527.0, 519.7)">c</text><text xml:space="preserve" font-family="Menlo-Regular,Menlo" font-size="38.0" fill="#000000" transform="matrix(1.00, 0.00, -0.00, -1.00, 549.9, 519.7)">t</text><text xml:space="preserve" font-family="Menlo-Regular,Menlo" font-size="38.0" fill="#000000" transform="matrix(1.00, 0.00, -0.00, -1.00, 572.8, 519.7)">e</text><text xml:space="preserve" font-family="Menlo-Regular,Menlo" font-size="38.0" fill="#000000" transform="matrix(1.00, 0.00, -0.00, -1.00, 595.7, 519.7)">r</text><text xml:space="preserve" font-family="Menlo-Regular,Menlo" font-size="38.0" fill="#000000" transform="matrix(1.00, 0.00, -0.00, -1.00, 618.6, 519.7)">.</text><text xml:space="preserve" font-family="Menlo-Regular,Menlo" font-size="38.0" fill="#000000" transform="matrix(1.00, 0.00, -0.00, -1.00, 641.4, 519.7)">i</text><text xml:space="preserve" font-family="Menlo-Regular,Menlo" font-size="38.0" fill="#000000" transform="matrix(1.00, 0.00, -0.00, -1.00, 664.3, 519.7)">s</text><text xml:space="preserve" font-family="Menlo-Regular,Menlo" font-size="38.0" fill="#000000" transform="matrix(1.00, 0.00, -0.00, -1.00, 687.2, 519.7)">D</text><text xml:space="preserve" font-family="Menlo-Regular,Menlo" font-size="38.0" fill="#000000" transform="matrix(1.00, 0.00, -0.00, -1.00, 710.1, 519.7)">i</text><text xml:space="preserve" font-family="Menlo-Regular,Menlo" font-size="38.0" fill="#000000" transform="matrix(1.00, 0.00, -0.00, -1.00, 733.0, 519.7)">g</text><text xml:space="preserve" font-family="Menlo-Regular,Menlo" font-size="38.0" fill="#000000" transform="matrix(1.00, 0.00, -0.00, -1.00, 755.9, 519.7)">i</text><text xml:space="preserve" font-family="Menlo-Regular,Menlo" font-size="38.0" fill="#000000" transform="matrix(1.00, 0.00, -0.00, -1.00, 778.7, 519.7)">t</text><text xml:space="preserve" font-family="Menlo-Regular,Menlo" font-size="38.0" fill="#000000" transform="matrix(1.00, 0.00, -0.00, -1.00, 801.5, 519.7)">(</text><text xml:space="preserve" font-family="Menlo-Regular,Menlo" font-size="38.0" fill="#000000" transform="matrix(1.00, 0.00, -0.00, -1.00, 824.4, 519.7)">_</text><text xml:space="preserve" font-family="Menlo-Regular,Menlo" font-size="38.0" fill="#000000" transform="matrix(1.00, 0.00, -0.00, -1.00, 847.3, 519.7)">)</text><text xml:space="preserve" font-family="Menlo-Regular,Menlo" font-size="38.0" fill="#000000" transform="matrix(1.00, 0.00, -0.00, -1.00, 870.2, 519.7)">)</text><text xml:space="preserve" font-family="HelveticaNeue-Light,Helvetica Neue" font-size="35.0" fill="#000000" transform="matrix(1.00, 0.00, -0.00, -1.00, 358.7, 452.2)">i</text><text xml:space="preserve" font-family="HelveticaNeue-Light,Helvetica Neue" font-size="35.0" fill="#000000" transform="matrix(1.00, 0.00, -0.00, -1.00, 365.2, 452.2)">s</text><text xml:space="preserve" font-family="HelveticaNeue-Light,Helvetica Neue" font-size="35.0" fill="#000000" transform="matrix(1.00, 0.00, -0.00, -1.00, 382.0, 452.2)"> </text><text xml:space="preserve" font-family="HelveticaNeue-Light,Helvetica Neue" font-size="35.0" fill="#000000" transform="matrix(1.00, 0.00, -0.00, -1.00, 391.7, 452.2)">t</text><text xml:space="preserve" font-family="HelveticaNeue-Light,Helvetica Neue" font-size="35.0" fill="#000000" transform="matrix(1.00, 0.00, -0.00, -1.00, 402.1, 452.2)">h</text><text xml:space="preserve" font-family="HelveticaNeue-Light,Helvetica Neue" font-size="35.0" fill="#000000" transform="matrix(1.00, 0.00, -0.00, -1.00, 420.9, 452.2)">e</text><text xml:space="preserve" font-family="HelveticaNeue-Light,Helvetica Neue" font-size="35.0" fill="#000000" transform="matrix(1.00, 0.00, -0.00, -1.00, 439.1, 452.2)"> </text><text xml:space="preserve" font-family="HelveticaNeue-Light,Helvetica Neue" font-size="35.0" fill="#000000" transform="matrix(1.00, 0.00, -0.00, -1.00, 448.8, 452.2)">s</text><text xml:space="preserve" font-family="HelveticaNeue-Light,Helvetica Neue" font-size="35.0" fill="#000000" transform="matrix(1.00, 0.00, -0.00, -1.00, 465.6, 452.2)">a</text><text xml:space="preserve" font-family="HelveticaNeue-Light,Helvetica Neue" font-size="35.0" fill="#000000" transform="matrix(1.00, 0.00, -0.00, -1.00, 483.8, 452.2)">m</text><text xml:space="preserve" font-family="HelveticaNeue-Light,Helvetica Neue" font-size="35.0" fill="#000000" transform="matrix(1.00, 0.00, -0.00, -1.00, 512.9, 452.2)">e</text><text xml:space="preserve" font-family="HelveticaNeue-Light,Helvetica Neue" font-size="35.0" fill="#000000" transform="matrix(1.00, 0.00, -0.00, -1.00, 531.1, 452.2)"> </text><text xml:space="preserve" font-family="HelveticaNeue-Light,Helvetica Neue" font-size="35.0" fill="#000000" transform="matrix(1.00, 0.00, -0.00, -1.00, 540.8, 452.2)">a</text><text xml:space="preserve" font-family="HelveticaNeue-Light,Helvetica Neue" font-size="35.0" fill="#000000" transform="matrix(1.00, 0.00, -0.00, -1.00, 559.0, 452.2)">s</text><text xml:space="preserve" font-family="Menlo-Regular,Menlo" font-size="38.0" fill="#000000" transform="matrix(1.00, 0.00, -0.00, -1.00, 59.1, 375.7)">t</text><text xml:space="preserve" font-family="Menlo-Regular,Menlo" font-size="38.0" fill="#000000" transform="matrix(1.00, 0.00, -0.00, -1.00, 81.9, 375.7)">e</text><text xml:space="preserve" font-family="Menlo-Regular,Menlo" font-size="38.0" fill="#000000" transform="matrix(1.00, 0.00, -0.00, -1.00, 104.8, 375.7)">x</text><text xml:space="preserve" font-family="Menlo-Regular,Menlo" font-size="38.0" fill="#000000" transform="matrix(1.00, 0.00, -0.00, -1.00, 127.7, 375.7)">t</text><text xml:space="preserve" font-family="Menlo-Regular,Menlo" font-size="38.0" fill="#000000" transform="matrix(1.00, 0.00, -0.00, -1.00, 150.6, 375.7)">.</text><text xml:space="preserve" font-family="Menlo-Regular,Menlo" font-size="38.0" fill="#000000" transform="matrix(1.00, 0.00, -0.00, -1.00, 173.5, 375.7)">f</text><text xml:space="preserve" font-family="Menlo-Regular,Menlo" font-size="38.0" fill="#000000" transform="matrix(1.00, 0.00, -0.00, -1.00, 196.3, 375.7)">o</text><text xml:space="preserve" font-family="Menlo-Regular,Menlo" font-size="38.0" fill="#000000" transform="matrix(1.00, 0.00, -0.00, -1.00, 219.2, 375.7)">r</text><text xml:space="preserve" font-family="Menlo-Regular,Menlo" font-size="38.0" fill="#000000" transform="matrix(1.00, 0.00, -0.00, -1.00, 242.1, 375.7)">a</text><text xml:space="preserve" font-family="Menlo-Regular,Menlo" font-size="38.0" fill="#000000" transform="matrix(1.00, 0.00, -0.00, -1.00, 265.0, 375.7)">l</text><text xml:space="preserve" font-family="Menlo-Regular,Menlo" font-size="38.0" fill="#000000" transform="matrix(1.00, 0.00, -0.00, -1.00, 287.9, 375.7)">l</text><text xml:space="preserve" font-family="Menlo-Regular,Menlo" font-size="38.0" fill="#000000" transform="matrix(1.00, 0.00, -0.00, -1.00, 310.7, 375.7)">(</text><text xml:space="preserve" font-family="Menlo-Regular,Menlo" font-size="38.0" fill="#000000" transform="matrix(1.00, 0.00, -0.00, -1.00, 333.6, 375.7)">c</text><text xml:space="preserve" font-family="Menlo-Regular,Menlo" font-size="38.0" fill="#000000" transform="matrix(1.00, 0.00, -0.00, -1.00, 356.5, 375.7)">h</text><text xml:space="preserve" font-family="Menlo-Regular,Menlo" font-size="38.0" fill="#000000" transform="matrix(1.00, 0.00, -0.00, -1.00, 379.4, 375.7)"> </text><text xml:space="preserve" font-family="Menlo-Regular,Menlo" font-size="38.0" fill="#000000" transform="matrix(1.00, 0.00, -0.00, -1.00, 402.3, 375.7)">=</text><text xml:space="preserve" font-family="Menlo-Regular,Menlo" font-size="38.0" fill="#000000" transform="matrix(1.00, 0.00, -0.00, -1.00, 425.2, 375.7)">&gt;</text><text xml:space="preserve" font-family="Menlo-Regular,Menlo" font-size="38.0" fill="#000000" transform="matrix(1.00, 0.00, -0.00, -1.00, 448.0, 375.7)"> </text><text xml:space="preserve" font-family="Menlo-Regular,Menlo" font-size="38.0" fill="#000000" transform="matrix(1.00, 0.00, -0.00, -1.00, 470.9, 375.7)">C</text><text xml:space="preserve" font-family="Menlo-Regular,Menlo" font-size="38.0" fill="#000000" transform="matrix(1.00, 0.00, -0.00, -1.00, 493.8, 375.7)">h</text><text xml:space="preserve" font-family="Menlo-Regular,Menlo" font-size="38.0" fill="#000000" transform="matrix(1.00, 0.00, -0.00, -1.00, 516.7, 375.7)">a</text><text xml:space="preserve" font-family="Menlo-Regular,Menlo" font-size="38.0" fill="#000000" transform="matrix(1.00, 0.00, -0.00, -1.00, 539.6, 375.7)">r</text><text xml:space="preserve" font-family="Menlo-Regular,Menlo" font-size="38.0" fill="#000000" transform="matrix(1.00, 0.00, -0.00, -1.00, 562.4, 375.7)">a</text><text xml:space="preserve" font-family="Menlo-Regular,Menlo" font-size="38.0" fill="#000000" transform="matrix(1.00, 0.00, -0.00, -1.00, 585.3, 375.7)">c</text><text xml:space="preserve" font-family="Menlo-Regular,Menlo" font-size="38.0" fill="#000000" transform="matrix(1.00, 0.00, -0.00, -1.00, 608.2, 375.7)">t</text><text xml:space="preserve" font-family="Menlo-Regular,Menlo" font-size="38.0" fill="#000000" transform="matrix(1.00, 0.00, -0.00, -1.00, 631.1, 375.7)">e</text><text xml:space="preserve" font-family="Menlo-Regular,Menlo" font-size="38.0" fill="#000000" transform="matrix(1.00, 0.00, -0.00, -1.00, 654.0, 375.7)">r</text><text xml:space="preserve" font-family="Menlo-Regular,Menlo" font-size="38.0" fill="#000000" transform="matrix(1.00, 0.00, -0.00, -1.00, 676.9, 375.7)">.</text><text xml:space="preserve" font-family="Menlo-Regular,Menlo" font-size="38.0" fill="#000000" transform="matrix(1.00, 0.00, -0.00, -1.00, 699.7, 375.7)">i</text><text xml:space="preserve" font-family="Menlo-Regular,Menlo" font-size="38.0" fill="#000000" transform="matrix(1.00, 0.00, -0.00, -1.00, 722.6, 375.7)">s</text><text xml:space="preserve" font-family="Menlo-Regular,Menlo" font-size="38.0" fill="#000000" transform="matrix(1.00, 0.00, -0.00, -1.00, 745.5, 375.7)">D</text><text xml:space="preserve" font-family="Menlo-Regular,Menlo" font-size="38.0" fill="#000000" transform="matrix(1.00, 0.00, -0.00, -1.00, 768.4, 375.7)">i</text><text xml:space="preserve" font-family="Menlo-Regular,Menlo" font-size="38.0" fill="#000000" transform="matrix(1.00, 0.00, -0.00, -1.00, 791.3, 375.7)">g</text><text xml:space="preserve" font-family="Menlo-Regular,Menlo" font-size="38.0" fill="#000000" transform="matrix(1.00, 0.00, -0.00, -1.00, 814.1, 375.7)">i</text><text xml:space="preserve" font-family="Menlo-Regular,Menlo" font-size="38.0" fill="#000000" transform="matrix(1.00, 0.00, -0.00, -1.00, 837.0, 375.7)">t</text><text xml:space="preserve" font-family="Menlo-Regular,Menlo" font-size="38.0" fill="#000000" transform="matrix(1.00, 0.00, -0.00, -1.00, 859.8, 375.7)">(</text><text xml:space="preserve" font-family="Menlo-Regular,Menlo" font-size="38.0" fill="#000000" transform="matrix(1.00, 0.00, -0.00, -1.00, 882.7, 375.7)">c</text><text xml:space="preserve" font-family="Menlo-Regular,Menlo" font-size="38.0" fill="#000000" transform="matrix(1.00, 0.00, -0.00, -1.00, 905.5, 375.7)">h</text><text xml:space="preserve" font-family="Menlo-Regular,Menlo" font-size="38.0" fill="#000000" transform="matrix(1.00, 0.00, -0.00, -1.00, 928.4, 375.7)">)</text><text xml:space="preserve" font-family="Menlo-Regular,Menlo" font-size="38.0" fill="#000000" transform="matrix(1.00, 0.00, -0.00, -1.00, 951.3, 375.7)">)</text><image xlink:href="../../7A682B6E-FB03-41FE-977E-869220D3C4E8/assets/EB9498D25DF1B3A583851F99050B3C47.png" width="861.00" height="150.00" transform="matrix(1.00, 0.00, -0.00, -1.00, 209.6, 433.9)" opacity="0.75"></image><path d="M 0.4 -0.1 L 620.4 -0.1 " fill="none" stroke="#DBA486" stroke-width="4.00" transform="matrix(1.00, 0.00, 0.00, -1.00, 329.6, 360.9)"></path><text xml:space="preserve" font-family="HelveticaNeue-LightItalic,Helvetica Neue" font-style="italic" font-size="35.0" fill="#000000" transform="matrix(1.00, 0.00, -0.00, -1.00, 504.7, 321.2)">f</text><text xml:space="preserve" font-family="HelveticaNeue-LightItalic,Helvetica Neue" font-style="italic" font-size="35.0" fill="#000000" transform="matrix(1.00, 0.00, -0.00, -1.00, 513.8, 321.2)">u</text><text xml:space="preserve" font-family="HelveticaNeue-LightItalic,Helvetica Neue" font-style="italic" font-size="35.0" fill="#000000" transform="matrix(1.00, 0.00, -0.00, -1.00, 532.6, 321.2)">n</text><text xml:space="preserve" font-family="HelveticaNeue-LightItalic,Helvetica Neue" font-style="italic" font-size="35.0" fill="#000000" transform="matrix(1.00, 0.00, -0.00, -1.00, 551.3, 321.2)">c</text><text xml:space="preserve" font-family="HelveticaNeue-LightItalic,Helvetica Neue" font-style="italic" font-size="35.0" fill="#000000" transform="matrix(1.00, 0.00, -0.00, -1.00, 569.5, 321.2)">t</text><text xml:space="preserve" font-family="HelveticaNeue-LightItalic,Helvetica Neue" font-style="italic" font-size="35.0" fill="#000000" transform="matrix(1.00, 0.00, -0.00, -1.00, 579.9, 321.2)">i</text><text xml:space="preserve" font-family="HelveticaNeue-LightItalic,Helvetica Neue" font-style="italic" font-size="35.0" fill="#000000" transform="matrix(1.00, 0.00, -0.00, -1.00, 586.3, 321.2)">o</text><text xml:space="preserve" font-family="HelveticaNeue-LightItalic,Helvetica Neue" font-style="italic" font-size="35.0" fill="#000000" transform="matrix(1.00, 0.00, -0.00, -1.00, 605.8, 321.2)">n</text><text xml:space="preserve" font-family="HelveticaNeue-LightItalic,Helvetica Neue" font-style="italic" font-size="35.0" fill="#000000" transform="matrix(1.00, 0.00, -0.00, -1.00, 624.6, 321.2)"> </text><text xml:space="preserve" font-family="HelveticaNeue-LightItalic,Helvetica Neue" font-style="italic" font-size="35.0" fill="#000000" transform="matrix(1.00, 0.00, -0.00, -1.00, 634.3, 321.2)">l</text><text xml:space="preserve" font-family="HelveticaNeue-LightItalic,Helvetica Neue" font-style="italic" font-size="35.0" fill="#000000" transform="matrix(1.00, 0.00, -0.00, -1.00, 640.8, 321.2)">i</text><text xml:space="preserve" font-family="HelveticaNeue-LightItalic,Helvetica Neue" font-style="italic" font-size="35.0" fill="#000000" transform="matrix(1.00, 0.00, -0.00, -1.00, 647.3, 321.2)">t</text><text xml:space="preserve" font-family="HelveticaNeue-LightItalic,Helvetica Neue" font-style="italic" font-size="35.0" fill="#000000" transform="matrix(1.00, 0.00, -0.00, -1.00, 657.6, 321.2)">e</text><text xml:space="preserve" font-family="HelveticaNeue-LightItalic,Helvetica Neue" font-style="italic" font-size="35.0" fill="#000000" transform="matrix(1.00, 0.00, -0.00, -1.00, 675.8, 321.2)">r</text><text xml:space="preserve" font-family="HelveticaNeue-LightItalic,Helvetica Neue" font-style="italic" font-size="35.0" fill="#000000" transform="matrix(1.00, 0.00, -0.00, -1.00, 686.8, 321.2)">a</text><text xml:space="preserve" font-family="HelveticaNeue-LightItalic,Helvetica Neue" font-style="italic" font-size="35.0" fill="#000000" transform="matrix(1.00, 0.00, -0.00, -1.00, 705.0, 321.2)">l</text><text xml:space="preserve" font-family="Menlo-Regular,Menlo" font-size="38.0" fill="#000000" transform="matrix(1.00, 0.00, -0.00, -1.00, 78.9, 161.1)">c</text><text xml:space="preserve" font-family="Menlo-Regular,Menlo" font-size="38.0" fill="#000000" transform="matrix(1.00, 0.00, -0.00, -1.00, 101.7, 161.1)">h</text><text xml:space="preserve" font-family="Menlo-Regular,Menlo" font-size="38.0" fill="#000000" transform="matrix(1.00, 0.00, -0.00, -1.00, 124.6, 161.1)"> </text><text xml:space="preserve" font-family="Menlo-Regular,Menlo" font-size="38.0" fill="#000000" transform="matrix(1.00, 0.00, -0.00, -1.00, 147.5, 161.1)">=</text><text xml:space="preserve" font-family="Menlo-Regular,Menlo" font-size="38.0" fill="#000000" transform="matrix(1.00, 0.00, -0.00, -1.00, 170.4, 161.1)">&gt;</text><text xml:space="preserve" font-family="Menlo-Regular,Menlo" font-size="38.0" fill="#000000" transform="matrix(1.00, 0.00, -0.00, -1.00, 193.3, 161.1)"> </text><text xml:space="preserve" font-family="Menlo-Regular,Menlo" font-size="38.0" fill="#000000" transform="matrix(1.00, 0.00, -0.00, -1.00, 216.1, 161.1)">{</text><text xml:space="preserve" font-family="Menlo-Regular,Menlo" font-size="38.0" fill="#000000" transform="matrix(1.00, 0.00, -0.00, -1.00, 239.0, 161.1)"> </text><text xml:space="preserve" font-family="Menlo-Regular,Menlo" font-size="38.0" fill="#000000" transform="matrix(1.00, 0.00, -0.00, -1.00, 261.9, 161.1)">C</text><text xml:space="preserve" font-family="Menlo-Regular,Menlo" font-size="38.0" fill="#000000" transform="matrix(1.00, 0.00, -0.00, -1.00, 284.8, 161.1)">h</text><text xml:space="preserve" font-family="Menlo-Regular,Menlo" font-size="38.0" fill="#000000" transform="matrix(1.00, 0.00, -0.00, -1.00, 307.7, 161.1)">a</text><text xml:space="preserve" font-family="Menlo-Regular,Menlo" font-size="38.0" fill="#000000" transform="matrix(1.00, 0.00, -0.00, -1.00, 330.6, 161.1)">r</text><text xml:space="preserve" font-family="Menlo-Regular,Menlo" font-size="38.0" fill="#000000" transform="matrix(1.00, 0.00, -0.00, -1.00, 353.4, 161.1)">a</text><text xml:space="preserve" font-family="Menlo-Regular,Menlo" font-size="38.0" fill="#000000" transform="matrix(1.00, 0.00, -0.00, -1.00, 376.3, 161.1)">c</text><text xml:space="preserve" font-family="Menlo-Regular,Menlo" font-size="38.0" fill="#000000" transform="matrix(1.00, 0.00, -0.00, -1.00, 399.2, 161.1)">t</text><text xml:space="preserve" font-family="Menlo-Regular,Menlo" font-size="38.0" fill="#000000" transform="matrix(1.00, 0.00, -0.00, -1.00, 422.1, 161.1)">e</text><text xml:space="preserve" font-family="Menlo-Regular,Menlo" font-size="38.0" fill="#000000" transform="matrix(1.00, 0.00, -0.00, -1.00, 445.0, 161.1)">r</text><text xml:space="preserve" font-family="Menlo-Regular,Menlo" font-size="38.0" fill="#000000" transform="matrix(1.00, 0.00, -0.00, -1.00, 467.8, 161.1)">.</text><text xml:space="preserve" font-family="Menlo-Regular,Menlo" font-size="38.0" fill="#000000" transform="matrix(1.00, 0.00, -0.00, -1.00, 490.7, 161.1)">i</text><text xml:space="preserve" font-family="Menlo-Regular,Menlo" font-size="38.0" fill="#000000" transform="matrix(1.00, 0.00, -0.00, -1.00, 513.6, 161.1)">s</text><text xml:space="preserve" font-family="Menlo-Regular,Menlo" font-size="38.0" fill="#000000" transform="matrix(1.00, 0.00, -0.00, -1.00, 536.5, 161.1)">D</text><text xml:space="preserve" font-family="Menlo-Regular,Menlo" font-size="38.0" fill="#000000" transform="matrix(1.00, 0.00, -0.00, -1.00, 559.4, 161.1)">i</text><text xml:space="preserve" font-family="Menlo-Regular,Menlo" font-size="38.0" fill="#000000" transform="matrix(1.00, 0.00, -0.00, -1.00, 582.3, 161.1)">g</text><text xml:space="preserve" font-family="Menlo-Regular,Menlo" font-size="38.0" fill="#000000" transform="matrix(1.00, 0.00, -0.00, -1.00, 605.1, 161.1)">i</text><text xml:space="preserve" font-family="Menlo-Regular,Menlo" font-size="38.0" fill="#000000" transform="matrix(1.00, 0.00, -0.00, -1.00, 628.0, 161.1)">t</text><text xml:space="preserve" font-family="Menlo-Regular,Menlo" font-size="38.0" fill="#000000" transform="matrix(1.00, 0.00, -0.00, -1.00, 650.8, 161.1)">(</text><text xml:space="preserve" font-family="Menlo-Regular,Menlo" font-size="38.0" fill="#000000" transform="matrix(1.00, 0.00, -0.00, -1.00, 673.7, 161.1)">c</text><text xml:space="preserve" font-family="Menlo-Regular,Menlo" font-size="38.0" fill="#000000" transform="matrix(1.00, 0.00, -0.00, -1.00, 696.6, 161.1)">h</text><text xml:space="preserve" font-family="Menlo-Regular,Menlo" font-size="38.0" fill="#000000" transform="matrix(1.00, 0.00, -0.00, -1.00, 719.5, 161.1)">)</text><text xml:space="preserve" font-family="Menlo-Regular,Menlo" font-size="38.0" fill="#000000" transform="matrix(1.00, 0.00, -0.00, -1.00, 742.3, 161.1)"> </text><text xml:space="preserve" font-family="Menlo-Regular,Menlo" font-size="38.0" fill="#000000" transform="matrix(1.00, 0.00, -0.00, -1.00, 765.2, 161.1)">}</text><path d="M -0.4 0.1 L 913.6 0.1 " fill="none" stroke="#000000" stroke-width="4.00" stroke-linecap="round" stroke-dasharray="0.0, 12.0" transform="matrix(1.00, 0.00, 0.00, -1.00, 34.4, 253.1)"></path><text xml:space="preserve" font-family="HelveticaNeue-LightItalic,Helvetica Neue" font-style="italic" font-size="30.8" fill="#000000" transform="matrix(1.00, 0.00, -0.00, -1.00, 55.3, 105.7)">f</text><text xml:space="preserve" font-family="HelveticaNeue-LightItalic,Helvetica Neue" font-style="italic" font-size="30.8" fill="#000000" transform="matrix(1.00, 0.00, -0.00, -1.00, 63.3, 105.7)">u</text><text xml:space="preserve" font-family="HelveticaNeue-LightItalic,Helvetica Neue" font-style="italic" font-size="30.8" fill="#000000" transform="matrix(1.00, 0.00, -0.00, -1.00, 79.8, 105.7)">n</text><text xml:space="preserve" font-family="HelveticaNeue-LightItalic,Helvetica Neue" font-style="italic" font-size="30.8" fill="#000000" transform="matrix(1.00, 0.00, -0.00, -1.00, 96.4, 105.7)">c</text><text xml:space="preserve" font-family="HelveticaNeue-LightItalic,Helvetica Neue" font-style="italic" font-size="30.8" fill="#000000" transform="matrix(1.00, 0.00, -0.00, -1.00, 112.4, 105.7)">t</text><text xml:space="preserve" font-family="HelveticaNeue-LightItalic,Helvetica Neue" font-style="italic" font-size="30.8" fill="#000000" transform="matrix(1.00, 0.00, -0.00, -1.00, 121.5, 105.7)">i</text><text xml:space="preserve" font-family="HelveticaNeue-LightItalic,Helvetica Neue" font-style="italic" font-size="30.8" fill="#000000" transform="matrix(1.00, 0.00, -0.00, -1.00, 127.2, 105.7)">o</text><text xml:space="preserve" font-family="HelveticaNeue-LightItalic,Helvetica Neue" font-style="italic" font-size="30.8" fill="#000000" transform="matrix(1.00, 0.00, -0.00, -1.00, 144.3, 105.7)">n</text><text xml:space="preserve" font-family="HelveticaNeue-LightItalic,Helvetica Neue" font-style="italic" font-size="30.8" fill="#000000" transform="matrix(1.00, 0.00, -0.00, -1.00, 160.8, 105.7)"> </text><text xml:space="preserve" font-family="HelveticaNeue-LightItalic,Helvetica Neue" font-style="italic" font-size="30.8" fill="#000000" transform="matrix(1.00, 0.00, -0.00, -1.00, 169.4, 105.7)"> </text><text xml:space="preserve" font-family="HelveticaNeue-LightItalic,Helvetica Neue" font-style="italic" font-size="30.8" fill="#000000" transform="matrix(1.00, 0.00, -0.00, -1.00, 44.7, 68.7)">a</text><text xml:space="preserve" font-family="HelveticaNeue-LightItalic,Helvetica Neue" font-style="italic" font-size="30.8" fill="#000000" transform="matrix(1.00, 0.00, -0.00, -1.00, 60.7, 68.7)">r</text><text xml:space="preserve" font-family="HelveticaNeue-LightItalic,Helvetica Neue" font-style="italic" font-size="30.8" fill="#000000" transform="matrix(1.00, 0.00, -0.00, -1.00, 70.4, 68.7)">g</text><text xml:space="preserve" font-family="HelveticaNeue-LightItalic,Helvetica Neue" font-style="italic" font-size="30.8" fill="#000000" transform="matrix(1.00, 0.00, -0.00, -1.00, 87.6, 68.7)">u</text><text xml:space="preserve" font-family="HelveticaNeue-LightItalic,Helvetica Neue" font-style="italic" font-size="30.8" fill="#000000" transform="matrix(1.00, 0.00, -0.00, -1.00, 104.1, 68.7)">m</text><text xml:space="preserve" font-family="HelveticaNeue-LightItalic,Helvetica Neue" font-style="italic" font-size="30.8" fill="#000000" transform="matrix(1.00, 0.00, -0.00, -1.00, 129.8, 68.7)">e</text><text xml:space="preserve" font-family="HelveticaNeue-LightItalic,Helvetica Neue" font-style="italic" font-size="30.8" fill="#000000" transform="matrix(1.00, 0.00, -0.00, -1.00, 145.7, 68.7)">n</text><text xml:space="preserve" font-family="HelveticaNeue-LightItalic,Helvetica Neue" font-style="italic" font-size="30.8" fill="#000000" transform="matrix(1.00, 0.00, -0.00, -1.00, 162.3, 68.7)">t</text><image xlink:href="../../7A682B6E-FB03-41FE-977E-869220D3C4E8/assets/A4053AD6013C4615159BC107754A8284.png" width="295.00" height="150.00" transform="matrix(1.00, 0.00, -0.00, -1.00, -42.4, 218.7)" opacity="0.75"></image><path d="M 0.4 -0.3 L 55.4 -0.3 " fill="none" stroke="#557D8A" stroke-width="4.00" transform="matrix(1.00, 0.00, 0.00, -1.00, 77.6, 145.7)"></path><image xlink:href="../../7A682B6E-FB03-41FE-977E-869220D3C4E8/assets/096E5E4A3945029BBD82D70136C5C9FD.png" width="833.00" height="150.00" transform="matrix(1.00, 0.00, -0.00, -1.00, 84.8, 218.7)" opacity="0.75"></image><path d="M 0.2 -0.3 L 592.2 -0.3 " fill="none" stroke="#557D8A" stroke-width="4.00" transform="matrix(1.00, 0.00, 0.00, -1.00, 204.8, 145.7)"></path><text xml:space="preserve" font-family="HelveticaNeue-LightItalic,Helvetica Neue" font-style="italic" font-size="35.0" fill="#000000" transform="matrix(1.00, 0.00, -0.00, -1.00, 402.7, 104.3)">f</text><text xml:space="preserve" font-family="HelveticaNeue-LightItalic,Helvetica Neue" font-style="italic" font-size="35.0" fill="#000000" transform="matrix(1.00, 0.00, -0.00, -1.00, 411.8, 104.3)">u</text><text xml:space="preserve" font-family="HelveticaNeue-LightItalic,Helvetica Neue" font-style="italic" font-size="35.0" fill="#000000" transform="matrix(1.00, 0.00, -0.00, -1.00, 430.6, 104.3)">n</text><text xml:space="preserve" font-family="HelveticaNeue-LightItalic,Helvetica Neue" font-style="italic" font-size="35.0" fill="#000000" transform="matrix(1.00, 0.00, -0.00, -1.00, 449.3, 104.3)">c</text><text xml:space="preserve" font-family="HelveticaNeue-LightItalic,Helvetica Neue" font-style="italic" font-size="35.0" fill="#000000" transform="matrix(1.00, 0.00, -0.00, -1.00, 467.5, 104.3)">t</text><text xml:space="preserve" font-family="HelveticaNeue-LightItalic,Helvetica Neue" font-style="italic" font-size="35.0" fill="#000000" transform="matrix(1.00, 0.00, -0.00, -1.00, 477.9, 104.3)">i</text><text xml:space="preserve" font-family="HelveticaNeue-LightItalic,Helvetica Neue" font-style="italic" font-size="35.0" fill="#000000" transform="matrix(1.00, 0.00, -0.00, -1.00, 484.3, 104.3)">o</text><text xml:space="preserve" font-family="HelveticaNeue-LightItalic,Helvetica Neue" font-style="italic" font-size="35.0" fill="#000000" transform="matrix(1.00, 0.00, -0.00, -1.00, 503.8, 104.3)">n</text><text xml:space="preserve" font-family="HelveticaNeue-LightItalic,Helvetica Neue" font-style="italic" font-size="35.0" fill="#000000" transform="matrix(1.00, 0.00, -0.00, -1.00, 522.6, 104.3)"> </text><text xml:space="preserve" font-family="HelveticaNeue-LightItalic,Helvetica Neue" font-style="italic" font-size="35.0" fill="#000000" transform="matrix(1.00, 0.00, -0.00, -1.00, 532.3, 104.3)">b</text><text xml:space="preserve" font-family="HelveticaNeue-LightItalic,Helvetica Neue" font-style="italic" font-size="35.0" fill="#000000" transform="matrix(1.00, 0.00, -0.00, -1.00, 552.4, 104.3)">o</text><text xml:space="preserve" font-family="HelveticaNeue-LightItalic,Helvetica Neue" font-style="italic" font-size="35.0" fill="#000000" transform="matrix(1.00, 0.00, -0.00, -1.00, 571.9, 104.3)">d</text><text xml:space="preserve" font-family="HelveticaNeue-LightItalic,Helvetica Neue" font-style="italic" font-size="35.0" fill="#000000" transform="matrix(1.00, 0.00, -0.00, -1.00, 592.0, 104.3)">y</text></g></svg>