<?xml version="1.0" encoding="UTF-8" standalone="no"?><svg xmlns="http://www.w3.org/2000/svg" xmlns:xlink="http://www.w3.org/1999/xlink" clip-rule="evenodd" stroke-miterlimit="10" viewBox="0 0 218 30"><desc>SVG generated by Keynote</desc><defs></defs><g transform="matrix(1.00, 0.00, -0.00, -1.00, 0.0, 30.0)"><text xml:space="preserve" font-family="HelveticaNeue-Light,Helvetica Neue" font-size="35.0" fill="#000000" transform="matrix(1.00, 0.00, -0.00, -1.00, -0.3, 3.2)">i</text><text xml:space="preserve" font-family="HelveticaNeue-Light,Helvetica Neue" font-size="35.0" fill="#000000" transform="matrix(1.00, 0.00, -0.00, -1.00, 6.2, 3.2)">s</text><text xml:space="preserve" font-family="HelveticaNeue-Light,Helvetica Neue" font-size="35.0" fill="#000000" transform="matrix(1.00, 0.00, -0.00, -1.00, 23.0, 3.2)"> </text><text xml:space="preserve" font-family="HelveticaNeue-Light,Helvetica Neue" font-size="35.0" fill="#000000" transform="matrix(1.00, 0.00, -0.00, -1.00, 32.7, 3.2)">t</text><text xml:space="preserve" font-family="HelveticaNeue-Light,Helvetica Neue" font-size="35.0" fill="#000000" transform="matrix(1.00, 0.00, -0.00, -1.00, 43.1, 3.2)">h</text><text xml:space="preserve" font-family="HelveticaNeue-Light,Helvetica Neue" font-size="35.0" fill="#000000" transform="matrix(1.00, 0.00, -0.00, -1.00, 61.9, 3.2)">e</text><text xml:space="preserve" font-family="HelveticaNeue-Light,Helvetica Neue" font-size="35.0" fill="#000000" transform="matrix(1.00, 0.00, -0.00, -1.00, 80.1, 3.2)"> </text><text xml:space="preserve" font-family="HelveticaNeue-Light,Helvetica Neue" font-size="35.0" fill="#000000" transform="matrix(1.00, 0.00, -0.00, -1.00, 89.8, 3.2)">s</text><text xml:space="preserve" font-family="HelveticaNeue-Light,Helvetica Neue" font-size="35.0" fill="#000000" transform="matrix(1.00, 0.00, -0.00, -1.00, 106.6, 3.2)">a</text><text xml:space="preserve" font-family="HelveticaNeue-Light,Helvetica Neue" font-size="35.0" fill="#000000" transform="matrix(1.00, 0.00, -0.00, -1.00, 124.8, 3.2)">m</text><text xml:space="preserve" font-family="HelveticaNeue-Light,Helvetica Neue" font-size="35.0" fill="#000000" transform="matrix(1.00, 0.00, -0.00, -1.00, 153.9, 3.2)">e</text><text xml:space="preserve" font-family="HelveticaNeue-Light,Helvetica Neue" font-size="35.0" fill="#000000" transform="matrix(1.00, 0.00, -0.00, -1.00, 172.1, 3.2)"> </text><text xml:space="preserve" font-family="HelveticaNeue-Light,Helvetica Neue" font-size="35.0" fill="#000000" transform="matrix(1.00, 0.00, -0.00, -1.00, 181.8, 3.2)">a</text><text xml:space="preserve" font-family="HelveticaNeue-Light,Helvetica Neue" font-size="35.0" fill="#000000" transform="matrix(1.00, 0.00, -0.00, -1.00, 200.0, 3.2)">s</text></g></svg>