<?xml version="1.0" encoding="UTF-8" standalone="no"?><svg xmlns="http://www.w3.org/2000/svg" xmlns:xlink="http://www.w3.org/1999/xlink" clip-rule="evenodd" stroke-miterlimit="10" viewBox="0 0 743 62"><desc>SVG generated by Keynote</desc><defs></defs><g transform="matrix(1.00, 0.00, -0.00, -1.00, 0.0, 62.0)"><text xml:space="preserve" font-family="HelveticaNeue-Medium,Helvetica Neue" font-size="62.0" fill="#000000" transform="matrix(1.00, 0.00, -0.00, -1.00, -0.4, 14.8)">S</text><text xml:space="preserve" font-family="HelveticaNeue-Medium,Helvetica Neue" font-size="62.0" fill="#000000" transform="matrix(1.00, 0.00, -0.00, -1.00, 39.8, 14.8)">u</text><text xml:space="preserve" font-family="HelveticaNeue-Medium,Helvetica Neue" font-size="62.0" fill="#000000" transform="matrix(1.00, 0.00, -0.00, -1.00, 75.5, 14.8)">p</text><text xml:space="preserve" font-family="HelveticaNeue-Medium,Helvetica Neue" font-size="62.0" fill="#000000" transform="matrix(1.00, 0.00, -0.00, -1.00, 113.4, 14.8)">p</text><text xml:space="preserve" font-family="HelveticaNeue-Medium,Helvetica Neue" font-size="62.0" fill="#000000" transform="matrix(1.00, 0.00, -0.00, -1.00, 151.3, 14.8)">o</text><text xml:space="preserve" font-family="HelveticaNeue-Medium,Helvetica Neue" font-size="62.0" fill="#000000" transform="matrix(1.00, 0.00, -0.00, -1.00, 188.1, 14.8)">r</text><text xml:space="preserve" font-family="HelveticaNeue-Medium,Helvetica Neue" font-size="62.0" fill="#000000" transform="matrix(1.00, 0.00, -0.00, -1.00, 209.9, 14.8)">t</text><text xml:space="preserve" font-family="HelveticaNeue-Medium,Helvetica Neue" font-size="62.0" fill="#000000" transform="matrix(1.00, 0.00, -0.00, -1.00, 230.6, 14.8)"> </text><text xml:space="preserve" font-family="HelveticaNeue-Medium,Helvetica Neue" font-size="62.0" fill="#000000" transform="matrix(1.00, 0.00, -0.00, -1.00, 247.8, 14.8)">p</text><text xml:space="preserve" font-family="HelveticaNeue-Medium,Helvetica Neue" font-size="62.0" fill="#000000" transform="matrix(1.00, 0.00, -0.00, -1.00, 285.7, 14.8)">a</text><text xml:space="preserve" font-family="HelveticaNeue-Medium,Helvetica Neue" font-size="62.0" fill="#000000" transform="matrix(1.00, 0.00, -0.00, -1.00, 320.2, 14.8)">r</text><text xml:space="preserve" font-family="HelveticaNeue-Medium,Helvetica Neue" font-size="62.0" fill="#000000" transform="matrix(1.00, 0.00, -0.00, -1.00, 342.0, 14.8)">s</text><text xml:space="preserve" font-family="HelveticaNeue-Medium,Helvetica Neue" font-size="62.0" fill="#000000" transform="matrix(1.00, 0.00, -0.00, -1.00, 374.2, 14.8)">i</text><text xml:space="preserve" font-family="HelveticaNeue-Medium,Helvetica Neue" font-size="62.0" fill="#000000" transform="matrix(1.00, 0.00, -0.00, -1.00, 389.2, 14.8)">n</text><text xml:space="preserve" font-family="HelveticaNeue-Medium,Helvetica Neue" font-size="62.0" fill="#000000" transform="matrix(1.00, 0.00, -0.00, -1.00, 424.8, 14.8)">g</text><text xml:space="preserve" font-family="HelveticaNeue-Medium,Helvetica Neue" font-size="62.0" fill="#000000" transform="matrix(1.00, 0.00, -0.00, -1.00, 461.6, 14.8)"> </text><text xml:space="preserve" font-family="HelveticaNeue-Medium,Helvetica Neue" font-size="62.0" fill="#000000" transform="matrix(1.00, 0.00, -0.00, -1.00, 478.8, 14.8)">f</text><text xml:space="preserve" font-family="HelveticaNeue-Medium,Helvetica Neue" font-size="62.0" fill="#000000" transform="matrix(1.00, 0.00, -0.00, -1.00, 498.4, 14.8)">r</text><text xml:space="preserve" font-family="HelveticaNeue-Medium,Helvetica Neue" font-size="62.0" fill="#000000" transform="matrix(1.00, 0.00, -0.00, -1.00, 519.1, 14.8)">o</text><text xml:space="preserve" font-family="HelveticaNeue-Medium,Helvetica Neue" font-size="62.0" fill="#000000" transform="matrix(1.00, 0.00, -0.00, -1.00, 555.9, 14.8)">m</text><text xml:space="preserve" font-family="HelveticaNeue-Medium,Helvetica Neue" font-size="62.0" fill="#000000" transform="matrix(1.00, 0.00, -0.00, -1.00, 609.9, 14.8)"> </text><text xml:space="preserve" font-family="HelveticaNeue-Medium,Helvetica Neue" font-size="62.0" fill="#000000" transform="matrix(1.00, 0.00, -0.00, -1.00, 627.1, 14.8)">ï¬</text><text xml:space="preserve" font-family="HelveticaNeue-Medium,Helvetica Neue" font-size="62.0" fill="#000000" transform="matrix(1.00, 0.00, -0.00, -1.00, 661.6, 14.8)">l</text><text xml:space="preserve" font-family="HelveticaNeue-Medium,Helvetica Neue" font-size="62.0" fill="#000000" transform="matrix(1.00, 0.00, -0.00, -1.00, 676.6, 14.8)">e</text><text xml:space="preserve" font-family="HelveticaNeue-Medium,Helvetica Neue" font-size="62.0" fill="#000000" transform="matrix(1.00, 0.00, -0.00, -1.00, 711.1, 14.8)">s</text></g></svg>