<?xml version="1.0" encoding="UTF-8" standalone="no"?><svg xmlns="http://www.w3.org/2000/svg" xmlns:xlink="http://www.w3.org/1999/xlink" clip-rule="evenodd" stroke-miterlimit="10" viewBox="0 0 32 40"><desc>SVG generated by Keynote</desc><defs><linearGradient id="gradSh1.49" x1="0.0" y1="0.0" x2="100.0" y2="0.0" gradientUnits="userSpaceOnUse" gradientTransform="matrix(0.00, -0.20, -0.19, 0.00, 11.5, 32.0)"><stop offset="0.00000" stop-color="#FF280E"></stop><stop offset="0.00733" stop-color="#FE280E"></stop><stop offset="0.03079" stop-color="#FD2810"></stop><stop offset="0.03446" stop-color="#FC2810"></stop><stop offset="0.39516" stop-color="#E23020"></stop><stop offset="0.40249" stop-color="#E13020"></stop><stop offset="1.00000" stop-color="#B63C3A"></stop></linearGradient></defs><g transform="matrix(1.00, 0.00, -0.00, -1.00, 0.0, 40.0)"><g><clipPath id="clip0x6180020afb40"><path d="M 1.7 4.5 L 28.9 4.5 L 28.9 33.0 L 1.7 33.0 Z M 1.7 4.5 "></path></clipPath><g clip-path="url(#clip0x6180020afb40)"><image xlink:href="../../0F71059D-F96C-4F80-B67E-C8BFC3EC81A1/assets/9BBBEBAE691AA48028ED16DE7E1CBDF5.png" width="25.00" height="26.00" transform="matrix(1.01, 0.00, -0.00, -1.02, 2.7, 32.0)" opacity="0.50"></image></g></g><g><clipPath id="clip0x6180020af060"><path d="M 3.0 31.0 L 20.0 31.0 L 20.0 13.0 L 3.0 13.0 Z M 3.2 31.5 "></path></clipPath><g clip-path="url(#clip0x6180020af060)"><g><clipPath id="clip0x6180024afd80"><path d="M 1.7 4.5 L 28.9 4.5 L 28.9 33.0 L 1.7 33.0 Z M 1.7 4.5 "></path></clipPath><g clip-path="url(#clip0x6180024afd80)"><path d="M 1.7 4.5 L 28.9 4.5 L 28.9 33.0 L 1.7 33.0 Z M 1.7 4.5 " fill="url(#gradSh1.49)"></path></g></g></g></g><g><clipPath id="clip0x6180026b0080"><path d="M 0.4 0.5 L 31.0 0.5 L 31.0 39.0 L 0.4 39.0 Z M 0.4 0.5 "></path></clipPath><g clip-path="url(#clip0x6180026b0080)"><image xlink:href="../../FAFFCD48-36AE-41AF-8B5F-667F821EA1C1/assets/868EFD3C3A74B9C329B44542FD3FFBFF.png" width="29.00" height="37.00" transform="matrix(0.99, 0.00, -0.00, -0.99, 1.4, 38.0)" opacity="0.50"></image></g></g><g><clipPath id="clip0x6180026b00e0"><path d="M 0.8 7.5 L 23.6 7.5 L 23.6 38.6 L 0.8 38.6 Z M 0.8 7.5 "></path></clipPath><g clip-path="url(#clip0x6180026b00e0)"><text xml:space="preserve" font-family="HelveticaNeue-Medium,Helvetica Neue" font-size="17.0" fill="#FEFFFE" transform="matrix(1.00, 0.00, -0.00, -1.00, 6.4, 16.7)">∆</text></g></g></g></svg>