<?xml version="1.0" encoding="UTF-8" standalone="no"?><svg xmlns="http://www.w3.org/2000/svg" xmlns:xlink="http://www.w3.org/1999/xlink" clip-rule="evenodd" stroke-miterlimit="10" viewBox="0 0 44 66"><desc>SVG generated by Keynote</desc><defs><linearGradient id="gradSh1.50" x1="0.0" y1="0.0" x2="100.0" y2="0.0" gradientUnits="userSpaceOnUse" gradientTransform="matrix(0.00, -0.30, -0.27, 0.00, 17.5, 46.0)"><stop offset="0.00000" stop-color="#FF280E"></stop><stop offset="0.00733" stop-color="#FE280E"></stop><stop offset="0.03079" stop-color="#FD2810"></stop><stop offset="0.03446" stop-color="#FC2810"></stop><stop offset="0.39516" stop-color="#E23020"></stop><stop offset="0.40249" stop-color="#E13020"></stop><stop offset="1.00000" stop-color="#B63C3A"></stop></linearGradient></defs><g transform="matrix(1.00, 0.00, -0.00, -1.00, 0.0, 66.0)"><g><clipPath id="clip0x610002ab7ca0"><path d="M 3.5 8.7 L 38.9 8.7 L 38.9 46.1 L 3.5 46.1 Z M 3.5 8.7 "></path></clipPath><g clip-path="url(#clip0x610002ab7ca0)"><image xlink:href="../../0F71059D-F96C-4F80-B67E-C8BFC3EC81A1/assets/FFD587004F52D917710728D6A285249E.png" width="33.00" height="35.00" transform="matrix(1.01, 0.00, -0.00, -1.01, 4.5, 45.1)" opacity="0.50"></image></g></g><g><clipPath id="clip0x610002ab7d00"><path d="M 5.0 45.0 L 30.0 45.0 L 30.0 17.0 L 5.0 17.0 Z M 5.0 44.7 "></path></clipPath><g clip-path="url(#clip0x610002ab7d00)"><g><clipPath id="clip0x610002ab7be0"><path d="M 3.5 8.7 L 38.9 8.7 L 38.9 46.1 L 3.5 46.1 Z M 3.5 8.7 "></path></clipPath><g clip-path="url(#clip0x610002ab7be0)"><path d="M 3.5 8.7 L 38.9 8.7 L 38.9 46.1 L 3.5 46.1 Z M 3.5 8.7 " fill="url(#gradSh1.50)"></path></g></g></g></g><g><clipPath id="clip0x610002cb8180"><path d="M 0.0 0.0 L 43.0 0.0 L 43.0 65.9 L 0.0 65.9 Z M 0.0 0.0 "></path></clipPath><g clip-path="url(#clip0x610002cb8180)"><image xlink:href="../../FAFFCD48-36AE-41AF-8B5F-667F821EA1C1/assets/C9D80E6DF8477F20697FF56E9AAE37D1.png" width="41.00" height="64.00" transform="matrix(1.00, 0.00, -0.00, -1.00, 1.0, 64.9)" opacity="0.50"></image></g></g><g><clipPath id="clip0x610002cb81e0"><path d="M -6.4 -0.5 L 42.4 -0.5 L 42.4 72.3 L -6.4 72.3 Z M -6.4 -0.5 "></path></clipPath><g clip-path="url(#clip0x610002cb81e0)"><text xml:space="preserve" font-family="HelveticaNeue-Medium,Helvetica Neue" font-size="40.0" fill="#FEFFFE" transform="matrix(1.00, 0.00, -0.00, -1.00, 6.0, 21.2)">+</text></g></g></g></svg>