<?xml version="1.0" encoding="UTF-8" standalone="no"?><svg xmlns="http://www.w3.org/2000/svg" xmlns:xlink="http://www.w3.org/1999/xlink" clip-rule="evenodd" stroke-miterlimit="10" viewBox="0 0 32 43"><desc>SVG generated by Keynote</desc><defs><linearGradient id="gradSh1.75" x1="0.0" y1="0.0" x2="100.0" y2="0.0" gradientUnits="userSpaceOnUse" gradientTransform="matrix(0.00, -0.20, -0.19, 0.00, 13.5, 32.0)"><stop offset="0.00000" stop-color="#FF280E"></stop><stop offset="0.00733" stop-color="#FE280E"></stop><stop offset="0.03079" stop-color="#FD2810"></stop><stop offset="0.03446" stop-color="#FC2810"></stop><stop offset="0.39516" stop-color="#E23020"></stop><stop offset="0.40249" stop-color="#E13020"></stop><stop offset="1.00000" stop-color="#B63C3A"></stop></linearGradient></defs><g transform="matrix(1.00, 0.00, -0.00, -1.00, 0.0, 43.0)"><g><clipPath id="clip0x6100038b5300"><path d="M 3.3 4.5 L 30.4 4.5 L 30.4 33.0 L 3.3 33.0 Z M 3.3 4.5 "></path></clipPath><g clip-path="url(#clip0x6100038b5300)"><image xlink:href="../../2842107B-A6DD-41FA-985C-1B36263EEB52/assets/0854DE48B1307F7C98A85B421A7AB1AD.png" width="25.00" height="26.00" transform="matrix(1.01, 0.00, -0.00, -1.02, 4.3, 32.0)" opacity="0.50"></image></g></g><g><clipPath id="clip0x6100038b4820"><path d="M 5.0 31.0 L 22.0 31.0 L 22.0 13.0 L 5.0 13.0 Z M 4.7 31.5 "></path></clipPath><g clip-path="url(#clip0x6100038b4820)"><g><clipPath id="clip0x610003cb5540"><path d="M 3.3 4.5 L 30.4 4.5 L 30.4 33.0 L 3.3 33.0 Z M 3.3 4.5 "></path></clipPath><g clip-path="url(#clip0x610003cb5540)"><path d="M 3.3 4.5 L 30.4 4.5 L 30.4 33.0 L 3.3 33.0 Z M 3.3 4.5 " fill="url(#gradSh1.75)"></path></g></g></g></g><g><clipPath id="clip0x610003eb5840"><path d="M 0.8 0.6 L 31.8 0.6 L 31.8 43.0 L 0.8 43.0 Z M 0.8 0.6 "></path></clipPath><g clip-path="url(#clip0x610003eb5840)"><image xlink:href="../../5E12F62A-307D-4FF4-844D-F51B2C2857DC/assets/1599012E2D0298B4218BAD95493D10D3.png" width="29.00" height="40.00" transform="matrix(1.00, 0.00, -0.00, -1.01, 1.8, 42.0)" opacity="0.50"></image></g></g><g><clipPath id="clip0x610003eb58a0"><path d="M 0.3 6.6 L 25.2 6.6 L 25.2 43.5 L 0.3 43.5 Z M 0.3 6.6 "></path></clipPath><g clip-path="url(#clip0x610003eb58a0)"><text xml:space="preserve" font-family="HelveticaNeue-Medium,Helvetica Neue" font-size="20.0" fill="#FEFFFE" transform="matrix(1.00, 0.00, -0.00, -1.00, 6.7, 17.4)">+</text></g></g></g></svg>