<?xml version="1.0" encoding="UTF-8" standalone="no"?><svg xmlns="http://www.w3.org/2000/svg" xmlns:xlink="http://www.w3.org/1999/xlink" clip-rule="evenodd" stroke-miterlimit="10" viewBox="0 0 32 43"><desc>SVG generated by Keynote</desc><defs><linearGradient id="gradSh1.66" x1="0.0" y1="0.0" x2="100.0" y2="0.0" gradientUnits="userSpaceOnUse" gradientTransform="matrix(0.00, -0.20, -0.19, 0.00, 13.5, 32.0)"><stop offset="0.00000" stop-color="#FF280E"></stop><stop offset="0.00733" stop-color="#FE280E"></stop><stop offset="0.03079" stop-color="#FD2810"></stop><stop offset="0.03446" stop-color="#FC2810"></stop><stop offset="0.39516" stop-color="#E23020"></stop><stop offset="0.40249" stop-color="#E13020"></stop><stop offset="1.00000" stop-color="#B63C3A"></stop></linearGradient></defs><g transform="matrix(1.00, 0.00, -0.00, -1.00, 0.0, 43.0)"><g><clipPath id="clip0x6100030bf7a0"><path d="M 3.0 4.5 L 30.2 4.5 L 30.2 33.0 L 3.0 33.0 Z M 3.0 4.5 "></path></clipPath><g clip-path="url(#clip0x6100030bf7a0)"><image xlink:href="../../294DFA3E-AA06-4DC1-ABAF-94C157FE13FC/assets/3D02B3C743DA422A4930A7F06342E655.png" width="25.00" height="26.00" transform="matrix(1.01, 0.00, -0.00, -1.02, 4.0, 32.0)" opacity="0.50"></image></g></g><g><clipPath id="clip0x6100030bf800"><path d="M 5.0 31.0 L 22.0 31.0 L 22.0 13.0 L 5.0 13.0 Z M 4.5 31.5 "></path></clipPath><g clip-path="url(#clip0x6100030bf800)"><g><clipPath id="clip0x6100030bfb60"><path d="M 3.0 4.5 L 30.2 4.5 L 30.2 33.0 L 3.0 33.0 Z M 3.0 4.5 "></path></clipPath><g clip-path="url(#clip0x6100030bfb60)"><path d="M 3.0 4.5 L 30.2 4.5 L 30.2 33.0 L 3.0 33.0 Z M 3.0 4.5 " fill="url(#gradSh1.66)"></path></g></g></g></g><g><clipPath id="clip0x6100032bfe60"><path d="M 0.5 0.6 L 31.5 0.6 L 31.5 43.0 L 0.5 43.0 Z M 0.5 0.6 "></path></clipPath><g clip-path="url(#clip0x6100032bfe60)"><image xlink:href="../../5E12F62A-307D-4FF4-844D-F51B2C2857DC/assets/1599012E2D0298B4218BAD95493D10D3.png" width="29.00" height="40.00" transform="matrix(1.00, 0.00, -0.00, -1.01, 1.5, 42.0)" opacity="0.50"></image></g></g><g><clipPath id="clip0x6100032bfec0"><path d="M 0.0 6.6 L 25.0 6.6 L 25.0 43.5 L 0.0 43.5 Z M 0.0 6.6 "></path></clipPath><g clip-path="url(#clip0x6100032bfec0)"><text xml:space="preserve" font-family="HelveticaNeue-Medium,Helvetica Neue" font-size="20.0" fill="#FEFFFE" transform="matrix(1.00, 0.00, -0.00, -1.00, 6.5, 17.4)">+</text></g></g></g></svg>